<svg width="638" height="134" viewBox="0 0 638 134" fill="none" xmlns="http://www.w3.org/2000/svg">
<path d="M233.956 105.9C246.156 121 257.756 120.7 267.156 116.6C275.756 112.8 280.256 102.7 278.756 91.4C278.556 91.5 278.156 91.5 278.156 91.7C272.656 105.1 258.756 107 247.856 104C238.156 101.4 233.156 94.4 231.656 84.8C231.156 81.3 230.856 77.7 230.856 74.1C230.756 59.6 230.856 45.2 230.856 30.4H248.156C248.256 31.7 248.356 33.1 248.356 34.5C248.356 46.3 248.356 58.1 248.356 69.9C248.356 72.4 248.556 74.9 248.956 77.4C250.356 86.8 256.156 90.5 265.556 88C273.156 86 278.256 79 278.756 68.7C279.256 57.7 279.156 46.7 279.256 35.7C279.256 34 279.256 32.3 279.256 30.3H296.056C296.256 30.9 296.356 31.5 296.456 32.2C296.456 53.7 296.956 75.2 296.256 96.7C295.356 122.1 273.756 137.6 248.756 131.7C240.456 129.7 232.856 126.4 226.856 120.1C225.056 118.2 224.756 116.8 226.656 114.7C229.256 112.1 231.356 109.1 233.956 105.9Z" fill="black"/>
<path d="M129.756 31.2V42.2C124.356 34.4 116.656 29.5 108.056 29.5C91.9565 29.5 78.8564 46.8 78.8564 68.1C78.8564 89.4 91.9565 106.7 108.056 106.7C116.656 106.7 124.356 101.8 129.756 94V106.7H147.356V31.2H129.756ZM113.056 90.8C103.556 90.8 95.7564 80.6 95.7564 68C95.7564 55.4 103.456 45.2 113.056 45.2C122.656 45.2 130.356 55.4 130.356 68C130.356 80.6 122.656 90.8 113.056 90.8Z" fill="black"/>
<path d="M436.356 31.2V42.2C431.056 34.4 423.256 29.5 414.656 29.5C398.556 29.5 385.456 46.8 385.456 68.1C385.456 89.4 398.556 106.7 414.656 106.7C423.256 106.7 430.956 101.8 436.356 94V106.7H453.956V31.2H436.356ZM419.756 90.8C410.256 90.8 402.456 80.6 402.456 68C402.456 55.4 410.156 45.2 419.756 45.2C429.356 45.2 437.056 55.4 437.056 68C437.056 80.6 429.256 90.8 419.756 90.8Z" fill="black"/>
<path d="M620.356 31.2V42.2C615.056 34.4 607.256 29.5 598.656 29.5C582.556 29.5 569.456 46.8 569.456 68.1C569.456 89.4 582.556 106.7 598.656 106.7C607.256 106.7 614.956 101.8 620.356 94V106.7H637.956V31.2H620.356ZM603.756 90.8C594.256 90.8 586.456 80.6 586.456 68C586.456 55.4 594.156 45.2 603.756 45.2C613.356 45.2 621.056 55.4 621.056 68C621.056 80.6 613.256 90.8 603.756 90.8Z" fill="black"/>
<path d="M484.956 29.5H466.956V106.7H484.956V29.5Z" fill="black"/>
<path d="M475.956 22.2C482.087 22.2 487.056 17.2304 487.056 11.1C487.056 4.96964 482.087 0 475.956 0C469.826 0 464.856 4.96964 464.856 11.1C464.856 17.2304 469.826 22.2 475.956 22.2Z" fill="#26B15D"/>
<path d="M349.156 30.7C340.756 30.7 333.156 35.1 327.756 42.2V29.5H310.056V134H327.756V95.3C333.156 102.4 340.756 106.8 349.156 106.8C365.656 106.8 379.056 89.8 379.056 68.8C379.056 47.8 365.656 30.7 349.156 30.7ZM344.156 90.8C336.656 90.8 330.356 85.1 327.756 76.9V60.7C330.356 52.6 336.756 46.8 344.156 46.8C353.956 46.8 361.856 56.6 361.856 68.8C361.856 81 353.856 90.8 344.156 90.8Z" fill="black"/>
<path d="M208.156 56.8L220.756 50.2C220.556 44.4 216.656 39.1 211.756 36C206.856 32.9 200.956 31.6 195.056 31C185.656 30 175.556 30.8 167.856 36.1C160.156 41.4 155.556 52.4 159.956 60.7C163.556 67.6 171.556 70.8 179.156 72.2C186.756 73.6 194.756 74.1 201.556 77.6C203.256 78.5 205.056 79.8 205.156 81.7C205.256 83.6 203.956 85.1 202.656 86.3C193.656 93.8 180.256 92.6 172.756 83.6C170.656 81 169.056 78 168.356 74.7L154.456 82C151.556 83.6 162.356 97 163.756 98.2C174.056 107.2 189.556 108.6 202.256 104.4C211.156 101.4 219.556 94.8 221.356 85.6C222.456 79.7 220.756 73.6 216.756 69.1C212.456 64.4 206.156 62.2 199.856 60.9C193.556 59.6 187.256 59.2 181.156 57.3C178.556 56.5 175.556 54.7 175.656 51.9C175.756 49.4 178.556 47.8 180.956 47C186.056 45.3 191.656 44.6 196.856 46.1C202.056 47.6 206.756 51.7 208.156 56.8Z" fill="black"/>
<path d="M547.956 56.8L560.556 50.2C560.356 44.4 556.456 39.1 551.556 36C546.656 32.9 540.756 31.6 534.856 31C525.456 30 515.356 30.8 507.656 36.1C499.956 41.4 495.356 52.4 499.756 60.7C503.356 67.6 511.356 70.8 518.956 72.2C526.556 73.6 534.556 74.1 541.356 77.6C543.056 78.5 544.856 79.8 544.956 81.7C545.056 83.6 543.756 85.1 542.456 86.3C533.456 93.8 520.056 92.6 512.556 83.6C510.456 81 508.856 78 508.156 74.7L494.256 82C491.356 83.6 502.156 97 503.556 98.2C513.856 107.2 529.356 108.6 542.056 104.4C550.956 101.4 559.356 94.8 561.156 85.6C562.256 79.7 560.556 73.6 556.456 69.1C552.156 64.4 545.856 62.2 539.556 60.9C533.256 59.6 526.956 59.3 520.956 57.4C518.356 56.6 515.356 54.8 515.456 52C515.556 49.5 518.356 47.9 520.756 47.1C525.856 45.4 531.456 44.7 536.656 46.2C541.856 47.7 546.556 51.7 547.956 56.8Z" fill="black"/>
<path d="M63.8564 42.6C63.8564 42.6 50.7564 22.6 22.3564 32.6C22.3564 32.6 6.9564 36.8 0.0563965 61.4C0.0563965 61.4 14.2564 84.1 48.8564 76.8C48.8564 76.8 78.4564 69.1 63.8564 42.6ZM45.2564 62.6C39.4564 65.3 30.6564 64.6 24.5564 63C24.1564 62.9 16.2564 60.1 16.6564 59.4C22.4564 48.7 37.5564 38.9 48.0564 49.8C49.1564 50.8 49.9564 52.2 50.3564 53.6C51.2564 57.4 48.5564 61.1 45.2564 62.6Z" fill="black"/>
<path d="M0.156451 68.8C0.156451 68.8 -3.24355 95.6 21.6565 104.4C46.5564 113.2 66.1565 97.1 71.9565 87.1L57.7565 78.7C57.7565 78.7 46.6565 101.7 14.7565 86.8C14.7565 86.8 3.15645 80 0.156451 68.8Z" fill="#26B15D"/>
</svg>
