<svg width="173" height="173" viewBox="0 0 173 173" fill="none" xmlns="http://www.w3.org/2000/svg">
<path d="M134.94 22.49C134.481 22.49 134.041 22.6723 133.717 22.9967C133.392 23.3211 133.21 23.7612 133.21 24.22C133.21 24.6788 133.392 25.1188 133.717 25.4433C134.041 25.7677 134.481 25.95 134.94 25.95C135.399 25.95 135.839 25.7677 136.163 25.4433C136.488 25.1188 136.67 24.6788 136.67 24.22C136.67 23.7612 136.488 23.3211 136.163 22.9967C135.839 22.6723 135.399 22.49 134.94 22.49Z" fill="#F1BC19"/>
<path d="M86.5 20.76C69.0647 20.76 52.3434 27.6862 40.0148 40.0148C27.6862 52.3434 20.76 69.0647 20.76 86.5C20.76 103.935 27.6862 120.657 40.0148 132.985C52.3434 145.314 69.0647 152.24 86.5 152.24C103.935 152.24 120.657 145.314 132.985 132.985C145.314 120.657 152.24 103.935 152.24 86.5C152.24 69.0647 145.314 52.3434 132.985 40.0148C120.657 27.6862 103.935 20.76 86.5 20.76Z" fill="#FCE0A2"/>
<path d="M145.32 20.76C143.485 20.76 141.725 21.4891 140.427 22.7868C139.129 24.0846 138.4 25.8447 138.4 27.68C138.4 29.5153 139.129 31.2754 140.427 32.5732C141.725 33.8709 143.485 34.6 145.32 34.6C147.155 34.6 148.915 33.8709 150.213 32.5732C151.511 31.2754 152.24 29.5153 152.24 27.68C152.24 25.8447 151.511 24.0846 150.213 22.7868C148.915 21.4891 147.155 20.76 145.32 20.76Z" fill="#F1BC19"/>
<path d="M24.22 41.52C23.3024 41.52 22.4223 41.8846 21.7734 42.5334C21.1245 43.1823 20.76 44.0624 20.76 44.98C20.76 45.8977 21.1245 46.7777 21.7734 47.4266C22.4223 48.0755 23.3024 48.44 24.22 48.44C25.1377 48.44 26.0177 48.0755 26.6666 47.4266C27.3155 46.7777 27.68 45.8977 27.68 44.98C27.68 44.0624 27.3155 43.1823 26.6666 42.5334C26.0177 41.8846 25.1377 41.52 24.22 41.52Z" fill="#EE3E54"/>
<path d="M134.94 129.75C134.022 129.75 133.142 130.115 132.493 130.763C131.845 131.412 131.48 132.292 131.48 133.21C131.48 134.128 131.845 135.008 132.493 135.657C133.142 136.305 134.022 136.67 134.94 136.67C135.858 136.67 136.738 136.305 137.387 135.657C138.035 135.008 138.4 134.128 138.4 133.21C138.4 132.292 138.035 131.412 137.387 130.763C136.738 130.115 135.858 129.75 134.94 129.75ZM29.41 128.02C27.5747 128.02 25.8146 128.749 24.5168 130.047C23.2191 131.345 22.49 133.105 22.49 134.94C22.49 136.775 23.2191 138.535 24.5168 139.833C25.8146 141.131 27.5747 141.86 29.41 141.86C31.2453 141.86 33.0054 141.131 34.3032 139.833C35.6009 138.535 36.33 136.775 36.33 134.94C36.33 133.105 35.6009 131.345 34.3032 130.047C33.0054 128.749 31.2453 128.02 29.41 128.02Z" fill="#FBCD59"/>
<path d="M41.52 140.13C40.6023 140.13 39.7223 140.495 39.0734 141.144C38.4245 141.792 38.06 142.672 38.06 143.59C38.06 144.508 38.4245 145.388 39.0734 146.037C39.7223 146.686 40.6023 147.05 41.52 147.05C42.4376 147.05 43.3177 146.686 43.9666 146.037C44.6155 145.388 44.98 144.508 44.98 143.59C44.98 142.672 44.6155 141.792 43.9666 141.144C43.3177 140.495 42.4376 140.13 41.52 140.13Z" fill="#EE3E54"/>
<path d="M115.016 131.539C114.452 131.539 113.893 131.65 113.372 131.866C112.851 132.082 112.377 132.398 111.978 132.797C111.579 133.196 111.263 133.669 111.047 134.191C110.831 134.712 110.72 135.27 110.72 135.834C110.72 136.399 110.831 136.957 111.047 137.478C111.263 137.999 111.579 138.473 111.978 138.872C112.377 139.271 112.851 139.587 113.372 139.803C113.893 140.019 114.452 140.13 115.016 140.13C115.58 140.13 116.138 140.019 116.659 139.803C117.181 139.587 117.654 139.271 118.053 138.872C118.452 138.473 118.768 137.999 118.984 137.478C119.2 136.957 119.311 136.399 119.311 135.834C119.311 135.27 119.2 134.712 118.984 134.191C118.768 133.669 118.452 133.196 118.053 132.797C117.654 132.398 117.181 132.082 116.659 131.866C116.138 131.65 115.58 131.539 115.016 131.539ZM27.68 81.3101C27.2212 81.3101 26.7812 81.4923 26.4567 81.8168C26.1323 82.1412 25.95 82.5812 25.95 83.0401C25.95 83.4989 26.1323 83.9389 26.4567 84.2634C26.7812 84.5878 27.2212 84.7701 27.68 84.7701C28.1388 84.7701 28.5789 84.5878 28.9033 84.2634C29.2277 83.9389 29.41 83.4989 29.41 83.0401C29.41 82.5812 29.2277 82.1412 28.9033 81.8168C28.5789 81.4923 28.1388 81.3101 27.68 81.3101Z" fill="white"/>
<path d="M148.78 51.9C148.321 51.9 147.881 52.0823 147.557 52.4067C147.232 52.7312 147.05 53.1712 147.05 53.63C147.05 54.0888 147.232 54.5289 147.557 54.8533C147.881 55.1778 148.321 55.36 148.78 55.36C149.239 55.36 149.679 55.1778 150.003 54.8533C150.328 54.5289 150.51 54.0888 150.51 53.63C150.51 53.1712 150.328 52.7312 150.003 52.4067C149.679 52.0823 149.239 51.9 148.78 51.9Z" fill="#F1BC19"/>
<path d="M138.4 110.72C137.482 110.72 136.602 111.085 135.953 111.733C135.305 112.382 134.94 113.262 134.94 114.18C134.94 115.098 135.305 115.978 135.953 116.627C136.602 117.275 137.482 117.64 138.4 117.64C139.318 117.64 140.198 117.275 140.847 116.627C141.495 115.978 141.86 115.098 141.86 114.18C141.86 113.262 141.495 112.382 140.847 111.733C140.198 111.085 139.318 110.72 138.4 110.72Z" fill="white"/>
<path d="M85.2457 39.8192C71.2881 40.4766 60.55 52.5001 60.55 66.4733V79.5798H70.93V66.2726C70.93 57.979 77.1874 50.7389 85.4637 50.2026C94.5324 49.6162 102.07 56.7974 102.07 65.7398C102.07 68.6064 104.393 70.9298 107.26 70.9298C110.127 70.9298 112.45 68.6064 112.45 65.7398C112.45 50.9915 100.148 39.1168 85.2457 39.8192Z" fill="#508ECC"/>
<path d="M86.5 42.2119C99.4733 42.2119 110.028 52.7666 110.028 65.7399C110.028 67.2658 108.786 68.5079 107.26 68.5079C105.734 68.5079 104.492 67.2658 104.492 65.7399C104.492 55.8184 96.4215 47.7479 86.5 47.7479C86.1055 47.7479 85.7077 47.76 85.3063 47.786C75.8864 48.3967 68.5063 56.5156 68.5063 66.2728V77.1579H62.9703V66.4734C62.9703 53.4759 72.8036 42.8313 85.3582 42.2396C85.7422 42.2206 86.1211 42.2119 86.5 42.2119ZM86.5 39.7899C86.0831 39.7899 85.6661 39.8003 85.2457 39.8193C71.2881 40.4767 60.55 52.5002 60.55 66.4734V79.5799H70.93V66.2728C70.93 57.9791 77.1874 50.7391 85.4637 50.2028C85.8114 50.1803 86.1574 50.1699 86.5 50.1699C95.0998 50.1699 102.07 57.1401 102.07 65.7399C102.07 68.6065 104.393 70.9299 107.26 70.9299C110.127 70.9299 112.45 68.6065 112.45 65.7399C112.45 51.4086 100.831 39.7899 86.5 39.7899Z" fill="#472B29"/>
<path d="M103.8 124.56H69.2C59.6452 124.56 51.9 116.815 51.9 107.26V83.0399C51.9 79.2183 54.9985 76.1199 58.82 76.1199H114.18C118.002 76.1199 121.1 79.2183 121.1 83.0399V107.26C121.1 116.815 113.355 124.56 103.8 124.56Z" fill="#7DAFE2"/>
<path d="M103.8 124.56H69.2C59.6452 124.56 51.9 116.815 51.9 107.26V83.0399C51.9 79.2183 54.9985 76.1199 58.82 76.1199H114.18C118.002 76.1199 121.1 79.2183 121.1 83.0399V107.26C121.1 116.815 113.355 124.56 103.8 124.56Z" fill="#7DAFE2"/>
<path d="M53.63 84.77H119.37V96.015H53.63V84.77Z" fill="#F1BC19"/>
<path d="M89.96 105.53C89.96 103.618 88.4117 102.07 86.5 102.07C84.5884 102.07 83.04 103.618 83.04 105.53C83.04 106.66 83.5902 107.653 84.4258 108.284L83.04 115.91H89.96L88.5743 108.284C89.4099 107.653 89.96 106.66 89.96 105.53Z" fill="#508ECC"/>
<path d="M114.18 78.5419C116.661 78.5419 118.678 80.5591 118.678 83.0399V107.26C118.678 115.464 112.004 122.138 103.8 122.138H69.2C60.9964 122.138 54.322 115.464 54.322 107.26V83.0399C54.322 80.5591 56.3392 78.5419 58.82 78.5419H114.18ZM114.18 76.1199H58.82C54.9985 76.1199 51.9 79.2183 51.9 83.0399V107.26C51.9 116.815 59.6452 124.56 69.2 124.56H103.8C113.355 124.56 121.1 116.815 121.1 107.26V83.0399C121.1 79.2183 118.002 76.1199 114.18 76.1199Z" fill="#472B29"/>
<path d="M119.37 86.5H113.315C112.838 86.5 112.45 86.1125 112.45 85.635C112.45 85.1575 112.838 84.77 113.315 84.77H119.37C119.847 84.77 120.235 85.1575 120.235 85.635C120.235 86.1125 119.847 86.5 119.37 86.5ZM108.125 86.5H104.665C104.188 86.5 103.8 86.1125 103.8 85.635C103.8 85.1575 104.188 84.77 104.665 84.77H108.125C108.602 84.77 108.99 85.1575 108.99 85.635C108.99 86.1125 108.602 86.5 108.125 86.5ZM99.475 86.5H53.63C53.1525 86.5 52.765 86.1125 52.765 85.635C52.765 85.1575 53.1525 84.77 53.63 84.77H99.475C99.9525 84.77 100.34 85.1575 100.34 85.635C100.34 86.1125 99.9525 86.5 99.475 86.5ZM119.37 96.88H53.63C53.1525 96.88 52.765 96.4925 52.765 96.015C52.765 95.5375 53.1525 95.15 53.63 95.15H119.37C119.847 95.15 120.235 95.5375 120.235 96.015C120.235 96.4925 119.847 96.88 119.37 96.88ZM86.5 102.676C88.0743 102.676 89.3545 103.956 89.3545 105.53C89.3545 106.424 88.9376 107.251 88.2093 107.802C88.0259 107.94 87.9376 108.168 87.9774 108.393L89.2334 115.305H83.7649L85.0209 108.393C85.0624 108.168 84.9724 107.94 84.789 107.802C84.0624 107.251 83.6455 106.424 83.6455 105.53C83.6455 103.956 84.9257 102.676 86.5 102.676ZM86.5 102.07C84.5884 102.07 83.04 103.618 83.04 105.53C83.04 106.66 83.5902 107.653 84.4257 108.284L83.04 115.91H89.96L88.5743 108.284C89.4099 107.653 89.96 106.66 89.96 105.53C89.96 103.618 88.4117 102.07 86.5 102.07Z" fill="#472B29"/>
<path d="M53.3862 95.8379L60.6626 85.4523L61.1599 85.8008L53.8835 96.1863L53.3862 95.8379Z" fill="#472B29"/>
<path d="M59.9428 95.8379L67.2192 85.4523L67.7165 85.8008L60.4401 96.1863L59.9428 95.8379Z" fill="#472B29"/>
<path d="M66.3611 95.8379L73.6375 85.4523L74.1348 85.8008L66.8584 96.1863L66.3611 95.8379Z" fill="#472B29"/>
<path d="M72.9178 95.8379L80.1942 85.4523L80.6915 85.8008L73.4152 96.1863L72.9178 95.8379Z" fill="#472B29"/>
<path d="M79.3361 95.8379L86.6125 85.4523L87.1098 85.8008L79.8334 96.1863L79.3361 95.8379Z" fill="#472B29"/>
<path d="M85.8914 95.8389L93.1677 85.4533L93.665 85.8017L86.3887 96.1873L85.8914 95.8389Z" fill="#472B29"/>
<path d="M92.309 95.8374L99.5853 85.4518L100.083 85.8003L92.8063 96.1858L92.309 95.8374Z" fill="#472B29"/>
<path d="M98.8658 95.8374L106.142 85.4518L106.639 85.8003L99.3631 96.1858L98.8658 95.8374Z" fill="#472B29"/>
<path d="M105.284 95.8374L112.56 85.4519L113.058 85.8003L105.781 96.1858L105.284 95.8374Z" fill="#472B29"/>
<path d="M111.84 95.8357L119.116 85.4501L119.614 85.7986L112.337 96.1841L111.84 95.8357Z" fill="#472B29"/>
</svg>
