<svg width="602" height="179" viewBox="0 0 602 179" fill="none" xmlns="http://www.w3.org/2000/svg">
<path fill-rule="evenodd" clip-rule="evenodd" d="M354.1 139.7C354.5 139.9 354.5 139.9 355.2 139.7C355.8 139.6 355.3 140 356.8 139.7C357.4 139.6 362.4 139.7 363.1 139.7C363.3 139.7 364.6 139.7 364.8 140.2L365.5 139.8C365.8 139.8 365.9 139.8 366.3 139.8C366.5 140 366.9 139.8 367.1 139.8C367.3 140 367.8 140 367.9 139.9C369.4 140 370.6 140 371 140C371.6 140 370.9 140.3 371.5 140.3C372.1 140.3 372 140 372.7 140C373.4 140 375.1 140.1 375.7 140.3C375.7 140.3 376.5 140.7 376.5 140.3L377.5 140.1L378 140.4C377.8 140.8 377.5 141 378.1 141.3C378 141.2 378.3 140.9 378.3 140.6H380.5L381 140.9C381.2 140.8 381.1 140.6 381.8 140.6C382.4 140.6 383.4 141.3 384.3 141.6C384.5 141.5 385 141.3 385.6 141C385.7 141.2 385.6 141.5 385.9 141.6H387.6C387.8 141.5 387.8 141.2 388.2 141C388.9 142.3 391.8 141.4 393.6 142.6C393.8 142.9 392.5 142.3 392.2 142.7C392 142.9 391.6 142.4 391 142.4C390.4 142.4 389.6 142.5 388.7 142.5C388.5 142.5 388.9 143.2 388.1 143.1C387.7 142.8 388.6 142.7 388.2 142.4C388 142.3 387.3 142.5 387.1 142.4C386.9 142.4 387.2 143.2 387 143.2C386.3 143.2 386.7 142.6 386.4 142.7C386.1 142.7 386.3 143 386.1 143.2C385.5 143.4 386.1 142.5 385.1 142.6C384.9 142.6 384.7 143 385.1 143.2C385.9 143.1 385.6 143.9 385.3 143.9C384.3 143.8 384.8 144.6 384.4 144.6C383.9 144.5 384.3 144.1 383.9 143.8C383.9 143.5 384.3 143.8 384.6 143.7V143.3C384.5 143.3 383.7 143 383.3 143C383.1 143.4 383.5 144.2 383.4 144.7C382.9 144.3 382.3 143.8 382.4 143.2C381.9 143.3 382.3 143.9 381.5 143.8C381 143.7 382.2 143.2 381.5 142.6C380.9 142.5 381.5 142.8 381.4 143C381 143 380.6 143 380.4 142.9C380.4 142.9 380.1 142.7 380.1 143.1C380.1 143.5 380.5 143.2 380.5 143.6C380.5 143.8 380.2 143.7 380.1 143.9C380 144.1 380.4 144.6 379.9 144.5C379.5 144.3 379.4 144 379.3 143.9C378.9 143.9 379.5 144.6 378.6 144.5C378.3 144.5 378.2 144.4 378 144.2C377.9 144.1 378 144 378.7 144.2C379.1 144.2 378.7 143.8 378.8 143.7C379.1 143.6 379.4 143.5 379.6 143.3C379.4 143.2 379.9 143 379.3 142.9C378.2 142.9 377.8 144.4 377 144.5C376.4 144.4 376.9 143.3 376.7 142.9C376 142.8 376.3 143.9 376.3 144.4C375.8 144.6 375.5 144.6 375.3 144.4C375 144.3 374.5 143.8 374.4 143.5C374.3 143.6 374.5 144.2 374.5 144.2C373.9 144.4 372.6 144.3 370 144.1C368.5 144 369.3 143.6 368.7 143.4C368.6 143.6 367.3 144.1 366.7 144.1C366.1 144.1 365.4 143.9 353.3 144C352.7 144 352.2 143.9 351.5 143.9C347 143.9 346.4 144 345.3 144.1C344.9 144.1 344.4 144.4 343.7 144.4C343.4 144.4 343.3 144.2 342.9 144.2C342.8 144.2 342.5 144.4 342.4 144.4C342.2 144.4 342.1 144.2 341.9 144.2C341.7 144.2 341.6 144.3 341.4 144.3C341.1 144.3 340.7 144.1 340.3 144.1C340 144.1 339.8 144.5 339.2 144.5C338.6 144.5 339 144.3 338.4 144.3C337.9 144.3 337.5 144.3 337.2 144.3C337 144.3 336.7 144.7 336.4 144.7C336.3 144.7 335.6 144.4 335.4 144.5C335.1 144.6 335.4 144.7 335 144.9L334.4 144.6C334.3 144.7 334.2 144.8 333.6 144.8C333 144.8 333.4 144.6 332.7 144.6C332.1 144.6 332.1 145 331.5 145C330.9 145 331.5 144.8 330.8 144.8C330.4 144.8 330.2 145.1 330 145.1C329.6 145.1 329.2 144.8 329 144.9C328.8 145 328.6 145.2 328 145.3C327.7 145.3 326.6 145 326 145C325.7 145 325.3 145.6 325.2 145.6C324.6 145.6 325 145.2 324.3 145.2C323.7 145.2 323.8 145.7 323.2 145.7C322.6 145.7 322.8 145.3 322.1 145.3C321.8 145.3 321.9 145.6 321.7 145.7C321.5 145.8 320.4 145.7 320.2 145.8C320.1 145.9 320.4 146 320.3 146.1C320.4 146.2 321.1 146.1 321.8 146.1C321.9 146.1 321.9 146.2 322 146.2C322.1 146.2 322.3 146.1 322.4 146.1C322.7 146.1 323 146.1 323.1 146.1L325.3 146H325.8L326 145.9H327C327 145.9 328 145.7 328.1 145.7C328.1 145.7 328.4 145.8 329 145.8C329.4 145.8 329.8 145.8 330.2 145.8C330.2 145.8 330.4 145.9 330.5 145.9C330.6 145.9 330.5 145.8 330.6 145.7C331.1 145.7 331.6 145.7 332.1 145.6C332.9 145.4 333.3 145.4 333.3 145.5C333 145.9 333 146.1 333.3 146.3C333.3 146.3 333.2 146.4 333.9 146.4C334.5 146.4 334.6 146.3 334.8 146.2C334.6 146.1 334.3 145.8 334 145.6C334.6 145.4 335.5 145.2 336.2 145.2C336.8 145.2 337.5 145.4 338.1 145.4C337.7 146.3 338.6 146.3 339.1 146.3C339.7 146.3 340.3 146 341.2 146.1C341.4 146 341.6 145.9 341.6 145.8C341.1 145.7 340.7 145.7 339.1 145.8C339 145.6 338.8 145.7 338.5 145.4C339.4 145.2 340.4 145.2 341.4 145.1L346.1 145C347.3 144.9 347.5 145 346.9 145.3C346.3 145.5 345.5 145.7 344.9 145.8C344.1 146 344.3 146.2 345.6 146.2C347.7 146.4 349.3 146.4 350.4 146.2C351 146.2 352.3 145.9 353 145.9C353.6 145.9 353.5 146.1 353.8 146.1C352.9 146.4 353.4 147.2 353 147.1C352.6 146.9 352.1 146.8 352 146.7C351.8 146.8 351.5 146.8 351.1 146.8C351.1 146.9 351.4 147.2 351.4 147.4C351.1 147.4 350.9 147.4 350.5 147.6C350.1 147.4 350.5 146.7 349.9 146.7C347.9 146.7 346.7 147 345.5 148C345.2 148 345.1 147.8 344.9 147.7L344.4 148C343.8 147.7 343.1 147.6 342.4 147.4C342.2 147.5 341.2 148.3 340.1 148.3C339.5 148.3 339.2 148 339.1 147.9C338.6 147.9 339.3 148.3 338.9 148.3C337.9 148.5 338.1 147.7 337.8 148C337.6 148.4 337.9 149 337.5 149.6C337.4 149.4 337.4 149.3 337.3 149.2C337.1 149.3 337.2 149.6 337.1 149.8C336.3 149.9 335.9 149.9 335.9 149.6C336.7 149.2 336.8 148.5 337.2 148.3L336.8 148.1C334.9 148.4 336.1 149.1 335.4 149.8C334.8 149.6 334.8 149.3 334.2 149C334.2 148.8 334.7 148.8 334.8 148.5V148.3C334.8 148.3 334.5 148.4 334.4 148.6C334 148.4 332.8 147.5 332.6 147.9C332.4 148 332.2 148.3 332.1 148.5C331.8 148.5 331.5 148.4 330.1 148.4C329.7 148.4 330.5 150.1 330.1 150C328.5 150 329.4 149 328.2 148.6C328 148.6 327.8 148.8 327.5 149.2C327.2 149.2 326.9 148.9 326.3 148.9C325.7 148.9 324.4 149.2 323.5 149.3C322.6 149.3 323.6 150.7 323.4 150.6C323 150.4 323 150.2 322.6 150C322.4 150.1 322.7 150.4 322.7 150.6C322.4 150.6 322 150.4 321.8 150.3C321.6 150.4 321.7 150.9 321 150.9C320.4 150.9 319.6 150.7 319.4 150.5C319.3 150.6 319.3 150.7 319.3 150.9C318.2 150.9 316.9 151.1 315.9 150.9L315.3 151.2C315.2 151 315.1 150.8 314.6 150.6C314.4 150.7 314.8 151.3 314.2 151.3C313.6 151.3 314.1 151 313.4 151C311.3 151 292.5 153.2 289.4 153.5C289.4 153.5 289.8 153.8 289.1 154.2C288.8 154.5 288.2 154.3 288.4 154C288.9 153.7 288.6 153.5 288.1 153.6C286.4 153.8 287.6 154.3 287.2 154.4C286.3 154.5 286.2 153.9 286 153.9C285.7 154.2 286.5 154.6 285.1 154.7C284.8 154.5 284.9 154 284.7 153.9C284 153.9 283.7 154.1 283.7 154.7C283.4 154.9 283.4 155.1 282.8 155.1C282.2 155.1 282.2 154.8 281.6 154.8C281.6 154.8 281.3 155.2 279.8 155.4C278.2 155.6 275.4 155.7 274.8 155.7C271.2 155.7 271.3 153.1 271.3 152.2C271.3 149.7 272.6 144.4 280.6 144.4L283.9 144.3L328.7 140.9L346.5 140.4L347.1 140.5L347.8 140.3L354.1 139.7Z" fill="#BB8A2A"/>
<path fill-rule="evenodd" clip-rule="evenodd" d="M312.6 75.8V75C312.6 71.7 312 69.4 310.9 67.9C309.8 66.4 307.9 65.7 305.2 65.7C302.4 65.7 300.3 66.5 298.7 68.2C297.2 69.9 296.4 72.4 296.4 75.8H312.6ZM296.2 80.5C296.2 85.7 296.9 89.4 298.3 91.6C299.7 93.8 302.3 95 306.1 95C309.2 95 311.8 94.2 313.9 92.7C316.1 91.1 317.6 88.9 318.4 86.1H320.3C318.6 93.4 313.5 97 305.1 97C300.3 97 296.3 95.5 293.1 92.5C289.9 89.5 288.3 85.8 288.3 81.4C288.3 76.6 289.9 72.5 293.2 69.2C296.5 65.9 300.6 64.2 305.4 64.2C309.8 64.2 313.4 65.4 316 67.8C318.7 70.1 320.2 73.5 320.6 78.1H296.4V80.5H296.2Z" fill="black"/>
<path fill-rule="evenodd" clip-rule="evenodd" d="M358.3 97.1C355.4 97.1 353 96.4 351.3 95.1C349.6 93.7 348.8 92 348.8 89.8C348.8 86.2 350.6 83.3 354.3 81.2C358 79.1 363.4 78 370.2 78V70.3C370.2 67.3 367.9 65.7 363.4 65.7C361.4 65.7 359.8 66 358.5 66.7C357.2 67.3 356.5 67.9 356.5 68.5C357.1 69 357.6 69.6 358.1 70.2C358.6 70.8 358.9 71.5 358.9 72.2C358.9 73.2 358.6 74.1 357.9 74.7C357.3 75.3 356.5 75.6 355.5 75.6C353.1 75.6 351.9 74.3 351.9 71.8C351.9 69.6 353.1 67.8 355.5 66.3C358 64.8 361.3 64.1 365.4 64.1C369.8 64.1 372.9 64.7 374.5 66C376.1 67.3 376.9 69.5 376.9 72.7V90.5C376.9 91.6 377 92.4 377.2 92.9C377.4 93.3 377.9 93.5 378.7 93.5C380.3 93.5 381.3 92.5 381.7 90.5L383.1 90.7C382.9 92.6 382.2 94.1 380.9 95.3C379.6 96.4 378 96.9 376.1 96.9C372.8 96.9 370.9 95.2 370.6 91.7C369.6 93.3 367.9 94.6 365.7 95.5C363.3 96.6 360.9 97.1 358.3 97.1ZM355.4 87.8C355.4 89.6 356 91.1 357.1 92.2C358.3 93.3 359.8 93.9 361.9 93.9C364.3 93.9 366.3 93.3 367.9 92.2C369.5 91.1 370.3 89.5 370.3 87.5V79.8C365.5 79.8 361.8 80.5 359.2 81.8C356.6 83.2 355.4 85.2 355.4 87.8Z" fill="black"/>
<path fill-rule="evenodd" clip-rule="evenodd" d="M200.9 94.1H207.1V44.6H200.9V42.6H218L230 82.2L242.8 42.6H259.5V44.6H252.9V94.1H259.5V96.1H238.3V94.1H244.7V45.4H244.4L227.9 96.1H225.8L210.5 45.4H209.8V94.1H216.2V96.1H200.9V94.1Z" fill="black"/>
<path fill-rule="evenodd" clip-rule="evenodd" d="M279.3 75.8V75C279.3 71.7 278.7 69.4 277.6 67.9C276.5 66.4 274.6 65.7 271.9 65.7C269.1 65.7 267 66.5 265.4 68.2C263.9 69.9 263.2 72.4 263.2 75.8H279.3ZM262.9 80.5C262.9 85.7 263.6 89.4 265 91.6C266.4 93.8 269 95 272.8 95C275.9 95 278.5 94.2 280.6 92.7C282.8 91.1 284.3 88.9 285.1 86.1H287C285.3 93.4 280.2 97 271.8 97C267 97 263 95.5 259.8 92.5C256.6 89.5 255 85.8 255 81.4C255 76.6 256.6 72.5 259.9 69.2C263.2 65.9 267.3 64.2 272.1 64.2C276.5 64.2 280.1 65.4 282.7 67.8C285.4 70.1 286.9 73.5 287.3 78.1H263.1V80.5H262.9Z" fill="black"/>
<path fill-rule="evenodd" clip-rule="evenodd" d="M319.9 94.7L339.9 66.8H331.6C327.4 66.8 325 69.7 324.2 75.5H322.1L322.6 65.1H347.7V67L327.8 94.3H337C341.6 94.3 344.5 91.1 345.7 84.7H347.6L347.1 96.2H319.9V94.7Z" fill="black"/>
<path fill-rule="evenodd" clip-rule="evenodd" d="M383.7 94.3H388.4V66.8H383.7V65.1H385.3C388.8 65.1 392 64.9 395 64.4V73.4C397.5 67.3 401.8 64.3 407.8 64.3C410.7 64.3 413.1 65.1 414.8 66.6C416.5 68.1 417.4 70.3 417.4 73V94.4H421.9V96.3H405.9V94.4H410.8V72.8C410.8 68.8 409 66.8 405.4 66.8C402.6 66.8 400.2 68.1 398.1 70.7C396.1 73.3 395.1 76.5 395.1 80.3V94.4H399.7V96.3H383.7V94.3Z" fill="black"/>
<path fill-rule="evenodd" clip-rule="evenodd" d="M446 94.1H452.2V44.7H446V42.7H467.8C481.3 42.7 488 46.8 488 55.1C488 58.4 486.8 61.2 484.4 63.4C482 65.6 478.6 67 474.1 67.7V68C479.1 68.8 482.9 70.4 485.7 72.9C488.5 75.3 489.9 78.2 489.9 81.5C489.9 86.1 488 89.7 484.1 92.3C480.2 94.9 474.7 96.1 467.4 96.1H445.9V94.1H446ZM467.1 67C471.9 67 475.1 66.2 476.8 64.5C478.5 62.8 479.3 59.7 479.3 55.3C479.3 51.1 478.4 48.3 476.5 46.9C474.7 45.4 471.5 44.7 466.7 44.7H460.6V67H467.1ZM460.7 94.1H468.2C473 94.1 476.2 93.3 477.9 91.6C479.6 89.9 480.5 86.6 480.5 81.9C480.5 77.2 479.5 73.9 477.6 72C475.6 70 472.3 69.1 467.5 69.1H460.7V94.1Z" fill="black"/>
<path fill-rule="evenodd" clip-rule="evenodd" d="M499.3 97.1C496.4 97.1 494 96.4 492.3 95.1C490.6 93.7 489.8 92 489.8 89.8C489.8 86.2 491.7 83.3 495.3 81.2C499 79.1 504.4 78 511.2 78V70.3C511.2 67.3 508.9 65.7 504.4 65.7C502.4 65.7 500.8 66 499.5 66.7C498.2 67.3 497.5 67.9 497.5 68.5C498.1 69 498.6 69.6 499.1 70.2C499.6 70.8 499.9 71.5 499.9 72.2C499.9 73.2 499.5 74.1 498.9 74.7C498.3 75.3 497.5 75.6 496.5 75.6C494.1 75.6 492.9 74.3 492.9 71.8C492.9 69.6 494.1 67.8 496.5 66.3C499 64.8 502.3 64.1 506.5 64.1C510.9 64.1 514 64.7 515.6 66C517.2 67.3 518 69.5 518 72.7V90.5C518 91.6 518.1 92.4 518.3 92.9C518.5 93.3 519 93.5 519.8 93.5C521.4 93.5 522.4 92.5 522.8 90.5L524.2 90.7C524 92.6 523.3 94.1 522 95.3C520.7 96.4 519.1 96.9 517.2 96.9C513.9 96.9 512 95.2 511.7 91.7C510.7 93.3 509 94.6 506.8 95.5C504.2 96.6 501.9 97.1 499.3 97.1ZM496.3 87.8C496.3 89.6 496.9 91.1 498 92.2C499.2 93.3 500.7 93.9 502.8 93.9C505.2 93.9 507.2 93.3 508.8 92.2C510.4 91.1 511.2 89.5 511.2 87.5V79.8C506.4 79.8 502.7 80.5 500.1 81.8C497.6 83.2 496.3 85.2 496.3 87.8Z" fill="black"/>
<path fill-rule="evenodd" clip-rule="evenodd" d="M524.4 94.3H529.1V66.8H524.4V65.1H525.9C529.4 65.1 532.7 64.9 535.6 64.4V73.4C538.1 67.3 542.4 64.3 548.4 64.3C551.3 64.3 553.7 65.1 555.4 66.6C557.1 68.1 558 70.3 558 73V94.4H562.5V96.3H546.5V94.4H551.4V72.8C551.4 68.8 549.6 66.8 546 66.8C543.2 66.8 540.8 68.1 538.7 70.7C536.7 73.3 535.7 76.5 535.7 80.3V94.4H540.3V96.3H524.3V94.3H524.4Z" fill="black"/>
<path fill-rule="evenodd" clip-rule="evenodd" d="M569.1 44.2H564.6V42.6L575.9 41.8V94.3H580.7V96.2H564.4V94.3H569.2V44.2H569.1ZM590.8 66.8H585.1V65H599.3V66.8H593.9L582.1 76.1L598.5 94.3H602V96.2H585.6V94.3H590L576.1 78.3L590.8 66.8Z" fill="black"/>
<path fill-rule="evenodd" clip-rule="evenodd" d="M257.8 125.5C257.4 127.1 256.7 128.4 255.5 129.3C254.4 130.2 253 130.6 251.4 130.6C249.2 130.6 247.3 129.8 245.8 128.3C244.3 126.7 243.5 124.8 243.5 122.4C243.5 120 244.3 118.1 246 116.6C247.6 115.1 249.4 114.4 251.2 114.4C253.1 114.4 254.7 115.1 256 116.5C257.3 117.9 258 119.8 258 122.1H247L246.9 123.8C246.9 126 247.3 127.5 248 128.5C248.8 129.5 250 130 251.7 130C253 130 254.1 129.6 255.1 128.8C256.1 128 256.8 126.9 257.1 125.4H257.8V125.5ZM254.6 121.5V119.8C254.6 118 254.4 116.8 253.9 116C253.4 115.3 252.5 114.9 251.1 114.9C249.7 114.9 248.6 115.4 248 116.5C247.3 117.6 247 119.2 247 121.5H254.6Z" fill="black"/>
<path fill-rule="evenodd" clip-rule="evenodd" d="M206.4 129.6H210.4V107.5H209.8C207.4 107.5 205.6 108.3 204.3 109.7C203 111.2 202.4 113.5 202.4 116.5H201.9V106.9H222.6V116.5H222.1C221.7 113.1 220.9 110.8 219.8 109.5C218.6 108.2 216.7 107.5 213.9 107.5L213.8 129.6H217.8V130.2H206.4V129.6Z" fill="black"/>
<path fill-rule="evenodd" clip-rule="evenodd" d="M235.7 115.2C234.3 115.2 233.1 115.9 232.1 117.2C231.1 118.5 230.6 120.3 230.6 122.4V129.6H233.4V130.1H224.6V129.6H227.5V107.3H224.6V106.7H230.5V118.8C230.9 117.4 231.7 116.3 232.7 115.5C233.8 114.7 235 114.3 236.3 114.3C237.8 114.3 238.9 114.7 239.8 115.6C240.7 116.5 241.1 117.8 241.1 119.4V129.6H243.9V130.1H235.1V129.6H238V118.3C238.3 116.3 237.4 115.2 235.7 115.2Z" fill="black"/>
<path fill-rule="evenodd" clip-rule="evenodd" d="M285.4 129.6V130.2H273.9V129.6H277.9V107.5H273.9V106.9H286.1C288.8 106.9 291 107.5 292.6 108.7C294.3 109.9 295.1 111.4 295.1 113.3C295.1 117 292 118.9 285.8 118.9H281.4V129.6H285.4ZM285.3 118.2C287.9 118.2 289.5 117.9 290.2 117.2C290.9 116.5 291.3 115 291.3 112.6C291.3 110.7 291 109.3 290.3 108.6C289.6 107.8 288.2 107.4 285.9 107.4H281.4V118.2H285.3Z" fill="black"/>
<path fill-rule="evenodd" clip-rule="evenodd" d="M324.7 125.5C324.3 127.1 323.6 128.4 322.4 129.3C321.3 130.2 319.9 130.6 318.3 130.6C316.1 130.6 314.2 129.8 312.7 128.3C311.2 126.7 310.4 124.8 310.4 122.4C310.4 120 311.2 118.1 312.9 116.6C314.6 115.1 316.3 114.4 318.1 114.4C320 114.4 321.6 115.1 322.9 116.5C324.2 117.9 324.9 119.8 324.9 122.1H313.9L313.8 123.8C313.8 126 314.2 127.5 314.9 128.5C315.7 129.5 316.9 130 318.6 130C319.9 130 321 129.6 322 128.8C323 128 323.7 126.9 324 125.4H324.7V125.5ZM321.5 121.5V119.8C321.5 118 321.3 116.8 320.8 116C320.3 115.3 319.4 114.9 318 114.9C316.6 114.9 315.5 115.4 314.9 116.5C314.2 117.6 313.9 119.2 313.9 121.5H321.5Z" fill="black"/>
<path fill-rule="evenodd" clip-rule="evenodd" d="M363.3 129.7V130.2H354.5V129.7H357.3V115.3H354.5V114.8H360.4V129.7H363.3ZM359.1 107.4C359.7 107.4 360.1 107.6 360.5 107.9C360.9 108.2 361.1 108.5 361.1 109C361.1 109.4 360.9 109.8 360.5 110.1C360.1 110.4 359.6 110.6 359.1 110.6C358.6 110.6 358.1 110.4 357.7 110.1C357.3 109.8 357.1 109.4 357.1 109C357.1 108.5 357.3 108.2 357.6 107.9C358 107.6 358.5 107.4 359.1 107.4Z" fill="black"/>
<path fill-rule="evenodd" clip-rule="evenodd" d="M376.9 125.5C376.6 127.1 375.8 128.4 374.6 129.3C373.5 130.2 372.1 130.6 370.5 130.6C368.3 130.6 366.4 129.8 364.8 128.3C363.3 126.7 362.5 124.8 362.5 122.4C362.5 120 363.3 118.1 365 116.6C366.6 115.1 368.4 114.4 370.2 114.4C372.1 114.4 373.7 115.1 375 116.5C376.3 117.9 377 119.8 377 122.1H366L365.9 123.8C365.9 126 366.3 127.5 367 128.5C367.8 129.5 369 130 370.8 130C372.1 130 373.2 129.6 374.2 128.8C375.2 128 375.9 126.9 376.2 125.4H376.9V125.5ZM373.7 121.5V119.8C373.7 118 373.5 116.8 373 116C372.5 115.3 371.6 114.9 370.2 114.9C368.8 114.9 367.7 115.4 367.1 116.5C366.4 117.6 366.1 119.2 366.1 121.5H373.7Z" fill="black"/>
<path fill-rule="evenodd" clip-rule="evenodd" d="M307.7 114.4C308.5 114.4 309.1 114.6 309.6 115.1C310.2 115.5 310.4 116.1 310.4 116.8C310.4 117.3 310.2 117.6 309.9 118C309.6 118.3 309.1 118.4 308.5 118.4C308 118.4 307.6 118.3 307.3 118C307 117.7 306.8 117.4 306.8 117C306.8 116.6 306.9 116.3 307.2 116C307.5 115.7 307.9 115.6 308.4 115.6C308.8 115.6 309.2 115.7 309.6 116C309.2 115.3 308.4 114.9 307.4 114.9C306.2 114.9 305.1 115.6 304.2 117C303.3 118.4 302.8 120.2 302.8 122.4V129.7H305.7V130.2H296.9V129.7H299.7V115.3H296.9V114.8H302.6L302.8 118.6C303.9 115.8 305.5 114.4 307.7 114.4Z" fill="black"/>
<path fill-rule="evenodd" clip-rule="evenodd" d="M343.9 130.2H335.1V129.7H337.9V118.4C337.9 116.3 337.1 115.2 335.5 115.2C334.2 115.2 333.1 115.9 332.2 117.2C331.3 118.5 330.8 120.3 330.8 122.4V129.6H333.7V130.1H324.9V129.6H327.7V115.2H324.9V114.7H330.6L330.8 118.7C331.3 117.3 332 116.2 332.9 115.5C333.9 114.7 334.9 114.4 336.2 114.4C337.4 114.4 338.4 114.8 339.3 115.6C340.2 116.4 340.7 117.5 340.9 118.8C341.4 117.4 342.1 116.3 343 115.5C344 114.7 345.1 114.3 346.3 114.3C347.8 114.3 348.9 114.7 349.8 115.6C350.6 116.5 351.1 117.7 351.1 119.4V129.6H354V130.1H345.2V129.6H348.1V118.3C348.1 116.2 347.3 115.1 345.7 115.1C344.4 115.1 343.4 115.8 342.4 117.1C341.5 118.4 341 120.2 341 122.4V129.6H343.8V130.2H343.9Z" fill="black"/>
<path fill-rule="evenodd" clip-rule="evenodd" d="M388.1 114.4C388.9 114.4 389.5 114.6 390 115.1C390.5 115.5 390.8 116.1 390.8 116.8C390.8 117.3 390.6 117.6 390.3 118C390 118.3 389.5 118.4 388.9 118.4C388.4 118.4 388 118.3 387.7 118C387.4 117.7 387.3 117.4 387.3 117C387.3 116.6 387.4 116.3 387.7 116C388 115.7 388.4 115.6 388.9 115.6C389.3 115.6 389.8 115.7 390.1 116C389.7 115.3 388.9 114.9 387.9 114.9C386.7 114.9 385.6 115.6 384.7 117C383.8 118.4 383.3 120.2 383.3 122.4V129.7H386.2V130.2H377.4V129.7H380.2V115.3H377.4V114.8H383.1L383.3 118.6C384.2 115.8 385.8 114.4 388.1 114.4Z" fill="black"/>
<path fill-rule="evenodd" clip-rule="evenodd" d="M444.1 122.4C443.4 122.6 442.9 123 442.7 123.6C442.5 124.2 442.4 125.2 442.4 126.5C442.4 127.7 442.5 128.6 442.8 129.1C443.1 129.6 443.6 129.9 444.4 129.9C445.5 129.9 446.5 129.4 447.4 128.4C448.3 127.4 448.8 126.1 448.8 124.5V121.2C448.3 121.5 447.6 121.7 446.8 121.9C445.9 122 445 122.2 444.1 122.4ZM444 130.6C442.5 130.6 441.4 130.2 440.5 129.4C439.7 128.6 439.3 127.6 439.3 126.2C439.3 123.9 440.4 122.6 442.7 122.1C445 121.6 446.4 121.4 446.9 121.3C447.4 121.2 448 121 448.7 120.6V117.6C448.7 115.9 447.6 115 445.4 115C443.6 115 442.4 115.6 441.7 116.8C442 116.7 442.2 116.6 442.4 116.6C442.8 116.6 443.2 116.7 443.5 117C443.8 117.2 444 117.5 444 117.9C444 118.3 443.8 118.7 443.5 118.9C443.2 119.2 442.7 119.3 442.1 119.3C441.6 119.3 441.2 119.1 440.8 118.8C440.5 118.5 440.3 118.1 440.3 117.5C440.3 116.6 440.9 115.8 442 115.2C443.1 114.5 444.5 114.2 446.3 114.2C448 114.2 449.3 114.6 450.3 115.4C451.3 116.2 451.8 117.3 451.8 118.8V128.2C451.8 129.2 452.2 129.7 452.9 129.7C453.4 129.7 453.9 129.4 454.2 128.9C454.6 128.4 454.7 127.7 454.7 126.7H455.4C455.4 129.1 454.4 130.3 452.3 130.3C451.3 130.3 450.5 130 449.8 129.4C449.2 128.8 448.9 128 448.9 127V126.8C448.3 128 447.5 128.8 446.7 129.4C446 130.3 445 130.6 444 130.6Z" fill="black"/>
<path fill-rule="evenodd" clip-rule="evenodd" d="M494.2 129.7V130.2H485.4V129.7H488.2V115.3H485.4V114.8H491.3V129.7H494.2ZM489.9 107.4C490.5 107.4 490.9 107.6 491.3 107.9C491.7 108.2 491.9 108.5 491.9 109C491.9 109.4 491.7 109.8 491.3 110.1C490.9 110.4 490.4 110.6 489.9 110.6C489.4 110.6 488.9 110.4 488.6 110.1C488.2 109.8 488 109.4 488 109C488 108.5 488.2 108.2 488.5 107.9C488.9 107.6 489.4 107.4 489.9 107.4Z" fill="black"/>
<path fill-rule="evenodd" clip-rule="evenodd" d="M417.4 129.6V130.2H405.9V129.6H409.9V107.5H405.9V106.8H417.4V107.5H413.4V129.6H417.4Z" fill="black"/>
<path fill-rule="evenodd" clip-rule="evenodd" d="M425.5 130C426.6 130 427.4 129.7 428.1 129.1C428.8 128.5 429.1 127.8 429.1 127C429.1 126 428.7 125.3 427.9 124.8C427.1 124.2 425.7 123.6 423.7 122.8C421.7 122 420.4 121.3 419.6 120.8C418.9 120.2 418.5 119.4 418.5 118.3C418.5 117.2 419 116.2 419.9 115.5C420.8 114.8 422 114.4 423.3 114.4C424.8 114.4 426.2 115 427.6 116.2L429.8 114.8L429.9 120.5H429.4C428.9 118.8 428.1 117.4 427 116.4C425.9 115.4 424.6 114.9 423.3 114.9C422.5 114.9 421.8 115.1 421.3 115.5C420.8 115.9 420.5 116.4 420.5 117C420.5 117.8 420.8 118.5 421.5 118.9C422.1 119.3 423.4 119.9 425.3 120.7C427.2 121.5 428.6 122.2 429.5 123C430.4 123.8 430.9 124.7 430.9 126C430.9 127.4 430.4 128.5 429.3 129.4C428.3 130.3 427 130.7 425.4 130.7C423.5 130.7 421.8 130 420.4 128.6L418.5 130.4H418V124H418.5C419.1 126 420 127.5 421.2 128.6C422.6 129.5 424 130 425.5 130Z" fill="black"/>
<path fill-rule="evenodd" clip-rule="evenodd" d="M430.4 107.4V106.8H436.4V129.7H439.2V130.2H430.4V129.7H433.3V107.4H430.4Z" fill="black"/>
<path fill-rule="evenodd" clip-rule="evenodd" d="M474.4 130.2H465.6V129.7H468.4V118.4C468.4 116.3 467.6 115.2 466.1 115.2C464.8 115.2 463.7 115.9 462.8 117.2C461.9 118.5 461.4 120.3 461.4 122.4V129.6H464.3V130.1H455.5V129.6H458.3V115.2H455.5V114.7H461.2L461.4 118.7C461.9 117.3 462.6 116.2 463.5 115.5C464.5 114.7 465.5 114.4 466.8 114.4C468 114.4 469 114.8 469.9 115.6C470.8 116.4 471.3 117.5 471.5 118.8C472 117.4 472.7 116.3 473.6 115.5C474.6 114.7 475.7 114.3 476.9 114.3C478.4 114.3 479.5 114.7 480.4 115.6C481.2 116.5 481.7 117.7 481.7 119.4V129.6H484.5V130.1H475.7V129.6H478.6V118.3C478.6 116.2 477.8 115.1 476.2 115.1C474.9 115.1 473.9 115.8 472.9 117.1C472 118.4 471.5 120.2 471.5 122.4V129.6H474.3V130.2H474.4Z" fill="black"/>
<path fill-rule="evenodd" clip-rule="evenodd" d="M500.8 130.6C498.8 130.6 497 129.8 495.4 128.3C493.9 126.7 493.1 124.8 493.1 122.6C493.1 120 494 118 495.7 116.6C497.5 115.2 499.3 114.5 501.1 114.5C502.5 114.5 503.6 114.9 504.5 115.6C505.4 116.4 505.9 117.3 505.9 118.4C505.9 119.8 505.2 120.4 503.8 120.4C503.2 120.4 502.8 120.3 502.4 120C502 119.7 501.9 119.3 501.9 118.9C501.9 118.5 502.1 118.1 502.4 117.8C502.8 117.5 503.2 117.3 503.8 117.3C504.3 117.3 504.8 117.5 505.3 117.9C505.1 117 504.6 116.2 503.9 115.7C503.2 115.2 502.3 114.9 501.2 114.9C499.3 114.9 498.1 115.5 497.5 116.8C496.9 118 496.6 120.2 496.6 123.2C496.6 125.6 496.9 127.4 497.5 128.5C498.1 129.6 499.2 130.1 500.9 130.1C502.5 130.1 503.9 129.6 505 128.6C506.1 127.6 506.6 126.2 506.6 124.4H507.3C507.3 126.3 506.7 127.9 505.4 129C504.3 130 502.7 130.6 500.8 130.6Z" fill="black"/>
<path fill-rule="evenodd" clip-rule="evenodd" d="M523.2 129.6H527.2V107.5H523.2V106.9H536.4C538.6 106.9 540.4 107.4 541.8 108.4C543.2 109.4 543.9 110.7 543.9 112.2C543.9 113.7 543.2 114.9 541.9 115.9C540.6 116.9 538.7 117.5 536.3 117.7C542.1 118.2 545 120.2 545 123.7C545 125.8 544.2 127.4 542.5 128.5C540.9 129.6 538.5 130.2 535.4 130.2H523.2V129.6ZM530.6 117.3H534.6C536.5 117.3 538 116.9 538.9 116.2C539.8 115.4 540.3 114.2 540.3 112.6C540.3 110.8 539.9 109.4 539.1 108.6C538.3 107.8 536.9 107.4 534.9 107.4H530.6V117.3ZM534.7 129.6C537 129.6 538.6 129.1 539.7 128.1C540.7 127.1 541.3 125.4 541.3 123.2C541.3 121.4 540.8 120.1 539.7 119.2C538.6 118.3 536.9 117.9 534.6 117.9H530.7V129.6H534.7Z" fill="black"/>
<path fill-rule="evenodd" clip-rule="evenodd" d="M550.6 122.4C549.9 122.6 549.4 123 549.2 123.6C549 124.2 548.9 125.2 548.9 126.5C548.9 127.7 549 128.6 549.3 129.1C549.6 129.6 550.1 129.9 550.9 129.9C552 129.9 553 129.4 553.9 128.4C554.8 127.4 555.3 126.1 555.3 124.5V121.2C554.8 121.5 554.1 121.7 553.3 121.9C552.4 122 551.6 122.2 550.6 122.4ZM550.5 130.6C549 130.6 547.9 130.2 547 129.4C546.2 128.6 545.8 127.6 545.8 126.2C545.8 123.9 546.9 122.6 549.2 122.1C551.5 121.6 552.9 121.4 553.5 121.3C554 121.2 554.6 121 555.3 120.6V117.6C555.3 115.9 554.2 115 552 115C550.2 115 549 115.6 548.3 116.8C548.6 116.7 548.8 116.6 549 116.6C549.4 116.6 549.8 116.7 550.1 117C550.4 117.2 550.6 117.5 550.6 117.9C550.6 118.3 550.4 118.7 550.1 118.9C549.8 119.2 549.3 119.3 548.7 119.3C548.2 119.3 547.8 119.1 547.4 118.8C547.1 118.5 546.9 118.1 546.9 117.5C546.9 116.6 547.5 115.8 548.5 115.2C549.6 114.5 551.1 114.2 552.8 114.2C554.5 114.2 555.8 114.6 556.8 115.4C557.8 116.2 558.3 117.3 558.3 118.8V128.2C558.3 129.2 558.7 129.7 559.4 129.7C559.9 129.7 560.3 129.4 560.7 128.9C561.1 128.4 561.2 127.7 561.2 126.7H561.9C561.9 129.1 560.9 130.3 558.8 130.3C557.8 130.3 557 130 556.3 129.4C555.7 128.8 555.4 128 555.4 127V126.8C554.8 128 554 128.8 553.2 129.4C552.5 130.3 551.6 130.6 550.5 130.6Z" fill="black"/>
<path fill-rule="evenodd" clip-rule="evenodd" d="M573.2 115.2C571.8 115.2 570.6 115.9 569.6 117.2C568.6 118.5 568.1 120.3 568.1 122.4V129.6H571V130.1H562.2V129.6H565V115.2H562.2V114.7H567.9L568.1 118.9C568.5 117.5 569.3 116.4 570.3 115.6C571.4 114.8 572.6 114.4 574 114.4C575.4 114.4 576.6 114.8 577.5 115.7C578.4 116.6 578.8 117.9 578.8 119.5V129.7H581.6V130.2H572.8V129.7H575.6V118.4C575.7 116.3 574.9 115.2 573.2 115.2Z" fill="black"/>
<path fill-rule="evenodd" clip-rule="evenodd" d="M582.3 107.4V106.8H588.2V123.1L593.6 117.9C594 117.5 594.2 117.1 594.2 116.7C594.2 115.7 593.4 115.2 591.7 115.2L591.6 114.7H599.5V115.2C598.2 115.2 596.6 116 594.9 117.6L592.5 119.9L598.8 129.6H600.9V130.1H593.1V129.6H595.5L590.4 121.8L588.3 123.7V129.5H591.1V130H582.3V129.5H585.2V107.2H582.3V107.4Z" fill="black"/>
<path fill-rule="evenodd" clip-rule="evenodd" d="M6.59998 89.6C6.59998 43.8 43.7 6.7 89.5 6.7C135.3 6.7 172.4 43.8 172.4 89.6C172.4 135.4 135.3 172.5 89.5 172.5C43.7 172.5 6.59998 135.4 6.59998 89.6Z" fill="#6B337B"/>
<path d="M6.59998 89.6C6.59998 43.8 43.7 6.7 89.5 6.7C135.3 6.7 172.4 43.8 172.4 89.6C172.4 135.4 135.3 172.5 89.5 172.5C43.7 172.5 6.59998 135.4 6.59998 89.6Z" stroke="#6B337B" stroke-width="0.9189" stroke-miterlimit="3.864"/>
<path fill-rule="evenodd" clip-rule="evenodd" d="M36 89.6C36 60 60 36 89.6 36C119.2 36 143.2 60 143.2 89.6C143.2 119.2 119.2 143.2 89.6 143.2C60 143.1 36 119.2 36 89.6Z" fill="white"/>
<path d="M36 89.6C36 60 60 36 89.6 36C119.2 36 143.2 60 143.2 89.6C143.2 119.2 119.2 143.2 89.6 143.2C60 143.1 36 119.2 36 89.6Z" stroke="#6B337B" stroke-width="0.9189" stroke-miterlimit="3.864"/>
<path d="M39.2 89.6C39.2 61.8 61.7999 39.2 89.5999 39.2C117.4 39.2 140 61.8 140 89.6C140 117.4 117.4 140 89.5999 140C61.6999 140 39.2 117.4 39.2 89.6Z" stroke="#1A5F45" stroke-width="0.9189" stroke-miterlimit="3.864"/>
<path fill-rule="evenodd" clip-rule="evenodd" d="M56 118L51.6 107.6L63.9 84.5H68H73.3H77.5L89.7 107.6L85.3 118H56Z" fill="#1A5F45"/>
<path fill-rule="evenodd" clip-rule="evenodd" d="M80.8 47.6L65.1 79.5H79L89.9 58.4L100.8 79.5H114.7L99 47.6H80.8Z" fill="#1A5F45"/>
<path fill-rule="evenodd" clip-rule="evenodd" d="M94.5 118L90.1 107.6L102.3 84.5H106.5H111.8H116L128.2 107.6L123.8 118H94.5Z" fill="#1A5F45"/>
<path fill-rule="evenodd" clip-rule="evenodd" d="M137.6 42.6L140.3 34.6L132.6 38.1L137.6 42.6ZM120.2 38L121.8 36.2L123.3 37.5L140.5 30.6L144.7 34.4L139.5 52.2L141 53.5L139.4 55.3L131.9 48.6L133.5 46.8L135.7 48.8L136.8 45.2L130 39L126.5 40.5L128.7 42.5L127.1 44.3L120.2 38Z" fill="white"/>
<path fill-rule="evenodd" clip-rule="evenodd" d="M141.2 58.5L143.5 57.7L144.4 60.4L157.8 55.6L156.9 52.8L159.1 52L162.3 60.7L151.3 74.4L163.2 70.2L162.2 67.4L164.4 66.6L167.8 75.8L165.5 76.6L164.6 74.1L148.9 79.8L146.8 74L158.1 59.9L145.9 64.3L146.8 66.9L144.5 67.7L141.2 58.5Z" fill="white"/>
<path fill-rule="evenodd" clip-rule="evenodd" d="M95.9 31L96.6 28.1L113.2 18L104 15.8L103.1 19.5L99.3 18.5L100.8 12.6L119.1 17.1L118.4 20L101.6 30L111.6 32.5L112.6 28.7L116.4 29.6L114.9 35.7L95.9 31Z" fill="white"/>
<path fill-rule="evenodd" clip-rule="evenodd" d="M69.4 34.2L69 31.9L71.8 31.4L69.3 17.3L66.5 17.8L66.1 15.5L86.2 11.9L87.3 17.7L83.5 18.3L82.9 15L74 16.5L75 22.2L78.6 21.6L78.1 19.2L81.4 18.6L82.6 25.7L79.4 26.3L79 24L75.4 24.6L76.5 30.6L85.4 29L84.7 25.4L88.5 24.7L89.5 30.7L69.4 34.2Z" fill="white"/>
<path fill-rule="evenodd" clip-rule="evenodd" d="M47.1 48.9L45.7 46.9L48 45.2L39.6 33.7L37.3 35.4L35.9 33.5L52.4 21.4L55.9 26.1L52.8 28.4L50.8 25.6L43.4 30.9L46.8 35.6L49.8 33.5L48.3 31.5L51 29.5L55.2 35.4L52.6 37.4L51.2 35.4L48.2 37.5L51.8 42.5L59.1 37.1L57 34.2L60.1 31.9L63.6 36.8L47.1 48.9Z" fill="white"/>
<path fill-rule="evenodd" clip-rule="evenodd" d="M43.2 52.1L39.1 61.1L36.9 60.1L38 57.7L25.1 51.7L37.5 64.5L35.6 68.4L18 67L30.9 73L31.9 70.8L34.1 71.8L30.2 80.2L28 79.2L29.2 76.7L16.2 70.6L15.1 73.2L12.9 72.1L17.2 62.9L32.8 64.5L21.6 53.5L26 44.1L28.2 45.1L27 47.6L39.9 53.6L41.1 51.1L43.2 52.1Z" fill="white"/>
<path fill-rule="evenodd" clip-rule="evenodd" d="M55.2999 137.2C56.4999 138.2 57.3999 138.9 57.7999 139.5C58.2999 140.1 58.6999 140.8 58.8999 141.5C59.1999 142.2 59.2 142.9 59.1 143.7C59 144.5 58.7 145.1 58.2 145.7C56.7 147.7 54.5 147.8 51.7 146.1C53 147.1 53.6999 148.3 53.8999 149.6C54.0999 151 53.7999 152.1 52.9999 153.2C52.3999 153.9 51.7 154.4 50.7 154.7C49.8 154.9 48.7999 154.9 47.8999 154.7C46.9999 154.4 46.1 154 45.2 153.5C44.4 152.9 43.3999 152.2 42.2999 151.4L33.7 144.6L35.2 142.7L37.3999 144.5L46.2 133.3L43.9999 131.6L45.4999 129.7L55.2999 137.2ZM49.9999 136.1L46.4999 140.6L48.7 142.3C49.4 142.9 49.9999 143.3 50.4999 143.6C50.9999 143.9 51.4999 144.1 51.8999 144.1C52.3999 144.1 52.7999 144 53.2999 143.8C53.7999 143.6 54.0999 143.4 54.3999 143C54.7999 142.5 54.9999 142 54.9999 141.5C55.0999 141 55 140.5 54.7 140.1C54.4 139.7 54.1 139.3 53.7 139C53.3 138.6 52.8999 138.3 52.4999 138L51.6 137.3L49.9999 136.1ZM43.7 149.3C44.5 150 45.2 150.4 45.6 150.6C46.1 150.8 46.5 151 47.1 151C47.6 151.1 48.0999 151 48.4999 150.8C48.8999 150.6 49.3 150.3 49.6 149.9C50.3 149 50.5 148.2 50.1 147.4C49.8 146.6 49.4 146.1 49.1 145.8C48.8 145.5 48.3 145.1 47.7 144.6L47.3999 144.3L44.8999 142.4L41.1 147.2L43.7 149.3Z" fill="white"/>
<path fill-rule="evenodd" clip-rule="evenodd" d="M72.6 156.2L71.6 147.8L66.1 154.2L72.6 156.2ZM54.9 159.4L55.6 157.1L57.5 157.7L70.1 144.2L75.5 145.9L78.3 164.2L80.2 164.8L79.5 167.1L69.9 164.2L70.6 161.9L73.4 162.8L72.9 159.1L64.1 156.4L61.6 159.2L64.5 160.1L63.8 162.4L54.9 159.4Z" fill="white"/>
<path fill-rule="evenodd" clip-rule="evenodd" d="M87.5 167.3L87.2 164.9L90 164.6L88.3 150.4L85.4 150.8L85.1 148.4L94.3 147.3L105.2 161L103.7 148.5L100.9 148.9L100.6 146.5L110.2 145.3L110.5 147.7L107.8 148L109.9 164.6L103.8 165.3L92.6 151.2L94.1 164.1L96.9 163.7L97.1 166.1L87.5 167.3Z" fill="white"/>
<path fill-rule="evenodd" clip-rule="evenodd" d="M126.6 158.3L125.1 156.4L127.4 154.7L118.8 143.3L116.6 145L115.1 143.1L123.4 136.9L124.8 138.8L122.6 140.5L126.4 145.5L128.4 136.1L126.6 137.5L125.1 135.6L132.7 129.8L134.2 131.7L132.7 132.9L130.5 142.5L141.7 144L143.2 142.8L144.6 144.7L136.7 150.7L135.3 148.8L137.2 147.3L126.7 145.9L131.2 151.8L133.4 150.2L134.9 152.1L126.6 158.3Z" fill="white"/>
<path d="M2 89.6C2 41.2 41.2 2 89.6 2C138 2 177.2 41.2 177.2 89.6C177.2 138 138 177.2 89.6 177.2C41.2 177.1 2 137.9 2 89.6Z" stroke="#1A5F45" stroke-width="2.7804" stroke-miterlimit="3.864"/>
</svg>
