<svg width="500" height="500" viewBox="0 0 500 500" fill="none" xmlns="http://www.w3.org/2000/svg">
<path d="M75.823 181.23H69.885V187.168H75.823V181.23Z" fill="white"/>
<path d="M88.1059 181.23H82.1689V187.168H88.1059V181.23Z" fill="white"/>
<path d="M99.9939 181.23H94.0559V187.168H99.9939V181.23Z" fill="white"/>
<path d="M75.823 201.175H69.885V207.113H75.823V201.175Z" fill="white"/>
<path d="M88.1059 201.175H82.1689V207.113H88.1059V201.175Z" fill="white"/>
<path d="M99.9939 201.175H94.0559V207.113H99.9939V201.175Z" fill="white"/>
<path d="M167.495 196.504H161.558V202.442H167.495V196.504Z" fill="white"/>
<path d="M179.779 196.504H173.842V202.442H179.779V196.504Z" fill="white"/>
<path d="M191.668 196.504H185.73V202.442H191.668V196.504Z" fill="white"/>
<path d="M167.495 217.138H161.558V223.076H167.495V217.138Z" fill="white"/>
<path d="M179.779 217.138H173.842V223.076H179.779V217.138Z" fill="white"/>
<path d="M191.668 217.138H185.73V223.076H191.668V217.138Z" fill="white"/>
<path d="M167.495 237.773H161.558V243.71H167.495V237.773Z" fill="white"/>
<path d="M179.779 237.773H173.842V243.71H179.779V237.773Z" fill="white"/>
<path d="M191.668 237.773H185.73V243.71H191.668V237.773Z" fill="white"/>
<path d="M167.495 258.407H161.558V264.345H167.495V258.407Z" fill="white"/>
<path d="M179.779 258.407H173.842V264.345H179.779V258.407Z" fill="white"/>
<path d="M191.668 258.407H185.73V264.345H191.668V258.407Z" fill="white"/>
<path d="M167.495 279.042H161.558V284.98H167.495V279.042Z" fill="white"/>
<path d="M179.779 279.042H173.842V284.98H179.779V279.042Z" fill="white"/>
<path d="M191.668 279.042H185.73V284.98H191.668V279.042Z" fill="white"/>
<path d="M167.495 299.676H161.558V305.614H167.495V299.676Z" fill="white"/>
<path d="M179.779 299.676H173.842V305.614H179.779V299.676Z" fill="white"/>
<path d="M191.668 299.676H185.73V305.614H191.668V299.676Z" fill="white"/>
<path d="M167.495 320.31H161.558V326.248H167.495V320.31Z" fill="white"/>
<path d="M179.779 320.31H173.842V326.248H179.779V320.31Z" fill="white"/>
<path d="M191.668 320.31H185.73V326.248H191.668V320.31Z" fill="white"/>
<path d="M167.495 340.945H161.558V346.882H167.495V340.945Z" fill="white"/>
<path d="M179.779 340.945H173.842V346.882H179.779V340.945Z" fill="white"/>
<path d="M191.668 340.945H185.73V346.882H191.668V340.945Z" fill="white"/>
<path d="M75.823 221.12H69.885V227.058H75.823V221.12Z" fill="white"/>
<path d="M88.1059 221.12H82.1689V227.058H88.1059V221.12Z" fill="white"/>
<path d="M99.9939 221.12H94.0559V227.058H99.9939V221.12Z" fill="white"/>
<path d="M75.823 241.064H69.885V247.002H75.823V241.064Z" fill="white"/>
<path d="M88.1059 241.064H82.1689V247.002H88.1059V241.064Z" fill="white"/>
<path d="M99.9939 241.064H94.0559V247.002H99.9939V241.064Z" fill="white"/>
<path d="M75.823 261.009H69.885V266.947H75.823V261.009Z" fill="white"/>
<path d="M88.1059 261.009H82.1689V266.947H88.1059V261.009Z" fill="white"/>
<path d="M99.9939 261.009H94.0559V266.947H99.9939V261.009Z" fill="white"/>
<path d="M75.823 280.954H69.885V286.891H75.823V280.954Z" fill="white"/>
<path d="M88.1059 280.954H82.1689V286.891H88.1059V280.954Z" fill="white"/>
<path d="M99.9939 280.954H94.0559V286.891H99.9939V280.954Z" fill="white"/>
<path d="M75.823 300.899H69.885V306.837H75.823V300.899Z" fill="white"/>
<path d="M88.1059 300.899H82.1689V306.837H88.1059V300.899Z" fill="white"/>
<path d="M99.9939 300.899H94.0559V306.837H99.9939V300.899Z" fill="white"/>
<path d="M75.823 320.843H69.885V326.781H75.823V320.843Z" fill="white"/>
<path d="M88.1059 320.843H82.1689V326.781H88.1059V320.843Z" fill="white"/>
<path d="M99.9939 320.843H94.0559V326.781H99.9939V320.843Z" fill="white"/>
<path d="M75.823 340.788H69.885V346.726H75.823V340.788Z" fill="white"/>
<path d="M88.1059 340.788H82.1689V346.726H88.1059V340.788Z" fill="white"/>
<path d="M99.9939 340.788H94.0559V346.726H99.9939V340.788Z" fill="white"/>
<path d="M120.902 232.394H117.132V372.176H120.902V232.394Z" fill="white"/>
<path d="M134.214 232.394H130.444V372.176H134.214V232.394Z" fill="white"/>
<path d="M406.165 195.119H402.199V220.413H406.165V195.119Z" fill="white"/>
<path d="M421.475 195.119H417.509V220.413H421.475V195.119Z" fill="white"/>
<path d="M436.784 195.119H432.818V220.413H436.784V195.119Z" fill="white"/>
<path d="M406.165 235.723H402.199V261.017H406.165V235.723Z" fill="white"/>
<path d="M421.475 235.723H417.509V261.017H421.475V235.723Z" fill="white"/>
<path d="M436.784 235.723H432.818V261.017H436.784V235.723Z" fill="white"/>
<path d="M406.165 276.326H402.199V301.62H406.165V276.326Z" fill="white"/>
<path d="M421.475 276.326H417.509V301.62H421.475V276.326Z" fill="white"/>
<path d="M436.784 276.326H432.818V301.62H436.784V276.326Z" fill="white"/>
<path d="M406.165 316.929H402.199V342.223H406.165V316.929Z" fill="white"/>
<path d="M421.475 316.929H417.509V342.223H421.475V316.929Z" fill="white"/>
<path d="M436.784 316.929H432.818V342.223H436.784V316.929Z" fill="white"/>
<path d="M147.527 232.394H143.757V372.176H147.527V232.394Z" fill="white"/>
<path d="M470.167 381.738H29.833C29.004 381.738 28.333 381.066 28.333 380.238C28.333 379.41 29.004 378.738 29.833 378.738H470.166C470.994 378.738 471.666 379.41 471.666 380.238C471.667 381.066 470.995 381.738 470.167 381.738Z" fill="#E4EFF7"/>
<path d="M85.879 397.552H71.96C71.131 397.552 70.46 396.88 70.46 396.052C70.46 395.224 71.131 394.552 71.96 394.552H85.879C86.708 394.552 87.379 395.224 87.379 396.052C87.379 396.88 86.708 397.552 85.879 397.552Z" fill="#E4EFF7"/>
<path d="M140.753 397.552H98.5601C97.7311 397.552 97.0601 396.88 97.0601 396.052C97.0601 395.224 97.7311 394.552 98.5601 394.552H140.752C141.581 394.552 142.252 395.224 142.252 396.052C142.253 396.88 141.581 397.552 140.753 397.552Z" fill="#E4EFF7"/>
<path d="M414.075 413.118H405.655C404.827 413.118 404.155 412.446 404.155 411.618C404.155 410.79 404.827 410.118 405.655 410.118H414.075C414.903 410.118 415.575 410.79 415.575 411.618C415.575 412.446 414.903 413.118 414.075 413.118Z" fill="#E4EFF7"/>
<path d="M447.269 413.118H421.747C420.919 413.118 420.247 412.446 420.247 411.618C420.247 410.79 420.919 410.118 421.747 410.118H447.269C448.097 410.118 448.769 410.79 448.769 411.618C448.769 412.446 448.097 413.118 447.269 413.118Z" fill="#E4EFF7"/>
<path d="M78.6982 420.197H87.1182C87.9462 420.197 88.6182 420.869 88.6182 421.697C88.6182 422.525 87.9462 423.197 87.1182 423.197H78.6982C77.8702 423.197 77.1982 422.525 77.1982 421.697C77.1982 420.869 77.8702 420.197 78.6982 420.197Z" fill="#E4EFF7"/>
<path d="M45.5051 420.197H71.0271C71.8551 420.197 72.5271 420.869 72.5271 421.697C72.5271 422.525 71.8551 423.197 71.0271 423.197H45.5051C44.6771 423.197 44.0051 422.525 44.0051 421.697C44.0051 420.869 44.6771 420.197 45.5051 420.197Z" fill="#E4EFF7"/>
<path d="M266.887 444.263C356.733 444.263 429.567 439.52 429.567 433.67C429.567 427.82 356.733 423.077 266.887 423.077C177.041 423.077 104.207 427.82 104.207 433.67C104.207 439.52 177.041 444.263 266.887 444.263Z" fill="#CED0D8"/>
<path d="M399.307 186.072V160.874L324.746 189.896V213.159H253.178V149.584H203.47V186.072H153.951V224.15H115.954V188.751H106.945V176.623H89.7748V162.248H84.8208V176.623H67.6508V188.751H58.6418V379.46H113.435H115.954H153.951H203.47H204.399H251.98H253.178H324.746H326.542H396.503H399.307H446.951V186.072H399.307Z" fill="#E4EFF7"/>
<path d="M253.178 138.329H203.47V146.198H253.178V138.329Z" fill="#E4EFF7"/>
<path d="M78.1648 180.85H72.2278V186.788H78.1648V180.85Z" fill="white"/>
<path d="M90.4487 180.85H84.5117V186.788H90.4487V180.85Z" fill="white"/>
<path d="M102.337 180.85H96.3999V186.788H102.337V180.85Z" fill="white"/>
<path d="M78.1648 200.795H72.2278V206.733H78.1648V200.795Z" fill="white"/>
<path d="M90.4487 200.795H84.5117V206.733H90.4487V200.795Z" fill="white"/>
<path d="M102.337 200.795H96.3999V206.733H102.337V200.795Z" fill="white"/>
<path d="M169.84 196.124H163.902V202.062H169.84V196.124Z" fill="white"/>
<path d="M182.124 196.124H176.186V202.062H182.124V196.124Z" fill="white"/>
<path d="M194.01 196.124H188.073V202.062H194.01V196.124Z" fill="white"/>
<path d="M169.84 216.758H163.902V222.696H169.84V216.758Z" fill="white"/>
<path d="M182.124 216.758H176.186V222.696H182.124V216.758Z" fill="white"/>
<path d="M194.01 216.758H188.073V222.696H194.01V216.758Z" fill="white"/>
<path d="M169.84 237.393H163.902V243.331H169.84V237.393Z" fill="white"/>
<path d="M182.124 237.393H176.186V243.331H182.124V237.393Z" fill="white"/>
<path d="M194.01 237.393H188.073V243.331H194.01V237.393Z" fill="white"/>
<path d="M169.84 258.027H163.902V263.965H169.84V258.027Z" fill="white"/>
<path d="M182.124 258.027H176.186V263.965H182.124V258.027Z" fill="white"/>
<path d="M194.01 258.027H188.073V263.965H194.01V258.027Z" fill="white"/>
<path d="M169.84 278.661H163.902V284.599H169.84V278.661Z" fill="white"/>
<path d="M182.124 278.661H176.186V284.599H182.124V278.661Z" fill="white"/>
<path d="M194.01 278.661H188.073V284.599H194.01V278.661Z" fill="white"/>
<path d="M348.782 198.873H339.272V208.383H348.782V198.873Z" fill="white"/>
<path d="M368.458 198.873H358.948V208.383H368.458V198.873Z" fill="white"/>
<path d="M387.499 198.873H377.989V208.383H387.499V198.873Z" fill="white"/>
<path d="M348.782 226.164H339.272V235.675H348.782V226.164Z" fill="white"/>
<path d="M368.458 226.164H358.948V235.675H368.458V226.164Z" fill="white"/>
<path d="M387.499 226.164H377.989V235.675H387.499V226.164Z" fill="white"/>
<path d="M348.782 253.454H339.272V262.964H348.782V253.454Z" fill="white"/>
<path d="M368.458 253.454H358.948V262.964H368.458V253.454Z" fill="white"/>
<path d="M387.499 253.454H377.989V262.964H387.499V253.454Z" fill="white"/>
<path d="M348.782 280.745H339.272V290.256H348.782V280.745Z" fill="white"/>
<path d="M368.458 280.745H358.948V290.256H368.458V280.745Z" fill="white"/>
<path d="M387.499 280.745H377.989V290.256H387.499V280.745Z" fill="white"/>
<path d="M348.782 308.036H339.272V317.547H348.782V308.036Z" fill="white"/>
<path d="M368.458 308.036H358.948V317.547H368.458V308.036Z" fill="white"/>
<path d="M387.499 308.036H377.989V317.547H387.499V308.036Z" fill="white"/>
<path d="M348.782 335.327H339.272V344.837H348.782V335.327Z" fill="white"/>
<path d="M368.458 335.327H358.948V344.837H368.458V335.327Z" fill="white"/>
<path d="M387.499 335.327H377.989V344.837H387.499V335.327Z" fill="white"/>
<path d="M169.84 299.296H163.902V305.234H169.84V299.296Z" fill="white"/>
<path d="M182.124 299.296H176.186V305.234H182.124V299.296Z" fill="white"/>
<path d="M194.01 299.296H188.073V305.234H194.01V299.296Z" fill="white"/>
<path d="M169.84 319.93H163.902V325.868H169.84V319.93Z" fill="white"/>
<path d="M182.124 319.93H176.186V325.868H182.124V319.93Z" fill="white"/>
<path d="M194.01 319.93H188.073V325.868H194.01V319.93Z" fill="white"/>
<path d="M169.84 340.565H163.902V346.503H169.84V340.565Z" fill="white"/>
<path d="M182.124 340.565H176.186V346.503H182.124V340.565Z" fill="white"/>
<path d="M194.01 340.565H188.073V346.503H194.01V340.565Z" fill="white"/>
<path d="M78.1648 220.74H72.2278V226.678H78.1648V220.74Z" fill="white"/>
<path d="M90.4487 220.74H84.5117V226.678H90.4487V220.74Z" fill="white"/>
<path d="M102.337 220.74H96.3999V226.678H102.337V220.74Z" fill="white"/>
<path d="M78.1648 240.684H72.2278V246.621H78.1648V240.684Z" fill="white"/>
<path d="M90.4487 240.684H84.5117V246.621H90.4487V240.684Z" fill="white"/>
<path d="M102.337 240.684H96.3999V246.621H102.337V240.684Z" fill="white"/>
<path d="M78.1648 260.629H72.2278V266.567H78.1648V260.629Z" fill="white"/>
<path d="M90.4487 260.629H84.5117V266.567H90.4487V260.629Z" fill="white"/>
<path d="M102.337 260.629H96.3999V266.567H102.337V260.629Z" fill="white"/>
<path d="M78.1648 280.574H72.2278V286.512H78.1648V280.574Z" fill="white"/>
<path d="M90.4487 280.574H84.5117V286.512H90.4487V280.574Z" fill="white"/>
<path d="M102.337 280.574H96.3999V286.512H102.337V280.574Z" fill="white"/>
<path d="M78.1648 300.519H72.2278V306.457H78.1648V300.519Z" fill="white"/>
<path d="M90.4487 300.519H84.5117V306.457H90.4487V300.519Z" fill="white"/>
<path d="M102.337 300.519H96.3999V306.457H102.337V300.519Z" fill="white"/>
<path d="M78.1648 320.463H72.2278V326.401H78.1648V320.463Z" fill="white"/>
<path d="M90.4487 320.463H84.5117V326.401H90.4487V320.463Z" fill="white"/>
<path d="M102.337 320.463H96.3999V326.401H102.337V320.463Z" fill="white"/>
<path d="M78.1648 340.408H72.2278V346.346H78.1648V340.408Z" fill="white"/>
<path d="M90.4487 340.408H84.5117V346.346H90.4487V340.408Z" fill="white"/>
<path d="M102.337 340.408H96.3999V346.346H102.337V340.408Z" fill="white"/>
<path d="M123.245 232.014H119.475V371.796H123.245V232.014Z" fill="white"/>
<path d="M136.558 232.014H132.788V371.796H136.558V232.014Z" fill="white"/>
<path d="M266.064 220.033H262.098V245.327H266.064V220.033Z" fill="white"/>
<path d="M281.374 220.033H277.408V245.327H281.374V220.033Z" fill="white"/>
<path d="M296.683 220.033H292.717V245.327H296.683V220.033Z" fill="white"/>
<path d="M311.993 220.033H308.027V245.327H311.993V220.033Z" fill="white"/>
<path d="M408.509 194.739H404.543V220.033H408.509V194.739Z" fill="white"/>
<path d="M423.818 194.739H419.852V220.033H423.818V194.739Z" fill="white"/>
<path d="M439.128 194.739H435.162V220.033H439.128V194.739Z" fill="white"/>
<path d="M408.509 235.342H404.543V260.636H408.509V235.342Z" fill="white"/>
<path d="M423.818 235.342H419.852V260.636H423.818V235.342Z" fill="white"/>
<path d="M439.128 235.342H435.162V260.636H439.128V235.342Z" fill="white"/>
<path d="M408.509 275.946H404.543V301.24H408.509V275.946Z" fill="white"/>
<path d="M423.818 275.946H419.852V301.24H423.818V275.946Z" fill="white"/>
<path d="M439.128 275.946H435.162V301.24H439.128V275.946Z" fill="white"/>
<path d="M408.509 316.549H404.543V341.843H408.509V316.549Z" fill="white"/>
<path d="M423.818 316.549H419.852V341.843H423.818V316.549Z" fill="white"/>
<path d="M439.128 316.549H435.162V341.843H439.128V316.549Z" fill="white"/>
<path d="M266.064 266.627H262.098V291.921H266.064V266.627Z" fill="white"/>
<path d="M281.374 266.627H277.408V291.921H281.374V266.627Z" fill="white"/>
<path d="M296.683 266.627H292.717V291.921H296.683V266.627Z" fill="white"/>
<path d="M311.993 266.627H308.027V291.921H311.993V266.627Z" fill="white"/>
<path d="M266.064 313.221H262.098V338.515H266.064V313.221Z" fill="white"/>
<path d="M281.374 313.221H277.408V338.515H281.374V313.221Z" fill="white"/>
<path d="M296.683 313.221H292.717V338.515H296.683V313.221Z" fill="white"/>
<path d="M311.993 313.221H308.027V338.515H311.993V313.221Z" fill="white"/>
<path d="M149.87 232.014H146.1V371.796H149.87V232.014Z" fill="white"/>
<path d="M245.721 155.467H211.108V159.461H245.721V155.467Z" fill="white"/>
<path d="M245.721 174.105H211.108V178.099H245.721V174.105Z" fill="white"/>
<path d="M245.721 192.742H211.108V196.736H245.721V192.742Z" fill="white"/>
<path d="M245.721 211.38H211.108V215.374H245.721V211.38Z" fill="white"/>
<path d="M245.721 230.018H211.108V234.012H245.721V230.018Z" fill="white"/>
<path d="M245.721 248.655H211.108V252.649H245.721V248.655Z" fill="white"/>
<path d="M245.721 267.293H211.108V271.287H245.721V267.293Z" fill="white"/>
<path d="M245.721 285.93H211.108V289.924H245.721V285.93Z" fill="white"/>
<path d="M245.721 304.568H211.108V308.562H245.721V304.568Z" fill="white"/>
<path d="M245.721 323.205H211.108V327.199H245.721V323.205Z" fill="white"/>
<path d="M245.721 341.843H211.108V345.837H245.721V341.843Z" fill="white"/>
<path d="M245.721 360.481H211.108V364.475H245.721V360.481Z" fill="white"/>
<path d="M317.926 242.184C315.481 242.386 313.217 243.376 311.402 244.898L304.391 240.816L294.923 250.255L308.379 259.044C308.614 259.524 308.868 259.993 309.164 260.436C309.318 260.244 309.464 260.046 309.613 259.85L310.082 260.157L321.127 253.291C321.236 253.363 321.346 253.432 321.451 253.525C323.914 255.702 326.98 256.901 330.005 258.183C330.204 257.671 330.372 257.144 330.497 256.601C332.286 248.768 326.017 241.517 317.926 242.184Z" fill="#FFA98C"/>
<path d="M283.252 225.338C280.182 223.47 278.042 220.557 277.38 217.345L277.15 216.174C275.162 206.071 271.277 196.434 265.701 187.769L255.971 204.861L260.81 221.14C262.499 228.782 267.432 235.568 274.396 239.804L301.581 256.342L310.436 241.876L283.252 225.338Z" fill="#C62222"/>
<path d="M270.102 216.057L273.492 203.351C271.456 197.909 268.86 192.679 265.701 187.769L255.971 204.861L260.81 221.14C262.499 228.782 267.432 235.568 274.396 239.804L301.581 256.342L305.952 249.201L276.581 231.857C271.116 228.63 268.47 222.176 270.102 216.057Z" fill="#AF2222"/>
<path d="M282.367 241.239L295.623 248.476L288.059 260.58L272.899 250.678L282.367 241.239Z" fill="#FFA98C"/>
<path d="M244.166 370.438L246.933 326.835C247.134 323.677 246.46 320.526 244.983 317.723L220.896 271.967L245.236 259.247L269.324 305.003C273.145 312.261 274.89 320.42 274.371 328.596L271.604 372.199L244.166 370.438Z" fill="#1A2328"/>
<path d="M269.323 305.002L245.235 259.246L220.895 271.966L221.235 272.612L237.676 264.02L245.611 279.093H224.495L230.565 290.366C230.565 290.366 241.735 299.085 253.44 293.964L261.764 309.776C265.585 317.034 267.33 325.193 266.811 333.369L264.376 371.734L271.603 372.198L274.37 328.595C274.889 320.419 273.144 312.261 269.323 305.002Z" fill="#131B1E"/>
<path d="M254.458 352.95L251.128 346.04L334.897 305.924L338.226 312.833L254.458 352.95Z" fill="#1A708E"/>
<path d="M267.746 378.087L263.025 372.035L336.393 315.172L341.114 321.225L267.746 378.087Z" fill="#48BAD8"/>
<path d="M171.069 334.406H170.319V433.988H171.069V334.406Z" fill="#67677C"/>
<path d="M220.641 383.823H120.748V384.571H220.641V383.823Z" fill="#67677C"/>
<path d="M135.642 419.669L135.112 419.14L205.746 348.725L206.277 349.254L135.642 419.669Z" fill="#67677C"/>
<path d="M205.746 419.669L135.112 349.254L135.642 348.725L206.277 419.14L205.746 419.669Z" fill="#67677C"/>
<path d="M152.022 430.379L151.329 430.095L189.367 338.015L190.06 338.299L152.022 430.379Z" fill="#67677C"/>
<path d="M216.735 403.502L124.368 365.583L124.653 364.892L217.02 402.811L216.735 403.502Z" fill="#67677C"/>
<path d="M124.733 403.69L124.445 403.001L216.655 364.703L216.943 365.392L124.733 403.69Z" fill="#67677C"/>
<path d="M189.556 430.302L151.139 338.379L151.832 338.091L190.249 430.014L189.556 430.302Z" fill="#67677C"/>
<path d="M187.417 428.874C161.952 437.335 134.33 423.566 125.842 398.179C117.355 372.793 131.167 345.257 156.632 336.796C182.097 328.335 209.719 342.105 218.207 367.491C226.695 392.877 212.882 420.413 187.417 428.874ZM159.064 344.068C137.621 351.192 125.991 374.379 133.138 395.755C140.285 417.131 163.544 428.726 184.986 421.601C206.428 414.476 218.059 391.29 210.912 369.914C203.766 348.539 180.507 336.944 159.064 344.068Z" fill="#FDBE19"/>
<path d="M188.746 432.85C161.082 442.041 131.073 427.083 121.853 399.504C112.633 371.926 127.639 342.011 155.303 332.819C182.967 323.628 212.976 338.586 222.196 366.164C231.417 393.744 216.411 423.658 188.746 432.85ZM157.735 340.092C134.092 347.947 121.269 373.512 129.148 397.08C137.028 420.649 162.672 433.432 186.315 425.577C209.958 417.722 222.781 392.157 214.902 368.589C207.022 345.021 181.378 332.237 157.735 340.092Z" fill="#5A5A82"/>
<path d="M187.809 430.044C161.696 438.72 133.371 424.601 124.668 398.569C115.965 372.538 130.13 344.301 156.242 335.625C182.355 326.949 210.68 341.069 219.383 367.1C228.086 393.132 213.921 421.369 187.809 430.044ZM158.537 342.49C136.22 349.905 124.116 374.035 131.554 396.282C138.992 418.529 163.198 430.595 185.514 423.18C207.83 415.765 219.935 391.635 212.497 369.388C205.059 347.142 180.853 335.075 158.537 342.49Z" fill="#3D3D51"/>
<path d="M368.378 334.406H367.628V433.988H368.378V334.406Z" fill="#67677C"/>
<path d="M417.95 383.823H318.057V384.571H417.95V383.823Z" fill="#67677C"/>
<path d="M332.952 419.669L332.42 419.14L403.055 348.725L403.586 349.254L332.952 419.669Z" fill="#67677C"/>
<path d="M403.055 419.669L332.42 349.254L332.952 348.725L403.586 419.14L403.055 419.669Z" fill="#67677C"/>
<path d="M349.331 430.379L348.638 430.095L386.675 338.015L387.369 338.299L349.331 430.379Z" fill="#67677C"/>
<path d="M414.044 403.502L321.677 365.583L321.962 364.892L414.329 402.811L414.044 403.502Z" fill="#67677C"/>
<path d="M322.042 403.69L321.753 403.001L413.963 364.703L414.252 365.392L322.042 403.69Z" fill="#67677C"/>
<path d="M349.151 338.105L348.46 338.394L386.877 430.321L387.568 430.032L349.151 338.105Z" fill="#67677C"/>
<path d="M384.726 428.874C359.261 437.335 331.639 423.566 323.151 398.179C314.664 372.793 328.476 345.257 353.941 336.796C379.406 328.335 407.028 342.105 415.515 367.491C424.004 392.877 410.191 420.413 384.726 428.874ZM356.373 344.068C334.93 351.192 323.3 374.379 330.447 395.755C337.594 417.131 360.852 428.726 382.295 421.601C403.738 414.476 415.368 391.29 408.221 369.914C401.074 348.539 377.815 336.944 356.373 344.068Z" fill="#FDBE19"/>
<path d="M386.055 432.85C358.391 442.041 328.382 427.083 319.162 399.504C309.942 371.926 324.948 342.011 352.612 332.819C380.276 323.628 410.285 338.586 419.505 366.164C428.726 393.744 413.719 423.658 386.055 432.85ZM355.044 340.092C331.401 347.947 318.578 373.512 326.457 397.08C334.337 420.649 359.981 433.432 383.624 425.577C407.267 417.722 420.09 392.157 412.211 368.589C404.331 345.021 378.686 332.237 355.044 340.092Z" fill="#5A5A82"/>
<path d="M385.492 431.164C358.76 440.046 329.763 425.592 320.854 398.943C311.945 372.294 326.445 343.388 353.177 334.506C379.909 325.624 408.906 340.079 417.815 366.727C426.724 393.376 412.223 422.282 385.492 431.164ZM355.525 341.533C332.679 349.124 320.288 373.826 327.902 396.6C335.516 419.374 360.296 431.727 383.142 424.136C405.988 416.546 418.379 391.843 410.765 369.069C403.151 346.295 378.371 333.942 355.525 341.533Z" fill="#3D3D51"/>
<path d="M153.068 326.134C132.629 332.925 118.256 349.627 113.499 369.098C115.977 369.755 118.489 370.267 121.018 370.709C125.216 353.799 137.73 339.31 155.499 333.407C183.062 324.249 212.961 339.153 222.147 366.63L230.47 365.918C219.718 332.672 184.654 315.639 153.068 326.134Z" fill="#1A708E"/>
<path d="M119.56 368.416C118.267 368.17 117.076 367.919 115.945 367.653C121.184 348.913 135.172 334.181 153.701 328.025C159.656 326.047 165.844 325.043 172.094 325.043C197.015 325.043 219.073 340.654 227.744 364.15L223.524 364.511C215.653 343.033 195.194 328.714 172.12 328.714C166.267 328.714 160.463 329.657 154.868 331.516C137.596 337.253 124.517 350.97 119.56 368.416Z" fill="#1D8AA3"/>
<path d="M168.506 369.52C162.675 371.457 159.523 377.74 161.467 383.553C163.41 389.366 169.713 392.508 175.544 390.57C181.375 388.633 184.527 382.35 182.583 376.536C180.64 370.724 174.337 367.583 168.506 369.52Z" fill="#4D5859"/>
<path d="M169.348 372.039C164.912 373.513 162.515 378.292 163.993 382.714C165.471 387.136 170.266 389.526 174.701 388.052C179.137 386.578 181.534 381.799 180.056 377.377C178.578 372.955 173.784 370.565 169.348 372.039Z" fill="#7A8483"/>
<path d="M316.664 353.872C306.057 372.566 306.615 394.565 316.173 412.195C318.454 411.027 320.663 409.729 322.837 408.368C314.587 393.012 314.136 373.898 323.358 357.646C337.662 332.436 369.873 323.527 395.161 337.786L398.947 331.114C369.967 314.774 333.055 324.983 316.664 353.872Z" fill="#1A708E"/>
<path d="M317.016 409.49C308.308 392.08 308.789 371.801 318.406 354.854C328.742 336.635 348.252 325.318 369.322 325.318C378.656 325.318 387.907 327.587 396.205 331.897L394.387 335.101C386.643 331.101 378.015 328.995 369.31 328.995C349.576 328.995 331.301 339.597 321.617 356.664C312.655 372.46 312.167 391.38 320.214 407.641C319.086 408.323 318.033 408.932 317.016 409.49Z" fill="#1D8AA3"/>
<path d="M364.128 372.309C358.297 374.246 355.145 380.529 357.089 386.343C359.032 392.156 365.335 395.298 371.166 393.36C376.997 391.423 380.149 385.14 378.205 379.326C376.262 373.514 369.959 370.372 364.128 372.309Z" fill="#4D5859"/>
<path d="M364.97 374.828C360.534 376.302 358.137 381.081 359.615 385.503C361.093 389.925 365.888 392.315 370.323 390.841C374.759 389.367 377.156 384.588 375.678 380.166C374.2 375.744 369.405 373.354 364.97 374.828Z" fill="#7A8483"/>
<path d="M175.108 383.119L171.549 381.669L201.457 308.699L205.017 310.148L175.108 383.119Z" fill="#7A8483"/>
<path d="M216.685 313.053H124.234C121.794 313.053 119.815 311.151 119.815 308.804C119.815 306.458 121.794 304.555 124.234 304.555H214.983L235.011 296.853C237.273 295.981 239.848 297.041 240.755 299.22C241.661 301.398 240.559 303.871 238.293 304.742L216.685 313.053Z" fill="#7A8483"/>
<path d="M255 369.087L228.515 280.805L235.882 278.609L262.366 366.892L255 369.087Z" fill="#1A708E"/>
<path d="M255.394 350.289L335.557 311.9L333.96 308.585L254.24 346.761L234.538 281.09L231.004 282.144L256.343 366.606L259.877 365.552L255.139 349.759L255.394 350.289Z" fill="#1D8AA3"/>
<path d="M367.69 380.918L314.441 387.595L315.077 392.665L368.326 385.989L367.69 380.918Z" fill="#48BAD8"/>
<path d="M329.651 283.057C327.537 289.582 327.769 296.64 329.901 303.16L346.54 354.056L346.682 354.49L365.574 385.247L372.132 381.243L353.715 351.263L337.179 300.313C335.216 294.263 334.946 287.763 336.585 281.618C342.991 257.603 321.348 251.534 321.348 251.534L314.031 253.893C314.031 253.893 336.307 262.516 329.651 283.057Z" fill="#48BAD8"/>
<path d="M365.688 376.978C362.443 378.056 360.69 381.552 361.771 384.787C362.852 388.022 366.359 389.77 369.604 388.692C372.849 387.614 374.602 384.118 373.521 380.883C372.44 377.648 368.933 375.9 365.688 376.978Z" fill="#48BAD8"/>
<path d="M245.111 273.062H217.391C214.42 273.062 211.989 275.485 211.989 278.447C211.989 281.409 214.42 283.832 217.391 283.832H245.111C248.082 283.832 250.513 281.409 250.513 278.447C250.513 275.485 248.082 273.062 245.111 273.062Z" fill="#3D3D51"/>
<path d="M294.255 262.771C292.738 262.771 291.39 261.692 291.107 260.152C290.788 258.417 291.941 256.753 293.68 256.435L322.479 251.173C324.221 250.853 325.889 252.005 326.209 253.739C326.528 255.474 325.376 257.138 323.636 257.457L294.837 262.719C294.642 262.754 294.447 262.771 294.255 262.771Z" fill="#7A8483"/>
<path d="M335.814 313.052C341.661 320.766 356.735 316.806 356.735 316.806L353.032 306.751L349.329 296.696C349.329 296.696 335.265 303.399 335.814 313.052Z" fill="#48BAD8"/>
<path d="M397.651 260.693H338.216L336.367 265.901H337.222L338.836 290.481C339.082 294.23 342.317 297.167 346.2 297.167H380.805C388.856 297.167 395.405 290.852 395.405 283.09V265.901H397.652C399.095 265.901 400.264 264.735 400.264 263.297C400.263 261.858 399.094 260.693 397.651 260.693ZM392.53 283.228H382.237V275.205H392.537V283.09C392.537 283.137 392.531 283.182 392.53 283.228ZM379.371 283.228H368.858V275.205H379.371V283.228ZM379.371 294.31H368.858V286.086H379.371V294.31ZM340.706 275.205H352.612V283.228H341.232L340.706 275.205ZM355.478 275.205H365.991V283.228H355.478V275.205ZM355.478 272.348V265.901H365.991V272.348H355.478ZM365.991 286.086V294.31H355.478V286.086H365.991ZM368.858 272.348V265.901H379.371V272.348H368.858ZM352.612 265.901V272.348H340.518L340.095 265.901H352.612ZM341.696 290.294L341.42 286.086H352.612V294.31H346.199C343.822 294.31 341.843 292.546 341.696 290.294ZM382.237 294.217V286.085H392.099C390.848 290.393 386.98 293.661 382.237 294.217ZM392.537 272.348H382.237V265.901H392.537V272.348Z" fill="#48BAD8"/>
<path d="M339.48 274.791L330.624 282.403L326.339 263.23L338.747 260.703L339.48 274.791Z" fill="#48BAD8"/>
<path d="M280.636 361.184C280.487 361.184 280.338 361.117 280.24 360.989C280.072 360.771 280.113 360.458 280.332 360.29L334.732 318.53C334.95 318.363 335.263 318.402 335.433 318.622C335.601 318.84 335.56 319.153 335.341 319.321L280.942 361.081C280.85 361.15 280.743 361.184 280.636 361.184Z" fill="#72DAF2"/>
<path d="M254.24 347.26C254.053 347.26 253.875 347.156 253.789 346.978C253.669 346.73 253.774 346.432 254.023 346.312L331.317 309.304C331.566 309.188 331.865 309.289 331.985 309.538C332.104 309.786 332 310.084 331.751 310.204L254.457 347.212C254.386 347.244 254.312 347.26 254.24 347.26Z" fill="#2AAEBC"/>
<path d="M364.97 375.326C364.803 375.326 364.64 375.242 364.545 375.091L351.016 353.417C350.06 351.884 349.317 350.233 348.809 348.511C345.349 336.799 334.005 298.304 333.316 294.635C332.838 292.095 332.606 284.62 333.211 281.449C333.421 280.348 333.643 279.577 333.839 278.897C334.207 277.621 334.45 276.778 334.308 274.75C334.141 272.335 333.488 266.492 333.141 264.994C332.387 261.733 326.949 257.314 326.894 257.27C326.679 257.097 326.646 256.783 326.82 256.569C326.994 256.356 327.308 256.322 327.523 256.495C327.758 256.684 333.285 261.178 334.116 264.77C334.478 266.335 335.133 272.178 335.306 274.68C335.46 276.883 335.183 277.843 334.8 279.172C334.611 279.831 334.395 280.578 334.194 281.634C333.608 284.712 333.836 291.98 334.299 294.451C334.981 298.073 346.312 336.528 349.769 348.227C350.252 349.864 350.957 351.431 351.867 352.888L365.396 374.561C365.542 374.796 365.47 375.102 365.236 375.248C365.152 375.302 365.061 375.326 364.97 375.326Z" fill="#72DAF2"/>
<path d="M340.57 307.179C340.498 307.179 340.424 307.163 340.355 307.13C340.106 307.012 340 306.715 340.118 306.467C340.222 306.25 342.716 301.129 349.062 298.928C349.319 298.84 349.608 298.975 349.699 299.236C349.789 299.496 349.651 299.78 349.39 299.871C343.453 301.929 341.045 306.845 341.021 306.895C340.936 307.074 340.756 307.179 340.57 307.179Z" fill="#72DAF2"/>
<path d="M250.913 339.999C250.698 339.999 250.499 339.86 250.434 339.644L234.451 286.416C234.372 286.152 234.522 285.875 234.786 285.795C235.051 285.718 235.329 285.866 235.409 286.13L251.392 339.358C251.471 339.622 251.321 339.899 251.056 339.979C251.009 339.992 250.96 339.999 250.913 339.999Z" fill="#2AAEBC"/>
<path d="M397.866 263.178H339.75C339.474 263.178 339.25 262.955 339.25 262.679C339.25 262.404 339.474 262.181 339.75 262.181H397.866C398.142 262.181 398.366 262.404 398.366 262.679C398.366 262.956 398.142 263.178 397.866 263.178Z" fill="#72DAF2"/>
<path d="M316.465 389.552C316.216 389.552 316 389.367 315.97 389.114C315.937 388.84 316.131 388.592 316.406 388.559L364 382.772C364.266 382.73 364.523 382.933 364.557 383.206C364.59 383.48 364.396 383.728 364.121 383.761L316.527 389.548C316.506 389.552 316.486 389.552 316.465 389.552Z" fill="#72DAF2"/>
<path d="M215.86 309.103H124.104C123.552 309.103 123.104 308.657 123.104 308.106C123.104 307.555 123.552 307.109 124.104 307.109H215.467L232.141 300.309C232.652 300.101 233.236 300.346 233.445 300.854C233.654 301.364 233.409 301.946 232.898 302.155L215.86 309.103Z" fill="#869391"/>
<path d="M417.01 383.537C416.458 383.537 416.01 383.091 416.01 382.54C416.009 378.751 415.55 374.99 414.646 371.361C414.513 370.826 414.839 370.286 415.375 370.153C415.91 370.024 416.453 370.345 416.587 370.88C417.53 374.666 418.009 378.589 418.01 382.54C418.01 383.09 417.563 383.537 417.01 383.537Z" fill="#54546D"/>
<path d="M413.421 365.472C413.029 365.472 412.656 365.24 412.497 364.857C405.4 347.779 388.173 336.304 369.63 336.304C369.077 336.304 368.63 335.858 368.63 335.307C368.63 334.756 369.077 334.31 369.63 334.31C388.973 334.31 406.943 346.279 414.345 364.094C414.556 364.603 414.314 365.186 413.804 365.396C413.679 365.448 413.549 365.472 413.421 365.472Z" fill="#54546D"/>
<path d="M125.439 383.999C125.991 383.999 126.439 383.553 126.439 383.002C126.44 379.213 126.899 375.452 127.803 371.823C127.936 371.289 127.61 370.748 127.074 370.615C126.539 370.486 125.996 370.807 125.862 371.342C124.919 375.128 124.44 379.051 124.439 383.002C124.439 383.552 124.887 383.999 125.439 383.999Z" fill="#54546D"/>
<path d="M129.028 365.934C129.42 365.934 129.793 365.702 129.952 365.319C137.049 348.241 154.276 336.766 172.819 336.766C173.372 336.766 173.819 336.32 173.819 335.769C173.819 335.218 173.372 334.772 172.819 334.772C153.476 334.772 135.506 346.741 128.104 364.556C127.893 365.065 128.135 365.648 128.645 365.859C128.77 365.91 128.9 365.934 129.028 365.934Z" fill="#54546D"/>
<path d="M167.645 383.119L137.736 310.148L141.296 308.699L171.204 381.669L167.645 383.119Z" fill="#7A8483"/>
<path d="M280.713 403.872C275.036 404.074 269.62 402.06 265.463 398.2C261.305 394.341 258.905 389.099 258.703 383.441C258.501 377.781 260.521 372.382 264.393 368.239C268.264 364.094 273.522 361.701 279.199 361.5C284.875 361.298 290.291 363.312 294.448 367.172C298.606 371.031 301.006 376.273 301.208 381.932C301.41 387.59 299.39 392.989 295.518 397.133C291.647 401.278 286.389 403.671 280.713 403.872ZM279.434 368.084C275.68 368.217 271.978 369.775 269.223 372.723C263.714 378.622 264.045 387.891 269.961 393.385C275.877 398.879 285.175 398.549 290.687 392.649C296.196 386.749 295.865 377.481 289.949 371.987C286.99 369.242 283.187 367.951 279.434 368.084Z" fill="#48BAD8"/>
<path d="M278.92 361.581L167.856 370.244C163.169 370.61 159.666 374.694 160.033 379.367C160.35 383.405 163.486 386.657 167.521 387.133L266.76 398.83C266.76 398.83 259.331 379.655 278.92 361.581Z" fill="#48BAD8"/>
<path d="M318.22 376.88C318.274 374.822 316.632 373.116 314.567 373.084L290.008 372.705C288.773 372.673 287.737 373.654 287.705 374.885L287.629 377.808C287.597 379.039 288.581 380.072 289.816 380.104L314.453 380.485C316.486 380.516 318.167 378.908 318.22 376.88Z" fill="#3D3D51"/>
<path d="M173.047 377.355C172.009 377.355 171.131 376.556 171.054 375.507C170.973 374.409 171.801 373.453 172.902 373.372L276.86 365.77C277.969 365.695 278.921 366.515 279.002 367.613C279.082 368.711 278.255 369.667 277.153 369.748L173.195 377.35C173.146 377.353 173.096 377.355 173.047 377.355Z" fill="#72DAF2"/>
<path d="M280.551 399.35C276.085 399.509 271.825 397.925 268.556 394.888C265.285 391.853 263.398 387.73 263.239 383.279C263.08 378.827 264.669 374.581 267.714 371.321C270.759 368.061 274.895 366.179 279.36 366.02C283.825 365.861 288.084 367.445 291.354 370.482C294.624 373.517 296.512 377.64 296.672 382.092C296.831 386.543 295.242 390.789 292.196 394.049C289.152 397.31 285.016 399.192 280.551 399.35ZM279.605 372.883C277.084 372.973 274.599 374.018 272.749 375.997C269.05 379.958 269.273 386.18 273.245 389.868C277.217 393.556 283.459 393.335 287.16 389.374C290.859 385.413 290.636 379.191 286.665 375.503C284.678 373.66 282.125 372.793 279.605 372.883Z" fill="#3D3D51"/>
<path d="M280.551 399.35C276.085 399.509 271.825 397.925 268.556 394.888C265.285 391.853 263.398 387.73 263.239 383.279C263.08 378.827 264.669 374.581 267.714 371.321C270.759 368.061 274.895 366.179 279.36 366.02C283.825 365.861 288.084 367.445 291.354 370.482C294.624 373.517 296.512 377.64 296.672 382.092C296.831 386.543 295.242 390.789 292.196 394.049C289.152 397.31 285.016 399.192 280.551 399.35ZM279.605 372.883C277.084 372.973 274.599 374.018 272.749 375.997C269.05 379.958 269.273 386.18 273.245 389.868C277.217 393.556 283.459 393.335 287.16 389.374C290.859 385.413 290.636 379.191 286.665 375.503C284.678 373.66 282.125 372.793 279.605 372.883Z" fill="#3D3D51"/>
<path d="M280.144 387.976C278.726 388.026 277.374 387.523 276.336 386.56C275.298 385.596 274.699 384.288 274.648 382.875C274.597 381.462 275.102 380.114 276.069 379.079C277.035 378.044 278.348 377.447 279.766 377.396C281.183 377.346 282.536 377.849 283.573 378.812C284.611 379.775 285.21 381.084 285.261 382.497C285.312 383.91 284.807 385.258 283.84 386.293C282.874 387.328 281.561 387.926 280.144 387.976Z" fill="#3D3D51"/>
<path d="M279.236 386.771L277.755 383.505L301.393 373.999L313.174 374.944L312.866 378.765L302.039 377.897L279.236 386.771Z" fill="#3D3D51"/>
<path d="M171.865 383.513C170.447 383.563 169.095 383.061 168.057 382.097C167.019 381.133 166.42 379.825 166.369 378.412C166.319 376.999 166.823 375.651 167.79 374.616C168.757 373.581 170.07 372.983 171.487 372.933C172.904 372.883 174.257 373.386 175.294 374.349C176.332 375.313 176.931 376.621 176.982 378.035C177.032 379.448 176.528 380.796 175.561 381.831C174.595 382.865 173.283 383.463 171.865 383.513Z" fill="#3D3D51"/>
<path d="M285.409 354.677C285.519 355.006 290.14 367.837 290.14 367.837L307.852 365.863L303.479 353.345L298.611 345.245L285.409 354.677Z" fill="#FFA98C"/>
<path d="M303.479 353.346L316.296 363.515C320.485 363.515 323.881 366.9 323.881 371.077V373.684H286.477C286.477 373.684 282.815 367.948 287.262 359.343L293.278 364.558H300.34L303.479 353.346Z" fill="#E7E3E0"/>
<path d="M208.5 300.04H148.807V237.761H124.683C120.059 237.761 116.31 241.491 116.31 246.092V296.139C116.31 300.74 120.059 304.47 124.683 304.47H125.723C126.137 304.558 126.566 304.606 127.006 304.606H204.817C207.844 304.606 210.376 302.418 210.896 299.558C210.159 299.868 209.348 300.04 208.5 300.04Z" fill="#EE7F29"/>
<path d="M208.5 266.062H130.689C127.289 266.062 124.506 263.288 124.506 259.898V293.853C124.506 297.243 127.288 300.016 130.689 300.016H208.5C209.349 300.016 210.159 299.843 210.897 299.531C210.961 299.176 211 298.813 211 298.441V264.487C211 264.859 210.961 265.222 210.897 265.577C210.159 265.889 209.348 266.062 208.5 266.062Z" fill="#FFB981"/>
<path d="M204.817 240.297H127.006C126.157 240.297 125.347 240.47 124.609 240.782C124.545 241.137 124.506 241.5 124.506 241.872V262.399C124.506 265.789 127.288 268.562 130.689 268.562H208.5C209.349 268.562 210.159 268.389 210.897 268.077C210.961 267.722 211 267.359 211 266.987V246.46C211 243.071 208.218 240.297 204.817 240.297Z" fill="#EE7F29"/>
<path d="M204.817 237.797H127.006C126.157 237.797 125.347 237.97 124.609 238.282C124.545 238.637 124.506 239 124.506 239.372V259.898C124.506 263.288 127.288 266.062 130.689 266.062H208.5C209.349 266.062 210.159 265.889 210.897 265.577C210.961 265.222 211 264.859 211 264.487V243.961C211 240.571 208.218 237.797 204.817 237.797Z" fill="#FFC294"/>
<path d="M201.575 243.483H193.866C193.314 243.483 192.866 243.036 192.866 242.483C192.866 241.93 193.314 241.483 193.866 241.483H201.575C202.127 241.483 202.575 241.93 202.575 242.483C202.575 243.036 202.127 243.483 201.575 243.483Z" fill="#FFCFAE"/>
<path d="M185.642 243.483H133.991C133.439 243.483 132.991 243.036 132.991 242.483C132.991 241.93 133.439 241.483 133.991 241.483H185.642C186.194 241.483 186.642 241.93 186.642 242.483C186.642 243.036 186.195 243.483 185.642 243.483Z" fill="#FFCFAE"/>
<path d="M264.975 189.254L260.027 185.598C253.972 181.124 245.71 182.236 240.893 188.155C230.358 201.1 214.097 225.96 211.32 258.641C211.32 258.641 237.502 268.698 254.758 256.127L270.371 206.46C272.372 200.095 270.178 193.098 264.975 189.254Z" fill="#E14B57"/>
<path d="M251.921 182.874C247.819 182.84 243.75 184.644 240.893 188.155C230.358 201.1 214.097 225.96 211.32 258.641C211.32 258.641 212.761 259.191 215.17 259.872C218.468 225.555 236.703 199.447 248.546 185.816C249.551 184.66 250.69 183.679 251.921 182.874Z" fill="#D33C4E"/>
<path d="M269.929 180.199L256.694 175.766L253.371 184.047C251.712 184.585 250.401 185.603 249.744 187.057C248.172 190.535 250.905 195.154 255.848 197.374C260.791 199.594 266.072 198.573 267.644 195.095C268.54 193.113 268.034 190.762 266.521 188.694L269.929 180.199Z" fill="#FFA98C"/>
<path d="M256.503 184.345L256.917 183.724C259.337 184.747 261.069 185.475 268.681 184.07L259.56 176.726L256.693 175.766L253.37 184.047C251.711 184.585 250.4 185.603 249.743 187.057C248.171 190.535 250.904 195.154 255.847 197.374C257.781 198.243 259.764 198.608 261.56 198.532C260.704 198.338 259.837 198.057 258.98 197.672C254.037 195.452 251.304 190.833 252.876 187.355C253.533 185.9 254.845 184.883 256.503 184.345Z" fill="#F49684"/>
<path d="M299.455 245.777C294.408 246.193 290.116 249.947 289.005 254.871C288.247 258.23 288.982 261.469 290.693 264.029C293.248 260.838 295.18 257.149 298.499 254.667C299.966 253.569 302.279 254.444 303.118 255.874L298.456 263.982C297.053 266.422 298.968 269.514 301.774 269.22C301.817 269.215 301.86 269.211 301.903 269.206C306.799 268.642 310.933 264.985 312.027 260.194C313.814 252.361 307.546 245.11 299.455 245.777Z" fill="#FFA98C"/>
<path d="M279.557 256.764L252.372 240.226C245.408 235.989 240.475 229.203 238.786 221.562L233.947 205.283C231.279 196.31 236.504 187.095 245.506 184.435H245.519L255.284 217.411L255.357 217.767C256.018 220.979 258.158 223.892 261.229 225.76L288.413 242.297L279.557 256.764Z" fill="#DE2D28"/>
<path d="M279.557 256.764L252.372 240.226C245.408 235.989 240.475 229.203 238.786 221.562L233.947 205.283C231.279 196.31 236.473 187.062 245.475 184.402L245.519 184.435L255.284 217.411L255.357 217.767C256.018 220.979 258.158 223.892 261.229 225.76L288.413 242.297L279.557 256.764Z" fill="#DE2D28"/>
<path d="M241.475 218.346L236.636 202.067C235.175 197.151 236.14 192.217 238.714 188.215C234.17 192.461 232.057 198.925 233.947 205.282L238.786 221.561C240.475 229.203 245.408 235.989 252.372 240.225L279.557 256.763L281.721 253.228L255.061 237.009C248.097 232.774 243.164 225.988 241.475 218.346Z" fill="#CE2525"/>
<path d="M298.35 253.753L292.227 254.815C289.491 255.258 287.615 257.852 288.059 260.58C288.503 263.308 291.105 265.178 293.842 264.735L299.965 263.674C302.702 263.231 304.577 260.637 304.133 257.909C303.689 255.181 301.087 253.311 298.35 253.753Z" fill="#3D3D51"/>
<path d="M250.275 150.639L247.227 156.29V165.328C247.227 165.328 244.94 177.991 252.815 177.991C260.691 177.991 255.101 146.334 255.101 146.334L250.275 150.639Z" fill="#563A06"/>
<path d="M250.186 152.803V170.375C250.186 177.263 255.227 183.425 262.105 184.079C262.57 184.123 263.04 184.146 263.513 184.146H273.435C274.608 184.146 275.79 184.006 276.903 183.637C281.823 182.009 284.8 177.585 284.8 172.855V151.077L250.186 152.803Z" fill="#FFA98C"/>
<path d="M252.816 166.088C252.816 168.466 250.882 170.393 248.497 170.393C246.112 170.393 244.178 168.465 244.178 166.088C244.178 163.71 246.112 161.783 248.497 161.783C250.882 161.783 252.816 163.71 252.816 166.088Z" fill="#FFA98C"/>
<path d="M252.142 164.315H250.188C249.538 164.315 249.006 163.783 249.006 163.133V153.848C249.006 153.198 249.538 152.666 250.188 152.666H252.142C252.792 152.666 253.324 153.198 253.324 153.848V163.133C253.324 163.783 252.792 164.315 252.142 164.315Z" fill="#563A06"/>
<path d="M267.439 137.408C276.947 137.408 285.003 143.462 287.89 151.862C285.989 142.451 277.558 135.356 267.439 135.356C257.32 135.356 248.889 142.451 246.988 151.862C249.875 143.462 257.931 137.408 267.439 137.408Z" fill="#C42020"/>
<path d="M246.606 156.291H288.272C288.275 156.155 288.297 156.024 288.297 155.887C288.297 154.509 288.154 153.164 287.891 151.862C285.003 143.463 276.948 137.408 267.44 137.408C257.932 137.408 249.876 143.462 246.989 151.862C246.726 153.164 246.583 154.509 246.583 155.887C246.581 156.024 246.602 156.155 246.606 156.291Z" fill="#C42020"/>
<path d="M267.439 137.408C276.947 137.408 285.003 143.462 287.89 151.862C285.989 142.451 277.558 135.356 267.439 135.356C257.32 135.356 248.889 142.451 246.988 151.862C249.875 143.462 257.931 137.408 267.439 137.408Z" fill="#F95F5F"/>
<path d="M257.299 156.382H291.825L294.914 153.342C297.53 150.767 295.677 146.364 291.978 146.364H275.562C269.638 146.364 264.002 148.875 260.092 153.255L257.299 156.382Z" fill="#55A1A9"/>
<path d="M304.544 312.742C304.238 303.303 299.938 294.377 292.744 288.255L254.691 256.174L241.549 256.919L241.498 256.979L211.32 258.809C211.32 258.809 211.942 281.516 235.13 286.652C240.536 287.85 245.262 288.231 249.355 288.097L274.597 309.578C275.792 310.596 276.507 312.08 276.559 313.649L277.892 354.682L305.876 353.774L304.544 312.742Z" fill="#29363F"/>
<path d="M280.35 306.291L255.108 284.81C251.015 284.944 246.288 284.563 240.883 283.365C222.841 279.368 218.462 264.738 217.406 258.44L211.32 258.809C211.32 258.809 211.942 281.516 235.13 286.652C240.536 287.85 245.262 288.231 249.355 288.097L274.597 309.578C275.792 310.596 276.507 312.08 276.559 313.649L277.892 354.682L284.022 354.483L282.311 310.362C282.26 308.793 281.545 307.309 280.35 306.291Z" fill="#212E35"/>
<g opacity="0.41">
<path d="M299.783 340.885C299.23 340.885 298.783 340.438 298.783 339.885V311.739C298.783 306.263 296.464 301.007 292.42 297.315L264.643 271.962C264.235 271.59 264.205 270.957 264.579 270.55C264.952 270.141 265.585 270.112 265.991 270.486L293.768 295.839C298.227 299.907 300.784 305.703 300.784 311.739V339.885C300.783 340.437 300.336 340.885 299.783 340.885Z" fill="#374851"/>
</g>
<path d="M266.659 164.546C266.659 165.565 265.922 166.391 265.012 166.391C264.102 166.391 263.365 165.565 263.365 164.546C263.365 163.527 264.102 162.702 265.012 162.702C265.922 162.702 266.659 163.528 266.659 164.546Z" fill="#564529"/>
<path d="M280.955 164.546C280.955 165.565 280.218 166.391 279.308 166.391C278.398 166.391 277.661 165.565 277.661 164.546C277.661 163.527 278.398 162.702 279.308 162.702C280.218 162.702 280.955 163.528 280.955 164.546Z" fill="#564529"/>
<path d="M272.453 179.214C270.377 179.214 268.581 178.151 267.763 176.437C267.551 175.993 267.74 175.463 268.185 175.253C268.629 175.04 269.162 175.23 269.373 175.674C269.993 176.974 271.37 177.437 272.454 177.437C272.457 177.437 272.46 177.437 272.462 177.437C273.536 177.435 274.902 176.971 275.512 175.678C275.721 175.234 276.252 175.043 276.698 175.252C277.143 175.461 277.335 175.99 277.125 176.435C276.318 178.145 274.533 179.211 272.465 179.215C272.462 179.214 272.457 179.214 272.453 179.214Z" fill="#E08977"/>
<path d="M261.662 161.823C261.572 161.823 261.481 161.796 261.402 161.739C261.202 161.595 261.157 161.317 261.301 161.117C262.649 159.242 265.276 158.809 267.157 160.154C267.357 160.297 267.404 160.576 267.261 160.776C267.118 160.976 266.84 161.023 266.639 160.88C265.156 159.822 263.087 160.161 262.025 161.638C261.937 161.759 261.8 161.823 261.662 161.823Z" fill="#564529"/>
<path d="M276.431 161.823C276.341 161.823 276.25 161.796 276.171 161.739C275.971 161.595 275.925 161.317 276.07 161.117C277.418 159.242 280.045 158.809 281.926 160.154C282.126 160.297 282.173 160.576 282.03 160.776C281.887 160.976 281.608 161.023 281.408 160.88C279.926 159.822 277.856 160.161 276.794 161.638C276.706 161.759 276.57 161.823 276.431 161.823Z" fill="#564529"/>
<path d="M178.225 286.178L173.392 279.53L168.559 272.882L163.726 279.53L158.893 286.178H163.449V293.588H173.669V286.178H178.225Z" fill="#EE7F29"/>
<path d="M201.091 238.65H114.695C113.012 238.65 111.647 237.286 111.647 235.602V203.598C111.647 201.915 113.011 200.55 114.695 200.55H201.091C202.774 200.55 204.139 201.914 204.139 203.598V235.602C204.138 237.285 202.774 238.65 201.091 238.65Z" fill="#EA9B3D"/>
<path d="M201.091 238.65H136.14C134.457 238.65 133.092 237.286 133.092 235.602V203.598C133.092 201.915 134.456 200.55 136.14 200.55H201.091C202.774 200.55 204.139 201.914 204.139 203.598V235.602C204.138 237.285 202.774 238.65 201.091 238.65Z" fill="#F9AD5A"/>
<path d="M164.983 222.505H141.216V232.177H164.983V222.505Z" fill="#EE7F29"/>
<path d="M190.918 205.685H183.208C182.656 205.685 182.208 205.238 182.208 204.685C182.208 204.132 182.656 203.685 183.208 203.685H190.918C191.47 203.685 191.918 204.132 191.918 204.685C191.918 205.237 191.47 205.685 190.918 205.685Z" fill="#FFBD7B"/>
<path d="M174.985 205.685H153.334C152.782 205.685 152.334 205.238 152.334 204.685C152.334 204.132 152.782 203.685 153.334 203.685H174.985C175.537 203.685 175.985 204.132 175.985 204.685C175.985 205.237 175.537 205.685 174.985 205.685Z" fill="#FFBD7B"/>
<path d="M146.018 199.93H139.636C139.283 199.93 138.997 200.215 138.997 200.567V313.435C138.997 313.787 139.283 314.072 139.636 314.072H146.018C146.371 314.072 146.657 313.787 146.657 313.435V200.567C146.657 200.215 146.371 199.93 146.018 199.93Z" fill="#EE7F29"/>
<path d="M144.408 199.93H138.026C137.673 199.93 137.387 200.215 137.387 200.567V313.435C137.387 313.787 137.673 314.072 138.026 314.072H144.408C144.761 314.072 145.047 313.787 145.047 313.435V200.567C145.046 200.215 144.761 199.93 144.408 199.93Z" fill="#3D3D51"/>
<path d="M139.179 311.583C138.891 311.583 138.654 311.347 138.654 311.058V202.055C138.654 201.766 138.89 201.53 139.179 201.53C139.468 201.53 139.704 201.766 139.704 202.055V311.058C139.704 311.347 139.468 311.583 139.179 311.583Z" fill="#4B4B63"/>
<path d="M199.277 199.93H192.895C192.542 199.93 192.256 200.215 192.256 200.567V313.435C192.256 313.787 192.542 314.072 192.895 314.072H199.277C199.63 314.072 199.916 313.787 199.916 313.435V200.567C199.916 200.215 199.63 199.93 199.277 199.93Z" fill="#EE7F29"/>
<path d="M197.667 199.93H191.285C190.932 199.93 190.646 200.215 190.646 200.567V313.435C190.646 313.787 190.932 314.072 191.285 314.072H197.667C198.02 314.072 198.306 313.787 198.306 313.435V200.567C198.305 200.215 198.02 199.93 197.667 199.93Z" fill="#3D3D51"/>
<path d="M192.438 311.583C192.149 311.583 191.913 311.347 191.913 311.058V202.055C191.913 201.766 192.149 201.53 192.438 201.53C192.727 201.53 192.963 201.766 192.963 202.055V311.058C192.963 311.347 192.727 311.583 192.438 311.583Z" fill="#4B4B63"/>
<path d="M72.336 199.395C72.171 199.395 72.003 199.368 71.838 199.31C71.056 199.035 70.646 198.179 70.921 197.397C71.585 195.507 72.291 193.599 73.017 191.724C73.316 190.952 74.185 190.567 74.957 190.867C75.729 191.166 76.113 192.035 75.813 192.807C75.098 194.652 74.404 196.531 73.75 198.391C73.534 199.008 72.955 199.395 72.336 199.395Z" fill="#2C699B"/>
<path d="M79.1449 182.629C78.9339 182.629 78.7199 182.584 78.5159 182.49C77.7639 182.142 77.4359 181.251 77.7849 180.499C79.4839 176.827 81.3249 173.16 83.2559 169.599C83.6509 168.871 84.5599 168.599 85.2889 168.995C86.0179 169.39 86.2879 170.3 85.8929 171.028C83.9929 174.533 82.1809 178.143 80.5079 181.757C80.2539 182.306 79.7109 182.629 79.1449 182.629ZM421.129 172.038C420.596 172.038 420.08 171.753 419.809 171.251C417.916 167.75 415.885 164.261 413.771 160.88C413.331 160.177 413.544 159.252 414.248 158.813C414.948 158.377 415.875 158.586 416.314 159.29C418.461 162.724 420.526 166.269 422.448 169.825C422.843 170.554 422.571 171.464 421.842 171.858C421.614 171.98 421.37 172.038 421.129 172.038ZM90.6749 161.367C90.4029 161.367 90.1269 161.293 89.8799 161.138C89.1779 160.698 88.9659 159.772 89.4059 159.071C91.5559 155.642 93.8449 152.237 96.2089 148.951C96.6919 148.279 97.6289 148.126 98.3029 148.609C98.9749 149.093 99.1289 150.03 98.6449 150.703C96.3179 153.938 94.0649 157.289 91.9479 160.665C91.6619 161.118 91.1739 161.367 90.6749 161.367ZM408.308 151.537C407.841 151.537 407.381 151.32 407.088 150.911C404.77 147.677 402.315 144.47 399.791 141.382C399.267 140.74 399.361 139.796 400.003 139.271C400.644 138.748 401.59 138.842 402.113 139.483C404.676 142.62 407.171 145.877 409.525 149.162C410.008 149.835 409.853 150.772 409.18 151.255C408.917 151.446 408.611 151.537 408.308 151.537ZM104.794 141.731C104.459 141.731 104.123 141.62 103.844 141.391C103.203 140.866 103.11 139.921 103.635 139.28C106.201 136.149 108.899 133.059 111.655 130.097C112.22 129.49 113.169 129.456 113.775 130.02C114.382 130.584 114.416 131.533 113.852 132.14C111.139 135.057 108.482 138.098 105.956 141.181C105.659 141.543 105.228 141.731 104.794 141.731ZM393.007 132.811C392.605 132.811 392.202 132.65 391.907 132.331C389.199 129.412 386.361 126.54 383.471 123.793C382.87 123.222 382.846 122.273 383.417 121.672C383.985 121.07 384.937 121.047 385.537 121.618C388.472 124.407 391.355 127.325 394.105 130.29C394.668 130.898 394.632 131.847 394.026 132.41C393.738 132.679 393.372 132.811 393.007 132.811ZM121.268 124.025C120.871 124.025 120.474 123.868 120.179 123.557C119.609 122.956 119.634 122.006 120.236 121.436C123.169 118.656 126.234 115.929 129.344 113.332C129.98 112.8 130.925 112.886 131.457 113.522C131.988 114.158 131.903 115.103 131.267 115.635C128.205 118.192 125.188 120.877 122.3 123.614C122.009 123.889 121.638 124.025 121.268 124.025ZM375.476 116.152C375.136 116.152 374.794 116.037 374.514 115.802C371.462 113.246 368.285 110.752 365.073 108.39C364.406 107.899 364.262 106.96 364.754 106.293C365.244 105.625 366.184 105.482 366.851 105.973C370.115 108.373 373.341 110.906 376.441 113.502C377.077 114.034 377.16 114.98 376.629 115.615C376.331 115.97 375.905 116.152 375.476 116.152ZM139.832 108.528C139.37 108.528 138.914 108.316 138.621 107.915C138.131 107.247 138.275 106.309 138.944 105.819C142.206 103.427 145.589 101.107 148.997 98.9241C149.695 98.4791 150.623 98.6811 151.069 99.3781C151.516 100.076 151.313 101.003 150.615 101.45C147.259 103.599 143.929 105.883 140.717 108.238C140.45 108.434 140.139 108.528 139.832 108.528ZM355.992 101.826C355.714 101.826 355.433 101.749 355.182 101.588C351.828 99.4341 348.364 97.3601 344.881 95.4241C344.157 95.0211 343.897 94.1081 344.3 93.3841C344.701 92.6591 345.615 92.4001 346.34 92.8021C349.876 94.7691 353.397 96.8761 356.803 99.0641C357.5 99.5121 357.702 100.44 357.254 101.137C356.969 101.582 356.485 101.826 355.992 101.826ZM160.194 95.4911C159.666 95.4911 159.154 95.2121 158.88 94.7181C158.479 93.9941 158.74 93.0811 159.465 92.6791C163.007 90.7151 166.655 88.8421 170.308 87.1091C171.056 86.7551 171.951 87.0731 172.306 87.8221C172.661 88.5711 172.342 89.4651 171.593 89.8201C167.998 91.5251 164.407 93.3701 160.92 95.3031C160.689 95.4301 160.44 95.4911 160.194 95.4911ZM334.855 90.0711C334.639 90.0711 334.419 90.0241 334.212 89.9251C330.609 88.2111 326.909 86.5931 323.214 85.1141C322.444 84.8061 322.071 83.9341 322.378 83.1641C322.686 82.3951 323.562 82.0221 324.327 82.3291C328.082 83.8301 331.842 85.4751 335.501 87.2161C336.249 87.5721 336.566 88.4671 336.211 89.2151C335.954 89.7551 335.416 90.0711 334.855 90.0711ZM182.036 85.1331C181.44 85.1331 180.876 84.7751 180.642 84.1881C180.335 83.4181 180.711 82.5461 181.48 82.2391C185.243 80.7391 189.098 79.3441 192.94 78.0911C193.727 77.8341 194.575 78.2641 194.832 79.0521C195.089 79.8401 194.659 80.6861 193.871 80.9441C190.09 82.1771 186.295 83.5511 182.591 85.0271C182.409 85.0981 182.221 85.1331 182.036 85.1331ZM312.398 81.0891C312.244 81.0891 312.087 81.0651 311.931 81.0141C308.144 79.7731 304.268 78.6391 300.409 77.6411C299.606 77.4341 299.125 76.6161 299.332 75.8131C299.539 75.0111 300.354 74.5261 301.159 74.7361C305.08 75.7491 309.018 76.9021 312.865 78.1631C313.652 78.4211 314.082 79.2681 313.824 80.0561C313.617 80.6881 313.029 81.0891 312.398 81.0891ZM205.011 77.6341C204.343 77.6341 203.733 77.1841 203.559 76.5071C203.353 75.7051 203.836 74.8871 204.638 74.6811C208.552 73.6741 212.555 72.7791 216.535 72.0211C217.35 71.8631 218.134 72.4011 218.289 73.2141C218.444 74.0281 217.91 74.8131 217.096 74.9681C213.178 75.7141 209.237 76.5951 205.384 77.5861C205.261 77.6181 205.135 77.6341 205.011 77.6341ZM288.978 75.0361C288.884 75.0361 288.789 75.0271 288.694 75.0091C284.786 74.2601 280.798 73.6271 276.841 73.1271C276.02 73.0231 275.438 72.2731 275.541 71.4511C275.645 70.6291 276.381 70.0441 277.218 70.1511C281.237 70.6591 285.287 71.3031 289.258 72.0641C290.071 72.2201 290.605 73.0061 290.449 73.8191C290.312 74.5361 289.683 75.0361 288.978 75.0361ZM228.762 73.1111C228.017 73.1111 227.371 72.5561 227.276 71.7981C227.173 70.9761 227.756 70.2261 228.578 70.1231C232.59 69.6201 236.673 69.2391 240.715 68.9891C241.54 68.9461 242.254 69.5671 242.304 70.3941C242.355 71.2211 241.726 71.9331 240.899 71.9831C236.92 72.2291 232.9 72.6041 228.95 73.0991C228.887 73.1071 228.824 73.1111 228.762 73.1111ZM264.99 71.9991C264.958 71.9991 264.926 71.9981 264.894 71.9961C260.925 71.7461 256.889 71.6191 252.898 71.6161C252.07 71.6161 251.399 70.9441 251.399 70.1151C251.4 69.2871 252.071 68.6161 252.899 68.6161C256.952 68.6191 261.052 68.7481 265.083 69.0021C265.91 69.0541 266.538 69.7671 266.486 70.5931C266.435 71.3881 265.775 71.9991 264.99 71.9991Z" fill="#2C699B"/>
<path d="M428.998 188.415C428.413 188.415 427.857 188.071 427.615 187.498C426.852 185.694 426.044 183.862 425.211 182.053C424.864 181.3 425.193 180.41 425.945 180.063C426.695 179.715 427.588 180.045 427.935 180.798C428.782 182.635 429.604 184.497 430.378 186.331C430.7 187.094 430.343 187.974 429.58 188.296C429.39 188.376 429.192 188.415 428.998 188.415Z" fill="#2C699B"/>
<path d="M460.336 204.114C466.204 187.107 457.175 168.562 440.168 162.694C423.161 156.825 404.616 165.854 398.747 182.862C392.879 199.869 401.908 218.413 418.915 224.282C435.922 230.151 454.467 221.121 460.336 204.114Z" fill="#EE7F29"/>
<path d="M386.28 131.294C399.002 118.572 399.002 97.9465 386.28 85.2249C373.559 72.5033 352.933 72.5033 340.211 85.2249C327.49 97.9465 327.49 118.572 340.211 131.294C352.933 144.015 373.559 144.015 386.28 131.294Z" fill="#EE7F29"/>
<path d="M293.089 82.7478C299.922 66.1042 291.969 47.0725 275.326 40.2394C258.682 33.4063 239.65 41.3594 232.817 58.0031C225.984 74.6468 233.937 93.6785 250.581 100.512C267.225 107.345 286.256 99.3915 293.089 82.7478Z" fill="#EE7F29"/>
<path d="M70.4639 226.058C88.4552 226.058 103.04 211.473 103.04 193.482C103.04 175.491 88.4552 160.906 70.4639 160.906C52.4727 160.906 37.8879 175.491 37.8879 193.482C37.8879 211.473 52.4727 226.058 70.4639 226.058Z" fill="#EE7F29"/>
<path d="M155.908 139.798C173.899 139.798 188.484 125.213 188.484 107.222C188.484 89.2308 173.899 74.646 155.908 74.646C137.917 74.646 123.332 89.2308 123.332 107.222C123.332 125.213 137.917 139.798 155.908 139.798Z" fill="#EE7F29"/>
<path d="M161.871 114.068C161.127 113.322 160.137 112.911 159.081 112.911C158.028 112.911 157.038 113.321 156.293 114.066C155.165 115.193 153.204 115.192 152.077 114.065L149.308 111.297C148.747 110.735 148.437 109.987 148.437 109.19C148.437 108.393 148.747 107.644 149.308 107.082C150.053 106.337 150.463 105.347 150.463 104.293C150.463 103.239 150.053 102.249 149.308 101.504L144.66 96.8551C143.911 96.1061 142.915 95.6941 141.855 95.6941C140.671 95.6941 139.568 96.2161 138.829 97.1271C136.33 100.202 131.846 108.515 144.096 119.225C146.781 122.291 152.23 127.435 158.558 127.435C161.301 127.435 163.888 126.463 166.248 124.545C167.098 123.855 167.619 122.826 167.675 121.724C167.732 120.603 167.31 119.506 166.519 118.715L161.871 114.068ZM147.819 112.788L150.588 115.556C151.549 116.517 152.827 117.047 154.185 117.047C155.544 117.047 156.821 116.518 157.783 115.557C158.5 114.84 159.666 114.841 160.382 115.557L165.031 120.206C165.402 120.576 165.599 121.09 165.572 121.616C165.545 122.132 165.314 122.592 164.922 122.911C157.1 129.265 148.818 121.434 145.587 117.735C141.929 114.545 134.108 106.28 140.466 98.4551C140.785 98.0621 141.245 97.8311 141.76 97.8051L141.857 97.8031C142.348 97.8031 142.827 98.0011 143.172 98.3461L147.821 102.995C148.537 103.711 148.537 104.877 147.821 105.594C145.835 107.576 145.835 110.804 147.819 112.788Z" fill="#2C699B"/>
<path d="M164.766 88.587C158.378 88.587 153.181 92.475 153.181 97.253C153.181 99.356 154.174 101.362 155.982 102.926C155.779 103.551 155.499 104.095 155.146 104.544C154.585 105.256 154.482 106.202 154.876 107.011C155.262 107.804 156.052 108.298 156.937 108.298H156.944L157.101 108.292C159.277 108.134 162.421 107.593 165.104 105.914C171.313 105.778 176.348 101.909 176.348 97.252C176.35 92.475 171.154 88.587 164.766 88.587ZM164.598 103.809L164.428 103.841L164.328 103.909C161.956 105.528 159.007 106.044 156.942 106.192C156.863 106.203 156.812 106.167 156.775 106.098C156.755 106.059 156.716 105.958 156.803 105.847C157.485 104.979 157.965 103.909 158.229 102.668C158.303 102.319 158.161 101.954 157.867 101.737C156.204 100.512 155.288 98.919 155.288 97.253C155.288 93.636 159.539 90.694 164.765 90.694C169.991 90.694 174.242 93.636 174.242 97.253C174.242 100.87 169.991 103.813 164.773 103.813L164.598 103.809Z" fill="#2C699B"/>
<path d="M159.238 95.0811C158.054 95.0811 157.09 96.045 157.09 97.229C157.09 98.413 158.053 99.3771 159.238 99.3771C160.423 99.3771 161.386 98.414 161.386 97.229C161.386 96.044 160.423 95.0811 159.238 95.0811Z" fill="#2C699B"/>
<path d="M166.914 97.229C166.914 96.044 165.95 95.0811 164.766 95.0811C163.582 95.0811 162.618 96.045 162.618 97.229C162.618 98.413 163.581 99.3771 164.766 99.3771C165.95 99.3771 166.914 98.414 166.914 97.229Z" fill="#2C699B"/>
<path d="M170.293 99.3771C171.478 99.3771 172.441 98.414 172.441 97.229C172.441 96.044 171.478 95.0811 170.293 95.0811C169.109 95.0811 168.145 96.045 168.145 97.229C168.145 98.413 169.108 99.3771 170.293 99.3771Z" fill="#2C699B"/>
<path d="M143.934 112.083C143.626 112.154 143.365 112.399 143.27 112.709C143.179 113.006 143.251 113.311 143.468 113.545C144.979 115.17 146.583 116.744 148.237 118.22C148.404 118.369 148.605 118.447 148.813 118.447C148.904 118.447 148.996 118.432 149.087 118.402C149.397 118.3 149.638 118.036 149.702 117.729C149.761 117.446 149.663 117.166 149.435 116.962C147.796 115.499 146.208 113.942 144.716 112.336C144.506 112.11 144.221 112.02 143.934 112.083Z" fill="#2C699B"/>
<path d="M152.703 120.778C153.189 120.778 153.555 120.405 153.555 119.909C153.555 119.414 153.189 119.04 152.703 119.04C152.217 119.04 151.851 119.414 151.851 119.909C151.851 120.405 152.217 120.778 152.703 120.778Z" fill="#2C699B"/>
<path d="M275.563 57.9621C274.843 51.5281 269.463 46.675 263.048 46.675C259.28 46.675 255.61 48.423 253.231 51.35C247.866 57.953 251.74 68.068 254.054 74.112C256.144 79.573 258.802 84.919 261.951 90.001L263.061 91.795L264.173 90.001C266.788 85.779 269.115 81.2531 271.09 76.5511L271.373 75.876C273.045 71.907 274.939 67.409 275.506 62.827C275.717 61.136 275.736 59.4991 275.563 57.9621ZM272.914 62.5061C272.39 66.7341 270.649 70.868 268.965 74.866L268.682 75.5391C267.049 79.4291 265.16 83.208 263.063 86.784C260.483 82.399 258.276 77.8251 256.496 73.1781C254.384 67.6621 250.848 58.4291 255.261 52.9981C257.148 50.6751 260.059 49.2891 263.049 49.2891C268.131 49.2891 272.394 53.1431 272.966 58.2541C273.117 59.6061 273.101 60.9971 272.914 62.5061Z" fill="#2C699B"/>
<path d="M263.108 52.2141C261.052 52.2141 259.121 53.0141 257.668 54.4671C256.214 55.9201 255.414 57.8521 255.414 59.9061C255.414 61.9611 256.214 63.8931 257.668 65.3451C259.12 66.7981 261.052 67.5981 263.108 67.5981C265.162 67.5981 267.094 66.7981 268.547 65.3451C271.546 62.3451 271.546 57.4651 268.547 54.4661C267.094 53.0151 265.162 52.2141 263.108 52.2141ZM266.699 63.4991C265.739 64.4581 264.464 64.9871 263.108 64.9871C261.751 64.9871 260.476 64.4591 259.516 63.4991C258.556 62.5391 258.028 61.2641 258.028 59.9081C258.028 58.5521 258.556 57.2761 259.516 56.3161C260.476 55.3571 261.751 54.8291 263.108 54.8291C264.464 54.8291 265.74 55.3571 266.699 56.3161C268.678 58.2961 268.678 61.5191 266.699 63.4991Z" fill="#2C699B"/>
<path d="M261.757 78.257C261.978 77.962 262.021 77.6 261.877 77.263L259.483 71.678C259.285 71.217 258.806 71.026 258.342 71.224C257.874 71.425 257.538 71.98 257.787 72.562L260.182 78.147C260.31 78.446 260.555 78.638 260.852 78.674C260.885 78.678 260.918 78.679 260.951 78.679C261.252 78.679 261.56 78.52 261.757 78.257Z" fill="#2C699B"/>
<path d="M261.814 81.152C261.665 81.325 261.583 81.554 261.583 81.797C261.583 82.342 261.986 82.754 262.521 82.754C263.056 82.754 263.459 82.342 263.459 81.796C263.459 81.554 263.377 81.325 263.228 81.151C262.88 80.748 262.16 80.748 261.814 81.152Z" fill="#2C699B"/>
<path d="M381.429 99.509L376.445 95.616L378.152 89.529L371.836 89.303L369.635 83.379L364.395 86.909L359.131 83.408L356.967 89.347L350.648 89.602L352.392 95.682L347.429 99.602L352.413 103.495L350.707 109.582L354.801 109.728V131.447L364.553 127.159L366.762 128.16V128.391H367.272L374.056 131.467V109.675L378.21 109.507L376.466 103.427L381.429 99.509ZM359.841 126.86L356.974 128.121V109.808L357.024 109.81L359.224 115.734L359.841 115.318V126.86ZM366.763 125.777L364.568 124.782L362.015 125.905V113.854L364.466 112.204L366.764 113.732V125.777H366.763ZM371.885 128.1L368.935 126.762V115.175L369.73 115.704L371.885 109.787V128.1ZM370.351 107.653L368.633 112.366L364.46 109.59L360.3 112.389L358.555 107.689L353.545 107.51L354.898 102.68L350.948 99.593L354.885 96.483L353.5 91.661L358.511 91.459L360.229 86.745L364.4 89.521L368.56 86.721L370.305 91.422L375.315 91.601L373.961 96.431L377.912 99.518L373.976 102.628L375.358 107.45L370.351 107.653Z" fill="#2C699B"/>
<path d="M364.43 91.1321C359.786 91.1321 356.008 94.9101 356.008 99.5551C356.008 104.2 359.787 107.978 364.43 107.978C369.075 107.978 372.853 104.199 372.853 99.5551C372.853 94.9111 369.074 91.1321 364.43 91.1321ZM364.43 105.807C360.983 105.807 358.179 103.003 358.179 99.5561C358.179 96.1091 360.983 93.3051 364.43 93.3051C367.877 93.3051 370.682 96.1091 370.682 99.5561C370.681 103.003 367.876 105.807 364.43 105.807Z" fill="#2C699B"/>
<path d="M366.436 96.011C366.182 96.268 366.097 96.7 366.428 97.028C367.522 98.109 367.948 99.58 367.594 101.062C367.533 101.324 367.604 101.576 367.793 101.754C367.941 101.894 368.148 101.972 368.349 101.972C368.419 101.972 368.49 101.963 368.555 101.943C368.787 101.873 368.949 101.695 369.009 101.441C369.482 99.455 368.905 97.417 367.463 95.99C367.129 95.661 366.694 95.75 366.436 96.011Z" fill="#2C699B"/>
<path d="M364.087 94.259C363.619 94.259 363.375 94.628 363.375 94.992C363.375 95.181 363.438 95.358 363.551 95.49C363.683 95.643 363.868 95.724 364.087 95.724C364.555 95.724 364.799 95.355 364.799 94.991C364.799 94.802 364.736 94.625 364.623 94.493C364.491 94.34 364.305 94.259 364.087 94.259Z" fill="#2C699B"/>
<path d="M437.029 181.056V179.406H439.326V172.703H427.269V179.406H429.565V181.056C425.277 182.119 421.681 184.952 419.626 188.749H416.491V191.044H418.63C418.209 192.256 417.933 193.531 417.825 194.857H413.226V197.152H417.814C417.891 198.322 418.089 199.458 418.412 200.544H410.558V202.839H419.311C421.823 208.045 427.139 211.654 433.296 211.654C441.861 211.654 448.83 204.685 448.83 196.119C448.832 188.842 443.795 182.734 437.029 181.056ZM446.537 196.12C446.537 203.42 440.598 209.36 433.298 209.36C425.998 209.36 420.059 203.421 420.059 196.12C420.059 188.819 425.998 182.88 433.298 182.88C440.598 182.88 446.537 188.819 446.537 196.12ZM434.734 179.406V180.657C434.26 180.613 433.782 180.584 433.297 180.584C432.812 180.584 432.334 180.613 431.861 180.657V179.406H434.734ZM437.031 174.998V177.111H429.564V174.998H437.031Z" fill="#2C699B"/>
<path d="M428.853 195.945C428.853 198.154 430.76 199.952 433.102 199.952H433.104H433.107C437.946 199.895 443.842 197.099 444.091 196.98L446.253 195.945L444.091 194.91C443.842 194.791 437.946 191.995 433.093 191.938C430.756 191.938 428.853 193.735 428.853 195.945ZM433.081 194.233C435.619 194.263 438.639 195.212 440.606 195.946C438.642 196.68 435.629 197.627 433.094 197.657C432.022 197.657 431.15 196.889 431.15 195.945C431.149 195.002 432.016 194.234 433.081 194.233Z" fill="#2C699B"/>
<path d="M414.312 188.749H411.084V191.044H414.312V188.749Z" fill="#2C699B"/>
<path d="M409.046 200.544H405.819V202.839H409.046V200.544Z" fill="#2C699B"/>
<path d="M411.714 194.857H408.487V197.152H411.714V194.857Z" fill="#2C699B"/>
<path d="M430.039 185.897C429.855 185.494 429.364 185.214 428.866 185.441C426.179 186.664 424.06 188.83 422.901 191.54C422.682 192.052 422.979 192.54 423.391 192.717C423.499 192.763 423.608 192.785 423.713 192.785C424.005 192.785 424.267 192.615 424.395 192.316C425.435 189.885 427.254 188.022 429.656 186.929C430.065 186.742 430.226 186.308 430.039 185.897Z" fill="#2C699B"/>
<path d="M433.4 185.988C433.871 185.988 434.226 185.625 434.226 185.145C434.226 184.664 433.871 184.302 433.4 184.302C433.151 184.302 432.93 184.4 432.778 184.578C432.646 184.731 432.574 184.932 432.574 185.146C432.574 185.625 432.929 185.988 433.4 185.988Z" fill="#2C699B"/>
<path d="M93.1778 182.585C92.9088 182.274 92.5348 182.086 92.1228 182.055C91.7088 182.023 91.3118 182.156 91.0008 182.424L87.2608 185.651L87.2648 181.771L85.9008 181.609C85.7928 181.596 74.9948 180.222 71.1548 176.382L70.0628 175.29L68.9718 176.382C65.0938 180.26 54.3318 181.596 54.2238 181.609L52.8618 181.773V196.792L52.9508 197.159C57.4488 209.807 68.9938 214.611 69.4838 214.809L70.0628 215.043L70.6418 214.809C71.1308 214.611 82.6758 209.812 87.1748 197.158L87.2248 197.016L87.2548 189.735L93.0178 184.763C93.6628 184.207 93.7338 183.23 93.1778 182.585ZM60.9778 191.202C60.6728 191.48 60.4948 191.861 60.4768 192.271C60.4578 192.684 60.6008 193.079 60.8788 193.382L70.6378 204.071L84.1748 192.392V196.371C80.6258 206.035 72.1318 210.671 70.0608 211.68C67.9918 210.676 59.5068 206.055 55.9498 196.371V184.482C59.1028 183.979 66.0388 182.576 70.0618 179.515C74.0858 182.576 81.0208 183.979 84.1738 184.482V188.313L70.8928 199.771L63.1578 191.299C62.8808 190.995 62.5008 190.817 62.0878 190.798C61.6748 190.781 61.2818 190.924 60.9778 191.202Z" fill="#2C699B"/>
<path d="M59.0218 187.031C58.6628 187.031 58.3328 187.175 58.1168 187.426C57.9278 187.647 57.8228 187.935 57.8228 188.239C57.8228 188.837 58.2708 189.455 59.0208 189.455C59.7708 189.455 60.2188 188.836 60.2188 188.238C60.2188 187.935 60.1148 187.647 59.9248 187.426C59.7108 187.175 59.3808 187.031 59.0218 187.031Z" fill="#2C699B"/>
<path d="M68.4728 185.312C68.8518 185.108 69.0848 184.741 69.0978 184.331C69.1128 183.892 68.8748 183.455 68.4938 183.217C68.1278 182.991 67.6778 182.978 67.2898 183.185L62.0208 186.003C61.7078 186.171 61.4958 186.444 61.4228 186.77C61.3598 187.046 61.4028 187.345 61.5448 187.611C61.7658 188.023 62.1798 188.279 62.6268 188.279C62.8248 188.279 63.0198 188.229 63.2058 188.129L68.4728 185.312Z" fill="#2C699B"/>
</svg>
