<svg width="682" height="357" viewBox="0 0 682 357" fill="none" xmlns="http://www.w3.org/2000/svg">
<g opacity="0.68">
<path opacity="0.47" d="M610.838 167.8C608.119 140.773 595.039 113.701 572.384 94.3535C537.083 64.2065 483.684 56.6085 436.884 63.5775C417.281 66.4965 397.842 71.6675 377.77 70.0405C348.496 67.6675 322.709 51.3945 296.056 39.4665C259.775 23.2295 218.185 14.4905 179.614 21.5565C135.881 29.5675 100.024 59.8265 95.7461 99.9755C93.8071 118.167 113.507 150.216 107.29 167.457C100.984 184.943 54.9451 238.506 56.0801 279.246C57.2111 319.834 67.8141 332.458 82.7981 353.086H94.7751H546.126H572.103C581.433 332.185 588.743 315.467 577.819 288.02C569.091 266.09 592.804 248.028 601.979 227.614C610.141 209.445 612.829 187.596 610.838 167.8Z" fill="#9FBFFF"/>
</g>
<path opacity="0.41" d="M4.07015 171.878C-5.25785 153.609 1.99115 131.238 20.2601 121.91C38.5291 112.582 73.5932 113.35 82.9212 131.619C92.2492 149.888 64.1291 165.486 52.6391 182.478C36.6141 206.176 13.3971 190.146 4.07015 171.878Z" fill="#9FBFFF"/>
<path opacity="0.41" d="M645.497 242.589C654.432 252.273 655.159 266.136 647.121 273.552C639.083 280.969 619.738 284.284 610.803 274.6C601.868 264.916 613.98 252.775 616.702 241.603C620.498 226.021 636.562 232.905 645.497 242.589Z" fill="#9FBFFF"/>
<path opacity="0.41" d="M570.272 24.6775C580.638 19.2055 593.477 23.1735 598.949 33.5395C604.421 43.9055 604.255 63.9465 593.889 69.4185C583.523 74.8905 574.392 58.9445 564.593 52.5115C550.927 43.5395 559.906 30.1485 570.272 24.6775Z" fill="#9FBFFF"/>
<g opacity="0.43">
<path d="M556.859 329.173C561.627 305.468 553.984 285.247 552.077 262.003C550.272 239.997 558.088 221.49 562.424 200.531C566.283 181.878 564.997 160.75 560.153 142.417C553.539 117.387 538.307 94.2115 516.362 80.0825C482.167 58.0665 436.564 60.6595 398.792 75.8025C382.971 82.1455 367.648 90.5855 350.704 92.7205C325.992 95.8335 301.94 85.1825 277.867 78.7925C245.098 70.0935 209.126 69.4485 178.208 83.1775C143.153 98.7435 118.227 133.883 121.139 172.586C122.459 190.123 129.209 207.429 126.819 224.851C124.395 242.52 113.899 257.302 108.342 273.943C100.758 296.657 100.067 330.039 112.261 353.086H548.649C552.414 345.549 555.188 337.479 556.859 329.173Z" fill="#9FBFFF"/>
</g>
<g opacity="0.47">
<path d="M475.713 254.906C474.32 240.585 467.619 226.24 456.012 215.988C437.927 200.014 410.569 195.986 386.593 199.679C376.55 201.226 366.591 203.967 356.308 203.104C341.31 201.846 328.099 193.223 314.444 186.902C295.856 178.298 274.549 173.668 254.788 177.412C232.383 181.657 214.013 197.692 211.821 218.966C210.828 228.606 220.92 245.588 217.735 254.724C214.504 263.99 190.917 292.37 191.499 313.958C192.078 335.465 197.511 342.154 205.187 353.085H211.323H442.559H455.867C460.647 342.01 464.392 333.151 458.795 318.607C454.323 306.987 466.472 297.417 471.172 286.6C475.356 276.973 476.733 265.395 475.713 254.906Z" fill="#9FBFFF"/>
</g>
<path d="M679.483 356.218H29.3502C28.4772 356.218 27.7692 355.51 27.7692 354.637C27.7692 353.764 28.4772 353.056 29.3502 353.056H679.483C680.356 353.056 681.064 353.764 681.064 354.637C681.063 355.51 680.356 356.218 679.483 356.218Z" fill="#9FBFFF"/>
<path d="M654.681 211.084C657.166 211.084 659.181 209.07 659.181 206.584C659.181 204.099 657.166 202.084 654.681 202.084C652.196 202.084 650.181 204.099 650.181 206.584C650.181 209.07 652.196 211.084 654.681 211.084Z" fill="#17014C"/>
<path d="M622.681 335.084C624.614 335.084 626.181 333.517 626.181 331.584C626.181 329.651 624.614 328.084 622.681 328.084C620.748 328.084 619.181 329.651 619.181 331.584C619.181 333.517 620.748 335.084 622.681 335.084Z" fill="#4E69FF"/>
<path d="M79.6812 55.0845C82.1664 55.0845 84.1812 53.0698 84.1812 50.5845C84.1812 48.0992 82.1664 46.0845 79.6812 46.0845C77.1959 46.0845 75.1812 48.0992 75.1812 50.5845C75.1812 53.0698 77.1959 55.0845 79.6812 55.0845Z" fill="#4E69FF"/>
<path d="M37.3282 318.512C37.3282 321.152 35.1882 323.291 32.5482 323.291C29.9082 323.291 27.7692 321.151 27.7692 318.512C27.7692 315.872 29.9092 313.733 32.5482 313.733C35.1882 313.732 37.3282 315.872 37.3282 318.512Z" fill="#17014C"/>
<path d="M50.6812 74.0845C51.5096 74.0845 52.1812 73.4129 52.1812 72.5845C52.1812 71.756 51.5096 71.0845 50.6812 71.0845C49.8527 71.0845 49.1812 71.756 49.1812 72.5845C49.1812 73.4129 49.8527 74.0845 50.6812 74.0845Z" fill="#17014C"/>
<path d="M434.188 14.5265C432.802 21.0155 426.418 25.1525 419.929 23.7665C413.44 22.3805 409.303 15.9965 410.689 9.50749C412.075 3.01849 418.459 -1.11851 424.947 0.267493C431.437 1.65449 435.574 8.0385 434.188 14.5265Z" fill="#4E69FF"/>
<path d="M623.687 32.5285C623.266 34.4995 621.328 35.7555 619.357 35.3345C617.386 34.9135 616.13 32.9755 616.551 31.0045C616.972 29.0335 618.91 27.7775 620.881 28.1985C622.851 28.6195 624.107 30.5585 623.687 32.5285Z" fill="#FFB54A"/>
<path d="M153.822 9.3135C153.401 11.2845 151.463 12.5405 149.492 12.1195C147.521 11.6985 146.265 9.75951 146.686 7.78951C147.107 5.81851 149.045 4.5625 151.016 4.9835C152.987 5.4045 154.243 7.3425 153.822 9.3135Z" fill="#FFB54A"/>
<path d="M653.749 114.667C653.328 116.638 651.39 117.895 649.419 117.474C647.448 117.053 646.192 115.115 646.613 113.144C647.034 111.173 648.972 109.917 650.943 110.338C652.914 110.759 654.17 112.696 653.749 114.667Z" fill="#4E69FF"/>
<path d="M391.096 25.9615C390.766 27.5065 389.246 28.4925 387.701 28.1625C386.156 27.8325 385.17 26.3125 385.5 24.7665C385.83 23.2215 387.35 22.2365 388.896 22.5665C390.44 22.8965 391.426 24.4165 391.096 25.9615Z" fill="#17014C"/>
<path d="M183.071 345.758C174.131 345.758 166.856 338.699 166.856 330.021V175.162C166.856 166.484 174.13 159.425 183.071 159.425H252.706C261.646 159.425 268.921 166.485 268.921 175.162V330.021C268.921 338.698 261.647 345.758 252.706 345.758H183.071Z" fill="#3747A3"/>
<path d="M191.03 345.758C182.09 345.758 174.814 338.699 174.814 330.021V175.162C174.814 166.484 182.089 159.425 191.03 159.425H260.664C269.604 159.425 276.879 166.485 276.879 175.162V330.021C276.879 338.698 269.605 345.758 260.664 345.758H191.03Z" fill="#4A60DB"/>
<path d="M260.664 164.202H244.474C243.617 164.202 242.859 164.744 242.605 165.539L241.857 167.88C241.441 169.182 240.2 170.07 238.795 170.07H212.899C211.494 170.07 210.253 169.182 209.836 167.88L209.088 165.539C208.835 164.744 208.077 164.202 207.219 164.202H191.03C184.793 164.202 179.737 169.109 179.737 175.162V330.021C179.737 336.074 184.793 340.981 191.03 340.981H260.664C266.9 340.981 271.956 336.074 271.956 330.021V175.162C271.956 169.109 266.9 164.202 260.664 164.202Z" fill="#292E4A"/>
<path d="M233.026 166.352H218.668C218.238 166.352 217.888 166.013 217.888 165.595C217.888 165.177 218.238 164.838 218.668 164.838H233.026C233.457 164.838 233.805 165.177 233.805 165.595C233.805 166.014 233.457 166.352 233.026 166.352Z" fill="#292E4A"/>
<path d="M170.385 190.799V213.891" stroke="white" stroke-width="1.4467" stroke-miterlimit="10" stroke-linecap="round" stroke-linejoin="round"/>
<path d="M170.385 221.098V231.888" stroke="white" stroke-width="1.4467" stroke-miterlimit="10" stroke-linecap="round" stroke-linejoin="round"/>
<path d="M404.699 339.333C395.759 339.333 388.484 332.274 388.484 323.596V168.737C388.484 160.059 395.758 153 404.699 153H474.333C483.274 153 490.549 160.06 490.549 168.737V323.596C490.549 332.273 483.275 339.333 474.333 339.333H404.699Z" fill="#3747A3"/>
<path d="M412.658 339.333C403.717 339.333 396.442 332.274 396.442 323.596V168.737C396.442 160.059 403.716 153 412.658 153H482.292C491.232 153 498.507 160.06 498.507 168.737V323.596C498.507 332.273 491.233 339.333 482.292 339.333H412.658Z" fill="#4A60DB"/>
<path d="M482.292 157.777H466.102C465.245 157.777 464.487 158.319 464.233 159.114L463.485 161.455C463.069 162.757 461.828 163.645 460.423 163.645H434.526C433.122 163.645 431.881 162.757 431.464 161.455L430.716 159.114C430.463 158.319 429.704 157.777 428.847 157.777H412.658C406.421 157.777 401.365 162.684 401.365 168.737V323.596C401.365 329.649 406.421 334.556 412.658 334.556H482.292C488.528 334.556 493.584 329.649 493.584 323.596V168.737C493.584 162.684 488.528 157.777 482.292 157.777Z" fill="#292E4A"/>
<path d="M454.654 159.927H440.296C439.866 159.927 439.516 159.588 439.516 159.17C439.516 158.752 439.866 158.413 440.296 158.413H454.654C455.085 158.413 455.433 158.752 455.433 159.17C455.433 159.589 455.085 159.927 454.654 159.927Z" fill="#292E4A"/>
<path d="M392.013 184.374V207.466" stroke="white" stroke-width="1.4467" stroke-miterlimit="10" stroke-linecap="round" stroke-linejoin="round"/>
<path d="M392.013 214.673V225.463" stroke="white" stroke-width="1.4467" stroke-miterlimit="10" stroke-linecap="round" stroke-linejoin="round"/>
<path d="M497.478 312.029C497.478 312.029 498.938 315.946 498.423 317.862C497.907 319.779 496.362 321.445 496.276 324.279C496.191 327.112 496.472 332.112 497.405 332.279C498.337 332.446 497.698 328.529 498.533 328.196C499.367 327.863 502.201 333.955 502.201 333.955H510.616C510.616 333.955 507.697 316.363 507.267 313.363C506.836 310.362 497.478 312.029 497.478 312.029Z" fill="#F9B989"/>
<path d="M354.519 265.029C354.519 265.029 340.953 263.946 337.519 263.112C334.084 262.279 325.069 265.029 325.069 265.029L340.176 277.102C340.176 277.102 343.958 274.798 348.079 274.122C352.201 273.446 355.034 273.696 355.034 273.696L354.519 265.029Z" fill="#F9B989"/>
<path d="M412.634 189.588C412.465 192.898 411.549 201.15 412.076 204.976C412.602 208.802 414.664 211.476 418.769 210.858C422.873 210.24 426.526 227.072 426.526 227.072L435.35 228.352L441.725 218.96L435.762 208.657C435.762 208.657 440.082 197.283 437.827 190.609C435.571 183.935 419.249 178.694 413.13 180.871C407.009 183.048 412.634 189.588 412.634 189.588Z" fill="#F9B989"/>
<path d="M421.309 217.969L431.451 221.862L433.597 226.362V220.612L441.171 212.862L443.171 217.112L463.391 294.862H433.254L415.61 226.362L420.89 222.987L421.309 217.969Z" fill="#FF7700"/>
<path d="M479.938 333.954H418.397L429.905 294.862H476.644L479.938 333.954Z" fill="white"/>
<path d="M420.89 222.987C423.896 230.945 437.419 286.279 439.501 293.779C441.583 301.279 442.786 321.946 442.786 321.946C442.786 321.946 424.927 322.279 420.891 321.946C416.855 321.613 422.179 297.613 422.007 292.113C421.835 286.613 411.016 258.113 411.016 258.113C411.016 258.113 390.753 275.28 387.662 275.613C384.571 275.946 352.63 274.78 352.63 274.78V263.947C352.63 263.947 379.419 262.447 382.338 260.947C385.257 259.447 402.945 239.614 407.238 234.614C411.53 229.612 415.481 223.195 420.89 222.987Z" fill="#6470B5"/>
<path d="M404.533 245.862C402.215 246.112 399.768 260.362 396.806 264.487C394.923 267.11 392.211 271.143 390.582 274.122C397.108 269.894 411.016 258.112 411.016 258.112C409.685 255.112 406.852 245.612 404.533 245.862Z" fill="#495285"/>
<path d="M496.783 314.408H508.468L503.87 289.375C502.385 280.139 499.329 271.212 494.819 262.953C487.17 248.95 475.239 228.019 470.345 224.361C467.118 221.949 452.572 216.611 443.17 217.111C443.17 217.111 453.86 280.861 455.405 290.861C456.951 300.861 463.39 320.611 463.39 320.611H484.988L479.937 291.917L474.209 265.111L486.408 281.025L496.783 314.408Z" fill="#6470B5"/>
<path d="M474.21 265.112C474.21 265.112 466.869 255.237 465.194 249.737C463.52 244.237 462.619 236.612 463.391 234.487C464.164 232.362 461.588 231.487 460.429 240.612C459.27 249.737 459.27 257.862 464.937 266.862C470.604 275.862 466.611 281.112 471.119 289.112C475.627 297.112 481.408 300.261 481.408 300.261L474.21 265.112Z" fill="#495285"/>
<path d="M405.239 179.903C408.185 173.68 415.237 177.396 423.027 178.291C430.817 179.185 438.081 180.148 440.605 185.532C443.129 190.916 440.001 201.878 435.762 208.657C435.762 208.657 432.339 204.514 432.304 201.664C432.269 198.813 435.761 196.976 434.312 194.222C432.864 191.468 430.785 193.208 430.324 194.393C429.862 195.578 429.588 196.824 429.056 196.201C428.525 195.578 429.512 193.027 429.219 190.902C428.927 188.777 427.87 185.626 422.976 186.346C418.083 187.067 412.944 186.002 412.944 186.002L412.635 189.59C412.634 189.588 401.924 186.909 405.239 179.903Z" fill="black"/>
<path d="M253.074 301.362L255.467 340.945H189.678C189.678 340.945 191.383 332.116 191.383 324.987C191.383 310.737 200.141 301.362 200.141 301.362H253.074Z" fill="white"/>
<path d="M233.386 340.945H255.467L253.074 301.362H244.657L233.386 340.945Z" fill="#D1D1D1"/>
<path d="M273.38 182.695C273.38 182.695 272.693 191.695 273.895 193.278C275.098 194.861 274.644 195.861 273.54 196.361C272.435 196.861 272.435 205.194 269.86 205.778C267.284 206.361 265.052 204.469 264.107 207.124C263.162 209.778 261.961 216.195 261.961 216.195L245.733 215.112L250.284 203.445C250.284 203.445 247.193 194.778 249.254 187.278C251.315 179.778 272.865 175.195 273.38 182.695Z" fill="#F59462"/>
<path d="M241.869 211.612L269.032 215.327C269.657 215.413 270.067 216.006 269.909 216.599L268.315 222.612C268.315 222.612 269.688 231.945 269.173 238.945C268.658 245.945 262.819 270.278 261.274 277.778C259.728 285.278 258.526 303.778 254.577 303.945C250.627 304.112 204.777 303.945 196.878 303.945C188.978 303.945 200.827 296.112 204.777 289.278C208.727 282.445 213.535 259.445 219.889 246.278C226.243 233.111 240.324 218.361 240.668 215.486C241.012 212.611 240.354 211.405 241.869 211.612Z" fill="#6470B5"/>
<path d="M239.54 238.371C236.67 234.864 235.06 235.737 236.597 241.612C238.135 247.487 240.066 252.737 245.733 256.237C250.849 259.396 252.083 278.136 260.423 282.949C260.708 280.969 260.985 279.182 261.274 277.779C262.537 271.647 266.67 254.267 268.417 244.303C268.411 244.303 241.954 241.322 239.54 238.371Z" fill="#495285"/>
<path d="M274.067 245.862C274.067 245.862 283.856 258.723 287.032 259.626C290.209 260.529 321.978 263.029 324.725 263.029C327.473 263.029 333.74 266.779 336.231 267.946C338.721 269.113 345.246 274.446 341.897 276.363C338.549 278.28 332.71 278.113 329.361 276.363C326.013 274.613 323.265 272.28 320.26 272.28C317.256 272.28 287.799 273.005 281.365 271.113C272.436 268.488 258.577 253.863 256.32 251.946L274.067 245.862Z" fill="#F59462"/>
<path d="M321.913 274.487C322.171 272.59 321.784 270.674 324.618 271.674C327.451 272.674 330.349 274.987 332.603 275.612C334.856 276.237 332.538 278.8 330.735 278.8C328.932 278.8 321.653 276.4 321.913 274.487Z" fill="#F9B989"/>
<path d="M321.592 264.55C321.592 264.55 333.247 262.486 336.21 262.955C339.172 263.424 337.251 264.607 333.892 265.612C326.163 267.925 318.457 266.07 321.592 264.55Z" fill="#F9B989"/>
<path d="M256.637 192.112C256.637 192.112 253.546 189.112 252.688 192.112C251.83 195.112 255.264 197.612 254.663 199.279C254.062 200.946 251.487 207.446 249.597 207.112C247.708 206.779 250.112 203.112 247.879 199.779C245.647 196.446 242.728 192.446 244.616 184.946C246.505 177.446 252.516 179.446 254.577 176.613C256.637 173.78 258.355 170.946 266.425 171.78C274.496 172.613 278.102 167.984 281.537 171.632C284.971 175.28 284.456 181.947 275.87 183.78C267.285 185.613 265.567 183.113 263.764 185.113C261.961 187.112 258.87 191.945 256.637 192.112Z" fill="#995417"/>
<path d="M237.662 236.279L254.49 255.029L276.042 246.946C276.042 246.946 265.91 232.113 262.475 228.113C259.041 224.113 253.03 220.03 247.878 220.863C242.728 221.695 233.455 230.862 237.662 236.279Z" fill="#6470B5"/>
<path d="M259.025 224.817C259.025 224.817 263.683 228.059 269.261 237.21" stroke="#495285" stroke-miterlimit="10"/>
<path d="M155 345.758H277.095" stroke="#292E4A" stroke-width="1.0223" stroke-miterlimit="10"/>
<path d="M297.451 345.758H552" stroke="#292E4A" stroke-width="1.0223" stroke-miterlimit="10"/>
<path d="M294.61 309.683H303.192" stroke="#263238" stroke-width="0.402781" stroke-linecap="round" stroke-linejoin="round"/>
<path d="M361.132 309.683H369.714" stroke="#263238" stroke-width="0.402781" stroke-linecap="round" stroke-linejoin="round"/>
<path d="M303.191 287.841L308.02 291.481" stroke="#263238" stroke-width="0.402781" stroke-linecap="round" stroke-linejoin="round"/>
<path d="M360.058 287.841L355.23 291.481" stroke="#263238" stroke-width="0.402781" stroke-linecap="round" stroke-linejoin="round"/>
<path d="M322.502 279L323.04 286.8" stroke="#263238" stroke-width="0.402781" stroke-linecap="round" stroke-linejoin="round"/>
<path d="M341.284 280.035L340.209 286.8" stroke="#263238" stroke-width="0.402781" stroke-linecap="round" stroke-linejoin="round"/>
<path d="M353.456 299.943H307.136V338.697H353.456V299.943Z" fill="white" stroke="#263238" stroke-width="0.402781" stroke-linecap="round" stroke-linejoin="round"/>
<path d="M324.335 299.943H315.599V338.697H324.335V299.943Z" fill="#EE7F29" stroke="#263238" stroke-width="0.402781" stroke-linecap="round" stroke-linejoin="round"/>
<path d="M353.456 299.943H333.151V338.697H353.456V299.943Z" fill="white" stroke="#263238" stroke-width="0.402781" stroke-linecap="round" stroke-linejoin="round"/>
<path d="M327.028 296.782L320.236 293.928C320.069 293.914 319.902 293.914 319.735 293.928L319.625 293.871H312.788L318.116 296.297C318.143 296.66 318.2 297.02 318.285 297.374C318.464 297.916 318.779 298.405 319.201 298.799C319.624 299.193 320.142 299.478 320.707 299.629L320.751 299.836H321.487L333.313 299.993C333.313 299.993 330.252 298.359 327.028 296.782Z" fill="#EE7F29" stroke="#263238" stroke-width="0.402781" stroke-linecap="round" stroke-linejoin="round"/>
<path d="M326.484 299.943C326.484 299.943 319.124 296.097 315.135 294.406C311.147 292.714 311.007 295.326 311.456 297.324C311.905 299.322 314.628 299.786 314.628 299.786L326.484 299.943Z" fill="#EE7F29" stroke="#263238" stroke-width="0.402781" stroke-linecap="round" stroke-linejoin="round"/>
<path d="M328.236 297.139H325.638C325.267 297.138 324.9 297.208 324.558 297.345C324.215 297.482 323.904 297.683 323.642 297.937C323.38 298.191 323.173 298.493 323.031 298.825C322.89 299.157 322.818 299.513 322.819 299.872H331.055C331.055 299.147 330.758 298.452 330.229 297.939C329.701 297.427 328.984 297.139 328.236 297.139Z" fill="#EE7F29" stroke="#263238" stroke-width="0.402781" stroke-linecap="round" stroke-linejoin="round"/>
<path d="M344.47 293.899H338.465L337.685 296.754C334.461 298.331 331.429 299.915 331.429 299.915L343.256 299.758H343.992L344.029 299.551C344.595 299.401 345.114 299.116 345.538 298.722C345.962 298.328 346.278 297.838 346.457 297.296C346.818 295.669 346.774 293.621 344.47 293.899Z" fill="#EE7F29" stroke="#263238" stroke-width="0.402781" stroke-linecap="round" stroke-linejoin="round"/>
<path d="M324.335 299.943C324.335 299.943 331.694 296.097 335.69 294.406C339.687 292.714 339.812 295.326 339.333 297.324C338.855 299.322 336.162 299.786 336.162 299.786L324.335 299.943Z" fill="#EE7F29" stroke="#263238" stroke-width="0.402781" stroke-linecap="round" stroke-linejoin="round"/>
<path d="M343.302 187.407C369.265 187.407 390.312 167.757 390.312 143.518C390.312 119.279 369.265 99.6295 343.302 99.6295C317.34 99.6295 296.293 119.279 296.293 143.518C296.293 167.757 317.34 187.407 343.302 187.407Z" fill="#1B1B25"/>
<path d="M338.344 182.777C364.306 182.777 385.353 163.128 385.353 138.889C385.353 114.65 364.306 95 338.344 95C312.381 95 291.334 114.65 291.334 138.889C291.334 163.128 312.381 182.777 338.344 182.777Z" fill="#FFB54A"/>
<path d="M338.344 174.322C317.467 174.322 300.482 158.465 300.482 138.974C300.482 119.483 317.467 103.626 338.344 103.626C359.221 103.626 376.205 119.483 376.205 138.974C376.205 158.466 359.221 174.322 338.344 174.322ZM338.344 105.918C318.82 105.918 302.936 120.747 302.936 138.975C302.936 157.203 318.82 172.032 338.344 172.032C357.868 172.032 373.751 157.203 373.751 138.975C373.751 120.747 357.868 105.918 338.344 105.918Z" fill="#FCF0E3"/>
<path d="M335.577 154.821C333.215 154.55 330.936 153.999 328.739 153.167C326.54 152.337 324.533 151.277 322.717 149.987L326.968 144.188C328.456 145.24 329.901 146.113 331.3 146.808C332.698 147.504 334.215 148.003 335.85 148.309V140.221C333.889 139.711 332.172 139.152 330.701 138.542C329.229 137.931 328.012 137.202 327.05 136.354C326.087 135.507 325.361 134.515 324.87 133.378C324.38 132.242 324.135 130.929 324.135 129.435V129.333C324.135 127.909 324.407 126.621 324.952 125.467C325.497 124.314 326.268 123.313 327.268 122.465C328.267 121.619 329.475 120.931 330.892 120.405C332.308 119.88 333.871 119.532 335.578 119.362V116.411H341.245V119.463C343.206 119.735 345.014 120.184 346.667 120.811C348.32 121.439 349.89 122.245 351.38 123.228L347.729 129.18C346.64 128.502 345.531 127.9 344.406 127.374C343.279 126.848 342.136 126.45 340.973 126.179V133.86C345.115 134.913 348.119 136.286 349.992 137.981C351.863 139.678 352.798 141.95 352.798 144.798V144.9C352.798 146.324 352.516 147.613 351.954 148.766C351.391 149.919 350.609 150.921 349.611 151.768C348.611 152.616 347.405 153.311 345.987 153.853C344.57 154.396 342.991 154.752 341.247 154.922V159.958H335.58V154.821H335.577ZM335.85 125.722C334.542 125.892 333.588 126.256 332.988 126.815C332.389 127.375 332.089 128.062 332.089 128.876V128.977C332.089 129.758 332.344 130.428 332.852 130.987C333.36 131.547 334.359 132.08 335.85 132.59V125.722ZM340.972 148.563C343.55 148.19 344.841 147.105 344.841 145.307V145.206C344.841 144.325 344.569 143.604 344.024 143.044C343.478 142.484 342.461 141.95 340.973 141.442V148.563H340.972Z" fill="#1B1B25"/>
<path d="M343.302 187.407C369.265 187.407 390.312 167.757 390.312 143.518C390.312 119.279 369.265 99.6295 343.302 99.6295C317.34 99.6295 296.293 119.279 296.293 143.518C296.293 167.757 317.34 187.407 343.302 187.407Z" fill="#1B1B25"/>
<path d="M338.344 182.777C364.306 182.777 385.353 163.128 385.353 138.889C385.353 114.65 364.306 95 338.344 95C312.381 95 291.334 114.65 291.334 138.889C291.334 163.128 312.381 182.777 338.344 182.777Z" fill="#FFB54A"/>
<path d="M338.344 174.322C317.467 174.322 300.482 158.465 300.482 138.974C300.482 119.483 317.467 103.626 338.344 103.626C359.221 103.626 376.205 119.483 376.205 138.974C376.205 158.466 359.221 174.322 338.344 174.322ZM338.344 105.918C318.82 105.918 302.936 120.747 302.936 138.975C302.936 157.203 318.82 172.032 338.344 172.032C357.868 172.032 373.751 157.203 373.751 138.975C373.751 120.747 357.868 105.918 338.344 105.918Z" fill="#FCF0E3"/>
<path d="M335.577 154.821C333.215 154.55 330.936 153.999 328.739 153.167C326.54 152.337 324.533 151.277 322.717 149.987L326.968 144.188C328.456 145.24 329.901 146.113 331.3 146.808C332.698 147.504 334.215 148.003 335.85 148.309V140.221C333.889 139.711 332.172 139.152 330.701 138.542C329.229 137.931 328.012 137.202 327.05 136.354C326.087 135.507 325.361 134.515 324.87 133.378C324.38 132.242 324.135 130.929 324.135 129.435V129.333C324.135 127.909 324.407 126.621 324.952 125.467C325.497 124.314 326.268 123.313 327.268 122.465C328.267 121.619 329.475 120.931 330.892 120.405C332.308 119.88 333.871 119.532 335.578 119.362V116.411H341.245V119.463C343.206 119.735 345.014 120.184 346.667 120.811C348.32 121.439 349.89 122.245 351.38 123.228L347.729 129.18C346.64 128.502 345.531 127.9 344.406 127.374C343.279 126.848 342.136 126.45 340.973 126.179V133.86C345.115 134.913 348.119 136.286 349.992 137.981C351.863 139.678 352.798 141.95 352.798 144.798V144.9C352.798 146.324 352.516 147.613 351.954 148.766C351.391 149.919 350.609 150.921 349.611 151.768C348.611 152.616 347.405 153.311 345.987 153.853C344.57 154.396 342.991 154.752 341.247 154.922V159.958H335.58V154.821H335.577ZM335.85 125.722C334.542 125.892 333.588 126.256 332.988 126.815C332.389 127.375 332.089 128.062 332.089 128.876V128.977C332.089 129.758 332.344 130.428 332.852 130.987C333.36 131.547 334.359 132.08 335.85 132.59V125.722ZM340.972 148.563C343.55 148.19 344.841 147.105 344.841 145.307V145.206C344.841 144.325 344.569 143.604 344.024 143.044C343.478 142.484 342.461 141.95 340.973 141.442V148.563H340.972Z" fill="#1B1B25"/>
<path d="M291.503 138.434C303.251 138.434 312.774 129.543 312.774 118.576C312.774 107.609 303.251 98.7177 291.503 98.7177C279.756 98.7177 270.233 107.609 270.233 118.576C270.233 129.543 279.756 138.434 291.503 138.434Z" fill="#1B1B25"/>
<path d="M289.261 136.34C301.008 136.34 310.531 127.449 310.531 116.482C310.531 105.514 301.008 96.6236 289.261 96.6236C277.513 96.6236 267.99 105.514 267.99 116.482C267.99 127.449 277.513 136.34 289.261 136.34Z" fill="#FFB54A"/>
<path d="M289.261 132.515C279.814 132.515 272.129 125.34 272.129 116.521C272.129 107.702 279.814 100.527 289.261 100.527C298.707 100.527 306.392 107.702 306.392 116.521C306.392 125.34 298.707 132.515 289.261 132.515ZM289.261 101.563C280.427 101.563 273.239 108.273 273.239 116.521C273.239 124.768 280.426 131.479 289.261 131.479C298.095 131.479 305.282 124.769 305.282 116.521C305.281 108.273 298.094 101.563 289.261 101.563Z" fill="#FCF0E3"/>
<path d="M288.009 123.69C286.941 123.567 285.909 123.318 284.914 122.943C283.92 122.567 283.012 122.087 282.191 121.504L284.114 118.879C284.788 119.355 285.44 119.75 286.074 120.064C286.706 120.379 287.393 120.605 288.132 120.743V117.084C287.245 116.853 286.468 116.6 285.802 116.324C285.136 116.048 284.586 115.718 284.15 115.334C283.714 114.951 283.386 114.502 283.164 113.988C282.942 113.474 282.831 112.879 282.831 112.204V112.157C282.831 111.513 282.955 110.93 283.201 110.408C283.447 109.887 283.796 109.434 284.249 109.05C284.701 108.667 285.247 108.356 285.888 108.118C286.529 107.88 287.235 107.723 288.008 107.646V106.311H290.573V107.693C291.46 107.816 292.278 108.019 293.026 108.303C293.773 108.587 294.484 108.951 295.159 109.396L293.507 112.089C293.013 111.783 292.512 111.51 292.002 111.272C291.493 111.034 290.975 110.854 290.449 110.731V114.207C292.323 114.683 293.683 115.304 294.53 116.071C295.377 116.839 295.8 117.866 295.8 119.156V119.202C295.8 119.847 295.672 120.429 295.418 120.951C295.162 121.473 294.809 121.925 294.357 122.309C293.905 122.692 293.359 123.007 292.718 123.253C292.078 123.499 291.362 123.66 290.573 123.736V126.015H288.009V123.69ZM288.132 110.524C287.54 110.601 287.109 110.766 286.838 111.019C286.567 111.272 286.431 111.583 286.431 111.952V111.997C286.431 112.351 286.546 112.654 286.776 112.907C287.006 113.16 287.458 113.402 288.132 113.632V110.524ZM290.45 120.859C291.617 120.691 292.2 120.2 292.2 119.386V119.34C292.2 118.942 292.078 118.616 291.831 118.362C291.584 118.109 291.124 117.867 290.45 117.637V120.859Z" fill="#1B1B25"/>
<path d="M265.237 152.142C265.237 147.379 261.101 143.518 256 143.518C261.102 143.518 265.237 139.657 265.237 134.895C265.237 139.657 269.373 143.518 274.474 143.518C269.373 143.518 265.237 147.379 265.237 152.142Z" fill="white"/>
<path d="M373.751 195.499C373.751 192.001 370.714 189.166 366.968 189.166C370.714 189.166 373.751 186.33 373.751 182.832C373.751 186.33 376.789 189.166 380.535 189.166C376.789 189.166 373.751 192.001 373.751 195.499Z" fill="white"/>
<path d="M329.411 226C329.411 219.568 323.827 214.354 316.937 214.354C323.826 214.354 329.411 209.14 329.411 202.707C329.411 209.139 334.996 214.354 341.885 214.354C334.995 214.354 329.411 219.568 329.411 226Z" fill="white"/>
<path d="M372.476 136.145C372.476 130.118 367.243 125.232 360.787 125.232C367.243 125.232 372.476 120.346 372.476 114.318C372.476 120.345 377.71 125.232 384.165 125.232C377.71 125.232 372.476 130.118 372.476 136.145Z" fill="#FCF0E3"/>
<path d="M411.552 143.518C411.552 140.193 408.665 137.498 405.104 137.498C408.664 137.498 411.552 134.803 411.552 131.478C411.552 134.803 414.438 137.498 418 137.498C414.439 137.498 411.552 140.193 411.552 143.518Z" fill="white"/>
<path d="M38.3522 148.337C41.7595 147.568 43.8773 144.27 43.0826 140.972C42.2878 137.674 38.8813 135.624 35.474 136.393C32.0667 137.162 29.9488 140.46 30.7436 143.758C31.5384 147.056 34.9448 149.106 38.3522 148.337Z" stroke="#263238" stroke-width="0.402781" stroke-linecap="round" stroke-linejoin="round"/>
<path d="M45.9692 160C45.8 154.373 41.8121 149.865 36.9117 149.865C32.0114 149.865 28.0308 154.373 27.8616 160" stroke="#263238" stroke-width="0.402781" stroke-linecap="round" stroke-linejoin="round"/>
<path d="M51.4809 146.426C54.3908 146.426 56.7498 144.143 56.7498 141.326C56.7498 138.509 54.3908 136.226 51.4809 136.226C48.571 136.226 46.212 138.509 46.212 141.326C46.212 144.143 48.571 146.426 51.4809 146.426Z" stroke="#263238" stroke-width="0.402781" stroke-linecap="round" stroke-linejoin="round"/>
<path d="M59 155.99C58.8602 151.289 55.586 147.557 51.4803 147.557C50.1461 147.603 48.8505 148.002 47.7338 148.71C46.617 149.418 45.7218 150.409 45.1452 151.574" stroke="#263238" stroke-width="0.402781" stroke-linecap="round" stroke-linejoin="round"/>
<path d="M22.5207 146.426C25.4306 146.426 27.7896 144.143 27.7896 141.326C27.7896 138.509 25.4306 136.226 22.5207 136.226C19.6107 136.226 17.2518 138.509 17.2518 141.326C17.2518 144.143 19.6107 146.426 22.5207 146.426Z" stroke="#263238" stroke-width="0.402781" stroke-linecap="round" stroke-linejoin="round"/>
<path d="M15 155.99C15.1177 151.289 18.4508 147.557 22.5197 147.557C23.854 147.607 25.1491 148.007 26.2664 148.714C27.3837 149.422 28.281 150.411 28.8622 151.574" stroke="#263238" stroke-width="0.402781" stroke-linecap="round" stroke-linejoin="round"/>
<path d="M630.48 265.961C636.269 265.961 640.961 261.268 640.961 255.48C640.961 249.692 636.269 245 630.48 245C624.692 245 620 249.692 620 255.48C620 261.268 624.692 265.961 630.48 265.961Z" stroke="#263238" stroke-width="0.402781" stroke-linecap="round" stroke-linejoin="round"/>
<path d="M630.553 263.971V262.561C629.385 262.513 628.519 262.134 627.947 261.421C627.375 260.708 627.061 259.697 627.004 258.384L629.175 257.982C629.189 258.438 629.246 258.893 629.345 259.339C629.416 259.692 629.583 260.018 629.828 260.281C629.943 260.393 630.081 260.48 630.231 260.537C630.381 260.594 630.541 260.619 630.702 260.612C630.866 260.627 631.032 260.602 631.184 260.539C631.336 260.476 631.471 260.376 631.576 260.249C631.76 259.977 631.852 259.652 631.838 259.323C631.864 258.801 631.723 258.284 631.435 257.849C631.121 257.423 630.758 257.035 630.356 256.693L628.607 255.166C628.304 254.896 628.026 254.598 627.778 254.276C627.537 253.956 627.348 253.6 627.218 253.221C627.073 252.78 627.004 252.319 627.012 251.855C626.987 251.414 627.052 250.971 627.204 250.556C627.356 250.14 627.591 249.76 627.895 249.439C628.539 248.833 629.387 248.491 630.271 248.48V247.115H631.004V248.464C631.503 248.477 631.991 248.609 632.43 248.847C632.789 249.056 633.094 249.347 633.32 249.696C633.546 250.062 633.711 250.462 633.807 250.881C633.917 251.32 633.982 251.769 634.001 252.222L631.862 252.596C631.846 252.206 631.802 251.817 631.729 251.432C631.679 251.134 631.546 250.855 631.346 250.627C631.24 250.526 631.113 250.45 630.973 250.404C630.834 250.359 630.686 250.346 630.541 250.365C630.377 250.359 630.213 250.39 630.062 250.455C629.911 250.52 629.776 250.617 629.667 250.74C629.461 250.993 629.355 251.312 629.369 251.638C629.351 252.055 629.464 252.467 629.691 252.818C629.929 253.141 630.198 253.44 630.496 253.708L632.228 255.219C632.591 255.549 632.929 255.906 633.239 256.286C633.552 256.676 633.804 257.112 633.985 257.579C634.176 258.094 634.27 258.64 634.262 259.19C634.273 259.757 634.148 260.319 633.9 260.829C633.664 261.299 633.31 261.7 632.873 261.993C632.399 262.299 631.856 262.485 631.294 262.533V263.971H630.553Z" fill="#263238"/>
<path d="M590.518 35.8037H570V43.0457H590.518V35.8037Z" stroke="#263238" stroke-width="0.402781" stroke-linecap="round" stroke-linejoin="round"/>
<path d="M589.873 43.0337H570.644V54.6942H589.873V43.0337Z" stroke="#263238" stroke-width="0.402781" stroke-linecap="round" stroke-linejoin="round"/>
<path d="M582.462 35.8398H578.056V54.7947H582.462V35.8398Z" stroke="#263238" stroke-width="0.402781" stroke-linecap="round" stroke-linejoin="round"/>
<path d="M580.103 35.8003C580.103 35.8003 577.899 31.1677 575.317 31.6994C572.735 32.2312 574.032 36.0299 580.103 35.8003Z" stroke="#263238" stroke-width="0.402781" stroke-linecap="round" stroke-linejoin="round"/>
<path d="M580.295 35.8003C580.295 35.8003 582.499 31.1677 585.081 31.6994C587.663 32.2312 586.374 36.0299 580.295 35.8003Z" stroke="#263238" stroke-width="0.402781" stroke-linecap="round" stroke-linejoin="round"/>
<path d="M586.039 26C586.188 27.0633 585.656 28.2032 584.061 28.8879C582.466 29.5727 581.644 27.6796 579.961 29.4196C578.277 31.1596 580.295 35.7997 580.295 35.7997C580.295 35.7997 585.809 35.0424 586.039 37.1691C586.268 39.2958 584.516 40.2826 585.052 41.5755C585.588 42.8685 587.255 41.9541 587.404 40.5122" stroke="#263238" stroke-width="0.402781" stroke-linecap="round" stroke-linejoin="round"/>
<path d="M423.677 22.3595C429.391 21.44 433.279 16.062 432.359 10.3474C431.44 4.63274 426.062 0.745443 420.347 1.66487C414.633 2.5843 410.745 7.9623 411.665 13.6769C412.584 19.3916 417.962 23.2789 423.677 22.3595Z" stroke="#263238" stroke-width="0.402781" stroke-linecap="round" stroke-linejoin="round"/>
<path d="M422.001 6.12146V17.9149" stroke="#263238" stroke-width="1.61112" stroke-linecap="round" stroke-linejoin="round"/>
<path d="M427.898 12.0181H416.104" stroke="#263238" stroke-width="1.61112" stroke-linecap="round" stroke-linejoin="round"/>
</svg>
