<svg width="202" height="202" viewBox="0 0 202 202" fill="none" xmlns="http://www.w3.org/2000/svg">
<path d="M122.144 18.4565C119.866 16.8244 117.198 15.8235 114.409 15.5554C111.619 15.2873 108.809 15.7616 106.262 16.93C81.1167 28.4938 -1.88032 69.2996 15.6044 96.5799C36.1462 128.641 109.05 179.222 135.782 176.81C162.515 174.397 192.824 129.548 186.017 100.028C180.297 75.2245 141.848 32.6264 122.144 18.4565Z" fill="#EE7F29"/>
<path opacity="0.7" d="M122.144 18.4565C119.866 16.8244 117.198 15.8235 114.409 15.5554C111.619 15.2873 108.809 15.7616 106.262 16.93C81.1167 28.4938 -1.88032 69.2996 15.6044 96.5799C36.1462 128.641 109.05 179.222 135.782 176.81C162.515 174.397 192.824 129.548 186.017 100.028C180.297 75.2245 141.848 32.6264 122.144 18.4565Z" fill="white" fill-opacity="0.41"/>
<path d="M145.449 102.086C146.065 103.56 148.707 105.973 148.711 105.973C148.715 105.973 149.771 103.749 149.819 103.6C150.387 101.872 150.467 98.1949 148.816 96.9986C148.537 96.8079 148.22 96.6779 147.887 96.6172C147.555 96.5564 147.213 96.5662 146.884 96.6459C146.555 96.7257 146.247 96.8735 145.979 97.08C145.711 97.2865 145.489 97.5469 145.328 97.8445C144.607 99.0891 144.925 100.833 145.449 102.086Z" fill="#263238"/>
<path d="M187.741 125.657C186.428 124.098 182.771 124.448 181.087 125.133C180.942 125.193 178.771 126.386 178.799 126.414L178.831 126.442C178.251 126.49 177.623 126.551 176.958 126.631C175.71 126.788 174.304 126.978 172.79 127.284C171.157 127.594 169.543 127.997 167.956 128.492C166.175 129.053 164.447 129.77 162.793 130.635L162.732 130.671C163.155 130.244 164.287 129.02 164.363 128.915C165.443 127.449 166.663 123.981 165.471 122.33C165.265 122.061 165.005 121.839 164.707 121.677C164.409 121.515 164.081 121.418 163.743 121.392C163.406 121.365 163.066 121.41 162.747 121.523C162.428 121.636 162.136 121.815 161.89 122.048C160.815 123.002 160.577 124.758 160.682 126.116C160.803 127.642 162.414 130.546 162.543 130.78C160.88 131.7 159.279 132.728 157.75 133.857C156.856 134.514 155.978 135.198 155.104 135.899C155.454 135.521 155.768 135.178 155.804 135.126C156.884 133.66 158.1 130.192 156.908 128.54C156.702 128.272 156.442 128.051 156.144 127.889C155.847 127.728 155.519 127.631 155.182 127.605C154.845 127.578 154.506 127.623 154.187 127.735C153.869 127.848 153.577 128.026 153.331 128.259C152.256 129.213 152.014 130.969 152.123 132.327C152.232 133.684 153.557 136.205 153.915 136.866L152.916 137.671C151.325 138.985 149.747 140.298 148.156 141.538C147.596 141.977 147.028 142.388 146.464 142.799C146.774 142.465 147.032 142.179 147.068 142.13C148.147 140.664 149.368 137.196 148.176 135.545C147.97 135.276 147.709 135.054 147.412 134.892C147.114 134.731 146.786 134.633 146.448 134.607C146.11 134.58 145.771 134.625 145.452 134.738C145.133 134.851 144.841 135.03 144.595 135.263C143.52 136.217 143.282 137.974 143.387 139.327C143.491 140.68 144.692 142.952 145.115 143.758C144.522 144.16 143.93 144.563 143.338 144.938C142.936 145.175 142.533 145.437 142.13 145.655L140.893 146.327C140.088 146.73 139.282 147.133 138.477 147.503C137.925 147.765 137.397 148.003 136.866 148.244C137.429 147.814 138.513 146.952 138.594 146.867C139.686 145.696 140.457 144.263 140.833 142.706C140.961 142.583 141.077 142.448 141.179 142.303C141.38 142.031 141.521 141.719 141.594 141.389C141.666 141.059 141.669 140.716 141.601 140.385C141.533 140.054 141.396 139.74 141.199 139.465C141.002 139.19 140.75 138.959 140.458 138.787C138.674 137.808 135.383 139.444 134.058 140.692C133.982 140.769 133.224 141.663 132.753 142.235C132.979 141.856 133.2 141.49 133.426 141.099C133.881 140.326 134.308 139.54 134.775 138.682C134.985 138.28 135.178 137.853 135.408 137.43C135.637 137.007 135.81 136.548 136.016 136.105C136.471 135.066 136.882 133.99 137.268 132.882C137.945 133.285 140.374 134.643 141.731 134.788C143.089 134.933 144.845 134.747 145.831 133.7C146.071 133.461 146.258 133.174 146.379 132.859C146.501 132.543 146.555 132.205 146.538 131.867C146.521 131.529 146.433 131.199 146.28 130.897C146.127 130.595 145.913 130.329 145.65 130.115C144.039 128.875 140.535 129.994 139.037 131.03C138.944 131.094 137.953 131.956 137.425 132.439C137.655 131.783 137.885 131.126 138.094 130.454C138.702 128.508 139.254 126.523 139.81 124.541C139.983 123.937 140.16 123.333 140.338 122.728C140.575 122.873 143.423 124.561 144.945 124.742C146.295 124.887 148.059 124.698 149.046 123.651C149.285 123.412 149.472 123.126 149.594 122.81C149.716 122.494 149.771 122.157 149.754 121.819C149.737 121.481 149.65 121.15 149.497 120.848C149.345 120.546 149.131 120.28 148.868 120.066C147.257 118.825 143.749 119.945 142.251 120.98C142.138 121.057 140.716 122.301 140.37 122.636C140.773 121.307 141.155 119.985 141.578 118.701C142.172 116.96 142.877 115.259 143.689 113.609C143.801 113.678 146.766 115.45 148.321 115.623C149.674 115.772 151.434 115.583 152.421 114.536C152.661 114.297 152.848 114.011 152.97 113.695C153.092 113.38 153.146 113.042 153.129 112.704C153.113 112.366 153.025 112.035 152.873 111.733C152.72 111.431 152.506 111.165 152.244 110.951C150.633 109.71 147.128 110.83 145.63 111.865C145.513 111.946 143.983 113.283 143.721 113.545C143.769 113.452 143.806 113.348 143.858 113.251C144.72 111.621 145.724 110.071 146.859 108.619C147.475 107.813 148.111 107.068 148.744 106.363C149.263 106.766 151.652 108.49 153.033 108.8C154.415 109.11 156.135 109.098 157.23 108.168C157.495 107.957 157.713 107.693 157.869 107.392C158.025 107.092 158.116 106.762 158.137 106.424C158.157 106.086 158.107 105.747 157.988 105.43C157.869 105.113 157.685 104.824 157.448 104.583C155.978 103.173 152.373 103.902 150.774 104.764C150.685 104.813 149.851 105.389 149.251 105.816C149.541 105.501 149.835 105.171 150.121 104.877C151.188 103.761 152.236 102.811 153.166 101.973C153.702 101.502 154.193 101.087 154.656 100.704C155.365 100.817 158.217 101.244 159.562 100.882C160.908 100.519 162.454 99.7215 162.994 98.3883C163.131 98.0792 163.202 97.7448 163.202 97.4066C163.202 97.0683 163.131 96.7339 162.994 96.4249C162.856 96.1158 162.656 95.8391 162.404 95.6126C162.153 95.386 161.857 95.2147 161.536 95.1097C159.582 94.5337 156.703 96.8416 155.696 98.3319C155.607 98.4648 154.459 100.656 154.487 100.664H154.528C154.076 101.022 153.593 101.413 153.073 101.852C152.119 102.658 151.06 103.604 149.956 104.696C148.764 105.863 147.639 107.097 146.589 108.393C145.406 109.839 144.354 111.388 143.447 113.021C143.447 113.021 143.447 113.062 143.419 113.082C143.536 112.494 143.822 110.846 143.822 110.717C143.91 108.901 143.016 105.332 141.107 104.615C140.787 104.506 140.448 104.464 140.111 104.494C139.774 104.524 139.447 104.624 139.151 104.788C138.856 104.952 138.598 105.176 138.394 105.446C138.19 105.716 138.046 106.026 137.969 106.355C137.599 107.745 138.372 109.34 139.206 110.411C140.148 111.62 143.097 113.154 143.33 113.275C142.45 114.96 141.682 116.701 141.03 118.487C140.628 119.526 140.289 120.586 139.947 121.649C140.031 121.141 140.104 120.682 140.108 120.618C140.197 118.801 139.302 115.237 137.393 114.516C137.073 114.406 136.734 114.365 136.397 114.394C136.06 114.424 135.733 114.524 135.438 114.688C135.142 114.852 134.884 115.077 134.68 115.347C134.477 115.617 134.332 115.926 134.256 116.256C133.885 117.645 134.658 119.244 135.492 120.312C136.326 121.379 138.827 122.761 139.492 123.111C139.363 123.514 139.23 123.917 139.089 124.339C138.485 126.309 137.881 128.279 137.252 130.192C137.027 130.865 136.777 131.521 136.535 132.178C136.608 131.722 136.668 131.344 136.668 131.283C136.761 129.467 135.863 125.898 133.958 125.181C133.638 125.072 133.299 125.03 132.962 125.06C132.626 125.089 132.299 125.189 132.003 125.353C131.708 125.516 131.449 125.74 131.246 126.009C131.042 126.279 130.897 126.588 130.82 126.917C130.449 128.311 131.223 129.906 132.056 130.977C132.89 132.049 135.15 133.289 135.935 133.712C135.665 134.377 135.395 135.041 135.101 135.674C134.892 136.101 134.719 136.528 134.485 136.946C134.252 137.365 134.042 137.776 133.821 138.187C133.373 138.96 132.91 139.762 132.455 140.507C132.137 141.027 131.827 141.514 131.517 142.009C131.75 141.341 132.177 140.024 132.201 139.911C132.564 138.127 132.201 134.465 130.445 133.466C130.146 133.309 129.816 133.217 129.478 133.195C129.141 133.173 128.802 133.222 128.485 133.34C128.167 133.457 127.878 133.64 127.636 133.876C127.393 134.112 127.203 134.397 127.078 134.711C126.502 136.028 127.022 137.724 127.686 138.908C128.419 140.213 130.985 142.13 131.311 142.348C130.796 143.153 130.284 143.959 129.789 144.688C129.539 145.063 129.297 145.425 129.06 145.771L129.934 146.694C130.216 146.263 130.506 145.816 130.804 145.348C131.331 144.543 131.879 143.629 132.415 142.706C133.368 143.09 134.343 143.417 135.335 143.685C135.311 145.22 136.33 148.023 136.463 148.385C135.581 148.788 134.723 149.155 133.905 149.497C133.567 149.619 133.221 149.719 132.87 149.795L133.804 150.774C134.002 150.735 134.197 150.678 134.384 150.605C135.279 150.202 136.229 149.767 137.204 149.3C137.425 149.626 139.254 152.252 140.539 153.021C141.703 153.722 143.383 154.29 144.72 153.75C145.037 153.634 145.326 153.452 145.568 153.216C145.811 152.981 146.001 152.697 146.127 152.384C146.253 152.07 146.312 151.734 146.3 151.396C146.288 151.059 146.205 150.727 146.057 150.424C145.111 148.619 141.461 148.168 139.669 148.478C139.564 148.498 138.44 148.824 137.732 149.046C138.134 148.853 138.513 148.671 138.92 148.47C139.725 148.067 140.531 147.664 141.365 147.209L142.573 146.517C142.976 146.291 143.379 146.001 143.81 145.743C144.764 145.127 145.699 144.458 146.629 143.762C146.975 144.462 148.24 146.944 149.295 147.814C150.351 148.684 151.913 149.497 153.323 149.167C153.655 149.1 153.969 148.964 154.245 148.768C154.521 148.572 154.752 148.32 154.925 148.029C155.097 147.738 155.206 147.414 155.246 147.077C155.285 146.741 155.253 146.401 155.152 146.078C154.487 144.152 150.951 143.153 149.13 143.19C149.017 143.19 147.717 143.367 147.004 143.476C147.555 143.053 148.111 142.634 148.655 142.187C150.234 140.898 151.793 139.548 153.351 138.203C153.827 137.8 154.306 137.398 154.785 136.995C154.906 137.245 156.352 140.217 157.528 141.2C158.575 142.066 160.15 142.883 161.556 142.553C161.888 142.486 162.202 142.35 162.478 142.154C162.754 141.958 162.985 141.707 163.158 141.415C163.33 141.124 163.439 140.8 163.478 140.464C163.517 140.128 163.486 139.787 163.385 139.464C162.72 137.539 159.184 136.54 157.343 136.576C157.206 136.576 155.329 136.834 154.858 136.918C155.913 136.024 156.976 135.142 158.056 134.316C159.51 133.192 161.036 132.163 162.623 131.235C162.68 131.352 164.174 134.457 165.378 135.468C166.426 136.334 168.001 137.152 169.406 136.822C169.738 136.755 170.053 136.62 170.329 136.424C170.605 136.228 170.838 135.976 171.01 135.685C171.183 135.394 171.293 135.069 171.332 134.733C171.372 134.397 171.34 134.056 171.239 133.732C170.574 131.807 167.034 130.808 165.217 130.844C165.072 130.844 163.058 131.122 162.696 131.195C162.789 131.142 162.877 131.078 162.97 131.026C164.587 130.143 166.28 129.407 168.029 128.826C168.991 128.488 169.93 128.222 170.848 127.985C171.066 128.593 172.097 131.364 173.084 132.383C174.07 133.402 175.5 134.345 176.93 134.167C177.267 134.137 177.594 134.037 177.89 133.873C178.186 133.708 178.444 133.484 178.647 133.214C178.851 132.943 178.995 132.633 179.072 132.303C179.148 131.974 179.154 131.632 179.089 131.3C178.642 129.314 175.234 127.932 173.422 127.771C173.321 127.771 172.31 127.771 171.573 127.807C171.976 127.707 172.419 127.594 172.818 127.501C174.32 127.163 175.718 126.945 176.958 126.764C177.663 126.663 178.304 126.587 178.904 126.527C179.427 127.01 181.574 128.943 182.895 129.382C184.216 129.821 185.944 130.007 187.133 129.197C187.419 129.016 187.664 128.777 187.853 128.496C188.041 128.214 188.168 127.896 188.225 127.562C188.282 127.228 188.269 126.886 188.185 126.558C188.102 126.23 187.951 125.923 187.741 125.657Z" fill="#263238"/>
<path d="M171.066 127.65C171.066 127.687 173.18 126.382 173.305 126.285C174.731 125.153 176.821 122.132 176.125 120.243C175.996 119.931 175.803 119.649 175.558 119.416C175.314 119.183 175.023 119.004 174.705 118.89C174.387 118.776 174.049 118.73 173.712 118.755C173.375 118.78 173.047 118.875 172.749 119.035C171.456 119.675 170.764 121.302 170.51 122.64C170.196 124.178 171.066 127.65 171.066 127.65Z" fill="#263238"/>
<path d="M54.0055 102.086C53.3893 103.56 50.747 105.973 50.747 105.973C50.747 105.973 49.6837 103.749 49.6353 103.6C49.0674 101.872 48.9909 98.1949 50.6383 96.9986C50.9177 96.8079 51.234 96.6779 51.5669 96.6172C51.8997 96.5564 52.2416 96.5662 52.5704 96.6459C52.8992 96.7257 53.2076 96.8735 53.4756 97.08C53.7436 97.2865 53.9653 97.5469 54.1263 97.8445C54.8473 99.0891 54.5291 100.833 54.0055 102.086Z" fill="#263238"/>
<path d="M11.7135 125.657C13.0266 124.098 16.6879 124.448 18.3715 125.133C18.5165 125.193 20.6834 126.386 20.6593 126.414L20.6271 126.442C21.203 126.49 21.8354 126.551 22.5 126.631C23.7446 126.788 25.1503 126.978 26.6688 127.284C28.3016 127.594 29.9154 127.998 31.5021 128.492C33.2854 129.047 35.0161 129.759 36.6738 130.619L36.7302 130.655C36.3274 130.228 35.1755 129.004 35.1191 128.899C34.0437 127.433 32.8233 123.965 34.0155 122.313C34.2216 122.045 34.4818 121.824 34.779 121.662C35.0763 121.501 35.4041 121.404 35.7412 121.378C36.0783 121.351 36.4172 121.396 36.7361 121.508C37.0549 121.621 37.3466 121.799 37.5922 122.032C38.6676 122.986 38.9093 124.742 38.8005 126.1C38.6797 127.626 37.0686 130.53 36.9397 130.764C38.6033 131.683 40.2045 132.711 41.7328 133.841C42.6269 134.498 43.509 135.182 44.3831 135.883C44.0286 135.505 43.7185 135.162 43.6822 135.11C42.6028 133.644 41.3823 130.176 42.5746 128.524C42.7807 128.256 43.0411 128.033 43.3387 127.872C43.6363 127.71 43.9646 127.613 44.3022 127.586C44.6398 127.56 44.9792 127.604 45.2985 127.717C45.6177 127.83 45.9096 128.009 46.1553 128.242C47.2307 129.197 47.4684 130.953 47.3636 132.31C47.2589 133.668 45.9297 136.189 45.5713 136.85L46.5661 137.655C48.1773 138.968 49.7401 140.282 51.327 141.522C51.8869 141.961 52.4548 142.372 53.0227 142.783C52.7126 142.448 52.4508 142.163 52.4145 142.114C51.3391 140.648 50.1187 137.18 51.3109 135.529C51.5171 135.261 51.7772 135.039 52.0744 134.878C52.3717 134.716 52.6995 134.619 53.0366 134.593C53.3737 134.566 53.7126 134.611 54.0315 134.723C54.3503 134.836 54.642 135.014 54.8876 135.247C55.963 136.201 56.2047 137.957 56.0959 139.311C55.9872 140.664 54.7909 142.936 54.368 143.741C54.9601 144.144 55.5763 144.547 56.1483 144.922C56.5511 145.159 56.9539 145.421 57.3566 145.639L58.5972 146.311C59.4028 146.714 60.2083 147.117 61.0139 147.487C61.5617 147.749 62.0893 147.987 62.625 148.228C62.0651 147.797 60.9817 146.935 60.8971 146.851C59.8077 145.678 59.0367 144.245 58.6576 142.69C58.5311 142.567 58.4165 142.432 58.3153 142.287C58.1144 142.015 57.973 141.704 57.9001 141.374C57.8272 141.043 57.8244 140.701 57.892 140.37C57.9596 140.038 58.096 139.725 58.2924 139.449C58.4888 139.174 58.7408 138.943 59.0322 138.771C60.8205 137.792 64.1113 139.428 65.4324 140.676C65.5129 140.753 66.2702 141.647 66.7374 142.219C66.5118 141.84 66.2903 141.474 66.0648 141.083C65.6136 140.31 65.1827 139.524 64.7195 138.666L64.0831 137.414C63.8615 137.011 63.6803 136.532 63.4749 136.089C63.0238 135.049 62.6129 133.974 62.2222 132.866C61.5456 133.269 59.1208 134.626 57.7634 134.771C56.4061 134.916 54.6499 134.731 53.6631 133.684C53.4234 133.445 53.2365 133.159 53.1144 132.843C52.9924 132.528 52.9379 132.19 52.9546 131.852C52.9714 131.514 53.0588 131.184 53.2114 130.882C53.364 130.58 53.5782 130.313 53.8404 130.099C55.4515 128.859 58.9597 129.978 60.454 131.014C60.5507 131.078 61.5415 131.94 62.0651 132.423C61.8396 131.767 61.606 131.11 61.3965 130.438C60.7924 128.492 60.2405 126.506 59.6807 124.525C59.5115 123.921 59.3303 123.316 59.1571 122.712C58.9154 122.857 56.0677 124.545 54.5493 124.726C53.1959 124.871 51.4358 124.682 50.4489 123.635C50.2092 123.396 50.0223 123.109 49.9002 122.794C49.7782 122.478 49.7238 122.141 49.7405 121.803C49.7572 121.465 49.8446 121.134 49.9972 120.832C50.1498 120.53 50.3641 120.264 50.6262 120.05C52.2373 118.809 55.7455 119.929 57.2398 120.964C57.3526 121.041 58.7784 122.285 59.1248 122.62C58.7221 121.29 58.3394 119.969 57.8923 118.684C57.3002 116.943 56.5952 115.243 55.7818 113.593C55.673 113.662 52.7085 115.434 51.1498 115.607C49.8005 115.756 48.0363 115.567 47.0495 114.52C46.8097 114.281 46.6228 113.995 46.5008 113.679C46.3787 113.363 46.3243 113.026 46.341 112.688C46.3577 112.35 46.4452 112.019 46.5977 111.717C46.7503 111.415 46.9646 111.149 47.2267 110.935C48.8378 109.694 52.346 110.814 53.8444 111.849C53.9612 111.93 55.4918 113.267 55.7495 113.529C55.7052 113.436 55.665 113.331 55.6166 113.235C54.7549 111.605 53.7508 110.055 52.6159 108.603C51.9997 107.797 51.3633 107.052 50.7269 106.347C50.2113 106.75 47.8228 108.474 46.4372 108.784C45.1121 109.078 43.3399 109.082 42.2443 108.152C41.9794 107.941 41.7619 107.676 41.6057 107.376C41.4495 107.076 41.3582 106.746 41.3377 106.408C41.3172 106.07 41.368 105.731 41.4867 105.414C41.6054 105.097 41.7894 104.808 42.0268 104.567C43.4969 103.157 47.0978 103.886 48.7009 104.748C48.7895 104.797 49.6192 105.373 50.2194 105.799C49.9294 105.485 49.6353 105.155 49.3494 104.861C48.286 103.745 47.2388 102.795 46.3043 101.957C45.7727 101.486 45.2813 101.071 44.814 100.688C44.1092 100.801 41.2535 101.228 39.9082 100.865C38.5629 100.503 37.0202 99.7054 36.4765 98.3722C36.3418 98.0642 36.2728 97.7315 36.2739 97.3953C36.2751 97.0592 36.3464 96.727 36.4832 96.4199C36.6201 96.1129 36.8195 95.8377 37.0687 95.6121C37.3179 95.3865 37.6114 95.2154 37.9305 95.1097C39.888 94.5337 42.7639 96.8416 43.7708 98.3319C43.8595 98.4648 45.0114 100.656 44.9792 100.664H44.9349C45.39 101.022 45.8734 101.413 46.3929 101.852C47.3435 102.658 48.4068 103.604 49.5105 104.696C50.7016 105.863 51.8245 107.097 52.8737 108.393C54.0567 109.839 55.1081 111.388 56.0154 113.021C56.0272 113.04 56.0366 113.061 56.0436 113.082C55.9268 112.494 55.6408 110.846 55.6408 110.717C55.5522 108.901 56.4463 105.332 58.3515 104.615C58.6716 104.505 59.0114 104.463 59.3487 104.493C59.686 104.522 60.0134 104.622 60.3096 104.786C60.6058 104.95 60.8643 105.175 61.0681 105.445C61.272 105.715 61.4169 106.025 61.4932 106.355C61.8597 107.745 61.0904 109.34 60.2567 110.411C59.3101 111.62 56.3658 113.154 56.1282 113.275C57.0099 114.96 57.7795 116.701 58.4321 118.487C58.8147 119.526 59.1691 120.586 59.5115 121.649C59.431 121.141 59.3585 120.682 59.3544 120.618C59.2658 118.801 60.16 115.237 62.0651 114.516C62.3853 114.405 62.725 114.364 63.0623 114.393C63.3997 114.422 63.727 114.522 64.0233 114.686C64.3195 114.85 64.5779 115.075 64.7818 115.345C64.9857 115.616 65.1305 115.926 65.2068 116.256C65.5774 117.645 64.804 119.244 63.9703 120.312C63.1365 121.379 60.6353 122.761 59.9707 123.111C60.0996 123.514 60.2285 123.917 60.3735 124.339C60.9776 126.309 61.5818 128.279 62.2142 130.192C62.4397 130.865 62.6854 131.521 62.9311 132.178C62.8546 131.722 62.7982 131.344 62.7942 131.283C62.7056 129.467 63.5997 125.898 65.5049 125.181C65.8248 125.071 66.1642 125.029 66.5013 125.058C66.8384 125.087 67.1656 125.187 67.4618 125.351C67.7579 125.514 68.0164 125.738 68.2205 126.008C68.4246 126.278 68.5698 126.588 68.6466 126.917C69.0171 128.311 68.2438 129.906 67.41 130.977C66.5763 132.049 64.3167 133.289 63.5313 133.712C63.8011 134.377 64.071 135.041 64.365 135.674C64.5745 136.101 64.7436 136.528 64.9772 136.946C65.2109 137.365 65.4243 137.776 65.6418 138.187C66.093 138.96 66.5521 139.762 67.0113 140.507C67.3255 141.027 67.6356 141.514 67.9457 142.009C67.7121 141.341 67.2852 140.024 67.265 139.911C66.8985 138.127 67.265 134.465 69.0212 133.466C69.3207 133.31 69.6497 133.218 69.987 133.197C70.3242 133.175 70.6622 133.225 70.9792 133.342C71.2961 133.459 71.5849 133.642 71.827 133.877C72.069 134.113 72.2589 134.397 72.3844 134.711C72.9604 136.028 72.4448 137.724 71.7802 138.908C71.0472 140.213 68.4814 142.13 68.1552 142.348C68.6707 143.153 69.1823 143.959 69.6737 144.688C69.9234 145.063 70.1691 145.425 70.4067 145.771L69.5327 146.694C69.2467 146.263 68.9608 145.816 68.6627 145.349C68.1351 144.543 67.5873 143.629 67.0314 142.706C66.0785 143.091 65.1033 143.417 64.1113 143.685C64.1395 145.22 63.1204 148.023 62.9835 148.385C63.8656 148.788 64.7275 149.155 65.5452 149.497C65.8818 149.62 66.2263 149.719 66.5763 149.795L65.6459 150.774C65.4478 150.735 65.2536 150.679 65.0659 150.605C64.1677 150.202 63.2171 149.767 62.2464 149.3C62.0249 149.626 60.2003 152.252 58.9154 153.021C57.7473 153.722 56.0677 154.29 54.7345 153.751C54.4171 153.634 54.1276 153.453 53.8848 153.217C53.6419 152.982 53.4511 152.699 53.3247 152.385C53.1983 152.071 53.1391 151.735 53.1509 151.397C53.1627 151.059 53.2453 150.728 53.3933 150.424C54.3438 148.619 57.989 148.168 59.7814 148.478C59.8901 148.498 61.0139 148.824 61.7187 149.046C61.316 148.853 60.9374 148.671 60.5346 148.47C59.729 148.067 58.9235 147.664 58.0897 147.209L56.8814 146.517C56.4786 146.291 56.0758 146.001 55.6408 145.743C54.6902 145.127 53.7558 144.458 52.8213 143.762C52.4749 144.462 51.2102 146.944 50.1549 147.814C49.0996 148.684 47.5328 149.497 46.1271 149.167C45.7954 149.1 45.4814 148.964 45.2055 148.768C44.9296 148.572 44.698 148.32 44.5256 148.029C44.3532 147.738 44.2439 147.414 44.2048 147.077C44.1657 146.741 44.1976 146.401 44.2985 146.078C44.9631 144.152 48.4995 143.153 50.3402 143.19C50.453 143.19 51.758 143.367 52.4709 143.476C51.9151 143.053 51.3633 142.634 50.8155 142.187C49.2366 140.898 47.6818 139.548 46.1231 138.203C45.6478 137.8 45.1645 137.398 44.6851 136.995C44.5643 137.245 43.1183 140.217 41.9422 141.2C40.895 142.066 39.3241 142.883 37.9144 142.553C37.5827 142.486 37.2687 142.35 36.9928 142.154C36.7169 141.958 36.4853 141.707 36.3129 141.415C36.1405 141.124 36.0312 140.8 35.9921 140.464C35.953 140.128 35.9849 139.787 36.0858 139.464C36.7504 137.539 40.2868 136.54 42.1275 136.576C42.2644 136.576 44.1414 136.834 44.6086 136.918C43.5533 136.024 42.494 135.142 41.4105 134.316C39.9574 133.19 38.4315 132.161 36.843 131.235C36.7906 131.352 35.2963 134.457 34.088 135.468C33.0448 136.334 31.4699 137.152 30.0602 136.822C29.7284 136.755 29.4145 136.619 29.1386 136.423C28.8627 136.227 28.6311 135.975 28.4587 135.684C28.2863 135.392 28.177 135.068 28.1379 134.732C28.0988 134.396 28.1307 134.055 28.2316 133.732C28.8961 131.807 32.4326 130.808 34.2733 130.844C34.4142 130.844 36.4322 131.122 36.7947 131.195L36.5168 131.026C34.9001 130.14 33.207 129.401 31.4578 128.818C30.4952 128.48 29.5567 128.214 28.6384 127.977C28.4209 128.585 27.3897 131.356 26.407 132.375C25.4242 133.394 23.9903 134.336 22.5564 134.159C22.2197 134.129 21.8931 134.028 21.5977 133.864C21.3024 133.699 21.0449 133.474 20.8418 133.204C20.6387 132.934 20.4946 132.624 20.4187 132.294C20.3429 131.965 20.337 131.623 20.4015 131.291C20.8486 129.306 24.2561 127.924 26.0686 127.763C26.1653 127.763 27.1763 127.763 27.9134 127.799C27.5106 127.699 27.0715 127.586 26.6688 127.493C25.1664 127.155 23.7687 126.937 22.5322 126.756C21.8233 126.655 21.1869 126.579 20.5868 126.519C20.0591 127.002 17.9123 128.935 16.5912 129.374C15.2701 129.813 13.5421 129.999 12.3539 129.189C12.0662 129.011 11.819 128.774 11.6285 128.495C11.438 128.215 11.3084 127.898 11.248 127.565C11.1876 127.232 11.1979 126.89 11.2781 126.561C11.3582 126.233 11.5066 125.924 11.7135 125.657Z" fill="#263238"/>
<path d="M28.3886 127.65C28.3886 127.687 26.274 126.382 26.1532 126.285C24.7273 125.153 22.6329 122.132 23.3337 120.243C23.4626 119.931 23.6555 119.649 23.9 119.416C24.1444 119.183 24.4351 119.004 24.7531 118.89C25.0712 118.776 25.4096 118.73 25.7465 118.755C26.0833 118.78 26.4113 118.875 26.709 119.035C27.9979 119.675 28.6947 121.302 28.9485 122.64C29.2626 124.178 28.3886 127.65 28.3886 127.65Z" fill="#263238"/>
<path d="M100.587 185.812C117.796 185.812 131.746 184.126 131.746 182.046C131.746 179.966 117.796 178.28 100.587 178.28C83.3784 178.28 69.428 179.966 69.428 182.046C69.428 184.126 83.3784 185.812 100.587 185.812Z" fill="#263238"/>
<path d="M178.847 161.609H158.33V168.851H178.847V161.609Z" stroke="#263238" stroke-width="0.402781" stroke-linecap="round" stroke-linejoin="round"/>
<path d="M178.203 168.839H158.974V180.499H178.203V168.839Z" stroke="#263238" stroke-width="0.402781" stroke-linecap="round" stroke-linejoin="round"/>
<path d="M170.792 161.645H166.385V180.6H170.792V161.645Z" stroke="#263238" stroke-width="0.402781" stroke-linecap="round" stroke-linejoin="round"/>
<path d="M168.432 161.605C168.432 161.605 166.229 156.973 163.647 157.505C161.065 158.036 162.362 161.835 168.432 161.605Z" stroke="#263238" stroke-width="0.402781" stroke-linecap="round" stroke-linejoin="round"/>
<path d="M168.625 161.605C168.625 161.605 170.828 156.973 173.41 157.505C175.993 158.036 174.704 161.835 168.625 161.605Z" stroke="#263238" stroke-width="0.402781" stroke-linecap="round" stroke-linejoin="round"/>
<path d="M174.369 151.805C174.518 152.869 173.986 154.008 172.391 154.693C170.796 155.378 169.974 153.485 168.291 155.225C166.607 156.965 168.625 161.605 168.625 161.605C168.625 161.605 174.139 160.848 174.369 162.974C174.598 165.101 172.846 166.088 173.382 167.381C173.917 168.674 175.585 167.759 175.734 166.317" stroke="#263238" stroke-width="0.402781" stroke-linecap="round" stroke-linejoin="round"/>
<path d="M172.387 37.4396C178.175 37.4396 182.867 32.7474 182.867 26.9593C182.867 21.1711 178.175 16.4789 172.387 16.4789C166.599 16.4789 161.906 21.1711 161.906 26.9593C161.906 32.7474 166.599 37.4396 172.387 37.4396Z" stroke="#263238" stroke-width="0.402781" stroke-linecap="round" stroke-linejoin="round"/>
<path d="M172.459 35.4498V34.0401C171.291 33.9918 170.425 33.6132 169.853 32.9002C169.281 32.1873 168.967 31.1763 168.911 29.8633L171.082 29.4605C171.095 29.9173 171.152 30.3718 171.251 30.8179C171.322 31.1706 171.489 31.4967 171.734 31.7604C171.85 31.872 171.987 31.9589 172.137 32.0157C172.287 32.0725 172.448 32.098 172.608 32.0907C172.773 32.1061 172.938 32.0812 173.09 32.018C173.243 31.9548 173.377 31.8553 173.482 31.7282C173.667 31.4554 173.758 31.1306 173.744 30.8018C173.771 30.28 173.63 29.7633 173.341 29.3276C173.027 28.9022 172.665 28.5144 172.262 28.1716L170.514 26.6451C170.21 26.3746 169.933 26.0766 169.684 25.7549C169.443 25.4346 169.255 25.0785 169.124 24.6996C168.98 24.2593 168.91 23.7977 168.919 23.3342C168.893 22.8925 168.959 22.4503 169.11 22.0348C169.262 21.6192 169.497 21.239 169.801 20.9175C170.445 20.3118 171.293 19.9697 172.177 19.9589V18.5935H172.91V19.9428C173.409 19.9563 173.898 20.0874 174.336 20.3254C174.696 20.535 175 20.8261 175.226 21.1753C175.452 21.5408 175.617 21.9408 175.714 22.3595C175.824 22.7988 175.888 23.2482 175.907 23.7007L173.768 24.0753C173.753 23.6846 173.708 23.2955 173.635 22.9113C173.585 22.6125 173.452 22.3336 173.253 22.1057C173.147 22.0045 173.019 21.9285 172.88 21.8832C172.74 21.8378 172.592 21.8244 172.447 21.8439C172.283 21.8384 172.119 21.8691 171.968 21.9338C171.817 21.9986 171.682 22.0957 171.573 22.2185C171.368 22.4716 171.262 22.791 171.275 23.1167C171.258 23.534 171.37 23.9464 171.597 24.2969C171.835 24.6202 172.105 24.9184 172.403 25.187L174.135 26.6974C174.497 27.0283 174.835 27.385 175.146 27.7648C175.459 28.1552 175.71 28.5912 175.891 29.0577C176.082 29.573 176.176 30.1193 176.169 30.6688C176.179 31.2362 176.055 31.798 175.806 32.3082C175.57 32.7782 175.216 33.1792 174.779 33.4722C174.305 33.7782 173.763 33.9635 173.2 34.0119V35.4498H172.459Z" fill="#263238"/>
<path d="M38.9688 26.7316C40.834 26.2965 41.9934 24.4317 41.5583 22.5665C41.1232 20.7013 39.2584 19.5419 37.3932 19.977C35.528 20.4121 34.3686 22.2769 34.8037 24.1421C35.2388 26.0073 37.1036 27.1667 38.9688 26.7316Z" stroke="#263238" stroke-width="0.402781" stroke-linecap="round" stroke-linejoin="round"/>
<path d="M43.1385 33.3271C43.0459 30.1451 40.8628 27.5955 38.1803 27.5955C35.4978 27.5955 33.3187 30.1451 33.2261 33.3271" stroke="#263238" stroke-width="0.402781" stroke-linecap="round" stroke-linejoin="round"/>
<path d="M46.1557 25.651C47.7486 25.651 49.04 24.3596 49.04 22.7667C49.04 21.1737 47.7486 19.8824 46.1557 19.8824C44.5627 19.8824 43.2714 21.1737 43.2714 22.7667C43.2714 24.3596 44.5627 25.651 46.1557 25.651Z" stroke="#263238" stroke-width="0.402781" stroke-linecap="round" stroke-linejoin="round"/>
<path d="M50.2717 31.0594C50.1952 28.4011 48.4028 26.2905 46.1553 26.2905C45.425 26.3166 44.7157 26.5421 44.1044 26.9425C43.4931 27.3429 43.003 27.9031 42.6873 28.5622" stroke="#263238" stroke-width="0.402781" stroke-linecap="round" stroke-linejoin="round"/>
<path d="M30.3024 25.651C31.8954 25.651 33.1867 24.3596 33.1867 22.7667C33.1867 21.1737 31.8954 19.8824 30.3024 19.8824C28.7095 19.8824 27.4181 21.1737 27.4181 22.7667C27.4181 24.3596 28.7095 25.651 30.3024 25.651Z" stroke="#263238" stroke-width="0.402781" stroke-linecap="round" stroke-linejoin="round"/>
<path d="M26.1854 31.0594C26.2499 28.4011 28.0745 26.2905 30.3018 26.2905C31.0322 26.3185 31.7412 26.5447 32.3528 26.9449C32.9645 27.3451 33.4557 27.9041 33.7738 28.5622" stroke="#263238" stroke-width="0.402781" stroke-linecap="round" stroke-linejoin="round"/>
<path d="M37.2661 177.053C42.9808 176.134 46.8681 170.756 45.9486 165.041C45.0292 159.327 39.6512 155.439 33.9366 156.359C28.2219 157.278 24.3346 162.656 25.2541 168.371C26.1735 174.086 31.5515 177.973 37.2661 177.053Z" stroke="#263238" stroke-width="0.402781" stroke-linecap="round" stroke-linejoin="round"/>
<path d="M35.5903 160.815V172.609" stroke="#263238" stroke-width="1.61112" stroke-linecap="round" stroke-linejoin="round"/>
<path d="M41.4871 166.712H29.6936" stroke="#263238" stroke-width="1.61112" stroke-linecap="round" stroke-linejoin="round"/>
<path d="M133.631 36.9804V159.208C133.631 160.819 132.991 162.364 131.852 163.503C130.713 164.642 129.168 165.282 127.557 165.282H74.7446C73.1337 165.282 71.5888 164.642 70.4497 163.503C69.3106 162.364 68.6707 160.819 68.6707 159.208V36.9804C68.6707 35.3702 69.3101 33.8259 70.4483 32.6869C71.5865 31.548 73.1304 30.9076 74.7406 30.9065H97.4091L97.4293 30.979C97.9931 32.9929 99.2941 34.3342 100.736 34.3342H101.542C102.988 34.3342 104.289 33.009 104.852 30.979L104.873 30.9065H127.537C128.336 30.9038 129.128 31.059 129.868 31.3631C130.607 31.6671 131.279 32.1141 131.845 32.6784C132.411 33.2427 132.86 33.9131 133.167 34.6514C133.473 35.3896 133.631 36.1811 133.631 36.9804Z" fill="white" stroke="#263238" stroke-width="0.402781" stroke-linecap="round" stroke-linejoin="round"/>
<path d="M137.76 66.1739V53.9656H136.656V38.3377C136.656 35.7825 135.641 33.3319 133.834 31.5251C132.027 29.7182 129.577 28.7032 127.022 28.7032H75.2763C72.7211 28.7032 70.2705 29.7182 68.4637 31.5251C66.6569 33.3319 65.6418 35.7825 65.6418 38.3377V162.527C65.6418 165.082 66.6569 167.533 68.4637 169.34C70.2705 171.147 72.7211 172.162 75.2763 172.162H127.022C129.577 172.162 132.027 171.147 133.834 169.34C135.641 167.533 136.656 165.082 136.656 162.527V76.5777H137.76V69.3639H136.656V66.1739H137.76ZM133.631 155.648C133.63 158.202 132.615 160.652 130.808 162.459C129.002 164.266 126.552 165.281 123.997 165.282H78.3052C75.75 165.282 73.2994 164.267 71.4926 162.46C69.6858 160.653 68.6707 158.203 68.6707 155.648V40.5409C68.6707 37.9857 69.6858 35.5351 71.4926 33.7283C73.2994 31.9215 75.75 30.9064 78.3052 30.9064H97.4091L97.4293 30.9789C97.9932 32.9928 99.2941 34.3341 100.736 34.3341H101.542C102.988 34.3341 104.289 33.0089 104.853 30.9789L104.873 30.9064H123.977C125.243 30.9043 126.498 31.1519 127.669 31.6351C128.84 32.1182 129.904 32.8275 130.801 33.7223C131.698 34.6171 132.409 35.6799 132.895 36.8499C133.38 38.0199 133.631 39.2741 133.631 40.5409V155.648Z" fill="#EE7F29" stroke="#263238" stroke-width="0.402781" stroke-linecap="round" stroke-linejoin="round"/>
<path d="M126.252 30.0327H76.0498C74.8296 30.0327 73.6212 30.273 72.4939 30.74C71.3665 31.2069 70.3421 31.8914 69.4793 32.7543C68.6164 33.6171 67.932 34.6415 67.465 35.7689C66.998 36.8962 66.7577 38.1045 66.7577 39.3248V161.545C66.7577 164.009 67.7367 166.373 69.4793 168.115C71.2219 169.858 73.5854 170.837 76.0498 170.837H126.252C127.472 170.837 128.681 170.596 129.808 170.129C130.935 169.662 131.959 168.978 132.822 168.115C133.684 167.252 134.368 166.228 134.835 165.1C135.301 163.973 135.541 162.765 135.541 161.545V39.3248C135.541 38.1047 135.301 36.8965 134.835 35.7692C134.368 34.6418 133.684 33.6174 132.822 32.7545C131.959 31.8916 130.935 31.2071 129.808 30.7401C128.681 30.273 127.472 30.0327 126.252 30.0327ZM133.631 155.99C133.631 158.455 132.652 160.818 130.91 162.561C129.167 164.303 126.804 165.282 124.339 165.282H77.963C75.4986 165.282 73.1351 164.303 71.3925 162.561C69.6499 160.818 68.6709 158.455 68.6709 155.99V40.1948C68.6709 37.7314 69.6494 35.369 71.3913 33.6271C73.1332 31.8853 75.4956 30.9067 77.959 30.9067H97.4093L97.4294 30.9792C97.9933 32.9931 99.2943 34.3344 100.736 34.3344H101.542C102.988 34.3344 104.289 33.0092 104.853 30.9792L104.873 30.9067H124.319C125.541 30.904 126.752 31.1424 127.881 31.6082C129.011 32.074 130.038 32.758 130.903 33.6212C131.768 34.4843 132.454 35.5095 132.922 36.6382C133.39 37.7669 133.631 38.9769 133.631 40.1988V155.99Z" fill="#263238" stroke="#263238" stroke-width="0.402781" stroke-linecap="round" stroke-linejoin="round"/>
<path d="M101.856 31.3697C101.857 31.1902 101.804 31.0144 101.705 30.8647C101.605 30.7151 101.464 30.5983 101.298 30.5292C101.132 30.4601 100.95 30.4418 100.774 30.4767C100.598 30.5115 100.436 30.5979 100.309 30.7249C100.182 30.8519 100.095 31.0137 100.061 31.1899C100.026 31.3661 100.044 31.5486 100.113 31.7144C100.182 31.8801 100.299 32.0216 100.449 32.1209C100.598 32.2202 100.774 32.2728 100.954 32.272C101.193 32.272 101.422 32.1769 101.592 32.0077C101.761 31.8385 101.856 31.609 101.856 31.3697Z" fill="white"/>
<path d="M74.4427 34.8457C74.4427 35.7602 73.4155 36.0905 73.4115 36.7874V36.8357H74.4105V37.1459H73.0771V36.8599C73.0771 35.881 74.1043 35.6876 74.1043 34.8457C74.1043 34.5355 74.0036 34.3704 73.7498 34.3704C73.4961 34.3704 73.3954 34.5476 73.3954 34.8175V35.0874H73.0771V34.8457C73.0771 34.3825 73.2906 34.0763 73.7579 34.0763C74.2252 34.0763 74.4427 34.3704 74.4427 34.8457Z" fill="#263238"/>
<path d="M76.1062 34.8458V34.9223C76.1218 35.0527 76.0939 35.1845 76.0269 35.2974C75.9599 35.4103 75.8575 35.498 75.7356 35.5467C75.8581 35.5969 75.9608 35.6861 76.0277 35.8003C76.0947 35.9146 76.1223 36.0477 76.1062 36.1792V36.4128C76.1062 36.8761 75.8887 37.1782 75.4214 37.1782C74.9541 37.1782 74.7406 36.8761 74.7406 36.4128V36.2033H75.0548V36.433C75.0548 36.7069 75.1676 36.872 75.4133 36.872C75.659 36.872 75.7678 36.7109 75.7678 36.4048V36.1671C75.7678 35.869 75.6429 35.728 75.3851 35.7159H75.2038V35.4138H75.3891C75.4405 35.414 75.4913 35.4035 75.5383 35.3828C75.5854 35.3622 75.6275 35.3319 75.6621 35.2939C75.6966 35.256 75.7228 35.2111 75.739 35.1624C75.7551 35.1136 75.7608 35.062 75.7557 35.0109V34.8458C75.7557 34.5356 75.647 34.3745 75.4012 34.3745C75.1555 34.3745 75.0427 34.5437 75.0427 34.8176V34.9747H74.7285V34.8458C74.7285 34.3825 74.946 34.0844 75.4093 34.0844C75.8725 34.0844 76.1062 34.3664 76.1062 34.8458Z" fill="#263238"/>
<path d="M76.7586 35.0592V35.462H76.4363V35.0592H76.7586ZM76.7586 36.7108V37.1338H76.4363V36.7108H76.7586Z" fill="#263238"/>
<path d="M77.4474 35.3332C77.4913 35.2532 77.557 35.1873 77.6369 35.1431C77.7167 35.0989 77.8075 35.0782 77.8986 35.0834C78.3014 35.0834 78.4585 35.3694 78.4585 35.8005V36.3967C78.4585 36.8599 78.241 37.1621 77.7737 37.1621C77.3064 37.1621 77.0929 36.8599 77.0929 36.3967V36.1912H77.4031V36.4168C77.4031 36.6907 77.5159 36.8559 77.7576 36.8559C77.9993 36.8559 78.1161 36.6907 78.1161 36.4168V35.8287C78.1161 35.5548 78.0033 35.3896 77.7576 35.3896C77.7135 35.388 77.6696 35.3952 77.6284 35.4108C77.5872 35.4264 77.5495 35.4501 77.5176 35.4806C77.4857 35.511 77.4602 35.5475 77.4426 35.5879C77.425 35.6283 77.4157 35.6718 77.4152 35.7159V35.7844H77.101L77.1815 34.0965H78.39V34.3986H77.4957L77.4474 35.3332Z" fill="#263238"/>
<path d="M80.1461 34.8457V34.9021H79.8198V34.8054C79.8198 34.5314 79.707 34.3703 79.4613 34.3703C79.2155 34.3703 79.0906 34.5355 79.0906 34.8618V35.5426C79.1257 35.4419 79.1927 35.3555 79.2814 35.2966C79.3702 35.2377 79.4758 35.2095 79.5821 35.2163C79.9849 35.2163 80.1461 35.4982 80.1461 35.9373V36.3966C80.1461 36.8598 79.9124 37.162 79.4492 37.162C78.9859 37.162 78.7523 36.8598 78.7523 36.3966V34.8457C78.7523 34.3663 78.9698 34.0682 79.4492 34.0682C79.9285 34.0682 80.1461 34.3623 80.1461 34.8457ZM79.1027 35.9816V36.4167C79.1027 36.6906 79.2155 36.8558 79.4613 36.8558C79.707 36.8558 79.8238 36.6906 79.8238 36.4167V35.9615C79.8238 35.6876 79.707 35.5224 79.4613 35.5224C79.2155 35.5224 79.1027 35.6876 79.1027 35.9615V35.9816Z" fill="#263238"/>
<path d="M113.287 34.9585H112.429V37.1016H113.287V34.9585Z" fill="#263238"/>
<path d="M114.431 34.5314H113.573V37.1055H114.431V34.5314Z" fill="#263238"/>
<path d="M115.571 34.2255H114.713V37.1017H115.571V34.2255Z" fill="#263238"/>
<path d="M116.715 33.6938H115.857V37.1018H116.715V33.6938Z" fill="#263238"/>
<path d="M127.32 37.0412H122.176V33.8991H127.32V37.0412ZM122.462 36.7592H127.034V34.1851H122.462V36.7592Z" fill="#263238"/>
<path d="M125.608 34.4952H122.893V36.445H125.608V34.4952Z" fill="#263238"/>
<path d="M127.791 35.0993H127.142V35.8408H127.791V35.0993Z" fill="#263238"/>
<path d="M120.291 36.3601C120.257 36.3603 120.224 36.3505 120.195 36.3319C119.147 35.7116 118.454 36.2876 118.426 36.3319C118.409 36.3498 118.388 36.364 118.364 36.3737C118.341 36.3835 118.316 36.3884 118.291 36.3884C118.266 36.3884 118.241 36.3835 118.218 36.3737C118.195 36.364 118.174 36.3498 118.156 36.3319C118.121 36.2958 118.101 36.2474 118.101 36.197C118.101 36.1465 118.121 36.0981 118.156 36.062C118.197 36.0298 119.079 35.2563 120.376 36.062C120.398 36.0748 120.416 36.0918 120.431 36.112C120.446 36.1322 120.457 36.1551 120.463 36.1795C120.469 36.2038 120.47 36.2291 120.466 36.2539C120.462 36.2787 120.454 36.3025 120.44 36.3239C120.419 36.3395 120.395 36.3508 120.37 36.3571C120.344 36.3633 120.317 36.3643 120.291 36.3601Z" fill="#263238"/>
<path d="M120.678 35.7116C120.644 35.7113 120.611 35.703 120.581 35.6875C119.067 34.7851 118.052 35.6593 118.04 35.6875C118.001 35.7163 117.952 35.7294 117.904 35.7242C117.856 35.7189 117.811 35.6958 117.779 35.6592C117.747 35.6227 117.73 35.5755 117.731 35.527C117.733 35.4785 117.752 35.4323 117.786 35.3974C117.786 35.3974 119.027 34.3339 120.779 35.3974C120.8 35.4103 120.819 35.4273 120.834 35.4474C120.849 35.4676 120.86 35.4905 120.866 35.5149C120.872 35.5392 120.873 35.5645 120.869 35.5893C120.865 35.6141 120.856 35.6379 120.843 35.6593C120.822 35.6805 120.796 35.6963 120.767 35.7055C120.738 35.7146 120.708 35.7167 120.678 35.7116Z" fill="#263238"/>
<path d="M121.033 34.9665C120.997 34.9672 120.962 34.9574 120.932 34.9383C119.014 33.7983 117.742 34.8739 117.689 34.9383C117.67 34.955 117.648 34.9677 117.624 34.9757C117.6 34.9837 117.575 34.9869 117.55 34.985C117.525 34.9831 117.5 34.9762 117.478 34.9648C117.455 34.9533 117.435 34.9374 117.419 34.9182C117.401 34.9005 117.387 34.8795 117.377 34.8564C117.368 34.8332 117.363 34.8083 117.363 34.7832C117.363 34.7581 117.368 34.7332 117.377 34.7101C117.387 34.6869 117.401 34.6659 117.419 34.6483C117.419 34.6483 118.95 33.3431 121.113 34.6483C121.157 34.675 121.188 34.7177 121.201 34.7673C121.214 34.817 121.207 34.8696 121.182 34.9141C121.162 34.9329 121.138 34.9472 121.113 34.9562C121.087 34.9653 121.06 34.9688 121.033 34.9665Z" fill="#263238"/>
<path d="M119.716 36.6827C119.716 36.7783 119.687 36.8718 119.634 36.9514C119.581 37.0309 119.506 37.0929 119.417 37.1295C119.329 37.1661 119.232 37.1757 119.138 37.157C119.044 37.1383 118.958 37.0923 118.89 37.0247C118.822 36.957 118.776 36.8708 118.758 36.777C118.739 36.6832 118.749 36.586 118.785 36.4976C118.822 36.4092 118.884 36.3337 118.963 36.2806C119.043 36.2274 119.136 36.1991 119.232 36.1991C119.296 36.1985 119.359 36.2107 119.418 36.2348C119.477 36.2589 119.53 36.2945 119.575 36.3395C119.62 36.3845 119.656 36.4381 119.68 36.497C119.704 36.5559 119.716 36.619 119.716 36.6827Z" fill="#263238"/>
<path d="M37.3182 53.1762H42.0153" stroke="#263238" stroke-width="0.402781" stroke-linecap="round" stroke-linejoin="round"/>
<path d="M73.7256 53.1762H78.4226" stroke="#263238" stroke-width="0.402781" stroke-linecap="round" stroke-linejoin="round"/>
<path d="M42.0147 40.8471L44.6573 42.9016" stroke="#263238" stroke-width="0.402781" stroke-linecap="round" stroke-linejoin="round"/>
<path d="M73.1379 40.8471L70.4953 42.9016" stroke="#263238" stroke-width="0.402781" stroke-linecap="round" stroke-linejoin="round"/>
<path d="M52.5836 35.8565L52.8777 40.2595" stroke="#263238" stroke-width="0.402781" stroke-linecap="round" stroke-linejoin="round"/>
<path d="M62.8627 36.4406L62.2746 40.2595" stroke="#263238" stroke-width="0.402781" stroke-linecap="round" stroke-linejoin="round"/>
<path d="M69.5246 47.6781H44.1736V69.5531H69.5246V47.6781Z" fill="white" stroke="#263238" stroke-width="0.402781" stroke-linecap="round" stroke-linejoin="round"/>
<path d="M53.5866 47.6781H48.8056V69.5531H53.5866V47.6781Z" fill="#EE7F29" stroke="#263238" stroke-width="0.402781" stroke-linecap="round" stroke-linejoin="round"/>
<path d="M69.5246 47.6781H58.4119V69.5531H69.5246V47.6781Z" fill="white" stroke="#263238" stroke-width="0.402781" stroke-linecap="round" stroke-linejoin="round"/>
<path d="M55.0608 45.8939L51.3431 44.2828C51.252 44.275 51.1603 44.275 51.0692 44.2828L51.0088 44.2505H47.267L50.1831 45.62C50.1979 45.8248 50.2288 46.0282 50.2757 46.2282C50.3734 46.5338 50.5457 46.8102 50.7771 47.0325C51.0084 47.2547 51.2916 47.4157 51.6009 47.501L51.625 47.6178H52.0278L58.5005 47.7064C58.5005 47.7064 56.8249 46.784 55.0608 45.8939Z" fill="#EE7F29" stroke="#263238" stroke-width="0.402781" stroke-linecap="round" stroke-linejoin="round"/>
<path d="M54.7627 47.678C54.7627 47.678 50.7349 45.5071 48.5518 44.5525C46.3687 43.5979 46.2922 45.072 46.5379 46.1998C46.7836 47.3276 48.2739 47.5894 48.2739 47.5894L54.7627 47.678Z" fill="#EE7F29" stroke="#263238" stroke-width="0.402781" stroke-linecap="round" stroke-linejoin="round"/>
<path d="M55.7217 46.0951H54.2997C54.0969 46.0946 53.8961 46.1342 53.7086 46.2115C53.5212 46.2889 53.3509 46.4025 53.2075 46.5458C53.0642 46.6892 52.9505 46.8595 52.8732 47.0469C52.7958 47.2344 52.7563 47.4352 52.7568 47.638H57.2645C57.2645 47.2288 57.102 46.8364 56.8127 46.547C56.5233 46.2577 56.1309 46.0951 55.7217 46.0951Z" fill="#EE7F29" stroke="#263238" stroke-width="0.402781" stroke-linecap="round" stroke-linejoin="round"/>
<path d="M64.6066 44.2667H61.32L60.893 45.8778C59.1288 46.768 57.4694 47.6621 57.4694 47.6621L63.9421 47.5735H64.3448L64.365 47.4567C64.675 47.3721 64.959 47.2113 65.1911 46.989C65.4232 46.7668 65.5961 46.49 65.6942 46.1839C65.8915 45.2656 65.8674 44.1096 64.6066 44.2667Z" fill="#EE7F29" stroke="#263238" stroke-width="0.402781" stroke-linecap="round" stroke-linejoin="round"/>
<path d="M53.5866 47.678C53.5866 47.678 57.6144 45.5071 59.8015 44.5525C61.9886 43.5979 62.0571 45.072 61.7952 46.1998C61.5334 47.3276 60.0593 47.5894 60.0593 47.5894L53.5866 47.678Z" fill="#EE7F29" stroke="#263238" stroke-width="0.402781" stroke-linecap="round" stroke-linejoin="round"/>
<path d="M44.9995 71.0961C44.9995 71.0961 42.8806 69.6862 43.3439 69.239C43.8071 68.7919 46.0831 69.7748 46.6028 70.4475C47.1224 71.1203 46.8606 71.5714 46.4296 71.6117C45.9985 71.652 44.9995 71.0961 44.9995 71.0961Z" fill="white" stroke="#263238" stroke-width="0.402781" stroke-linecap="round" stroke-linejoin="round"/>
<path d="M46.7916 69.4524C46.7916 69.4524 43.509 67.7486 44.2984 69.3235C45.0879 70.8984 47.0535 72.3443 47.8429 72.7391C48.6324 73.1338 52.9663 73.0009 52.9663 73.0009C52.9663 73.0009 52.1607 71.5549 51.3874 71.1602C50.614 70.7654 46.7916 69.4524 46.7916 69.4524Z" fill="white" stroke="#263238" stroke-width="0.402781" stroke-linecap="round" stroke-linejoin="round"/>
<path d="M49.9414 69.4525C49.9414 69.4525 45.6075 67.0922 45.4746 68.0106C45.3417 68.9289 48.8902 71.9497 50.0703 72.4734C50.9963 72.8159 51.975 72.9944 52.9623 73.001L49.9414 69.4525Z" fill="white" stroke="#263238" stroke-width="0.402781" stroke-linecap="round" stroke-linejoin="round"/>
<path d="M67.0113 73.5124C67.0113 73.5124 65.4364 69.835 64.2522 69.3114C63.068 68.7878 52.4346 69.835 52.4346 69.835C52.4346 69.835 47.3113 65.634 47.706 67.7325C48.1007 69.831 51.3834 72.3323 52.3017 72.9687C53.22 73.6051 60.0512 73.3715 60.0512 73.3715L62.1537 75.3411L67.0113 73.5124Z" fill="white" stroke="#263238" stroke-width="0.402781" stroke-linecap="round" stroke-linejoin="round"/>
<path d="M131.666 79.4175C131.42 79.894 131.354 80.4433 131.48 80.9644C131.687 81.4791 132.003 81.9424 132.407 82.322L132.717 84.2395L136.923 84.4248L135.191 77.9794L131.666 79.4175Z" fill="white" stroke="#263238" stroke-width="0.402781" stroke-linecap="round" stroke-linejoin="round"/>
<path d="M128.81 67.4709C128.81 67.4709 130.562 78.8696 130.824 79.5543C131.086 80.2391 133.104 81.0446 133.808 80.6942C134.513 80.3438 133.281 78.6803 133.281 78.6803L133.631 67.7206C133.631 67.7206 130.651 66.5848 128.81 67.4709Z" fill="#263238" stroke="#263238" stroke-width="0.402781" stroke-linecap="round" stroke-linejoin="round"/>
<path d="M133.72 71.0556C133.72 71.0556 131.263 70.8824 131.174 71.3215C131.086 71.7605 131.09 73.247 131.529 73.4243C131.968 73.6015 134.949 73.8633 135.472 73.6861C135.648 73.5971 135.803 73.4736 135.93 73.3231C136.056 73.1726 136.151 72.9981 136.209 72.81C136.266 72.622 136.285 72.4243 136.265 72.2288C136.244 72.0332 136.184 71.8438 136.089 71.6719C135.561 70.8824 133.72 71.0556 133.72 71.0556Z" fill="white" stroke="#263238" stroke-width="0.402781" stroke-linecap="round" stroke-linejoin="round"/>
<path d="M133.72 73.8629C133.72 73.8629 131.351 73.8629 131.44 74.3866C131.529 74.9103 131.263 76.0543 132.246 76.2316C133.412 76.3765 134.593 76.3466 135.75 76.1429C135.947 76.1064 136.13 76.0134 136.275 75.8754C136.42 75.7373 136.522 75.5601 136.568 75.3652C136.615 75.1703 136.604 74.9661 136.537 74.7774C136.469 74.5887 136.349 74.4235 136.189 74.302C135.472 73.6856 133.72 73.8629 133.72 73.8629Z" fill="white" stroke="#263238" stroke-width="0.402781" stroke-linecap="round" stroke-linejoin="round"/>
<path d="M129.914 74.5358C129.914 74.5358 129.612 72.3283 128.899 72.3887C128.367 72.433 127.098 72.8359 127.215 73.8067C127.415 74.9656 127.79 76.0875 128.327 77.1341C128.419 77.3119 128.562 77.4588 128.736 77.5572C128.911 77.6556 129.111 77.7012 129.311 77.6884C129.511 77.6756 129.703 77.605 129.863 77.4852C130.024 77.3653 130.147 77.2014 130.216 77.0133C130.599 76.1633 129.914 74.5358 129.914 74.5358Z" fill="white" stroke="#263238" stroke-width="0.402781" stroke-linecap="round" stroke-linejoin="round"/>
<path d="M133.853 76.2273C133.853 76.2273 131.71 76.2273 131.791 76.7349C131.871 77.2424 131.629 78.3462 132.504 78.5073C133.56 78.6455 134.631 78.617 135.678 78.4227C135.861 78.3782 136.029 78.2833 136.161 78.1488C136.294 78.0142 136.386 77.8454 136.428 77.6613C136.47 77.4771 136.46 77.2849 136.398 77.1063C136.337 76.9277 136.227 76.7698 136.081 76.6503C135.44 76.0621 133.853 76.2273 133.853 76.2273Z" fill="white" stroke="#263238" stroke-width="0.402781" stroke-linecap="round" stroke-linejoin="round"/>
<path d="M133.954 78.1525C133.954 78.1525 132.161 78.1525 132.23 78.5554C132.298 78.9582 132.097 79.8968 132.826 80.0378C133.709 80.1569 134.605 80.1337 135.48 79.9693C135.633 79.9309 135.772 79.8507 135.882 79.7378C135.992 79.6249 136.068 79.4837 136.103 79.3299C136.137 79.1762 136.128 79.0159 136.076 78.8671C136.025 78.7182 135.933 78.5866 135.811 78.4869C135.283 78.0115 133.954 78.1525 133.954 78.1525Z" fill="white" stroke="#263238" stroke-width="0.402781" stroke-linecap="round" stroke-linejoin="round"/>
<path d="M128.323 55.9271C127.186 55.9312 126.075 56.2579 125.117 56.8693C124.159 57.4807 123.395 58.3515 122.913 59.3804C122.431 60.4093 122.251 61.5539 122.395 62.681C122.538 63.8081 122.999 64.8713 123.723 65.7469C124.822 67.072 126.623 68.0226 128.339 67.9138C133.599 67.5916 147.39 74.9786 147.39 74.9786V48.8623C147.39 48.8623 133.792 56.0358 128.323 55.9271Z" fill="white" stroke="#263238" stroke-width="0.402781" stroke-linecap="round" stroke-linejoin="round"/>
<path d="M127.251 62.134C127.251 60.7857 127.615 59.4623 128.304 58.3033C128.993 57.1443 129.982 56.1926 131.166 55.5485C130.237 55.7872 129.282 55.9143 128.323 55.9272C127.186 55.9313 126.075 56.258 125.117 56.8694C124.159 57.4808 123.395 58.3516 122.913 59.3805C122.431 60.4094 122.251 61.554 122.395 62.6811C122.538 63.8082 122.999 64.8714 123.723 65.747C124.822 67.0721 126.623 68.0227 128.339 67.9139C128.948 67.8901 129.559 67.9319 130.159 68.0388C129.256 67.3417 128.524 66.4472 128.02 65.4237C127.516 64.4002 127.253 63.2749 127.251 62.134Z" fill="#EE7F29" stroke="#263238" stroke-width="0.402781" stroke-linecap="round" stroke-linejoin="round"/>
<path d="M160.055 65.0024C161.761 57.9952 157.463 50.9321 150.456 49.2265C143.449 47.5209 136.386 51.8187 134.68 58.826C132.974 65.8332 137.272 72.8963 144.279 74.6019C151.287 76.3075 158.35 72.0097 160.055 65.0024Z" fill="white" stroke="#263238" stroke-width="0.402781" stroke-linecap="round" stroke-linejoin="round"/>
<path d="M158.503 61.9204C158.504 64.1224 157.851 66.2753 156.629 68.1066C155.406 69.9379 153.667 71.3655 151.633 72.2087C149.599 73.0519 147.36 73.273 145.201 72.8439C143.041 72.4148 141.057 71.3548 139.499 69.798C137.942 68.2412 136.881 66.2575 136.451 64.0978C136.021 61.9381 136.242 59.6995 137.084 57.665C137.927 55.6305 139.354 53.8915 141.185 52.6681C143.015 51.4446 145.168 50.7916 147.37 50.7916C150.322 50.7926 153.152 51.9653 155.24 54.0521C157.327 56.1388 158.501 58.9688 158.503 61.9204Z" fill="#A6A6A6" stroke="#263238" stroke-width="0.402781" stroke-linecap="round" stroke-linejoin="round"/>
<path d="M147.37 59.2018V64.6514L138.807 69.0377C137.503 67.4623 136.657 65.5585 136.362 63.5345C136.067 61.5106 136.335 59.4445 137.135 57.5625L147.37 59.2018Z" fill="white" stroke="#263238" stroke-width="0.402781" stroke-linecap="round" stroke-linejoin="round"/>
<path d="M150.089 61.9209C150.089 62.4589 149.93 62.9848 149.631 63.432C149.332 63.8793 148.907 64.2278 148.41 64.4335C147.913 64.6392 147.366 64.6928 146.838 64.5875C146.311 64.4823 145.826 64.2229 145.446 63.8422C145.066 63.4616 144.807 62.9767 144.703 62.449C144.599 61.9212 144.653 61.3744 144.859 60.8776C145.066 60.3808 145.415 59.9564 145.863 59.6581C146.31 59.3598 146.836 59.201 147.374 59.2018C148.095 59.2029 148.785 59.4898 149.295 59.9997C149.804 60.5095 150.089 61.2005 150.089 61.9209Z" fill="white" stroke="#263238" stroke-width="0.402781" stroke-linecap="round" stroke-linejoin="round"/>
<path d="M131.835 84.4121L131.4 82.5873L137.047 81.8904L136.923 84.4242L131.835 84.4121Z" fill="white" stroke="#263238" stroke-width="0.402781" stroke-linecap="round" stroke-linejoin="round"/>
<path d="M61.8156 76.071L60.5144 73.9843L66.5086 70.9429L67.0121 73.5009L61.8156 76.071Z" fill="white" stroke="#263238" stroke-width="0.402781" stroke-linecap="round" stroke-linejoin="round"/>
<path d="M98.2469 73.0535C98.2469 73.0535 88.6124 71.9821 87.7746 72.409C86.9368 72.836 74.7164 87.2877 74.7164 87.2877L67.2086 72.3043L60.889 75.0835C60.889 75.0835 68.8077 102.07 70.0925 102.376C71.3774 102.682 83.5776 94.566 83.5776 94.566L82.8285 105.268C82.8285 105.268 85.076 114.258 95.0327 115.97C104.989 117.682 110.87 109.976 112.155 107.407C113.112 105.358 113.934 103.25 114.616 101.095L119.22 87.5012C119.22 87.5012 132.181 98.0823 135.065 99.3792C137.949 100.676 140.627 101.844 140.95 101.2C141.272 100.555 138.062 83.4331 138.062 83.4331L131.215 83.7554L131.537 86.4298C131.537 86.4298 122.651 74.7492 121.902 73.5851C121.153 72.4211 118.906 72.6225 116.231 71.8733C113.557 71.1241 98.2469 73.0535 98.2469 73.0535Z" fill="#EE7F29" stroke="#263238" stroke-width="0.402781" stroke-linecap="round" stroke-linejoin="round"/>
<path d="M83.5817 94.5659L90.7552 89.2129" stroke="#263238" stroke-width="0.402781" stroke-linecap="round" stroke-linejoin="round"/>
<path d="M88.1854 91.2469L91.823 90.6024" stroke="#263238" stroke-width="0.402781" stroke-linecap="round" stroke-linejoin="round"/>
<path d="M119.224 87.5012L121.685 78.8293" stroke="#263238" stroke-width="0.402781" stroke-linecap="round" stroke-linejoin="round"/>
<path d="M120.186 84.7184L122.861 80.972" stroke="#263238" stroke-width="0.402781" stroke-linecap="round" stroke-linejoin="round"/>
<path d="M131.851 92.6607L131.96 94.7796" stroke="#263238" stroke-width="0.402781" stroke-linecap="round" stroke-linejoin="round"/>
<path d="M131.533 86.4298L131.726 90.2446" stroke="#263238" stroke-width="0.402781" stroke-linecap="round" stroke-linejoin="round"/>
<path d="M74.7003 87.2876L76.9481 91.9967" stroke="#263238" stroke-width="0.402781" stroke-linecap="round" stroke-linejoin="round"/>
<path d="M101.884 71.8732L97.1755 72.7311C97.1755 72.7311 95.4636 74.1207 94.501 77.3308C93.9163 79.2919 93.4867 81.2958 93.2161 83.3242L97.2842 83.5417L94.062 86.764C94.062 86.764 95.0286 88.1536 97.0587 91.1502C98.6627 93.4095 100.412 95.5622 102.295 97.5947L96.3336 105.268C96.3336 105.268 103.612 103.657 108.107 98.7386C112.602 93.8207 115.264 86.4297 115.264 86.4297L111.732 83.6464L115.478 82.8973C115.478 82.8973 116.227 76.7992 112.256 72.8278C108.284 68.8563 101.884 71.8732 101.884 71.8732Z" fill="#EE7F29" stroke="#263238" stroke-width="0.402781" stroke-linecap="round" stroke-linejoin="round"/>
<path d="M112.481 74.443C112.481 74.443 111.233 76.916 110.983 81.5077C110.79 85.0925 108.909 89.66 107.249 92.8903C105.932 95.4601 104.752 97.184 104.667 96.9181C104.667 96.9181 103.974 95.8065 102.867 92.5681C102.597 91.7948 102.307 90.8925 101.993 89.8493C100.382 84.4964 98.9961 75.8285 99.6365 74.1167C99.9371 73.2729 100.295 72.4506 100.708 71.6557C105.847 78.6158 112.481 74.443 112.481 74.443Z" fill="white" stroke="#263238" stroke-width="0.402781" stroke-linecap="round" stroke-linejoin="round"/>
<path d="M105.952 89.1081L107.249 92.8902C105.932 95.46 104.752 97.1839 104.667 96.918C104.667 96.918 103.974 95.8063 102.867 92.568L104.667 89.3176L102.879 85.9704L104.989 83.8558L107.877 86.7478L105.952 89.1081Z" fill="#263238" stroke="#263238" stroke-width="0.402781" stroke-linecap="round" stroke-linejoin="round"/>
<path d="M101.457 87.5012L104.989 83.86L109.291 87.9201" stroke="#263238" stroke-width="0.402781" stroke-linecap="round" stroke-linejoin="round"/>
<path d="M100.708 71.6597C100.828 73.8159 101.261 75.9433 101.993 77.9753C102.803 80.0272 103.807 81.9976 104.989 83.8599L110.028 76.6904C110.028 76.6904 104.562 77.2261 100.708 71.6597Z" stroke="#263238" stroke-width="0.402781" stroke-linecap="round" stroke-linejoin="round"/>
<path d="M116.018 60.3174C116.018 60.3174 117.548 60.0797 117.548 62.1704C117.548 64.2611 116.662 66.8352 116.662 66.8352L116.018 60.3174Z" fill="white" stroke="#263238" stroke-width="0.402781" stroke-linecap="round" stroke-linejoin="round"/>
<path d="M115.478 52.6082C115.478 52.6082 116.549 62.3474 116.654 65.2394C116.759 68.1313 116.44 70.6971 115.478 71.9819C114.515 73.2668 110.644 78.4022 108.631 78.6157C106.617 78.8292 104.349 77.7618 103.495 77.0046C102.641 76.2474 98.5691 69.8311 98.5691 69.8311C98.5691 69.8311 95.4677 69.6176 94.7185 65.5495C93.9693 61.4814 98.1422 62.4481 98.1422 62.4481C98.1422 62.4481 95.8946 58.9157 95.6812 55.4921C95.4677 52.0684 94.8232 50.7795 104.031 50.5661C113.238 50.3526 115.478 52.6082 115.478 52.6082Z" fill="white" stroke="#263238" stroke-width="0.402781" stroke-linecap="round" stroke-linejoin="round"/>
<path d="M110.661 59.4595L113.23 68.3408L109.271 67.1647" stroke="#263238" stroke-width="0.402781" stroke-linecap="round" stroke-linejoin="round"/>
<path d="M105.312 66.0934L102.206 66.7379" stroke="#263238" stroke-width="0.402781" stroke-linecap="round" stroke-linejoin="round"/>
<path d="M103.813 66.629C104.111 67.5379 104.662 68.343 105.401 68.9501C106.14 69.5572 107.037 69.941 107.986 70.0566C111.41 70.5883 113.122 69.9479 113.122 69.9479" stroke="#263238" stroke-width="0.402781" stroke-linecap="round" stroke-linejoin="round"/>
<path d="M104.667 68.3409C104.667 68.3409 104.562 73.6946 106.488 73.9081C108.414 74.1216 107.987 70.057 107.987 70.057C106.771 69.7274 105.639 69.1423 104.667 68.3409Z" fill="#263238" stroke="#263238" stroke-width="0.402781" stroke-linecap="round" stroke-linejoin="round"/>
<path d="M105.062 72.0424C105.324 73.0173 105.763 73.827 106.488 73.9075C106.67 73.9333 106.857 73.9095 107.027 73.8386C107.197 73.7677 107.345 73.6524 107.455 73.5047C107.08 72.8481 105.787 72.3043 105.062 72.0424Z" fill="white" stroke="#263238" stroke-width="0.402781" stroke-linecap="round" stroke-linejoin="round"/>
<path d="M106.001 61.9206C106.001 62.5127 105.739 62.9921 105.412 62.9921C105.086 62.9921 104.824 62.5127 104.824 61.9206C104.824 61.3284 105.086 60.849 105.412 60.849C105.739 60.849 106.001 61.3284 106.001 61.9206Z" fill="#263238"/>
<path d="M113.178 60.9579C113.178 61.55 112.912 62.0294 112.586 62.0294C112.26 62.0294 111.998 61.55 111.998 60.9579C111.998 60.3657 112.264 59.8863 112.586 59.8863C112.908 59.8863 113.178 60.3657 113.178 60.9579Z" fill="#263238"/>
<path d="M103.491 60.1C103.991 59.5316 104.625 59.0969 105.336 58.8352C106.046 58.5736 106.81 58.4932 107.56 58.6015" stroke="#263238" stroke-width="0.402781" stroke-linecap="round" stroke-linejoin="round"/>
<path d="M110.983 58.1748C110.983 58.1748 112.373 55.6047 114.608 56.8897" stroke="#263238" stroke-width="0.402781" stroke-linecap="round" stroke-linejoin="round"/>
<path d="M104.132 52.8216C104.132 52.8216 100.817 52.2859 101.566 53.2526C102.315 54.2193 104.027 55.3914 103.177 56.1405C102.327 56.8897 100.18 58.1544 100.289 58.815C100.398 59.4755 100.607 62.1339 100.289 62.7784C99.9708 63.4228 99.2176 63.5275 98.4684 63.4188C97.7192 63.31 96.6478 61.3847 96.2209 60.849C95.7939 60.3133 91.9393 56.4628 92.6885 53.3573C93.4377 50.2519 101.465 47.7909 101.465 47.7909C101.465 47.7909 106.593 42.015 110.028 41.9063C113.464 41.7975 112.167 45.0117 112.042 45.3299C111.917 45.6481 116.964 45.0117 117.927 48.1131C118.889 51.2145 118.571 52.0724 114.181 53.2526C109.791 54.4327 104.132 52.8216 104.132 52.8216Z" fill="#263238" stroke="#263238" stroke-width="0.402781" stroke-linecap="round" stroke-linejoin="round"/>
<path d="M171.646 48.5482L162.921 50.8038L164.726 51.706L159.764 53.2124L169.837 51.8591L167.284 50.6548L171.646 48.5482Z" fill="#263238"/>
<path d="M173.434 69.7867L164.609 67.9621L165.833 69.5651L160.714 68.7274L170.353 71.9577L168.589 69.7504L173.434 69.7867Z" fill="#263238"/>
<path d="M163.944 84.3313L156.513 79.2321L157.021 81.1856L152.626 78.4306L160.263 85.1449L159.494 82.4262L163.944 84.3313Z" fill="#263238"/>
<path d="M83.5414 145.669V133.34H86.4938C87.2087 133.322 87.9216 133.421 88.6043 133.634C89.1466 133.807 89.6102 134.167 89.9134 134.649C90.2429 135.242 90.3992 135.916 90.3645 136.594C90.3683 137.045 90.3223 137.495 90.2276 137.935C90.1467 138.303 89.9873 138.65 89.7603 138.95C89.5217 139.243 89.2086 139.465 88.8541 139.595L90.5739 145.669H88.3224L86.8321 140.03H85.797V145.669H83.5414ZM85.797 138.604H86.4938C86.8514 138.621 87.2081 138.556 87.537 138.415C87.7949 138.293 87.9945 138.074 88.0928 137.807C88.2165 137.463 88.2739 137.1 88.262 136.735C88.2977 136.246 88.1779 135.758 87.9196 135.341C87.69 135.031 87.255 134.874 86.6186 134.874H85.8131L85.797 138.604Z" fill="#1E1E1E"/>
<path d="M92.0521 145.669V133.34H97.2279V134.923H94.3198V138.467H96.6156V140.038H94.3198V144.138H97.2722V145.689L92.0521 145.669Z" fill="#1E1E1E"/>
<path d="M98.5692 145.669V133.34H103.64V134.874H100.821V138.499H103.121V140.07H100.821V145.669H98.5692Z" fill="#1E1E1E"/>
<path d="M104.812 145.669V133.34H109.988V134.923H107.064V138.467H109.364V140.038H107.064V144.138H110.028V145.689L104.812 145.669Z" fill="#1E1E1E"/>
<path d="M111.329 145.669V133.34H114.282C114.995 133.322 115.707 133.421 116.388 133.634C116.932 133.806 117.397 134.166 117.701 134.649C118.029 135.243 118.184 135.917 118.148 136.594C118.154 137.045 118.108 137.495 118.011 137.935C117.932 138.303 117.774 138.649 117.548 138.95C117.31 139.243 116.996 139.465 116.642 139.595L118.362 145.669H116.106L114.616 140.03H113.581V145.669H111.329ZM113.581 138.604H114.282C114.639 138.621 114.996 138.556 115.325 138.415C115.581 138.29 115.78 138.073 115.881 137.807C116.001 137.463 116.057 137.099 116.046 136.735C116.082 136.246 115.962 135.758 115.703 135.342C115.478 135.031 115.043 134.874 114.402 134.874H113.597L113.581 138.604Z" fill="#1E1E1E"/>
</svg>
