<svg width="249" height="249" viewBox="0 0 249 249" fill="none" xmlns="http://www.w3.org/2000/svg">
<path d="M207.111 213.315H208.808L212.498 208.166V204.768C212.498 204.768 215.117 204.609 214.81 209.034C214.502 213.458 214.835 212.332 214.835 212.332C214.835 212.332 220.39 212.332 220.852 212.828C221.189 213.176 221.348 218.697 221.397 221.688C221.434 222.41 221.227 223.124 220.811 223.715C220.395 224.307 219.793 224.742 219.101 224.952C218.907 225.004 218.706 225.031 218.505 225.031C217.116 225.031 210.038 223.905 210.038 223.905H207.111V213.315Z" fill="#E0E0E0"/>
<path d="M202.265 212.387L203.307 223.964H206.209V212.62L202.265 212.387Z" fill="#E0E0E0"/>
<path d="M120.548 39.2102L127.84 49.6269C128.027 49.8869 128.274 50.0977 128.56 50.2414C128.846 50.385 129.163 50.4573 129.483 50.4519C129.804 50.4466 130.118 50.3638 130.399 50.2106C130.68 50.0574 130.92 49.8385 131.099 49.5724L138.157 38.729L120.548 39.2102Z" fill="#E0E0E0"/>
<path d="M139.04 21.7546H118.569C115.402 21.7546 112.834 24.3219 112.834 27.4888V39.2499C112.834 42.4168 115.402 44.9841 118.569 44.9841H139.04C142.207 44.9841 144.774 42.4168 144.774 39.2499V27.4888C144.774 24.3219 142.207 21.7546 139.04 21.7546Z" fill="#E0E0E0"/>
<path d="M135.062 31.2341C134.035 29.3641 132.339 29.0714 131.198 29.498C130.393 29.8497 129.729 30.461 129.313 31.2341C128.896 30.461 128.233 29.8497 127.428 29.498C126.287 29.0714 124.591 29.3641 123.569 31.2341C121.436 35.1231 129.313 40.2223 129.313 40.2223C129.313 40.2223 137.195 35.1231 135.062 31.2341Z" fill="white"/>
<path d="M40.4826 201.747H57.3032C59.099 201.747 60.8212 202.46 62.091 203.73C63.3607 205 64.0741 206.722 64.0741 208.517V217.059C64.0741 218.855 63.3607 220.577 62.091 221.847C60.8212 223.117 59.099 223.83 57.3032 223.83H52.9083L49.813 228.255C49.6378 228.506 49.4036 228.71 49.131 228.849C48.8585 228.989 48.5558 229.059 48.2497 229.054C47.9436 229.049 47.6434 228.969 47.3754 228.821C47.1075 228.673 46.8799 228.462 46.7128 228.205L43.8656 223.83H40.4826C38.6868 223.83 36.9646 223.117 35.6948 221.847C34.425 220.577 33.7117 218.855 33.7117 217.059V208.517C33.7117 206.722 34.425 205 35.6948 203.73C36.9646 202.46 38.6868 201.747 40.4826 201.747Z" fill="#E0E0E0"/>
<path d="M48.2952 208.532V217.243L42.0601 212.887L48.2952 208.532Z" fill="white"/>
<path d="M56.6385 217.927C56.6385 217.927 56.2267 211.742 51.2763 211.647H48.1116V214.306L51.2316 214.351C51.2316 214.351 54.4708 214.276 56.6385 217.927Z" fill="white"/>
<path d="M50.6231 110.553C51.1909 108.156 49.7085 105.753 47.312 105.185C44.9155 104.618 42.5125 106.1 41.9447 108.496C41.3768 110.893 42.8592 113.296 45.2557 113.864C47.6522 114.432 50.0553 112.949 50.6231 110.553Z" fill="#E0E0E0"/>
<path d="M46.2862 113.457C44.2642 113.457 42.3249 114.26 40.8952 115.69C39.4654 117.12 38.6621 119.059 38.6621 121.081H53.9103C53.9103 119.059 53.107 117.12 51.6772 115.69C50.2475 114.26 48.3082 113.457 46.2862 113.457Z" fill="#E0E0E0"/>
<path d="M171.164 25.7577C171.164 26.3709 170.982 26.9703 170.641 27.4801C170.3 27.9899 169.816 28.3873 169.25 28.622C168.683 28.8566 168.06 28.918 167.459 28.7984C166.857 28.6787 166.305 28.3835 165.871 27.9499C165.438 27.5163 165.142 26.9639 165.023 26.3625C164.903 25.7611 164.964 25.1378 165.199 24.5713C165.434 24.0048 165.831 23.5206 166.341 23.18C166.851 22.8393 167.45 22.6575 168.063 22.6575C168.471 22.6568 168.874 22.7366 169.251 22.8921C169.627 23.0477 169.969 23.276 170.257 23.5641C170.545 23.8521 170.773 24.1941 170.929 24.5705C171.085 24.947 171.164 25.3504 171.164 25.7577Z" fill="#E0E0E0"/>
<path d="M179.765 33.0148C179.765 33.628 179.583 34.2273 179.242 34.7372C178.902 35.247 178.418 35.6444 177.851 35.879C177.285 36.1137 176.661 36.1751 176.06 36.0554C175.458 35.9358 174.906 35.6406 174.472 35.207C174.039 34.7734 173.744 34.221 173.624 33.6196C173.504 33.0182 173.566 32.3949 173.8 31.8284C174.035 31.2619 174.432 30.7777 174.942 30.437C175.452 30.0964 176.052 29.9146 176.665 29.9146C177.487 29.9146 178.275 30.2412 178.857 30.8226C179.438 31.404 179.765 32.1926 179.765 33.0148Z" fill="#E0E0E0"/>
<path d="M171.213 40.4157C171.213 41.0288 171.031 41.6282 170.691 42.1381C170.35 42.6479 169.866 43.0453 169.299 43.2799C168.733 43.5146 168.109 43.576 167.508 43.4563C166.907 43.3367 166.354 43.0414 165.921 42.6079C165.487 42.1743 165.192 41.6219 165.072 41.0205C164.953 40.4191 165.014 39.7957 165.249 39.2293C165.483 38.6628 165.881 38.1786 166.391 37.8379C166.9 37.4973 167.5 37.3154 168.113 37.3154C168.935 37.3154 169.724 37.6421 170.305 38.2235C170.887 38.8049 171.213 39.5934 171.213 40.4157Z" fill="#E0E0E0"/>
<path d="M168.277 40.6042L167.949 40.2272L176.283 33.0198L167.905 25.9513L168.222 25.5693L177.047 33.0149L168.277 40.6042Z" fill="#E0E0E0"/>
<path d="M224.661 98.4916C223.322 96.0412 221.1 95.6642 219.612 96.2198C218.554 96.6781 217.68 97.4781 217.131 98.4916C216.582 97.4781 215.709 96.6781 214.651 96.2198C213.163 95.6642 210.941 96.0412 209.602 98.4916C206.834 103.576 217.171 110.248 217.171 110.248C217.171 110.248 227.454 103.576 224.661 98.4916Z" fill="#E0E0E0"/>
<path d="M212.469 122.301C211.511 120.555 209.934 120.288 208.867 120.684C208.118 121.012 207.5 121.582 207.111 122.301C206.723 121.582 206.105 121.012 205.355 120.684C204.294 120.288 202.712 120.555 201.759 122.301C199.775 125.937 207.111 130.675 207.111 130.675C207.111 130.675 214.458 125.937 212.469 122.301Z" fill="#E0E0E0"/>
<path d="M220.519 37.7769H187.443C185.496 37.7769 183.628 38.5502 182.251 39.9268C180.873 41.3034 180.098 43.1707 180.097 45.1182V65.168C180.097 66.1325 180.287 67.0876 180.656 67.9786C181.026 68.8696 181.567 69.6791 182.249 70.3609C182.931 71.0427 183.741 71.5833 184.633 71.952C185.524 72.3206 186.479 72.51 187.443 72.5094H197.667L203.396 80.7089C203.578 80.9668 203.82 81.1763 204.101 81.3192C204.383 81.462 204.695 81.5339 205.01 81.5285C205.326 81.5232 205.635 81.4407 205.911 81.2883C206.188 81.1359 206.423 80.9183 206.595 80.6543L211.893 72.5094H220.519C221.483 72.51 222.438 72.3206 223.329 71.9519C224.22 71.5832 225.03 71.0424 225.712 70.3606C226.394 69.6788 226.934 68.8692 227.303 67.9782C227.672 67.0872 227.861 66.1323 227.861 65.168V45.1182C227.861 44.1541 227.671 43.1995 227.302 42.3088C226.933 41.4181 226.392 40.6088 225.71 39.9271C225.029 39.2454 224.219 38.7046 223.329 38.3357C222.438 37.9667 221.483 37.7769 220.519 37.7769Z" fill="white"/>
<path d="M220.519 37.7769H220.767C221.011 37.7785 221.255 37.795 221.497 37.8265C222.443 37.9354 223.356 38.2376 224.18 38.7144C225.27 39.3318 226.184 40.2162 226.838 41.2844C227.491 42.3527 227.862 43.5696 227.915 44.8206C227.945 45.8474 227.915 46.9288 227.915 48.0697C227.915 52.6431 227.915 58.1591 227.945 64.4389C227.975 65.2421 227.912 66.0461 227.757 66.8348C227.575 67.6473 227.254 68.4225 226.809 69.1264C225.881 70.6039 224.467 71.7123 222.811 72.2614C221.956 72.5266 221.063 72.6522 220.167 72.6334H211.893L211.993 72.5789L208.962 77.2416L207.399 79.6474C207.126 80.0541 206.903 80.4559 206.591 80.8676C206.266 81.2836 205.793 81.5589 205.271 81.6365C204.747 81.7077 204.215 81.5764 203.783 81.2694C203.571 81.114 203.388 80.9226 203.242 80.704L202.816 80.0889L201.09 77.6087L197.563 72.5739L197.672 72.6285H187.905C187.21 72.6475 186.514 72.5893 185.832 72.4549C185.154 72.2994 184.499 72.0577 183.882 71.7356C182.68 71.0819 181.68 70.112 180.989 68.9309C180.298 67.7498 179.944 66.4023 179.963 65.0341C179.963 59.7712 179.963 54.6967 179.963 49.8604C179.963 48.65 179.963 47.4595 179.963 46.279C179.963 45.6887 179.963 45.1083 179.993 44.518C180.018 44.2252 180.057 43.9337 180.112 43.645C180.182 43.3573 180.246 43.0746 180.335 42.7968C180.701 41.7078 181.306 40.7146 182.106 39.89C182.899 39.0868 183.864 38.4744 184.929 38.0993C185.183 38.0044 185.443 37.9265 185.708 37.8662C185.968 37.7991 186.234 37.751 186.501 37.7223C187.027 37.6649 187.555 37.6417 188.084 37.6529H196.834L214.155 37.6975H218.863H220.088H220.505C220.505 37.6975 220.366 37.6975 220.088 37.6975H218.863H214.155L196.834 37.8662H191.095H188.044C187.525 37.8545 187.007 37.8777 186.491 37.9356C186.23 37.9639 185.971 38.012 185.717 38.0795C185.461 38.1388 185.21 38.215 184.963 38.3077C183.948 38.6764 183.027 39.2679 182.27 40.0388C181.494 40.8383 180.909 41.8033 180.559 42.8613C180.469 43.1291 180.41 43.4069 180.34 43.6847C180.271 43.9625 180.236 44.2452 180.226 44.528C180.187 45.0984 180.202 45.6887 180.202 46.274V49.8554C180.202 54.6918 180.202 59.7761 180.202 65.0292C180.184 66.351 180.527 67.6526 181.195 68.7934C181.863 69.9343 182.83 70.871 183.991 71.5025C184.585 71.8155 185.217 72.0489 185.871 72.1969C186.535 72.3308 187.213 72.3874 187.89 72.3656H197.707L197.746 72.4201L201.268 77.4549L202.994 79.9351L203.421 80.5452C203.555 80.7391 203.723 80.9072 203.917 81.0413C204.294 81.3178 204.764 81.4362 205.228 81.3714C205.691 81.3065 206.11 81.0635 206.397 80.694C206.665 80.317 206.928 79.8905 207.191 79.4936C207.723 78.6867 208.246 77.8848 208.758 77.0878L211.799 72.4251L211.834 72.3705H220.192C221.064 72.3954 221.934 72.2764 222.766 72.0183C224.376 71.4917 225.751 70.4176 226.65 68.9826C227.087 68.3015 227.401 67.5495 227.578 66.7604C227.735 65.987 227.798 65.1976 227.767 64.4091C227.767 58.1343 227.767 52.6183 227.796 48.0399C227.796 46.899 227.796 45.8127 227.796 44.7958C227.755 43.8517 227.53 42.9247 227.132 42.0676C226.505 40.688 225.465 39.5371 224.155 38.7739C223.342 38.2927 222.439 37.9805 221.502 37.8563C221.262 37.8205 221.02 37.7973 220.777 37.7868L220.519 37.7769Z" fill="#263238"/>
<path d="M204.924 48.4468V62.1473L214.731 55.297L204.924 48.4468Z" fill="#86B6F6"/>
<path d="M191.799 63.2287C191.799 63.2287 192.449 53.4965 200.231 53.3477H205.192V57.5342L200.286 57.6037C200.286 57.6037 195.172 57.4846 191.799 63.2287Z" fill="#86B6F6"/>
<path d="M175.806 193.776H232.151C235.291 193.776 237.836 191.231 237.836 188.091V144.48C237.836 141.34 235.291 138.795 232.151 138.795H175.806C172.667 138.795 170.122 141.34 170.122 144.48V188.091C170.122 191.231 172.667 193.776 175.806 193.776Z" fill="white"/>
<path d="M201.258 192.094C200.564 193.776 187.136 206.4 187.136 206.4V192.094H201.258Z" fill="#455A64"/>
<path d="M196.06 180.581C196.06 178.845 196.06 177.396 196.06 177.218C196.06 177.218 190.192 176.662 189.77 170.854C189.567 168.046 189.616 162.223 189.725 156.965C189.782 154.238 190.863 151.633 192.754 149.667C194.645 147.702 197.206 146.521 199.929 146.359L200.489 146.325C206.566 146.325 209.964 151.469 209.805 157.54L209.592 180.323L199.77 188.215L199.056 188.151L196.06 180.581Z" fill="#FFBF9D"/>
<path d="M196.05 177.218C198.736 177.05 201.319 176.115 203.49 174.524C203.49 174.524 201.898 178.885 196.05 178.711V177.218Z" fill="#FF9A6C"/>
<path d="M199.611 159.469C199.725 159.589 200.4 159.058 201.372 159.043C202.344 159.028 203.068 159.514 203.173 159.39C203.277 159.266 203.103 159.122 202.791 158.894C202.369 158.602 201.865 158.451 201.352 158.463C200.843 158.472 200.35 158.646 199.948 158.959C199.651 159.197 199.557 159.415 199.611 159.469Z" fill="#263238"/>
<path d="M200.331 162.109C200.34 162.314 200.429 162.507 200.58 162.646C200.73 162.785 200.929 162.859 201.134 162.853C201.235 162.855 201.335 162.838 201.428 162.801C201.522 162.764 201.607 162.709 201.678 162.639C201.75 162.568 201.807 162.484 201.846 162.392C201.884 162.299 201.904 162.199 201.903 162.099C201.893 161.894 201.803 161.701 201.653 161.561C201.503 161.422 201.304 161.346 201.099 161.35C200.999 161.348 200.899 161.366 200.805 161.403C200.712 161.441 200.627 161.496 200.555 161.567C200.483 161.638 200.426 161.722 200.388 161.815C200.349 161.908 200.33 162.008 200.331 162.109Z" fill="#263238"/>
<path d="M197.087 166.201C196.6 166.081 196.1 166.023 195.598 166.027C195.37 166.027 195.152 165.988 195.102 165.834C195.07 165.598 195.109 165.358 195.216 165.145C195.395 164.584 195.584 163.989 195.787 163.369C196.576 160.839 197.131 158.761 197.027 158.731C196.923 158.701 196.204 160.715 195.415 163.26C195.226 163.88 195.043 164.475 194.874 165.045C194.747 165.329 194.724 165.649 194.81 165.948C194.847 166.027 194.902 166.096 194.969 166.15C195.037 166.204 195.117 166.242 195.202 166.261C195.331 166.286 195.462 166.296 195.593 166.29C196.093 166.329 196.595 166.299 197.087 166.201Z" fill="#263238"/>
<path d="M200.093 156.345C200.187 156.563 200.966 156.409 201.898 156.474C202.831 156.538 203.595 156.747 203.704 156.538C203.753 156.444 203.609 156.241 203.297 156.042C202.883 155.804 202.418 155.666 201.941 155.64C201.463 155.615 200.987 155.701 200.549 155.894C200.217 156.057 200.053 156.246 200.093 156.345Z" fill="#263238"/>
<path d="M190.97 156.901C191.07 157.079 191.834 156.901 192.751 156.876C193.669 156.851 194.433 156.985 194.532 156.801C194.577 156.717 194.428 156.558 194.11 156.414C193.68 156.236 193.216 156.153 192.751 156.171C192.281 156.179 191.817 156.287 191.392 156.489C191.075 156.653 190.926 156.816 190.97 156.901Z" fill="#263238"/>
<path d="M209.582 161.871C209.676 161.821 213.505 160.447 213.619 164.43C213.733 168.413 209.706 167.704 209.696 167.59C209.686 167.476 209.582 161.871 209.582 161.871Z" fill="#FFBF9D"/>
<path d="M210.871 166.047C210.871 166.047 210.941 166.097 211.06 166.146C211.227 166.214 211.414 166.214 211.581 166.146C211.997 165.978 212.33 165.303 212.33 164.584C212.331 164.241 212.257 163.902 212.111 163.592C212.07 163.468 211.999 163.356 211.905 163.265C211.811 163.175 211.696 163.108 211.571 163.071C211.49 163.052 211.406 163.061 211.332 163.099C211.259 163.136 211.201 163.198 211.169 163.274C211.119 163.388 211.169 163.463 211.124 163.473C211.08 163.483 211.035 163.408 211.065 163.245C211.085 163.145 211.137 163.054 211.214 162.987C211.266 162.943 211.327 162.911 211.393 162.892C211.459 162.873 211.528 162.868 211.596 162.877C211.76 162.906 211.914 162.976 212.044 163.08C212.174 163.184 212.275 163.319 212.34 163.473C212.516 163.815 212.608 164.194 212.607 164.579C212.607 165.382 212.216 166.141 211.645 166.325C211.539 166.36 211.426 166.37 211.316 166.356C211.205 166.341 211.099 166.302 211.005 166.241C210.881 166.141 210.856 166.077 210.871 166.047Z" fill="#FF9A6C"/>
<path d="M198.322 169.589C198.277 169.49 199.061 169.266 199.621 168.537C199.855 168.22 200.045 167.873 200.187 167.505C200.306 167.218 200.395 167.039 200.44 167.054C200.484 167.069 200.465 167.262 200.4 167.55C200.309 167.971 200.128 168.367 199.869 168.711C199.602 169.054 199.248 169.318 198.842 169.475C198.535 169.619 198.322 169.624 198.322 169.589Z" fill="#263238"/>
<path d="M214.959 155.492C214.145 154.073 213.967 152.396 213.54 150.824C213.113 149.252 212.255 147.615 210.727 147.049H210.693C209.319 146.474 207.617 146.444 206.471 147.391C206.218 145.318 204.428 143.651 202.414 143.096C200.4 142.54 197.156 142.818 195.206 143.592C193.718 144.172 192.23 145.392 190.454 147.183C189.702 147.938 189.012 148.752 188.391 149.619L186.565 155.015L188.054 157.878C188.143 158.076 188.232 158.269 188.341 158.463L189.621 164.475C189.73 162.843 189.686 157.153 189.79 155.521C191.02 155.5 192.233 155.231 193.356 154.73C194.479 154.228 195.49 153.506 196.327 152.605C197.23 151.613 197.949 150.397 199.15 149.822C200.703 149.078 202.528 149.658 204.145 150.239L204.076 150.179C204.918 150.581 205.674 151.142 206.303 151.831C205.896 155.056 206.189 158.332 207.161 161.434C207.31 161.9 207.712 162.863 208.153 163.041C209.046 163.398 209.299 162.491 209.84 162.015C210.319 161.694 210.9 161.56 211.471 161.638C211.937 160.288 212.32 158.912 212.617 157.515C213.156 157.691 213.729 157.737 214.289 157.649L213.793 156.414C214.004 156.573 214.245 156.686 214.502 156.747C214.631 156.773 214.765 156.76 214.887 156.709C215.008 156.657 215.111 156.57 215.182 156.459C215.331 156.156 215.127 155.784 214.959 155.492Z" fill="#263238"/>
<path d="M204.636 148.046C204.842 148.21 205.035 148.391 205.211 148.587C205.663 149.148 205.962 149.816 206.079 150.526C206.174 151.017 206.217 151.515 206.208 152.014C206.208 152.55 206.154 153.121 206.104 153.726C206.043 154.359 206.02 154.995 206.035 155.631C206.053 155.963 206.093 156.295 206.154 156.623C206.199 156.982 206.336 157.323 206.551 157.615C206.651 157.729 206.779 157.815 206.922 157.865C207.066 157.916 207.22 157.928 207.369 157.902C207.655 157.851 207.916 157.709 208.113 157.496C208.435 157.06 208.633 156.546 208.689 156.008H208.57C208.738 156.447 208.971 156.86 209.259 157.233C209.537 157.58 209.939 157.806 210.38 157.863C210.585 157.887 210.793 157.855 210.98 157.768C211.154 157.679 211.297 157.541 211.392 157.372C211.478 157.22 211.522 157.049 211.521 156.876C211.518 156.707 211.455 156.545 211.342 156.419L211.278 156.474C211.62 156.873 212.04 157.197 212.513 157.426C212.639 157.485 212.768 157.537 212.9 157.58C212.944 157.599 212.991 157.611 213.039 157.615L212.91 157.56C212.821 157.52 212.697 157.471 212.533 157.387C212.077 157.145 211.672 156.817 211.342 156.419L211.283 156.474C211.376 156.598 211.428 156.747 211.432 156.901C211.437 157.056 211.393 157.208 211.308 157.337C211.223 157.49 211.093 157.613 210.936 157.689C210.765 157.767 210.576 157.794 210.39 157.768C209.981 157.709 209.61 157.496 209.353 157.173C209.075 156.806 208.85 156.402 208.684 155.973L208.604 155.784L208.565 155.983C208.505 156.492 208.316 156.977 208.014 157.391C207.838 157.581 207.604 157.708 207.349 157.754C207.222 157.778 207.091 157.768 206.969 157.725C206.847 157.683 206.739 157.609 206.655 157.511C206.455 157.242 206.328 156.925 206.288 156.593C206.224 156.266 206.184 155.934 206.169 155.601C206.153 154.97 206.173 154.339 206.228 153.711C206.273 153.106 206.323 152.53 206.323 151.99C206.323 151.49 206.274 150.991 206.174 150.502C206.047 149.779 205.728 149.104 205.251 148.547C205.075 148.348 204.867 148.178 204.636 148.046Z" fill="#455A64"/>
<path d="M186.6 153.468C186.6 153.468 186.6 153.468 186.645 153.507L186.789 153.616C186.866 153.675 186.947 153.728 187.032 153.775C187.145 153.846 187.262 153.909 187.384 153.964C188.157 154.332 189.009 154.503 189.864 154.46C191.134 154.392 192.357 153.958 193.386 153.21C194.627 152.285 195.667 151.117 196.442 149.777C196.873 149.083 197.225 148.363 197.612 147.704C197.969 147.061 198.415 146.471 198.937 145.953C199.407 145.486 199.987 145.145 200.623 144.961C200.911 144.885 201.209 144.855 201.506 144.871C201.781 144.891 202.051 144.947 202.31 145.04C202.759 145.199 203.168 145.453 203.51 145.784C203.772 146.032 203.99 146.322 204.155 146.642C204.282 146.922 204.381 147.215 204.448 147.515C204.449 147.495 204.449 147.475 204.448 147.456C204.448 147.406 204.448 147.347 204.448 147.277C204.4 147.05 204.328 146.829 204.234 146.617C204.072 146.288 203.856 145.988 203.595 145.729C203.049 145.17 202.32 144.828 201.541 144.767C201.232 144.746 200.922 144.776 200.623 144.856C199.967 145.036 199.367 145.377 198.877 145.849C198.344 146.371 197.89 146.967 197.528 147.619C197.136 148.289 196.784 149.003 196.352 149.693C195.587 151.017 194.563 152.175 193.341 153.096C192.328 153.837 191.123 154.273 189.869 154.351C189.028 154.405 188.186 154.257 187.414 153.919C186.863 153.676 186.61 153.448 186.6 153.468Z" fill="#455A64"/>
<path d="M190.737 159.718C190.851 159.837 191.531 159.306 192.503 159.296C193.475 159.286 194.195 159.768 194.299 159.644C194.403 159.52 194.234 159.371 193.917 159.148C193.495 158.855 192.991 158.704 192.478 158.716C191.969 158.727 191.477 158.901 191.075 159.212C190.782 159.445 190.683 159.668 190.737 159.718Z" fill="#263238"/>
<path d="M192.225 162.243C192.236 162.447 192.325 162.64 192.475 162.78C192.625 162.92 192.824 162.996 193.029 162.992C193.13 162.994 193.23 162.975 193.323 162.938C193.417 162.901 193.502 162.845 193.574 162.774C193.645 162.704 193.702 162.619 193.74 162.526C193.779 162.433 193.798 162.333 193.798 162.233C193.788 162.028 193.698 161.836 193.548 161.697C193.397 161.558 193.199 161.483 192.994 161.489C192.894 161.486 192.794 161.503 192.7 161.54C192.607 161.577 192.522 161.632 192.45 161.703C192.378 161.773 192.321 161.857 192.283 161.95C192.244 162.042 192.225 162.142 192.225 162.243Z" fill="#263238"/>
<path d="M188.897 148.949C188.401 149.604 187.642 150.199 186.828 150.11C186.533 150.048 186.243 149.963 185.96 149.857C185.677 150.03 185.742 151.003 185.96 151.27C186.145 151.498 186.349 151.709 186.57 151.9C185.613 152.396 184.745 152.163 183.728 151.791C183.83 152.661 184.159 153.488 184.681 154.19C185.204 154.893 185.901 155.446 186.704 155.794C186.95 155.926 187.223 155.997 187.502 156.003C187.78 156.008 188.056 155.947 188.306 155.824C188.691 155.511 188.944 155.065 189.016 154.574C189.471 152.831 189.711 151.038 189.73 149.237L188.897 148.949Z" fill="#263238"/>
<path d="M182.766 187.139L182.87 187.005C187.523 182.079 196.09 180.433 196.09 180.433C196.09 180.433 196.615 183.657 201.417 184.019C206.219 184.381 209.731 179.47 209.731 179.47L216.179 180.383C216.179 180.383 219.403 180.765 221.407 181.945C225.931 184.604 228.352 193.776 228.352 193.776L178.947 193.979L182.766 187.139Z" fill="#455A64"/>
<path d="M178.247 138.795L177.9 138.82L177.473 138.849C177.304 138.849 177.111 138.904 176.888 138.939C175.58 139.161 174.349 139.707 173.306 140.526C172.546 141.119 171.898 141.843 171.392 142.664C170.782 143.648 170.392 144.754 170.251 145.903C170.185 146.549 170.161 147.199 170.181 147.848C170.181 148.517 170.181 149.217 170.181 149.931C170.181 151.369 170.181 152.907 170.181 154.504C170.181 160.953 170.181 168.731 170.206 177.615C170.206 179.837 170.206 182.125 170.206 184.48C170.206 185.065 170.206 185.66 170.241 186.246C170.285 186.837 170.391 187.423 170.558 187.992C170.917 189.15 171.534 190.212 172.364 191.097C173.202 192.014 174.249 192.716 175.415 193.146L175.856 193.304L176.312 193.423C176.619 193.5 176.931 193.556 177.245 193.592C177.883 193.653 178.524 193.676 179.165 193.662H187.23V193.776C187.23 197.769 187.23 202.03 187.23 206.4L187.027 206.31C189.117 204.326 191.238 202.293 193.391 200.209C195.534 198.106 197.726 195.973 199.815 193.691L199.854 193.652H228.788C229.319 193.652 229.845 193.652 230.361 193.622C231.906 193.492 233.38 192.914 234.602 191.96C235.825 191.006 236.743 189.717 237.246 188.25C237.564 187.291 237.713 186.284 237.687 185.274V182.198C237.687 174.088 237.687 166.26 237.687 158.805C237.687 155.081 237.687 151.444 237.687 147.892C237.722 147.023 237.669 146.152 237.528 145.293C237.351 144.459 237.046 143.658 236.626 142.917C236.21 142.186 235.679 141.528 235.053 140.968C234.446 140.409 233.752 139.951 233 139.613C232.261 139.274 231.475 139.052 230.668 138.954C229.868 138.886 229.065 138.863 228.262 138.884H223.555H214.706L188.004 138.844L180.742 138.82H188.004L214.706 138.78H223.555H228.262C229.075 138.759 229.888 138.782 230.698 138.849C231.525 138.949 232.332 139.177 233.089 139.524C233.863 139.87 234.577 140.339 235.202 140.913C235.844 141.483 236.39 142.153 236.819 142.897C237.25 143.659 237.563 144.482 237.747 145.338C237.894 146.211 237.951 147.097 237.915 147.981C237.915 151.513 237.915 155.151 237.915 158.894C237.915 166.335 237.915 174.177 237.915 182.287V185.343C237.944 186.387 237.791 187.427 237.464 188.418C236.932 189.905 235.985 191.207 234.734 192.171C233.484 193.135 231.983 193.719 230.41 193.855C229.87 193.895 229.339 193.895 228.813 193.89H199.939L200.033 193.85C197.93 196.137 195.737 198.27 193.584 200.373C191.432 202.476 189.299 204.505 187.21 206.474L187.002 206.668V206.385C187.002 202.015 187.002 197.754 187.002 193.761L187.121 193.88H179.184C178.534 193.899 177.883 193.875 177.235 193.81C176.913 193.776 176.595 193.716 176.283 193.632L175.811 193.513L175.355 193.349C174.158 192.905 173.083 192.182 172.22 191.241C171.374 190.327 170.743 189.236 170.375 188.046C170.203 187.463 170.095 186.862 170.052 186.256C170.008 185.651 170.023 185.06 170.023 184.475C170.023 182.12 170.023 179.832 170.023 177.61C170.023 168.726 170.023 160.938 170.047 154.499C170.047 152.887 170.047 151.364 170.047 149.926C170.047 149.212 170.047 148.512 170.047 147.843C170.029 147.189 170.054 146.534 170.122 145.883C170.259 144.819 170.606 143.792 171.141 142.861C171.677 141.931 172.391 141.115 173.242 140.462C174.298 139.643 175.543 139.103 176.863 138.894C177.086 138.864 177.28 138.825 177.453 138.815H177.88L178.247 138.795Z" fill="#263238"/>
<path d="M24.8278 86.071L93.0676 86.071C96.9057 86.071 100.017 82.9597 100.017 79.1216L100.017 26.3333C100.017 22.4952 96.9057 19.3838 93.0676 19.3838L24.8278 19.3838C20.9897 19.3838 17.8783 22.4952 17.8783 26.3333L17.8783 79.1216C17.8783 82.9597 20.9897 86.071 24.8278 86.071Z" fill="white"/>
<path d="M55.6466 84.0322C54.8033 86.0709 38.5134 101.394 38.5134 101.394V84.0322H55.6466Z" fill="#455A64"/>
<path d="M75.5723 48.6502C75.612 45.178 76.1626 41.7057 76.0286 38.2335C75.8947 34.7612 74.977 31.1352 72.5564 28.6451C70.1357 26.155 65.9194 25.1728 63.0821 27.2115L62.5017 30.1877C63.6194 43.6039 64.7372 57.0184 65.8549 70.4312C65.9988 72.1922 66.1575 74.0077 66.9611 75.5801C67.7647 77.1525 69.3718 78.4571 71.1377 78.348C73.4443 78.2091 74.9622 75.8678 75.6765 73.6704C78.2807 65.6693 75.4681 57.0382 75.5723 48.6502Z" fill="#263238"/>
<path d="M67.2041 30.6141C66.7406 29.7304 66.1452 28.9225 65.4383 28.2182C65.0801 27.8694 64.6479 27.6058 64.1739 27.4469C63.6999 27.2881 63.1961 27.238 62.7001 27.3005C62.4665 27.3295 62.2441 27.4176 62.054 27.5565C61.8639 27.6953 61.7124 27.8804 61.6138 28.0942C61.46 28.5406 61.7874 29.1309 62.2587 29.0863L62.3579 29.1706C63.3995 30.0932 64.4561 30.996 65.5375 31.874C65.7933 32.1131 66.0932 32.3001 66.4204 32.4246C66.5884 32.488 66.7711 32.5021 66.9468 32.4652C67.1226 32.4283 67.2841 32.3419 67.4125 32.2163C67.7795 31.7897 67.4968 31.1151 67.2041 30.6141Z" fill="#86B6F6"/>
<path d="M69.1685 34.0319C65.6963 29.7908 61.0484 27.3553 55.5722 27.261C52.4868 27.2114 51.207 27.8513 48.9848 28.4515C46.7549 28.9923 44.7864 30.3005 43.4242 32.147C41.8518 34.3841 40.5274 36.8891 40.2297 39.6123C39.9321 42.3356 39.6147 45.1977 39.8279 48.0202C40.0412 50.8426 40.82 53.6452 42.447 55.922L49.58 57.1572C53.5186 57.2911 57.5166 57.4201 61.346 56.5222C65.1754 55.6244 68.9156 53.546 70.9692 50.1978C73.8164 45.5053 72.6358 38.2681 69.1685 34.0319Z" fill="#263238"/>
<path d="M49.5503 69.7962C49.5999 67.316 49.6842 64.1562 49.6842 64.1711C49.6842 64.186 43.8706 63.5312 42.2436 56.0758C41.445 52.3704 41.2962 46.2294 41.3359 41.1947C41.3706 36.6708 45.2248 30.5051 50.8152 30.4852L53.2953 30.1975L62.7994 33.9773C63.4621 34.0116 64.0879 34.2929 64.5534 34.7658C65.0189 35.2387 65.2904 35.8688 65.3143 36.5319L65.6715 69.3051L59.5801 79.4788L48.6673 71.0462L49.5503 69.7962Z" fill="#B56760"/>
<path d="M53.4392 54.3347C53.3868 53.9477 53.1923 53.5941 52.8935 53.3426C52.6213 53.1078 52.279 52.9697 51.9201 52.95C51.5611 52.9302 51.2057 53.0299 50.9094 53.2335C50.6028 53.469 50.3648 53.7822 50.22 54.1407C50.0752 54.4992 50.0289 54.8898 50.086 55.2722C50.25 55.5012 50.4609 55.6926 50.7047 55.8337C50.9484 55.9748 51.2194 56.0624 51.4997 56.0907H51.7626C52.2091 56.0806 52.6356 55.9037 52.958 55.5946C53.1264 55.4333 53.2568 55.2366 53.34 55.0187C53.4232 54.8008 53.4571 54.5672 53.4392 54.3347Z" fill="#8A4A43"/>
<path d="M44.3567 47.028C44.367 47.2811 44.4772 47.5197 44.6632 47.6917C44.8491 47.8637 45.0956 47.955 45.3488 47.9456C45.4708 47.9476 45.5919 47.9254 45.7053 47.8802C45.8186 47.835 45.9218 47.7678 46.009 47.6825C46.0962 47.5971 46.1656 47.4953 46.2132 47.383C46.2608 47.2706 46.2856 47.15 46.2863 47.028C46.2687 46.7771 46.1564 46.5422 45.9722 46.3709C45.7881 46.1997 45.5457 46.1047 45.2942 46.1053C45.1718 46.1034 45.0502 46.1258 44.9366 46.1713C44.8229 46.2167 44.7194 46.2844 44.6322 46.3703C44.5449 46.4561 44.4756 46.5585 44.4283 46.6714C44.381 46.7843 44.3567 46.9056 44.3567 47.028Z" fill="#263238"/>
<path d="M43.062 43.7145C43.191 43.8336 43.8904 43.2532 44.9271 43.2185C45.9638 43.1838 46.7575 43.6401 46.8617 43.5112C46.9658 43.3822 46.7773 43.2284 46.4351 43.0151C45.9686 42.7276 45.4243 42.5924 44.8775 42.6282C44.334 42.6537 43.8127 42.8518 43.3894 43.1937C43.0918 43.4268 42.9975 43.66 43.062 43.7145Z" fill="#263238"/>
<path d="M49.7288 51.8545C49.1715 51.7105 48.598 51.6388 48.0224 51.6412C47.7546 51.6412 47.5016 51.5866 47.447 51.413C47.4075 51.1393 47.4543 50.8602 47.5809 50.6144L48.2506 48.5558C49.1831 45.6242 49.8429 43.2185 49.7387 43.1837C49.6345 43.149 48.7466 45.4903 47.8389 48.4268L47.1891 50.5003C47.0394 50.8287 47.0113 51.1997 47.1097 51.5469C47.1523 51.6386 47.2158 51.7191 47.295 51.782C47.3743 51.8448 47.4671 51.8883 47.5661 51.909C47.7141 51.9425 47.8659 51.9558 48.0175 51.9487C48.5896 51.9896 49.1646 51.9579 49.7288 51.8545Z" fill="#263238"/>
<path d="M49.6842 64.171C53.2268 64.0282 56.6606 62.907 59.605 60.9319C59.605 60.9319 57.2091 66.2891 49.6445 66.0014L49.6842 64.171Z" fill="#8A4A43"/>
<path d="M52.8191 52.4002C52.6505 52.4002 52.71 53.5262 51.7923 54.3843C50.8746 55.2425 49.6643 55.178 49.6643 55.3367C49.6643 55.4111 49.9421 55.5401 50.453 55.5302C51.1123 55.4994 51.7403 55.2398 52.2288 54.796C52.6945 54.3669 52.9785 53.776 53.0225 53.1442C53.0374 52.6631 52.8985 52.3902 52.8191 52.4002Z" fill="#263238"/>
<path d="M43.4143 40.0833C43.6028 40.3264 44.4064 40.1131 45.3191 40.1379C46.2318 40.1627 47.0353 40.3661 47.2238 40.1379C47.3082 40.0188 47.1941 39.7807 46.8617 39.5426C46.4013 39.2566 45.8715 39.1017 45.3295 39.0947C44.7876 39.0877 44.2539 39.2289 43.7863 39.503C43.449 39.7262 43.3299 39.9643 43.4143 40.0833Z" fill="#263238"/>
<path d="M56.1624 46.76C56.1705 47.012 56.0794 47.2571 55.9087 47.4426C55.7381 47.6281 55.5014 47.7393 55.2497 47.7521C55.1284 47.7616 55.0065 47.747 54.8909 47.7092C54.7754 47.6714 54.6684 47.6111 54.5762 47.5318C54.484 47.4525 54.4084 47.3558 54.3537 47.2472C54.299 47.1386 54.2664 47.0202 54.2576 46.8989C54.2495 46.647 54.3405 46.4019 54.5112 46.2164C54.6819 46.0309 54.9185 45.9197 55.1703 45.9069C55.2915 45.8974 55.4134 45.912 55.529 45.9498C55.6446 45.9876 55.7515 46.0479 55.8437 46.1272C55.9359 46.2064 56.0115 46.3032 56.0662 46.4118C56.1209 46.5204 56.1536 46.6388 56.1624 46.76Z" fill="#263238"/>
<path d="M57.0998 43.3125C56.9808 43.4415 56.2417 42.9107 55.205 42.9355C54.1683 42.9603 53.4143 43.4861 53.2952 43.3621C53.1762 43.2381 53.3597 43.0794 53.6871 42.8313C54.1315 42.5131 54.6634 42.3399 55.2099 42.3353C55.7502 42.3265 56.2794 42.4879 56.7228 42.7966C57.0453 43.0298 57.1594 43.2579 57.0998 43.3125Z" fill="#263238"/>
<path d="M56.4552 39.9893C56.2567 40.2274 55.4631 39.9893 54.471 39.9893C53.4789 39.9893 52.6952 40.1778 52.4869 39.9348C52.4025 39.8157 52.5265 39.5776 52.8787 39.3495C53.3626 39.0714 53.912 38.9275 54.4701 38.9328C55.0282 38.938 55.5748 39.0921 56.0534 39.3792C56.4552 39.6322 56.5643 39.8703 56.4552 39.9893Z" fill="#263238"/>
<path d="M64.0495 49.1709C64.0197 48.6104 64.5901 47.2512 65.1407 47.1371C66.6288 46.8246 69.2727 46.7998 69.5009 50.5449C69.8184 55.669 64.61 54.9299 64.5901 54.786C64.5703 54.6422 64.1487 51.1005 64.0495 49.1709Z" fill="#B56760"/>
<path d="M65.8799 52.8267C65.8799 52.8267 65.9741 52.8812 66.1279 52.9408C66.3429 53.0266 66.5826 53.0266 66.7976 52.9408C67.3234 52.7076 67.7251 51.8197 67.6954 50.8971C67.6867 50.4478 67.5747 50.0064 67.368 49.6074C67.3103 49.4499 67.2151 49.3089 67.0906 49.1966C66.9662 49.0842 66.8162 49.0039 66.6537 48.9625C66.5518 48.9459 66.4472 48.9643 66.3571 49.0147C66.267 49.0652 66.1967 49.1447 66.1577 49.2403C66.0981 49.3891 66.1577 49.4883 66.1081 49.4983C66.0585 49.5082 65.994 49.4189 66.0237 49.2056C66.0427 49.0774 66.1058 48.9598 66.2023 48.8733C66.34 48.7562 66.518 48.6975 66.6983 48.7096C66.913 48.738 67.1168 48.8208 67.2905 48.9501C67.4641 49.0795 67.6018 49.2511 67.6904 49.4487C67.9379 49.8779 68.0743 50.3621 68.0872 50.8574C68.117 51.8941 67.6507 52.8912 66.9216 53.1491C66.787 53.199 66.6428 53.2173 66.5 53.2027C66.3573 53.1881 66.2198 53.1409 66.0981 53.0648C65.9047 52.9507 65.8799 52.8366 65.8799 52.8267Z" fill="#8A4A43"/>
<path d="M65.3492 47.1521L64.0495 48.5162C58.4394 43.1193 47.4373 29.6668 48.0523 30.4505C50.6139 29.4913 53.3754 29.1911 56.0832 29.5775C60.2648 30.2918 68.1914 32.3801 68.0724 37.3107C67.9534 42.2414 65.3492 47.1521 65.3492 47.1521Z" fill="#263238"/>
<path d="M72.7944 46.0358C72.7797 45.9339 72.7531 45.834 72.715 45.7382C72.6235 45.459 72.5073 45.1884 72.3678 44.9297C71.8384 43.9791 71.1069 43.1562 70.2249 42.5189C68.9175 41.5859 67.4594 40.8845 65.9144 40.4455C64.1981 39.8899 62.2685 39.4534 60.3736 38.6399C58.5826 37.8927 56.8833 36.9424 55.3091 35.8076C54.0261 34.8766 52.8307 33.8305 51.7376 32.6825C51.0014 31.9046 50.3107 31.0848 49.6691 30.2271L49.1731 29.5228C49.1167 29.4385 49.0536 29.3589 48.9846 29.2847C49.0189 29.3806 49.0674 29.4709 49.1285 29.5525C49.2376 29.7212 49.3914 29.9742 49.6245 30.2867C50.2363 31.1725 50.9092 32.0145 51.6384 32.8065C52.7219 33.9834 53.9163 35.0532 55.2049 36.001C56.7858 37.161 58.4993 38.1284 60.3091 38.883C62.1339 39.5768 63.9932 40.1761 65.8796 40.6786C67.4053 41.0977 68.8505 41.7682 70.1555 42.6628C71.0277 43.2764 71.7639 44.0633 72.3182 44.9743C72.6555 45.6192 72.7696 46.0358 72.7944 46.0358Z" fill="#455A64"/>
<path d="M71.3015 46.8245C71.3175 46.4424 71.2497 46.0615 71.1031 45.7084C70.7197 44.7276 70.0488 43.8855 69.1785 43.2927C68.112 42.4941 66.5842 42.003 64.9026 41.6161C63.0745 41.2535 61.2926 40.6878 59.5901 39.9296C57.8953 39.1571 56.3039 38.1756 54.8529 37.0079C53.6675 36.0525 52.5792 34.9825 51.6039 33.8134C50.9501 33.0246 50.3454 32.1963 49.7933 31.3332L49.3618 30.609C49.3158 30.5213 49.2592 30.4397 49.1931 30.366C49.221 30.4601 49.261 30.5501 49.3122 30.6338L49.709 31.3779C50.2285 32.2717 50.8138 33.1256 51.46 33.9325C52.4263 35.1274 53.5116 36.221 54.6991 37.1964C56.161 38.3864 57.7677 39.3864 59.4809 40.1726C61.2 40.9361 63.0007 41.5002 64.848 41.8542C66.5247 42.2213 68.0227 42.6875 69.0743 43.4465C69.9266 44.0101 70.5983 44.8075 71.0088 45.7431C71.139 46.0939 71.237 46.4559 71.3015 46.8245Z" fill="#455A64"/>
<path d="M65.1804 55.8277C65.1804 55.793 65.6169 55.7334 66.3759 55.535C67.4404 55.2247 68.4207 54.6768 69.243 53.9328C70.4433 52.8075 71.3567 51.4111 71.9067 49.8604C72.6045 47.9653 72.9801 45.9667 73.0178 43.9476C73.0395 42.9052 72.9565 41.8632 72.7698 40.8374C72.5751 39.8879 72.2894 38.9593 71.9166 38.0646C71.27 36.5467 70.3729 35.1482 69.2628 33.9276C68.2136 32.8292 67.0626 31.8327 65.8253 30.9514C65.9259 30.9857 66.0211 31.0342 66.108 31.0953C66.2866 31.2094 66.5594 31.3582 66.8818 31.5913C67.8126 32.2301 68.6709 32.9686 69.4414 33.7937C70.5958 35.0147 71.5305 36.426 72.2043 37.9654C72.5946 38.879 72.8921 39.8296 73.0922 40.8027C73.2913 41.8487 73.3794 42.9128 73.3551 43.9774C73.3192 46.035 72.9265 48.0709 72.1944 49.9943C71.615 51.5846 70.6544 53.0085 69.3967 54.1412C68.5433 54.8885 67.5225 55.4194 66.4205 55.6888C66.1221 55.7601 65.8186 55.8082 65.5128 55.8326C65.4023 55.8467 65.2904 55.845 65.1804 55.8277Z" fill="#455A64"/>
<path d="M33.2109 78.0204L33.3399 77.8567C38.9848 71.9043 49.3768 69.8854 49.3768 69.8854C49.3768 69.8854 50.0117 73.7942 55.8252 74.2307C61.6388 74.6672 65.9295 68.7346 65.9295 68.7346L73.7024 69.8259C73.7024 69.8259 77.6112 70.2872 80.0467 71.7158C85.5329 74.945 88.4446 86.0711 88.4446 86.0711L28.5134 86.3142L33.2109 78.0204Z" fill="#455A64"/>
<path d="M27.7295 19.3838L27.3129 19.4136L26.8168 19.4433C26.6135 19.4433 26.3754 19.5128 26.1075 19.5524C24.5115 19.8193 23.0076 20.4809 21.7325 21.4771C19.6797 23.0763 18.3439 25.4234 18.0171 28.0049C17.9424 28.7879 17.9159 29.5748 17.9378 30.3611C17.9378 31.1796 17.9378 32.0228 17.9378 32.8958C17.9378 34.6369 17.9378 36.4872 17.9378 38.4366C17.9378 46.2492 17.9378 55.6987 17.9675 66.4726C17.9675 69.1677 17.9675 71.9439 17.9675 74.8011C17.9675 75.5104 17.9675 76.2346 18.0072 76.9439C18.0621 77.6631 18.1918 78.3747 18.3941 79.067C18.8301 80.4763 19.5797 81.7686 20.5866 82.8468C21.095 83.3938 21.6622 83.8829 22.2781 84.3051C22.9096 84.7234 23.587 85.0679 24.297 85.3319L24.8327 85.5303L25.3883 85.6692C25.7601 85.7651 26.138 85.8364 26.5192 85.8825C26.9012 85.9421 27.2881 85.9321 27.675 85.9569H38.6275V86.076C38.6275 90.9124 38.6275 96.0811 38.6275 101.384L38.4241 101.294C40.9572 98.9035 43.5316 96.4366 46.1474 93.8935C48.7466 91.3439 51.4054 88.7546 53.9402 85.9867L53.9798 85.947H89.0646C89.7094 85.947 90.3493 85.947 90.9743 85.9024C92.8548 85.7461 94.6489 85.0449 96.1369 83.8846C97.625 82.7243 98.7424 81.1552 99.3524 79.3696C99.739 78.1976 99.9186 76.9672 99.8831 75.7336V72.0282C99.8831 62.1868 99.8831 52.6828 99.8831 43.6499C99.8831 39.1327 99.8831 34.7279 99.8831 30.4355C99.9248 29.3799 99.8583 28.3228 99.6847 27.2807C99.4771 26.27 99.1175 25.2967 98.6182 24.3938C97.6015 22.6276 96.0603 21.2216 94.2085 20.3709C93.3112 19.96 92.3558 19.6906 91.3761 19.5723C90.4045 19.4896 89.4291 19.4615 88.4544 19.488H82.745H72.0108L39.5898 19.4334L71.981 19.3937H82.7153H88.4247C89.4076 19.3677 90.3913 19.3959 91.3711 19.478C92.3734 19.596 93.3509 19.8705 94.268 20.2915C96.1598 21.161 97.7352 22.596 98.777 24.3987C99.3032 25.3275 99.6846 26.3311 99.9079 27.3749C100.08 28.4322 100.147 29.504 100.106 30.5744C100.106 34.8734 100.106 39.2782 100.106 43.7888C100.106 52.8316 100.106 62.3257 100.106 72.1671V75.8725C100.143 77.1349 99.9584 78.3941 99.5607 79.5928C98.9354 81.4256 97.7891 83.0362 96.2622 84.2274C94.7354 85.4186 92.8942 86.1386 90.9644 86.2992C90.3146 86.3438 89.6747 86.3438 89.0348 86.3389H54.0394L54.1336 86.2992C51.5889 89.0721 48.9302 91.6614 46.326 94.2358C43.7218 96.8102 41.1325 99.0821 38.5977 101.473L38.3894 101.671V101.384C38.3894 96.0811 38.3894 90.9124 38.3894 86.076L38.5084 86.1901H27.6849C27.2881 86.1603 26.8912 86.1901 26.5043 86.1107C26.1147 86.0633 25.7286 85.9904 25.3486 85.8925L24.7781 85.7486L24.2126 85.5403C23.4888 85.2689 22.7982 84.9161 22.1541 84.4887C21.5236 84.0564 20.9416 83.5575 20.418 83.0006C19.3945 81.8955 18.6318 80.5751 18.1858 79.1364C17.9807 78.4291 17.8478 77.7028 17.789 76.9687C17.7642 76.2297 17.7642 75.5154 17.7642 74.806C17.7642 71.9488 17.7642 69.1727 17.7642 66.4776C17.7642 55.7036 17.7642 46.2541 17.7939 38.4415C17.7939 36.4921 17.7939 34.6419 17.7939 32.9008C17.7939 32.0278 17.7939 31.1845 17.7939 30.3661C17.7757 29.5746 17.8055 28.7828 17.8832 27.995C18.2233 25.3901 19.5826 23.0265 21.663 21.4225C22.9437 20.4299 24.4532 19.7749 26.0529 19.5177C26.3208 19.483 26.549 19.4384 26.7672 19.4235L27.2633 19.3987L27.7295 19.3838Z" fill="#263238"/>
<path d="M63.6077 133.601H15.7997C12.6739 133.601 10.1399 136.135 10.1399 139.261V175.948C10.1399 179.074 12.6739 181.608 15.7997 181.608H63.6077C66.7336 181.608 69.2675 179.074 69.2675 175.948V139.261C69.2675 136.135 66.7336 133.601 63.6077 133.601Z" fill="white"/>
<path d="M42.0698 180.14C42.675 181.628 54.4063 192.63 54.4063 192.63V180.14H42.0698Z" fill="#86B6F6"/>
<path d="M50.3188 144.251C50.0289 143.313 49.555 142.442 48.9248 141.689C48.2945 140.936 47.5206 140.317 46.6482 139.866C44.6787 138.949 42.4515 138.746 40.3485 139.291C38.2648 139.842 36.2846 140.728 34.4853 141.915C33.4259 142.501 32.4855 143.28 31.7125 144.212C30.3881 145.973 29.1182 148.845 29.0488 151.047C28.9892 152.828 29.7978 157.257 30.5964 158.85C31.0205 159.507 31.6297 160.025 32.3474 160.338C33.2033 161.916 34.3338 163.328 35.6857 164.509C36.0627 163.306 36.4414 162.1 36.8217 160.893L50.3188 144.251Z" fill="#263238"/>
<path d="M49.2326 142.099L45.7107 141.573C47.7544 146.077 48.5728 156.494 49.808 161.285C51.0431 159.376 53.8804 153.582 53.6572 151.315C53.434 149.048 53.3844 141.593 49.2326 142.099Z" fill="#263238"/>
<path d="M32.8386 150.164C32.8639 148.883 33.2996 147.643 34.0818 146.628C34.864 145.613 35.9513 144.875 37.1839 144.524L45.1949 142.238C48.6671 141.741 51.1176 145.983 51.4499 149.475C51.812 153.354 52.0848 157.456 51.7128 160.388C50.9687 166.251 46.5193 167.134 46.5193 167.134C46.5193 167.134 46.5987 169.906 46.6433 171.598L45.3387 179.232L34.7781 170.214L32.7939 150.234C32.8138 150.134 32.8336 150.298 32.8386 150.164Z" fill="#FFBF9D"/>
<path d="M49.6839 154.331C49.6934 154.525 49.6258 154.716 49.4958 154.86C49.3657 155.005 49.1838 155.093 48.9895 155.105C48.8944 155.116 48.7981 155.107 48.7064 155.08C48.6146 155.053 48.5291 155.008 48.4551 154.948C48.3811 154.887 48.32 154.812 48.2754 154.728C48.2309 154.643 48.2038 154.55 48.1958 154.455C48.1888 154.26 48.2571 154.071 48.3866 153.926C48.516 153.781 48.6964 153.691 48.8903 153.676C48.9856 153.666 49.082 153.675 49.1738 153.702C49.2656 153.73 49.351 153.775 49.4249 153.836C49.4989 153.897 49.5599 153.972 49.6043 154.057C49.6488 154.142 49.6759 154.235 49.6839 154.331Z" fill="#263238"/>
<path d="M50.6363 151.786C50.547 151.885 49.9666 151.483 49.1482 151.513C48.3297 151.543 47.7642 151.96 47.6601 151.86C47.5559 151.761 47.7047 151.642 47.9577 151.444C48.2993 151.193 48.7096 151.053 49.1333 151.042C49.5515 151.029 49.9629 151.149 50.3089 151.384C50.5916 151.568 50.6809 151.741 50.6363 151.786Z" fill="#263238"/>
<path d="M42.4319 154.331C42.4414 154.525 42.3738 154.716 42.2438 154.86C42.1138 155.005 41.9318 155.093 41.7375 155.105C41.6425 155.116 41.5462 155.107 41.4544 155.08C41.3626 155.053 41.2771 155.008 41.2031 154.948C41.1291 154.887 41.068 154.812 41.0235 154.728C40.9789 154.643 40.9518 154.55 40.9438 154.455C40.9369 154.26 41.0059 154.069 41.1364 153.924C41.2668 153.779 41.4485 153.69 41.6432 153.676C41.7383 153.666 41.8344 153.675 41.9259 153.702C42.0175 153.73 42.1025 153.776 42.1761 153.837C42.2496 153.898 42.3102 153.973 42.3541 154.058C42.3981 154.143 42.4245 154.235 42.4319 154.331Z" fill="#263238"/>
<path d="M42.9925 152.004C42.8983 152.104 42.3229 151.702 41.5044 151.732C40.686 151.761 40.1254 152.178 40.0163 152.079C39.9072 151.98 40.061 151.861 40.3139 151.662C40.6555 151.411 41.0658 151.271 41.4895 151.26C41.9077 151.248 42.3192 151.368 42.6652 151.603C42.9429 151.786 43.062 151.96 42.9925 152.004Z" fill="#263238"/>
<path d="M45.6859 158.255C46.1083 158.112 46.5463 158.02 46.9905 157.982C47.1939 157.952 47.3873 157.907 47.4171 157.764C47.4276 157.551 47.3741 157.34 47.2633 157.158C47.055 156.662 46.8367 156.166 46.6036 155.611C45.6909 153.408 45.0262 151.593 45.1155 151.558C45.2047 151.523 46.0133 153.279 46.926 155.482L47.5609 157.039C47.6962 157.284 47.7418 157.568 47.6899 157.843C47.6623 157.916 47.6186 157.982 47.5619 158.037C47.5052 158.091 47.4371 158.131 47.3625 158.155C47.2496 158.189 47.133 158.209 47.0153 158.215C46.5757 158.285 46.1289 158.298 45.6859 158.255Z" fill="#263238"/>
<path d="M38.7214 165.258C38.7214 165.258 40.7353 169.227 46.5539 168.483L46.534 167.113C43.8081 167.232 41.103 166.59 38.7214 165.258Z" fill="#FF9A6C"/>
<path d="M42.6552 149.103C42.5808 149.321 41.7772 149.246 40.8348 149.385C39.8923 149.524 39.1383 149.812 39.0044 149.618C38.9449 149.524 39.0738 149.316 39.3764 149.093C39.7794 148.821 40.2389 148.644 40.7202 148.577C41.2014 148.509 41.6918 148.551 42.1542 148.701C42.5064 148.83 42.685 148.998 42.6552 149.103Z" fill="#263238"/>
<path d="M50.3039 149.331C50.17 149.519 49.6095 149.331 48.9398 149.356C48.2702 149.38 47.7146 149.519 47.5757 149.331C47.5162 149.237 47.6005 149.053 47.8436 148.874C48.1679 148.655 48.5506 148.537 48.9423 148.537C49.334 148.537 49.7167 148.655 50.041 148.874C50.2791 149.053 50.3634 149.241 50.3039 149.331Z" fill="#263238"/>
<path d="M49.7088 144.192C49.4908 143.769 49.1597 143.416 48.7524 143.17C48.3451 142.925 47.8776 142.798 47.4022 142.803C46.4481 142.828 45.5215 143.128 44.7335 143.666C41.3158 145.774 39.669 150.675 36.3009 152.853C35.4725 153.383 34.3564 152.947 33.657 153.646C32.9576 154.346 32.526 155.437 32.9477 156.33C32.4389 155.731 32.018 155.063 31.6977 154.346C31.541 153.986 31.4631 153.596 31.4691 153.204C31.4751 152.811 31.5648 152.424 31.7324 152.069C32.0151 151.543 32.526 151.136 32.655 150.581C32.784 150.025 32.5508 149.544 32.5608 149.023C32.6074 148.495 32.7773 147.985 33.0568 147.535C34.2787 145.073 36.1477 142.989 38.4636 141.508C39.9922 140.56 41.7496 140.046 43.548 140.02C45.3517 140.011 47.099 140.648 48.4736 141.816C49.2623 142.51 50.0907 143.229 49.7187 144.212" fill="#263238"/>
<path d="M33.7612 154.365C33.6917 154.202 30.6163 153.19 30.6709 156.424C30.7205 159.569 33.8753 158.859 33.8753 158.77C33.8753 158.681 33.7612 154.365 33.7612 154.365Z" fill="#FFBF9D"/>
<path d="M32.8833 157.6C32.8833 157.6 32.8288 157.639 32.7395 157.679C32.6072 157.731 32.46 157.731 32.3278 157.679C32.1235 157.552 31.956 157.375 31.842 157.163C31.728 156.951 31.6714 156.714 31.6779 156.474C31.668 156.204 31.7153 155.935 31.8168 155.685C31.8459 155.587 31.8979 155.497 31.9686 155.422C32.0394 155.348 32.1268 155.292 32.2236 155.258C32.2857 155.24 32.3522 155.245 32.4112 155.271C32.4703 155.297 32.518 155.344 32.546 155.402C32.5907 155.491 32.5708 155.551 32.5907 155.556C32.6105 155.561 32.6551 155.506 32.6303 155.372C32.6094 155.296 32.5642 155.228 32.5014 155.179C32.4139 155.116 32.3055 155.089 32.1988 155.105C32.0703 155.133 31.9511 155.193 31.8522 155.28C31.7533 155.367 31.678 155.477 31.6333 155.601C31.5046 155.875 31.445 156.176 31.4597 156.479C31.4497 156.759 31.523 157.037 31.6704 157.276C31.8178 157.515 32.0327 157.706 32.2881 157.823C32.3726 157.844 32.4608 157.847 32.5465 157.83C32.6321 157.814 32.7132 157.779 32.7841 157.729C32.8784 157.674 32.8982 157.605 32.8833 157.6Z" fill="#FF9A6C"/>
<path d="M32.4617 152.788C32.5265 152.76 32.5881 152.725 32.6452 152.684C32.7643 152.605 32.9428 152.5 33.1412 152.337C33.7464 151.866 34.3001 151.332 34.793 150.744C35.5062 149.865 36.1687 148.946 36.7772 147.991C37.5108 146.823 38.3404 145.718 39.2574 144.688C39.7514 144.172 40.3003 143.711 40.8943 143.314C41.4518 142.952 42.0515 142.661 42.68 142.446C43.7445 142.071 44.8709 141.902 45.9985 141.95C46.759 141.975 47.5128 142.1 48.2406 142.322C48.4986 142.396 48.692 142.475 48.8259 142.52L49.0343 142.59L48.8359 142.495C48.6468 142.41 48.453 142.335 48.2555 142.272C47.5275 142.023 46.7673 141.881 45.9985 141.85C44.856 141.797 43.7139 141.966 42.6354 142.346C41.996 142.565 41.3862 142.861 40.8199 143.229C40.214 143.628 39.655 144.094 39.1532 144.618C38.2321 145.654 37.4023 146.768 36.673 147.947C36.0589 148.901 35.3967 149.823 34.6889 150.71C34.2231 151.281 33.7049 151.807 33.1412 152.282C32.9329 152.451 32.7543 152.565 32.6452 152.654L32.4617 152.788Z" fill="white"/>
<path d="M33.2801 153.676C33.1796 154.52 33.3028 155.375 33.6372 156.156C34.0588 156.91 35.0708 157.401 35.8049 156.95C36.4051 156.588 36.5638 155.799 36.6482 155.105C36.8912 153.096 36.9656 151.067 37.2236 149.058L33.2801 153.676Z" fill="#263238"/>
<path d="M48.8953 142.719C48.8953 142.719 48.6176 142.674 48.1116 142.674C47.4001 142.682 46.6973 142.831 46.0431 143.111C45.5915 143.302 45.161 143.54 44.7584 143.82C44.2983 144.147 43.8593 144.504 43.4439 144.886C42.4799 145.751 41.6238 146.728 40.8943 147.798C40.5123 148.369 40.175 148.954 39.803 149.499C39.4602 150.03 39.0556 150.518 38.5976 150.953C37.8014 151.667 36.926 152.288 35.9884 152.803C35.1997 153.254 34.5351 153.572 34.0787 153.795L33.5479 154.038C33.4867 154.071 33.4217 154.096 33.3545 154.113C33.4096 154.071 33.4696 154.036 33.5331 154.008L34.0291 153.731C34.4755 153.493 35.1303 153.16 35.9091 152.704C36.8259 152.177 37.6825 151.551 38.4637 150.839C38.9139 150.411 39.3118 149.932 39.6492 149.41C40.0113 148.87 40.3486 148.284 40.7355 147.704C41.4776 146.616 42.3506 145.623 43.3348 144.747C43.7598 144.367 44.207 144.013 44.6741 143.686C45.0864 143.403 45.5289 143.167 45.9935 142.982C46.6647 142.705 47.386 142.572 48.1116 142.59C48.308 142.597 48.5037 142.618 48.6969 142.654C48.7653 142.668 48.8319 142.69 48.8953 142.719Z" fill="#455A64"/>
<path d="M33.1411 151.717C33.0581 151.792 32.9665 151.857 32.8683 151.91L32.0846 152.406L31.8217 152.565C31.7182 152.631 31.6013 152.674 31.4794 152.689C31.4058 152.702 31.33 152.688 31.2661 152.649C31.2315 152.626 31.2025 152.595 31.1811 152.559C31.1597 152.523 31.1464 152.483 31.1421 152.441C31.1462 152.296 31.1947 152.156 31.281 152.039L32.1639 150.551L32.2929 150.665C31.9933 150.895 31.6582 151.074 31.3008 151.196C30.9395 151.315 30.5601 151.371 30.1798 151.36C30.0824 151.361 29.9855 151.347 29.8921 151.32C29.8376 151.306 29.7868 151.281 29.7438 151.245C29.7008 151.208 29.6667 151.163 29.6441 151.112C29.6251 151.059 29.6189 151.003 29.6258 150.948C29.6327 150.893 29.6525 150.84 29.6837 150.794C29.7366 150.722 29.7947 150.654 29.8574 150.591C30.2593 150.18 30.6031 149.716 30.8792 149.212C31.1293 148.732 31.3432 148.235 31.5191 147.724C31.5105 147.867 31.4821 148.009 31.4347 148.145C31.3241 148.526 31.1762 148.895 30.9933 149.246C30.7218 149.777 30.376 150.267 29.9665 150.7C29.8524 150.814 29.7383 150.948 29.7879 151.042C29.8375 151.136 30.0111 151.186 30.1748 151.181C30.5353 151.191 30.8947 151.138 31.2363 151.022C31.5766 150.912 31.8954 150.744 32.1788 150.526L32.5459 150.243L32.3078 150.64L31.405 152.128C31.3347 152.219 31.2917 152.327 31.281 152.441C31.281 152.53 31.3653 152.58 31.4645 152.57C31.6653 152.521 31.8553 152.435 32.025 152.317L32.8336 151.875C32.9278 151.808 33.0314 151.754 33.1411 151.717Z" fill="white"/>
<path d="M42.6701 159.827C42.7213 159.586 42.8558 159.371 43.05 159.219C43.2441 159.068 43.4855 158.989 43.7316 158.998C43.9117 159.016 44.0846 159.078 44.2352 159.178C44.3857 159.278 44.5092 159.414 44.5947 159.574C44.6765 159.735 44.7253 159.911 44.738 160.092C44.7508 160.273 44.7274 160.454 44.6691 160.625V160.7C44.5078 160.885 44.2929 161.017 44.054 161.075C43.815 161.134 43.5638 161.117 43.3348 161.027C43.1062 160.93 42.9166 160.758 42.7962 160.541C42.6758 160.324 42.6314 160.072 42.6701 159.827Z" fill="#FF9A6C"/>
<path d="M45.2395 160.7C45.2395 160.581 44.426 160.64 43.7911 159.991C43.1562 159.341 43.181 158.468 43.0669 158.468C42.9528 158.468 42.928 158.676 42.9429 159.043C42.9762 159.519 43.1745 159.968 43.5034 160.313C43.8202 160.646 44.2545 160.842 44.7137 160.859C45.0461 160.864 45.2494 160.755 45.2395 160.7Z" fill="#263238"/>
<path d="M58.2307 175.814L58.1414 175.695C54.0739 171.394 46.5936 169.956 46.5936 169.956C46.5936 169.956 46.1373 172.769 41.9458 173.086C37.7543 173.403 34.6689 169.118 34.6689 169.118L29.0786 169.901C29.0786 169.901 26.2611 170.234 24.5051 171.266C20.5368 173.587 18.4634 181.598 18.4634 181.598L61.6186 181.772L58.2307 175.814Z" fill="#86B6F6"/>
<path d="M62.1792 133.601C62.1792 133.601 62.2784 133.601 62.4768 133.601C62.7761 133.603 63.0747 133.63 63.3697 133.681C64.5219 133.867 65.6095 134.338 66.5344 135.05C68.0331 136.207 69.0137 137.91 69.2626 139.787C69.3194 140.355 69.3409 140.927 69.3271 141.498C69.3271 142.084 69.3271 142.694 69.3271 143.319C69.3271 144.574 69.3271 145.908 69.3271 147.312C69.3271 152.932 69.3271 159.737 69.3568 167.491C69.3568 169.428 69.3568 171.427 69.3568 173.488C69.3568 173.984 69.3568 174.514 69.3568 175.045C69.3177 175.577 69.2213 176.102 69.0691 176.613C68.7507 177.654 68.1994 178.609 67.457 179.405C66.7029 180.23 65.7624 180.863 64.7139 181.251L64.3171 181.394L63.9054 181.499C63.6312 181.569 63.3528 181.622 63.0721 181.657C62.5065 181.709 61.9385 181.729 61.3706 181.717H54.4261L54.5402 181.598C54.5402 185.07 54.5402 188.805 54.5402 192.62V192.903L54.3319 192.709C52.5065 190.996 50.6513 189.229 48.7663 187.406C46.8913 185.571 44.9766 183.706 43.1413 181.707L43.2355 181.752H18.022C17.5606 181.752 17.0993 181.752 16.6281 181.722C15.232 181.605 13.9001 181.084 12.7953 180.223C11.6906 179.361 10.8609 178.196 10.4078 176.871C10.1219 176.004 9.98767 175.094 10.011 174.182V171.513C10.011 164.425 10.011 157.595 10.011 151.082C10.011 147.828 10.011 144.658 10.011 141.573C9.98356 140.799 10.0334 140.025 10.1598 139.261C10.3205 138.511 10.5949 137.79 10.9733 137.123C11.7274 135.817 12.8677 134.778 14.2372 134.147C14.9007 133.845 15.6068 133.648 16.3305 133.562C17.0364 133.5 17.7453 133.48 18.4535 133.502H30.3088L53.6225 133.542L59.9619 133.567L53.6225 133.591L30.3088 133.631H22.5805H18.4684C17.7683 133.615 17.0679 133.637 16.3701 133.696C15.2953 133.832 14.2671 134.217 13.3666 134.82C12.4662 135.423 11.7181 136.226 11.1816 137.168C10.8114 137.831 10.5454 138.547 10.3929 139.291C10.2687 140.04 10.2222 140.799 10.254 141.558C10.254 144.636 10.254 147.806 10.254 151.067C10.254 157.58 10.254 164.41 10.254 171.499V174.167C10.2262 175.051 10.3555 175.933 10.636 176.771C11.2191 178.477 12.443 179.89 14.0487 180.71C14.8575 181.127 15.7409 181.38 16.6479 181.454C17.0944 181.484 17.5557 181.489 18.022 181.484H43.2901L43.3298 181.528C45.1552 183.513 47.0699 185.383 48.94 187.218C50.81 189.053 52.6751 190.824 54.5005 192.545L54.2922 192.635C54.2922 188.82 54.2922 185.095 54.2922 181.613V181.494H61.3558C61.9136 181.51 62.4719 181.492 63.0274 181.439C63.3004 181.408 63.5706 181.357 63.8359 181.285L64.2377 181.186L64.6197 181.047C65.6377 180.674 66.5512 180.061 67.2834 179.261C68.0032 178.49 68.5391 177.566 68.8509 176.558C68.9985 176.062 69.0933 175.551 69.1336 175.035C69.1684 174.539 69.1584 174.004 69.1584 173.493C69.1584 171.436 69.1584 169.437 69.1584 167.495C69.1584 159.742 69.1584 152.937 69.1882 147.317C69.1882 145.913 69.1882 144.579 69.1882 143.324V141.503C69.2055 140.937 69.1873 140.37 69.1336 139.807C68.9444 138.307 68.2798 136.907 67.2371 135.813C66.1945 134.719 64.8287 133.987 63.3399 133.725C63.0489 133.667 62.7536 133.634 62.457 133.626L62.1792 133.601Z" fill="#263238"/>
<path d="M154.174 232.094L92.2888 232.05C84.8482 232.05 78.8164 226.296 78.8164 219.202L78.8462 71.3337C78.8462 64.2354 84.8879 58.4814 92.3384 58.4863L154.229 58.5211C161.669 58.5211 167.701 64.2751 167.701 71.3684L167.672 219.232C167.667 226.35 161.615 232.099 154.174 232.094Z" fill="#263238"/>
<path d="M154.174 63.7691H142.16C141.779 63.7685 141.401 63.843 141.048 63.9885C140.695 64.134 140.374 64.3475 140.104 64.617C139.833 64.8865 139.618 65.2065 139.472 65.559C139.325 65.9114 139.249 66.2892 139.249 66.671V68.7444C139.248 69.1265 139.172 69.5048 139.025 69.8575C138.878 70.2103 138.663 70.5306 138.392 70.8001C138.121 71.0696 137.8 71.2831 137.446 71.4283C137.093 71.5735 136.714 71.6475 136.332 71.6462H112.944C112.562 71.6469 112.184 71.5723 111.831 71.4268C111.478 71.2814 111.157 71.0678 110.887 70.7983C110.617 70.5289 110.402 70.2088 110.255 69.8564C110.109 69.504 110.033 69.1261 110.032 68.7444V66.666C110.031 66.2839 109.955 65.9056 109.808 65.5528C109.661 65.2001 109.446 64.8798 109.175 64.6103C108.904 64.3408 108.583 64.1273 108.23 63.9821C107.876 63.8369 107.497 63.7629 107.115 63.7642H92.3929C87.1796 63.7642 82.9682 67.792 82.9682 72.7623L82.9385 217.109C82.9385 222.069 87.1598 226.107 92.3632 226.107L154.13 226.142C159.348 226.142 163.554 222.119 163.579 217.149L163.609 72.802C163.599 67.8019 159.373 63.7741 154.174 63.7691Z" fill="white"/>
<path d="M121.203 99.7466C122.076 99.6841 122.895 99.2986 123.499 98.6653C124.104 98.0319 124.451 97.1962 124.472 96.321C124.494 95.4457 124.189 94.5938 123.616 93.9313C123.044 93.2688 122.246 92.8433 121.376 92.7376C121.799 92.0955 122.009 91.3366 121.976 90.5685C121.944 89.8004 121.67 89.0621 121.194 88.4583C120.718 87.8546 120.064 87.4159 119.325 87.2046C118.586 86.9933 117.799 87.0201 117.076 87.2812C116.902 86.5435 116.541 85.8633 116.026 85.307C115.512 84.7507 114.862 84.3372 114.14 84.1069C113.418 83.8765 112.649 83.8372 111.907 83.9928C111.165 84.1484 110.477 84.4935 109.908 84.9945C108.938 84.4773 107.824 84.2969 106.74 84.4819C105.656 84.6669 104.665 85.2066 103.921 86.0163C103.164 86.0141 102.426 86.2571 101.818 86.7089C101.211 87.1606 100.766 87.797 100.55 88.5227C100.334 89.2484 100.358 90.0246 100.62 90.7352C100.882 91.4457 101.366 92.0525 102.001 92.4648" fill="#263238"/>
<path d="M121.798 100.134C120.8 96.5087 118.473 93.3929 115.28 91.4072C112.087 89.4215 108.263 88.7117 104.571 89.4192L103.812 89.5631C95.7065 91.6067 92.8989 99.6277 95.1708 107.678L100.845 136.895L117.547 149.792L121.868 139.033L120.166 129.311C120.166 129.311 127.815 126.582 126.411 118.685C125.751 114.861 123.718 107.118 121.798 100.134Z" fill="#C17560"/>
<path d="M120.25 129.276C116.587 129.976 112.799 129.609 109.338 128.219C109.338 128.219 112.755 133.601 120.484 131.394L120.25 129.276Z" fill="#7C4236"/>
<path d="M121.094 107.693C121.153 107.986 121.096 108.291 120.933 108.542C120.771 108.793 120.517 108.971 120.226 109.038C120.085 109.076 119.937 109.086 119.792 109.067C119.647 109.048 119.508 109 119.381 108.926C119.255 108.852 119.145 108.754 119.058 108.637C118.97 108.519 118.907 108.386 118.872 108.244C118.812 107.951 118.87 107.646 119.032 107.395C119.194 107.144 119.448 106.966 119.74 106.9C119.881 106.861 120.028 106.851 120.173 106.87C120.318 106.889 120.458 106.937 120.584 107.011C120.71 107.085 120.82 107.183 120.908 107.301C120.995 107.418 121.059 107.551 121.094 107.693Z" fill="#263238"/>
<path d="M120.836 104.315C120.727 104.484 119.755 104.018 118.544 104.251C117.334 104.484 116.56 105.243 116.401 105.139C116.322 105.084 116.401 104.791 116.749 104.434C117.204 103.972 117.791 103.662 118.43 103.546C119.059 103.422 119.711 103.503 120.29 103.779C120.717 103.993 120.895 104.236 120.836 104.315Z" fill="#263238"/>
<path d="M110.111 110.025C110.169 110.318 110.11 110.622 109.947 110.872C109.784 111.122 109.53 111.298 109.238 111.364C109.098 111.403 108.951 111.413 108.806 111.393C108.661 111.374 108.522 111.326 108.396 111.252C108.27 111.178 108.161 111.08 108.073 110.963C107.986 110.845 107.924 110.712 107.889 110.57C107.83 110.278 107.888 109.974 108.05 109.724C108.212 109.473 108.466 109.296 108.757 109.231C108.898 109.192 109.046 109.182 109.191 109.201C109.336 109.22 109.475 109.268 109.602 109.342C109.728 109.416 109.838 109.515 109.925 109.632C110.013 109.749 110.076 109.883 110.111 110.025Z" fill="#263238"/>
<path d="M108.975 106.805C108.866 106.979 107.894 106.508 106.684 106.741C105.473 106.974 104.7 107.733 104.541 107.629C104.466 107.574 104.541 107.282 104.888 106.929C105.342 106.475 105.923 106.171 106.555 106.056C107.184 105.935 107.835 106.017 108.415 106.289C108.856 106.483 109.035 106.726 108.975 106.805Z" fill="#263238"/>
<path d="M115.082 114.95C115.082 114.881 115.791 114.608 116.982 114.216C117.284 114.127 117.567 114.013 117.577 113.79C117.541 113.465 117.408 113.159 117.195 112.912L115.836 110.734C113.926 107.624 112.483 105.039 112.607 104.965C112.731 104.891 114.382 107.351 116.292 110.461L117.617 112.659C117.882 112.996 118.02 113.415 118.008 113.844C117.984 113.962 117.933 114.072 117.86 114.168C117.787 114.263 117.694 114.341 117.587 114.395C117.429 114.471 117.262 114.527 117.091 114.563C115.861 114.866 115.102 115.015 115.082 114.95Z" fill="#263238"/>
<path d="M108.539 102.614C108.44 102.951 107.339 102.817 106.059 103.016C104.779 103.214 103.737 103.636 103.579 103.338C103.499 103.194 103.673 102.877 104.075 102.544C104.611 102.133 105.245 101.868 105.915 101.776C106.574 101.673 107.248 101.747 107.869 101.989C108.36 102.197 108.603 102.455 108.539 102.614Z" fill="#263238"/>
<path d="M120.166 99.9997C119.963 100.322 118.911 100.228 117.686 100.441C116.461 100.654 115.503 101.051 115.206 100.808C115.077 100.684 115.181 100.382 115.578 100.034C116.129 99.5932 116.788 99.3073 117.487 99.206C118.179 99.0764 118.892 99.1381 119.551 99.3846C120.062 99.6078 120.255 99.8409 120.166 99.9997Z" fill="#263238"/>
<path d="M97.9188 115.104C97.8542 114.817 97.7319 114.545 97.5592 114.306C97.3866 114.067 97.1673 113.866 96.9145 113.714C96.6617 113.562 96.3808 113.464 96.0887 113.424C95.7967 113.384 95.4996 113.404 95.2154 113.482C93.7719 113.904 92.2937 115.05 92.9733 118.066C94.1687 123.418 99.2978 121.111 99.273 120.957C99.2482 120.804 98.4396 117.341 97.9188 115.104Z" fill="#C17560"/>
<path d="M97.656 119.201C97.6312 119.201 97.5766 119.291 97.4377 119.395C97.2379 119.541 96.9886 119.603 96.7433 119.568C96.1282 119.484 95.4536 118.695 95.2105 117.738C95.0931 117.282 95.0812 116.805 95.1758 116.344C95.1878 116.165 95.2434 115.993 95.3376 115.84C95.4319 115.688 95.5619 115.561 95.7165 115.471C95.817 115.421 95.9317 115.406 96.0416 115.43C96.1516 115.453 96.2503 115.513 96.3217 115.6C96.4258 115.734 96.4159 115.848 96.4506 115.853C96.4854 115.858 96.5449 115.739 96.4506 115.526C96.3901 115.4 96.2887 115.298 96.1629 115.238C96.0765 115.202 95.9838 115.183 95.8901 115.183C95.7965 115.183 95.7037 115.202 95.6173 115.238C95.4072 115.33 95.2243 115.475 95.0862 115.658C94.9481 115.841 94.8594 116.057 94.8286 116.285C94.7046 116.798 94.7046 117.334 94.8286 117.847C95.1064 118.919 95.8851 119.831 96.7086 119.856C96.8619 119.866 97.0155 119.841 97.1581 119.783C97.3006 119.726 97.4284 119.637 97.532 119.524C97.6758 119.335 97.6758 119.211 97.656 119.201Z" fill="#7C4236"/>
<path d="M115.186 89.7814C115.111 89.6564 115.023 89.5399 114.923 89.4342C114.54 89.0453 114.072 88.751 113.555 88.5745C113.038 88.398 112.488 88.3442 111.947 88.4173C111.28 88.2193 110.598 88.0733 109.908 87.9808C109.384 87.3599 108.71 86.883 107.951 86.5953C107.191 86.3076 106.37 86.2187 105.567 86.3369C104.763 86.4552 104.003 86.7766 103.358 87.2709C102.713 87.7652 102.205 88.4159 101.882 89.1614C101.664 89.2358 101.451 89.3151 101.237 89.3995C100.565 89.0772 99.8284 88.9134 99.0832 88.9207C98.3379 88.928 97.6043 89.1062 96.9387 89.4416C96.2732 89.777 95.6934 90.2607 95.2442 90.8553C94.795 91.45 94.4882 92.1398 94.3474 92.8717C93.6528 92.8185 92.9579 92.9716 92.35 93.3119C91.742 93.6521 91.2481 94.1643 90.9302 94.7843C90.6123 95.4042 90.4846 96.1042 90.563 96.7964C90.6415 97.4887 90.9226 98.1423 91.3712 98.6753C90.5081 99.4144 89.8831 100.535 90.0518 101.652C90.2204 102.768 91.3911 103.551 92.3782 103.234C92.6808 105.853 93.5339 108.839 94.1788 111.493C94.6351 113.363 97.2493 114.028 97.651 115.278C99.7344 121.652 101.183 117.634 99.4269 103.948C99.541 103.814 99.66 103.675 99.7741 103.527C99.9405 103.206 100.085 102.875 100.206 102.535C100.434 102.133 100.999 102.138 101.461 102.098C102.259 102.008 103.002 101.647 103.566 101.074C104.129 100.502 104.479 99.7528 104.556 98.9531C105.052 99.4492 105.999 99.2706 106.54 98.7646C107.014 98.208 107.407 97.5867 107.706 96.9194C108.078 96.2845 108.648 95.6743 109.377 95.6396C109.783 95.698 110.194 95.7097 110.603 95.6743C111.297 95.4809 111.486 94.583 111.456 93.8638C111.367 93.2556 111.446 92.6349 111.684 92.0681C112.072 91.7739 112.511 91.5537 112.979 91.4183C113.251 91.4183 113.534 91.4183 113.802 91.3886C113.93 91.3815 114.058 91.3649 114.184 91.339C114.361 91.3631 114.537 91.3979 114.71 91.4431C117.309 92.1425 120.325 96.6813 120.325 96.6813C119.948 93.5066 117.726 91.2249 115.186 89.7814Z" fill="#263238"/>
<path d="M90.751 99.067C90.751 99.067 90.751 99.0372 90.7857 98.9777C90.8204 98.9181 90.8502 98.8388 90.9147 98.7346C91.1101 98.4386 91.3551 98.1785 91.6389 97.9658C92.0906 97.6299 92.6162 97.4071 93.1716 97.3159C93.9069 97.1878 94.6638 97.3174 95.3145 97.683L95.1756 97.7574C95.2239 97.1453 95.4019 96.5505 95.6978 96.0126C95.9937 95.4746 96.4008 95.0058 96.8919 94.6373C97.4338 94.2076 98.0512 93.8829 98.7124 93.68C99.4112 93.4778 100.139 93.3923 100.865 93.427C102.227 93.5095 103.561 93.846 104.799 94.4191L104.65 94.4985C104.893 93.2847 105.588 92.2086 106.594 91.4875C107.246 91.0296 108.003 90.744 108.795 90.6572C109.587 90.5705 110.388 90.6855 111.123 90.9915C111.277 91.0544 111.426 91.1273 111.57 91.2097C111.664 91.2693 111.714 91.304 111.709 91.3089C111.704 91.3139 111.5 91.2048 111.098 91.056C110.522 90.8469 109.911 90.7477 109.298 90.7633C108.363 90.7823 107.456 91.0869 106.699 91.6363C105.743 92.3388 105.086 93.3745 104.858 94.5381L104.833 94.6721L104.709 94.6175C103.496 94.0545 102.19 93.7183 100.855 93.6254C100.154 93.5945 99.4522 93.6766 98.7769 93.8685C98.1404 94.0584 97.546 94.3682 97.0258 94.7812C96.5529 95.1311 96.1594 95.5773 95.8713 96.0903C95.5831 96.6032 95.4069 97.1714 95.3542 97.7574V97.9062L95.2252 97.8318C94.613 97.4749 93.8965 97.34 93.1964 97.4499C92.6607 97.526 92.1506 97.7284 91.7083 98.0402C91.3245 98.3158 90.9991 98.6648 90.751 99.067Z" fill="#455A64"/>
<path d="M111.694 91.696C111.682 91.7735 111.664 91.8498 111.639 91.9242C111.594 92.1417 111.566 92.3622 111.555 92.5839C111.555 92.8766 111.555 93.2338 111.52 93.6554C111.533 94.144 111.44 94.6296 111.247 95.079C111.176 95.2113 111.08 95.3281 110.963 95.4227C110.846 95.5172 110.712 95.5876 110.568 95.6296C110.264 95.7026 109.953 95.7409 109.64 95.7437C109.324 95.7444 109.013 95.8264 108.737 95.9818C108.464 96.1861 108.236 96.4444 108.068 96.7407C107.879 97.0433 107.711 97.3757 107.527 97.7328C107.363 98.0939 107.146 98.4283 106.882 98.7249C106.571 99.0206 106.191 99.2337 105.776 99.3449C105.562 99.409 105.339 99.4359 105.116 99.4243C104.872 99.4205 104.638 99.3208 104.467 99.1465L104.655 99.0771C104.64 99.7577 104.395 100.413 103.961 100.937C103.5 101.475 102.899 101.876 102.224 102.093C101.945 102.182 101.657 102.247 101.366 102.286C101.097 102.278 100.83 102.328 100.583 102.435C100.357 102.561 100.182 102.761 100.087 103.001C99.9622 103.25 99.8179 103.489 99.655 103.715C99.0751 104.625 98.1737 105.284 97.1302 105.56C96.1758 105.697 95.2043 105.482 94.397 104.955C93.703 104.518 93.1568 103.882 92.8295 103.13L92.9337 103.169C92.6412 103.291 92.3255 103.346 92.0091 103.332C91.6927 103.317 91.3834 103.233 91.1033 103.085C90.683 102.86 90.3548 102.495 90.1757 102.053C90.0624 101.782 90.0099 101.489 90.0219 101.195C90.0224 101.12 90.0307 101.045 90.0467 100.972C90.0467 100.922 90.0467 100.898 90.0467 100.898C90.0165 101.283 90.0813 101.669 90.2352 102.024C90.4167 102.436 90.7358 102.773 91.138 102.976C91.4024 103.108 91.6923 103.182 91.9877 103.191C92.2832 103.2 92.5771 103.146 92.8494 103.03L92.9238 103.001L92.9535 103.07C93.2786 103.785 93.8086 104.388 94.4764 104.801C95.2459 105.293 96.1672 105.49 97.0706 105.357C98.0561 105.09 98.9068 104.466 99.4566 103.606C99.6145 103.39 99.7539 103.161 99.8732 102.921C99.99 102.641 100.196 102.408 100.459 102.257C100.594 102.183 100.742 102.136 100.895 102.118L101.317 102.083C101.593 102.046 101.865 101.982 102.13 101.895C102.766 101.694 103.333 101.319 103.767 100.813C104.174 100.328 104.403 99.7195 104.417 99.087V98.8291L104.596 99.0176C104.75 99.1334 104.931 99.2074 105.122 99.2326C105.313 99.2578 105.508 99.2333 105.687 99.1614C106.068 99.0607 106.417 98.8663 106.704 98.5959C106.969 98.3083 107.187 97.9801 107.349 97.6237C107.537 97.2864 107.711 96.954 107.909 96.6316C108.093 96.3145 108.342 96.0392 108.638 95.8231C108.941 95.6534 109.283 95.5662 109.63 95.5701C109.931 95.5693 110.23 95.536 110.523 95.4709C110.649 95.4364 110.767 95.3775 110.87 95.2975C110.973 95.2175 111.059 95.118 111.123 95.0046C111.316 94.5759 111.415 94.1106 111.411 93.6405C111.436 93.2238 111.451 92.8617 111.481 92.5691C111.501 92.3441 111.543 92.1216 111.605 91.9044C111.626 91.8316 111.656 91.7616 111.694 91.696Z" fill="#455A64"/>
<path d="M111.709 117.783C111.486 119.271 112.125 120.694 113.524 121.205C113.797 121.29 114.083 121.32 114.367 121.293C114.65 121.267 114.926 121.185 115.178 121.051C115.43 120.918 115.654 120.737 115.835 120.517C116.017 120.298 116.154 120.044 116.238 119.772C116.398 119.163 116.409 118.526 116.272 117.912C114.988 117.837 113.003 117.857 111.709 117.783Z" fill="#7C4236"/>
<path d="M115.98 120.372C115.98 120.372 115.98 120.411 115.925 120.476C115.863 120.571 115.79 120.657 115.707 120.734C115.402 121.025 115.016 121.216 114.601 121.284C113.974 121.38 113.334 121.25 112.795 120.917C112.473 120.703 112.199 120.425 111.99 120.1C111.781 119.774 111.641 119.409 111.58 119.027C111.55 118.827 111.54 118.625 111.55 118.422C111.551 118.21 111.606 118.002 111.709 117.817C111.773 117.718 111.869 117.642 111.982 117.604C112.081 117.572 112.185 117.559 112.289 117.564H112.815C113.494 117.599 114.105 117.663 114.616 117.718C115.632 117.827 116.267 117.857 116.267 117.897C115.714 117.961 115.154 117.961 114.601 117.897C114.105 117.867 113.48 117.817 112.805 117.797H112.309C112.135 117.797 112.011 117.822 111.937 117.941C111.864 118.096 111.827 118.266 111.828 118.437C111.805 118.881 111.895 119.323 112.091 119.722C112.286 120.122 112.58 120.465 112.944 120.719C113.433 121.03 114.014 121.165 114.591 121.101C114.983 121.057 115.355 120.902 115.662 120.654C115.87 120.486 115.98 120.352 115.98 120.372Z" fill="#263238"/>
<path d="M145.94 103.254C145.94 103.254 152.225 102.47 161.67 94.9549C171.114 87.4399 176.233 76.7603 177.285 76.919C178.336 77.0777 183.173 75.3565 190.182 95.3418C197.191 115.327 193.292 119.449 191.546 119.246C189.8 119.042 178.212 114.608 170.712 114.757C163.212 114.906 153.286 117.872 153.286 117.872L145.94 103.254Z" fill="#86B6F6"/>
<path d="M134.636 118.175L137.994 117.46L136.173 113.041L133.336 114.459L134.636 118.175Z" fill="#455A64"/>
<path d="M135.027 112.922L136.268 116.652L137.041 118.527C137.546 119.773 138.51 120.777 139.735 121.331C140.959 121.885 142.35 121.947 143.619 121.503L157.245 117.669L151.392 100.417L137.85 106.126C136.58 106.659 135.571 107.672 135.043 108.944C134.514 110.216 134.509 111.645 135.027 112.922Z" fill="#263238"/>
<path d="M139.913 118.656L144.477 126.746L146.56 126.077L160.811 136.712L164.348 129.013C164.348 129.013 156.054 125.843 154.427 123.001C152.8 120.159 154.517 119.43 154.517 119.43L150.504 115.233L139.913 118.656Z" fill="#263238"/>
<path d="M189.433 95.6395C193.138 106.458 194.22 115.888 191.844 116.701C189.468 117.515 184.532 109.41 180.822 98.5909C177.111 87.7724 176.035 78.3427 178.411 77.5242C180.787 76.7058 185.723 84.8061 189.433 95.6395Z" fill="#263238"/>
<path d="M180.092 92.4154C180.092 92.4154 185.757 89.6028 188.004 97.1079C190.251 104.613 184.507 105.273 184.507 105.273C182.439 101.215 180.953 96.8871 180.092 92.4154Z" fill="#FAFAFA"/>
<path d="M175.216 83.2634C175.198 83.7328 175.225 84.2028 175.296 84.6672C175.38 85.565 175.499 86.8696 175.693 88.4768C175.848 89.2737 176.013 90.1402 176.189 91.076C176.283 91.5423 176.377 92.0284 176.471 92.5244C176.521 92.7725 176.571 93.0254 176.62 93.2834C176.68 93.5364 176.759 93.7794 176.828 94.0473L177.746 97.2765L177.984 98.1197C178.064 98.4074 178.188 98.6803 178.287 98.963C178.495 99.5285 178.708 100.099 178.927 100.679L179.572 102.396C179.681 102.673 179.77 102.961 179.899 103.229L180.271 104.028L181.705 107.068C181.824 107.306 181.928 107.564 182.052 107.778L182.439 108.447L183.178 109.732L184.507 112.019C185.415 113.358 186.179 114.415 186.705 115.149C186.957 115.545 187.246 115.917 187.568 116.26C187.365 115.837 187.126 115.432 186.853 115.049L184.78 111.84L183.51 109.529L182.801 108.254C182.677 108.031 182.553 107.807 182.424 107.584C182.295 107.361 182.206 107.113 182.091 106.87C181.645 105.903 181.174 104.886 180.693 103.839L180.321 103.045C180.197 102.778 180.107 102.495 179.998 102.217L179.363 100.516C179.15 99.9402 178.937 99.3698 178.723 98.8092C178.624 98.5315 178.5 98.2586 178.426 97.9759C178.351 97.6932 178.262 97.4104 178.178 97.1326L177.245 93.9282C177.176 93.6752 177.091 93.4322 177.032 93.1742C176.972 92.9163 176.923 92.6782 176.873 92.4252C176.769 91.9292 176.665 91.4332 176.571 90.9867C176.372 90.0641 176.184 89.201 176.015 88.4123C175.792 86.8349 175.603 85.5502 175.474 84.6375C175.424 84.1735 175.338 83.7141 175.216 83.2634Z" fill="#263238"/>
<path d="M157.245 117.644C157.049 117.734 156.842 117.799 156.63 117.837L154.943 118.284C153.515 118.651 151.546 119.172 149.373 119.772C147.2 120.372 145.241 120.918 143.807 121.26C143.088 121.438 142.508 121.572 142.101 121.657C141.893 121.71 141.68 121.745 141.466 121.761C141.663 121.672 141.87 121.604 142.081 121.558L143.758 121.061L149.308 119.489C151.476 118.889 153.46 118.393 154.899 118.07C155.618 117.907 156.203 117.783 156.61 117.708C156.819 117.667 157.032 117.645 157.245 117.644Z" fill="#455A64"/>
<path d="M149.214 114.826C148.792 115.063 148.347 115.254 147.885 115.397C147.046 115.709 145.9 116.106 144.576 116.498C143.252 116.89 142.071 117.192 141.203 117.391C140.738 117.524 140.261 117.608 139.779 117.644C140.227 117.463 140.688 117.319 141.158 117.212C142.016 116.969 143.197 116.637 144.502 116.25C145.806 115.863 146.982 115.491 147.825 115.223C148.277 115.054 148.741 114.921 149.214 114.826Z" fill="#455A64"/>
<path d="M147.071 110.888C145.7 111.439 144.297 111.907 142.87 112.291C141.467 112.761 140.037 113.149 138.589 113.452C139.962 112.9 141.367 112.43 142.795 112.043C144.197 111.576 145.625 111.19 147.071 110.888Z" fill="#455A64"/>
<path d="M144.958 107.093C143.802 107.739 142.606 108.309 141.377 108.799C140.183 109.374 138.954 109.871 137.696 110.287C138.848 109.637 140.043 109.065 141.272 108.576C142.466 107.999 143.698 107.504 144.958 107.093Z" fill="#455A64"/>
<path d="M129.626 149.782L121.352 135.818L99.9577 134.936V136.88C99.9577 136.88 94.0846 142.793 92.1897 150.843C90.7562 156.94 96.788 180.204 98.4845 188.269C100.568 198.19 103.445 210.73 103.445 210.73C103.013 212.952 100.161 214.753 100.359 217.719L147.91 217.198L145.464 207.56L129.626 149.782Z" fill="#86B6F6"/>
<path d="M146.124 211.256C146.124 211.33 136.659 211.385 124.988 211.385C113.316 211.385 103.856 211.33 103.856 211.256C103.856 211.182 113.316 211.127 124.988 211.127C136.659 211.127 146.124 211.186 146.124 211.256Z" fill="white"/>
<path d="M142.835 199.311C142.835 199.386 133.46 199.445 121.897 199.445C110.335 199.445 100.955 199.386 100.955 199.311C100.955 199.237 110.33 199.182 121.897 199.182C133.465 199.182 142.835 199.257 142.835 199.311Z" fill="white"/>
<path d="M139.611 186.36C139.611 186.429 130.434 186.489 119.114 186.489C107.795 186.489 98.6182 186.414 98.6182 186.36C98.6182 186.305 107.79 186.231 119.109 186.231C130.429 186.231 139.611 186.286 139.611 186.36Z" fill="white"/>
<path d="M137.354 173.309C137.354 173.379 127.899 173.438 116.242 173.438C104.585 173.438 95.136 173.379 95.136 173.309C95.136 173.24 104.585 173.18 116.242 173.18C127.899 173.18 137.354 173.235 137.354 173.309Z" fill="white"/>
<path d="M132.349 157.118C132.349 157.188 123.42 157.247 112.373 157.247C101.327 157.247 92.3979 157.188 92.3979 157.118C92.3979 157.049 101.327 156.984 112.373 156.984C123.42 156.984 132.349 157.044 132.349 157.118Z" fill="white"/>
<path d="M125.548 142.267C125.548 142.337 118.946 142.396 110.796 142.396C102.646 142.396 96.0439 142.337 96.0439 142.267C96.0439 142.198 102.646 142.138 110.796 142.138C118.946 142.138 125.548 142.218 125.548 142.267Z" fill="white"/>
<path opacity="0.3" d="M98.2761 158.393C100.358 161.888 102.985 165.028 106.059 167.694C110.836 171.662 125.37 178.775 125.37 178.775L126.585 176.265L137.428 178.8L135.444 172.123L98.2761 158.393Z" fill="black"/>
<path d="M149.288 140.779L145.504 161.335L113.083 145.923L107.859 164.207C120.603 170.437 146.397 180.809 149.715 180.511C154.437 180.085 157.701 177.262 159.169 170.348C160.082 166.067 159.666 137.361 159.666 137.361L149.288 140.779Z" fill="#C17560"/>
<path d="M115.201 143.16C115.201 143.16 103.078 135.67 97.7898 145.109C94.01 154.316 98.1916 161.667 107.527 166.231C112.026 168.433 118.157 171.151 124.348 173.736L133.371 153.711L115.201 143.16Z" fill="#86B6F6"/>
<path d="M115.201 143.16C115.201 143.16 115.32 143.214 115.538 143.338L116.5 143.879L120.161 145.972L133.425 153.621L133.505 153.671L133.465 153.755L124.467 173.785L124.417 173.899L124.303 173.85C121.128 172.53 117.855 171.121 114.521 169.633C113.05 168.972 111.596 168.311 110.161 167.649C108.733 166.98 107.324 166.31 105.97 165.571C105.308 165.191 104.655 164.792 104.01 164.375C103.395 163.929 102.76 163.522 102.2 163.026C101.054 162.106 100.023 161.052 99.1292 159.886L98.5142 159.003C98.3151 158.711 98.1345 158.406 97.9735 158.091C97.6351 157.48 97.3401 156.847 97.0905 156.196C96.9764 155.873 96.8921 155.536 96.7929 155.204L96.6491 154.708C96.6094 154.539 96.5895 154.375 96.5548 154.212C96.5002 153.884 96.4407 153.552 96.3862 153.219C96.3316 152.887 96.3465 152.565 96.3266 152.227C96.2909 151.584 96.3025 150.939 96.3614 150.298C96.411 149.668 96.5449 149.053 96.6342 148.448C96.7235 147.842 96.9368 147.267 97.1005 146.697C97.2641 146.126 97.5022 145.59 97.6957 145.055C98.4003 143.774 99.3794 142.664 100.563 141.806C101.646 141.073 102.877 140.588 104.169 140.387C106.245 140.135 108.351 140.34 110.34 140.987C111.6 141.378 112.825 141.876 114 142.475C114.402 142.684 114.7 142.852 114.903 142.971C115.107 143.09 115.196 143.16 115.196 143.16L114.888 142.996C114.685 142.887 114.392 142.728 113.971 142.53C112.79 141.954 111.564 141.476 110.305 141.101C108.332 140.475 106.247 140.287 104.194 140.551C102.928 140.752 101.723 141.233 100.667 141.959C99.5101 142.807 98.5548 143.899 97.8693 145.159C97.6808 145.695 97.4824 146.235 97.284 146.791C97.0856 147.346 96.9814 147.932 96.8326 148.517C96.6838 149.102 96.6193 149.722 96.5697 150.347C96.515 150.979 96.505 151.614 96.5399 152.247C96.5399 152.565 96.5747 152.892 96.6044 153.239C96.6342 153.587 96.7135 153.884 96.7731 154.207C96.8028 154.37 96.8227 154.534 96.8624 154.703L97.0062 155.199C97.1054 155.521 97.1848 155.848 97.3038 156.166C97.5484 156.806 97.8385 157.428 98.1719 158.026C98.3326 158.335 98.5097 158.634 98.7027 158.924L99.3128 159.787C100.197 160.937 101.216 161.976 102.349 162.882C102.923 163.357 103.52 163.802 104.139 164.217C104.768 164.63 105.416 165.024 106.084 165.397C107.423 166.126 108.832 166.801 110.26 167.466C111.689 168.13 113.147 168.8 114.62 169.45C117.944 170.938 121.218 172.347 124.387 173.671L124.224 173.736C127.592 166.295 130.672 159.44 133.267 153.725L133.311 153.854L120.092 146.126L116.476 143.929L115.533 143.363C115.31 143.259 115.201 143.16 115.201 143.16Z" fill="#263238"/>
<path d="M148.802 144.301L149.532 136.642C149.532 136.642 146.605 130.749 146.664 130.159C146.724 129.569 146.893 126.32 146.893 126.32L154.209 119.732C154.209 119.732 156.58 119.732 156.64 122.078C156.64 122.078 158.917 121.582 158.951 124.33C158.951 124.33 161.432 124.42 161.481 126.419C161.481 126.419 162.969 126.22 162.92 128.309C162.88 129.797 162.225 135.556 162.225 135.556L159.165 140.878L158.912 146.201L148.802 144.301Z" fill="#C17560"/>
<path d="M149.561 168.844C149.477 168.874 148.936 167.014 147.83 164.931C146.724 162.847 145.439 161.389 145.504 161.334C145.831 161.604 146.123 161.914 146.372 162.257C147.012 163.053 147.576 163.907 148.058 164.807C148.536 165.708 148.934 166.649 149.249 167.619C149.4 168.014 149.505 168.425 149.561 168.844Z" fill="#7C4236"/>
<path d="M107.859 140.615C107.773 140.858 107.665 141.092 107.537 141.315C107.314 141.756 106.981 142.386 106.545 143.16C105.707 144.712 104.511 146.836 103.177 149.167L99.7393 155.119L98.6976 156.925C98.5769 157.152 98.4393 157.369 98.2859 157.575C98.3722 157.332 98.4801 157.098 98.6083 156.875C98.8315 156.439 99.1639 155.804 99.6004 155.03C100.439 153.477 101.629 151.354 102.968 149.023C104.308 146.692 105.503 144.623 106.401 143.071C106.828 142.341 107.18 141.731 107.448 141.265C107.566 141.037 107.704 140.82 107.859 140.615Z" fill="white"/>
<path d="M117.745 144.946C117.729 145.023 117.702 145.098 117.666 145.169L117.393 145.789C117.15 146.33 116.793 147.098 116.332 148.046C115.419 149.941 114.114 152.535 112.587 155.357C111.059 158.18 109.61 160.695 108.519 162.495C107.974 163.393 107.527 164.117 107.21 164.613L106.843 165.184C106.801 165.251 106.752 165.314 106.699 165.372C106.699 165.372 106.724 165.293 106.798 165.154L107.125 164.564L108.36 162.401C109.407 160.581 110.841 158.051 112.359 155.233C113.876 152.416 115.216 149.836 116.168 147.961L117.304 145.749L117.617 145.149C117.65 145.076 117.693 145.007 117.745 144.946Z" fill="white"/>
<path d="M128.807 151.136C128.725 151.417 128.624 151.693 128.504 151.96C128.301 152.456 127.984 153.23 127.577 154.147C126.758 155.978 125.548 158.478 124.055 161.156C122.562 163.835 121.079 166.176 119.943 167.838C119.377 168.666 118.906 169.326 118.569 169.777C118.408 170.02 118.227 170.249 118.028 170.462C118.162 170.203 118.316 169.956 118.489 169.723L119.789 167.739C120.88 166.057 122.339 163.706 123.832 161.037C125.325 158.368 126.55 155.883 127.408 154.093L128.4 151.94C128.511 151.66 128.648 151.391 128.807 151.136Z" fill="white"/>
<path d="M99.9824 226.901L101.014 217.719L146.377 217.218L147.533 226.901H99.9824Z" fill="#263238"/>
<path d="M156.159 226.097C156.159 226.167 142.185 226.226 124.948 226.226C107.711 226.226 93.7373 226.167 93.7373 226.097C93.7373 226.028 107.711 225.968 124.948 225.968C142.185 225.968 156.159 226.018 156.159 226.097Z" fill="#455A64"/>
<path d="M130.876 65.8821H114.005C113.446 65.8821 112.993 66.3351 112.993 66.894V67.6232C112.993 68.182 113.446 68.6351 114.005 68.6351H130.876C131.434 68.6351 131.887 68.182 131.887 67.6232V66.894C131.887 66.3351 131.434 65.8821 130.876 65.8821Z" fill="#455A64"/>
<path d="M136.471 67.2611C136.471 67.5338 136.39 67.8004 136.238 68.0272C136.087 68.254 135.872 68.4307 135.62 68.5351C135.368 68.6395 135.09 68.6668 134.823 68.6136C134.555 68.5603 134.31 68.429 134.117 68.2362C133.924 68.0433 133.793 67.7976 133.739 67.5301C133.686 67.2626 133.713 66.9853 133.818 66.7333C133.922 66.4814 134.099 66.266 134.326 66.1145C134.553 65.963 134.819 65.8821 135.092 65.8821C135.273 65.8821 135.452 65.9178 135.62 65.9871C135.787 66.0564 135.939 66.1579 136.067 66.286C136.195 66.414 136.297 66.566 136.366 66.7333C136.435 66.9007 136.471 67.08 136.471 67.2611Z" fill="#455A64"/>
<path d="M79.3125 87.2515H80.4286V110.268H79.3125C78.4968 110.268 77.7146 109.944 77.1378 109.367C76.5611 108.79 76.2371 108.008 76.2371 107.192V90.3269C76.2371 89.923 76.3166 89.5231 76.4712 89.15C76.6257 88.7769 76.8523 88.4378 77.1378 88.1522C77.4234 87.8667 77.7624 87.6401 78.1356 87.4856C78.5087 87.331 78.9086 87.2515 79.3125 87.2515Z" fill="#263238"/>
<path d="M79.0347 120.694H80.1507V143.71H79.0347C78.219 143.71 77.4368 143.386 76.86 142.81C76.2832 142.233 75.9592 141.451 75.9592 140.635V123.77C75.9592 122.954 76.2832 122.172 76.86 121.595C77.4368 121.018 78.219 120.694 79.0347 120.694Z" fill="#263238"/>
<path d="M79.1141 154.807C79.0397 154.807 78.9851 138.1 78.9851 117.495C78.9851 96.8895 79.0397 80.178 79.1141 80.178C79.1885 80.178 79.243 96.8845 79.243 117.495C79.243 138.105 79.1835 154.807 79.1141 154.807Z" fill="#455A64"/>
</svg>
