<svg width="735" height="87" viewBox="0 0 735 87" fill="none" xmlns="http://www.w3.org/2000/svg">
<path d="M339.31 86.68L310.65 47.47V86.68H289.78V0.0999756H310.61V37L337.48 0.0999756H363.08L332.21 41.91L365.28 86.68H339.31Z" fill="white"/>
<path d="M431.01 68.75H398.92L392.78 86.68H370.78L401.9 0.0999756H428.11L459.22 86.68H437.22L431.01 68.75ZM424.15 48.75L414.96 21.75L405.77 48.75H424.15Z" fill="white"/>
<path d="M553 0.0999756V86.68H532.18V29.54L510.74 62.54H508.74L487.3 29.54V86.68H466.52V0.0999756H490.16L509.78 29.78L529.38 0.0999756H553Z" fill="white"/>
<path d="M621.28 68.45H589.04L582.89 86.3H560.78L592.04 0.0999756H618.37L649.62 86.3H627.43L621.28 68.45ZM614.39 48.5L605.16 21.65L595.93 48.5H614.39Z" fill="white"/>
<path d="M734.47 43.34C734.47 67.92 715.02 86.66 689.7 86.66C664.38 86.66 644.94 67.92 644.94 43.34C644.94 18.76 664.38 0 689.7 0C715.02 0 734.47 18.77 734.47 43.34ZM665.97 43.34C665.97 57.34 675.97 67.34 689.7 67.34C703.43 67.34 713.43 57.34 713.43 43.34C713.43 29.34 703.43 19.34 689.7 19.34C675.97 19.34 665.97 29.38 665.97 43.34Z" fill="white"/>
<path d="M219.89 0.0499878C195.05 0.0499878 175.96 18.77 175.96 43.34C175.96 67.91 195.05 86.63 219.89 86.63C244.73 86.63 263.78 67.91 263.78 43.34C263.78 18.77 244.78 0.0499878 219.89 0.0499878ZM219.89 67.31C206.45 67.31 196.61 57.31 196.61 43.31C196.61 29.31 206.45 19.31 219.89 19.31C233.33 19.31 243.18 29.31 243.18 43.31C243.18 57.31 233.33 67.31 219.89 67.31Z" fill="white"/>
<path d="M137.46 0.0499878L111.99 43.34L94.2 73.61L76.39 43.34L50.93 0.0499878L25.46 43.34L0 86.63H15.59C17.41 69.36 32.13 56.63 50.93 56.63C69.73 56.63 84.44 69.37 86.26 86.63H102.13C103.95 69.36 118.67 56.63 137.46 56.63C156.25 56.63 170.97 69.37 172.8 86.63H188.4L162.93 43.34L137.46 0.0499878ZM51.27 45.17C49.9855 45.1918 48.7235 44.8308 47.6449 44.1328C46.5664 43.4348 45.72 42.4315 45.2137 41.2508C44.7073 40.0701 44.564 38.7653 44.8019 37.5028C45.0398 36.2403 45.6482 35.0772 46.5495 34.1618C47.4508 33.2463 48.6043 32.6198 49.8629 32.3623C51.1215 32.1047 52.4283 32.2277 53.6168 32.7155C54.8053 33.2034 55.8217 34.034 56.5364 35.1015C57.2511 36.1691 57.6318 37.4253 57.63 38.71C57.6675 39.5598 57.5293 40.4082 57.2243 41.2023C56.9192 41.9964 56.4538 42.719 55.857 43.3252C55.2602 43.9314 54.5449 44.408 53.7557 44.7254C52.9665 45.0428 52.1203 45.1942 51.27 45.17ZM137.81 45.17C136.525 45.1918 135.264 44.8308 134.185 44.1328C133.106 43.4348 132.26 42.4315 131.754 41.2508C131.247 40.0701 131.104 38.7653 131.342 37.5028C131.58 36.2403 132.188 35.0772 133.089 34.1618C133.991 33.2463 135.144 32.6198 136.403 32.3623C137.662 32.1047 138.968 32.2277 140.157 32.7155C141.345 33.2034 142.362 34.034 143.076 35.1015C143.791 36.1691 144.172 37.4253 144.17 38.71C144.208 39.5624 144.069 40.4134 143.762 41.2096C143.455 42.0057 142.987 42.7299 142.387 43.3365C141.787 43.9431 141.068 44.4191 140.275 44.7346C139.482 45.0502 138.633 45.1984 137.78 45.17H137.81Z" fill="white"/>
</svg>
