<svg width="735" height="224" viewBox="0 0 735 224" fill="none" xmlns="http://www.w3.org/2000/svg">
<path d="M339.32 223.73L310.65 184.52V223.73H289.82V137.14H310.65V174L337.48 137.14H363.08L332.21 178.95L365.28 223.73H339.32Z" fill="#301C13"/>
<path d="M431.01 205.79H398.92L392.79 223.73H370.74L401.86 137.14H428.07L459.19 223.73H437.14L431.01 205.79ZM424.15 185.79L414.96 158.79L405.78 185.79H424.15Z" fill="#301C13"/>
<path d="M553 137.14V223.73H532.18V166.58L510.74 199.61H508.74L487.3 166.61V223.76H466.52V137.14H490.16L509.74 166.83L529.34 137.14H553Z" fill="#301C13"/>
<path d="M621.28 205.49H589.04L582.89 223.31H560.74L592 137.1H618.33L649.58 223.31H627.43L621.28 205.49ZM614.39 185.54L605.16 158.69L595.93 185.54H614.39Z" fill="#301C13"/>
<path d="M734.47 180.39C734.47 204.97 715.02 223.7 689.7 223.7C664.38 223.7 644.94 204.97 644.94 180.39C644.94 155.81 664.38 137.07 689.7 137.07C715.02 137.07 734.47 155.81 734.47 180.39ZM665.97 180.39C665.97 194.39 675.97 204.39 689.7 204.39C703.43 204.39 713.43 194.39 713.43 180.39C713.43 166.39 703.43 156.39 689.7 156.39C675.97 156.39 665.97 166.43 665.97 180.39Z" fill="#301C13"/>
<path d="M263.82 180.38C263.82 204.95 244.74 223.68 219.89 223.68C195.04 223.68 175.96 204.95 175.96 180.38C175.96 155.81 195.05 137.09 219.89 137.09C244.73 137.09 263.82 155.81 263.82 180.38ZM196.61 180.38C196.61 194.38 206.45 204.38 219.89 204.38C233.33 204.38 243.18 194.38 243.18 180.38C243.18 166.38 233.33 156.38 219.89 156.38C206.45 156.38 196.61 166.43 196.61 180.38Z" fill="#F26522"/>
<path d="M162.93 180.38L137.47 137.09L111.99 180.38L94.2 210.65L76.39 180.38L50.93 137.09L25.46 180.38L0 223.68H15.59C17.41 206.4 32.13 193.68 50.93 193.68C69.73 193.68 84.44 206.42 86.26 223.68H102.13C103.95 206.4 118.67 193.68 137.47 193.68C156.27 193.68 170.97 206.42 172.8 223.68H188.4L162.93 180.38ZM51.27 182.22C49.9831 182.244 48.7183 181.884 47.6367 181.186C46.5552 180.488 45.706 179.484 45.1974 178.302C44.6888 177.119 44.5438 175.812 44.7809 174.547C45.018 173.282 45.6265 172.116 46.5288 171.198C47.4311 170.281 48.5863 169.652 49.8472 169.393C51.108 169.135 52.4173 169.257 53.6082 169.745C54.7991 170.234 55.8176 171.066 56.5339 172.135C57.2502 173.204 57.6318 174.463 57.63 175.75C57.6689 176.601 57.5318 177.45 57.2274 178.245C56.923 179.041 56.4577 179.765 55.8608 180.372C55.2639 180.979 54.5481 181.457 53.7581 181.775C52.9682 182.093 52.1212 182.244 51.27 182.22ZM137.81 182.22C136.523 182.244 135.258 181.884 134.177 181.186C133.095 180.488 132.246 179.484 131.737 178.302C131.229 177.119 131.084 175.812 131.321 174.547C131.558 173.282 132.167 172.116 133.069 171.198C133.971 170.281 135.126 169.652 136.387 169.393C137.648 169.135 138.957 169.257 140.148 169.745C141.339 170.234 142.358 171.066 143.074 172.135C143.79 173.204 144.172 174.463 144.17 175.75C144.209 176.601 144.072 177.45 143.767 178.245C143.463 179.041 142.998 179.765 142.401 180.372C141.804 180.979 141.088 181.457 140.298 181.775C139.508 182.093 138.661 182.244 137.81 182.22Z" fill="#F26522"/>
<path d="M365.92 101.7L364.44 62.69L286.75 12.05L288.24 51.21L366.2 102.04L366.18 101.55L365.92 101.7Z" fill="#F26522"/>
<path d="M366.18 101.55L447.77 55.24L446.27 16.07L364.43 62.52L364.44 62.69L365.92 101.7L366.18 101.55Z" fill="#301C13"/>
<path d="M366.52 58.42L365.55 32.99L314.94 0L315.91 25.42L366.52 58.42Z" fill="#301D14"/>
<path d="M419.26 27.92L418.3 2.5L365.57 32.88L366.54 58.3L419.26 27.92Z" fill="#F26522"/>
</svg>
