<svg width="2543" height="1608" viewBox="0 0 2543 1608" fill="none" xmlns="http://www.w3.org/2000/svg">
<path d="M2542.15 877.761C2548.35 663.419 2469.65 433.25 2347.19 289.376C2171.99 83.5508 1891.95 23.2868 1632.76 40.9508C1417.04 55.6528 1198.93 118.174 982.281 84.3348C839.481 62.0308 705.079 -4.39326 558.584 0.229744C130.907 13.7267 -84.9249 489.997 31.0951 867.033C129.866 1188.01 458.536 1265.51 758.436 1258.14C868.445 1255.43 972.505 1249.13 1081.99 1259.27C1219.68 1272.03 1355.77 1298.64 1489.45 1333.62C1786.72 1411.41 2198.52 1512.74 2425.29 1230.94C2502.56 1134.92 2538.35 1009.32 2542.15 877.761Z" fill="#F6F9FF"/>
<path d="M514.315 1451.56H1158.27C1174.69 1451.56 1186.6 1438.26 1184.87 1421.85L1068.8 315.245C1067.08 298.832 1052.38 285.527 1035.97 285.527H392.01C375.597 285.527 363.688 298.832 365.409 315.245L481.481 1421.85C483.202 1438.26 497.902 1451.56 514.315 1451.56Z" fill="#6880E4"/>
<path d="M531.894 1328.66H1114.91L1013.81 364.735H430.787L531.894 1328.66Z" fill="#D4DFFF"/>
<mask id="mask0_87_16" style="mask-type:luminance" maskUnits="userSpaceOnUse" x="430" y="364" width="685" height="965">
<path d="M531.894 1328.66H1114.91L1013.81 364.735H430.787L531.894 1328.66Z" fill="white"/>
</mask>
<g mask="url(#mask0_87_16)">
<path opacity="0.19" d="M517.918 347.257C517.918 347.257 625.714 1055.44 1140.38 1161.95L1176.17 1364.28H475.442L368.791 347.499L517.918 347.257Z" fill="#6880E4"/>
</g>
<path d="M764.143 1420.89H902.01C911.433 1420.89 918.271 1413.25 917.282 1403.82L914.924 1381.34C913.936 1371.92 905.495 1364.28 896.072 1364.28H758.205C748.782 1364.28 741.944 1371.92 742.933 1381.34L745.291 1403.82C746.279 1413.25 754.72 1420.89 764.143 1420.89Z" fill="#1B3D9E"/>
<path d="M782.151 698.401C781.683 687.781 789.114 678.775 798.553 678.527C877.875 676.451 1203.99 669.306 1208.31 692.052C1213.23 717.95 1233.01 1065.21 1219.5 1071.23C1205.99 1077.26 812.096 1074.74 804.75 1065.94C798.412 1058.34 785.557 775.744 782.151 698.401Z" fill="#FE8E9C"/>
<path d="M781.475 688.849C781.475 688.849 779.02 678.493 761.038 674.061C743.056 669.629 405.109 633.422 374.464 662.25C343.819 691.078 398.583 1073.48 415.025 1077.6C431.467 1081.72 796.108 1078.45 809.026 1065.48C821.945 1052.5 781.475 688.849 781.475 688.849Z" fill="#FE8E9C"/>
<path d="M1175.14 726.149C1175.14 726.149 800.693 731.863 783.602 729.781C766.511 727.699 408.493 705.945 403.678 710.426C398.863 714.907 766.991 748.606 783.406 745.841C799.821 743.076 1198.92 740.942 1175.14 726.149Z" fill="#FC476A"/>
<path d="M414.767 734.901C414.767 734.901 782.229 757.844 784.664 763.108C787.098 768.372 811.172 1026.12 801.861 1033.62C792.55 1041.12 451.699 1044.85 446.633 1040.81C441.566 1036.76 401.329 759.754 414.767 734.901Z" fill="#FC476A"/>
<path d="M391.318 655.646C391.318 655.646 378.995 694.415 383.459 766.07C387.923 837.725 431.29 1078.66 431.29 1078.66L415.026 1077.6C415.026 1077.6 395.579 1032.94 383.164 926.203C370.749 819.463 354.535 698.637 374.466 662.249C374.466 662.249 379.754 655.925 391.318 655.646Z" fill="#FC476A"/>
<path d="M1196.4 685.695C1196.4 685.695 1202.79 689.523 1206.17 733.617C1209.55 777.712 1217.53 1019.44 1213.52 1045.97C1209.52 1072.5 1206.09 1072.72 1206.09 1072.72C1206.09 1072.72 1221.73 1074.78 1222.87 1070.61C1224.01 1066.44 1229.24 1021.75 1225.79 974.987C1222.34 928.221 1221.81 792.168 1217.91 776.655C1214.02 761.142 1222 684.007 1196.4 685.695Z" fill="#FC476A"/>
<path d="M806.904 761.296C806.904 761.296 1187.48 752.27 1188.79 758.55C1190.1 764.83 1194.55 814.014 1192.26 821.211C1189.97 828.408 813.561 834.165 809.771 827.691C805.982 821.216 798.515 768.307 806.904 761.296Z" fill="#FC476A"/>
<path d="M768.031 775.888L767.874 774.23C767.444 774.193 766.893 774.146 766.224 774.092L766.386 772.098C767.632 772.2 768.479 772.273 768.893 772.315L769.709 772.399L770.022 775.701L768.031 775.888Z" fill="#FE8E9C"/>
<path d="M527.954 1031.42H525.788V1029.42L530.783 1029.42V1031.42L527.954 1031.42ZM535.779 1031.42L535.777 1029.42L540.772 1029.41L540.777 1031.41L535.779 1031.42ZM520.793 1031.42L515.797 1031.41L515.802 1029.41L520.795 1029.42L520.793 1031.42ZM545.775 1031.39L545.769 1029.39L550.767 1029.38L550.774 1031.38L545.775 1031.39ZM510.801 1031.39L505.804 1031.37L505.813 1029.37L510.808 1029.39L510.801 1031.39ZM555.772 1031.36L555.764 1029.36L560.761 1029.34L560.771 1031.34L555.772 1031.36ZM500.808 1031.35L495.811 1031.32L495.826 1029.32L500.82 1029.35L500.808 1031.35ZM565.769 1031.31L565.758 1029.31L570.754 1029.28L570.767 1031.28L565.769 1031.31ZM490.814 1031.28C489.095 1031.26 487.428 1031.24 485.817 1031.22L485.84 1029.22C487.449 1029.24 489.114 1029.26 490.832 1029.28L490.814 1031.28ZM575.764 1031.25L575.751 1029.25L580.747 1029.22L580.763 1031.22L575.764 1031.25ZM585.761 1031.17L585.744 1029.17L590.741 1029.13L590.759 1031.13L585.761 1031.17ZM480.819 1031.16C479.071 1031.14 477.403 1031.11 475.821 1031.09L475.855 1029.09C477.436 1029.11 479.101 1029.14 480.847 1029.16L480.819 1031.16ZM595.756 1031.09L595.738 1029.09L600.735 1029.04L600.755 1031.04L595.756 1031.09ZM470.821 1030.99C468.992 1030.95 467.321 1030.9 465.819 1030.86L465.879 1028.86C467.377 1028.9 469.043 1028.95 470.866 1028.99L470.821 1030.99ZM605.751 1030.99L605.73 1028.99L610.642 1028.93L610.738 1029.93L610.665 1030.93L605.751 1030.99ZM615.746 1030.87L615.723 1028.87L620.736 1028.81L620.761 1030.81L615.746 1030.87ZM625.767 1030.75L625.742 1028.75L630.741 1028.68L630.769 1030.68L625.767 1030.75ZM460.805 1030.66C457.203 1030.48 456.578 1030.31 456.245 1030.16C455.777 1029.94 455.515 1029.46 455.34 1029.07L457.167 1028.25C457.188 1028.3 457.207 1028.34 457.223 1028.37C457.531 1028.42 458.44 1028.54 460.907 1028.66L460.805 1030.66ZM635.762 1030.6L635.733 1028.6L640.718 1028.53L640.75 1030.53L635.762 1030.6ZM645.731 1030.45L645.698 1028.45L650.694 1028.36L650.728 1030.36L645.731 1030.45ZM655.725 1030.28L655.69 1028.28L660.685 1028.18L660.723 1030.18L655.725 1030.28ZM665.721 1030.09L665.681 1028.09L670.677 1027.99L670.718 1029.99L665.721 1030.09ZM675.715 1029.88L675.672 1027.88L680.667 1027.77L680.713 1029.77L675.715 1029.88ZM685.71 1029.65L685.662 1027.65L690.657 1027.53L690.708 1029.53L685.71 1029.65ZM695.706 1029.4L695.652 1027.4L700.647 1027.26L700.703 1029.26L695.706 1029.4ZM705.699 1029.12L705.641 1027.12L710.635 1026.97L710.697 1028.97L705.699 1029.12ZM715.695 1028.81L715.629 1026.81L720.624 1026.65L720.692 1028.64L715.695 1028.81ZM725.691 1028.47L725.618 1026.47C727.306 1026.41 728.97 1026.34 730.611 1026.28L730.689 1028.28C729.047 1028.34 727.381 1028.41 725.691 1028.47ZM735.687 1028.08L735.604 1026.08C737.299 1026.01 738.963 1025.94 740.596 1025.86L740.686 1027.86C739.05 1027.93 737.383 1028.01 735.687 1028.08ZM745.682 1027.63L745.586 1025.63C747.29 1025.55 748.954 1025.46 750.576 1025.38L750.681 1027.37C749.057 1027.46 747.39 1027.54 745.682 1027.63ZM755.68 1027.1L755.565 1025.1C757.284 1025 758.947 1024.9 760.551 1024.8L760.68 1026.79C759.071 1026.9 757.404 1027 755.68 1027.1ZM765.68 1026.45L765.534 1024.45C767.283 1024.33 768.944 1024.2 770.512 1024.06L770.682 1026.05C769.107 1026.19 767.438 1026.32 765.68 1026.45ZM775.685 1025.59L775.48 1023.6C777.315 1023.41 778.979 1023.21 780.422 1023.01L780.693 1025C779.228 1025.2 777.543 1025.4 775.685 1025.59ZM785.728 1024.11L785.259 1022.16C786.624 1021.83 787.1 1021.57 787.239 1021.48C787.283 1021.31 787.361 1020.9 787.417 1020L789.413 1020.12C789.346 1021.21 789.239 1021.88 789.068 1022.31C788.758 1023.09 787.79 1023.61 785.728 1024.11ZM453.981 1024.01C453.692 1022.61 453.379 1020.94 453.049 1019.04L455.02 1018.7C455.346 1020.58 455.655 1022.23 455.94 1023.61L453.981 1024.01ZM787.477 1015.08C787.456 1013.62 787.41 1011.95 787.342 1010.09L789.341 1010.02C789.409 1011.9 789.455 1013.58 789.477 1015.05L787.477 1015.08ZM452.232 1014.08C451.987 1012.53 451.735 1010.87 451.474 1009.12L453.453 1008.83C453.712 1010.57 453.964 1012.22 454.208 1013.77L452.232 1014.08ZM787.13 1005.1C787.055 1003.52 786.969 1001.86 786.873 1000.1L788.87 999.994C788.966 1001.75 789.052 1003.42 789.128 1005L787.13 1005.1ZM450.757 1004.16C450.532 1002.56 450.303 1000.91 450.07 999.192L452.051 998.922C452.284 1000.63 452.513 1002.28 452.738 1003.88L450.757 1004.16ZM786.585 995.11C786.489 993.502 786.385 991.838 786.275 990.119L788.271 989.992C788.381 991.713 788.484 993.381 788.581 994.991L786.585 995.11ZM449.404 994.228C449.191 992.616 448.975 990.959 448.758 989.262L450.741 989.008C450.959 990.701 451.174 992.356 451.387 993.966L449.404 994.228ZM785.949 985.13C785.841 983.507 785.727 981.843 785.609 980.142L787.604 980.003C787.722 981.706 787.836 983.372 787.944 984.997L785.949 985.13ZM448.127 984.297C447.923 982.673 447.717 981.017 447.509 979.33L449.494 979.086C449.701 980.771 449.907 982.425 450.111 984.047L448.127 984.297ZM785.258 975.153L784.896 970.167L786.891 970.021L787.253 975.011L785.258 975.153ZM446.903 974.363L446.307 969.395L448.293 969.159L448.888 974.123L446.903 974.363ZM784.527 965.181L784.15 960.196L786.144 960.044L786.522 965.031L784.527 965.181ZM445.721 964.427L445.143 959.457L447.13 959.229L447.708 964.195L445.721 964.427ZM783.767 955.211L783.378 950.228L785.372 950.072L785.761 955.057L783.767 955.211ZM444.573 954.487L444.01 949.516L445.997 949.293L446.56 954.26L444.573 954.487ZM782.983 945.245L782.585 940.262L784.578 940.102L784.977 945.087L782.983 945.245ZM443.455 944.547L442.906 939.575L444.894 939.356L445.443 944.326L443.455 944.547ZM782.182 935.28L781.775 930.298L783.768 930.134L784.175 935.118L782.182 935.28ZM442.363 934.604L441.826 929.633L443.814 929.418L444.351 934.389L442.363 934.604ZM781.364 925.314L780.95 920.333L782.943 920.167L783.357 925.15L781.364 925.314ZM441.296 924.66L440.771 919.687L442.76 919.478L443.285 924.449L441.296 924.66ZM780.534 915.353L780.114 910.371L782.107 910.203L782.527 915.186L780.534 915.353ZM440.252 914.715L439.738 909.741L441.727 909.537L442.241 914.508L440.252 914.715ZM779.69 905.39L779.265 900.409L781.258 900.239L781.683 905.22L779.69 905.39ZM439.231 904.78L438.728 899.808L440.718 899.607L441.22 904.577L439.231 904.78ZM778.837 895.415L778.406 890.431L780.398 890.259L780.829 895.243L778.837 895.415ZM438.228 894.825L437.733 889.832L439.723 889.637L440.218 894.628L438.228 894.825ZM777.974 885.457L777.541 880.492L779.533 880.318L779.966 885.283L777.974 885.457ZM437.247 884.855L436.765 879.878L438.756 879.687L439.238 884.662L437.247 884.855ZM777.105 875.513L776.667 870.533L778.659 870.357L779.097 875.338L777.105 875.513ZM436.289 874.901L435.818 869.922L437.809 869.734L438.28 874.711L436.289 874.901ZM776.227 865.553L775.785 860.573L777.777 860.395L778.219 865.376L776.227 865.553ZM435.353 864.943L434.894 859.964L436.885 859.78L437.344 864.759L435.353 864.943ZM775.341 855.594L774.895 850.614L776.887 850.436L777.333 855.417L775.341 855.594ZM434.441 854.984L433.995 850.004L435.987 849.826L436.433 854.805L434.441 854.984ZM774.448 845.635L773.999 840.656L775.991 840.476L776.44 845.455L774.448 845.635ZM433.556 845.021L433.123 840.04L435.115 839.868L435.548 844.847L433.556 845.021ZM773.55 835.675L773.098 830.696L775.09 830.514L775.542 835.494L773.55 835.675ZM432.697 835.054L432.28 830.07L434.273 829.904L434.69 834.886L432.697 835.054ZM772.645 825.717L772.19 820.736L774.181 820.554L774.637 825.535L772.645 825.717ZM431.872 825.085C431.736 823.404 431.602 821.741 431.472 820.098L433.466 819.94C433.596 821.584 433.729 823.245 433.865 824.923L431.872 825.085ZM771.734 815.754L771.276 810.774L773.267 810.59L773.725 815.572L771.734 815.754ZM431.084 815.111C430.954 813.425 430.828 811.761 430.706 810.121L432.7 809.973C432.823 811.611 432.948 813.273 433.078 814.957L431.084 815.111ZM770.818 805.79L770.357 800.807L772.348 800.623L772.809 805.606L770.818 805.79ZM430.34 805.129C430.218 803.435 430.101 801.77 429.988 800.137L431.983 799.998C432.096 801.631 432.213 803.294 432.335 804.986L430.34 805.129ZM769.895 795.826L769.431 790.839L771.422 790.653L771.886 795.64L769.895 795.826ZM429.652 795.141C429.541 793.435 429.435 791.769 429.336 790.144L431.332 790.021C431.432 791.644 431.537 793.308 431.648 795.01L429.652 795.141ZM768.966 785.849L768.498 780.856L770.489 780.668L770.957 785.663L768.966 785.849ZM429.042 785.143C428.945 783.417 428.856 781.748 428.776 780.138L430.773 780.038C430.853 781.644 430.942 783.309 431.038 785.031L429.042 785.143ZM428.546 775.128C428.472 773.362 428.412 771.688 428.364 770.11L430.363 770.049C430.411 771.619 430.471 773.286 430.544 775.044L428.546 775.128ZM762.708 773.813L757.717 773.429L757.869 771.435L762.863 771.819L762.708 773.813ZM752.718 773.053L747.723 772.68L747.871 770.686L752.868 771.059L752.718 773.053ZM742.731 772.311L737.741 771.944L737.887 769.95L742.88 770.317L742.731 772.311ZM732.751 771.581L727.761 771.218L727.906 769.224L732.896 769.587L732.751 771.581ZM722.773 770.857L717.784 770.498L717.927 768.504L722.916 768.863L722.773 770.857ZM712.797 770.139L707.809 769.784L707.951 767.79L712.939 768.145L712.797 770.139ZM702.822 769.429L697.834 769.076L697.976 767.082L702.964 767.436L702.822 769.429ZM692.848 768.722L687.861 768.371L688.002 766.377L692.988 766.728L692.848 768.722ZM682.873 768.024L677.887 767.674L678.027 765.68L683.013 766.028L682.873 768.024ZM672.901 767.328L667.914 766.982L668.053 764.986L673.039 765.332L672.901 767.328ZM662.928 766.637L657.942 766.293L658.08 764.297L663.066 764.641L662.928 766.637ZM652.955 765.951L647.968 765.61L648.105 763.614L653.092 763.955L652.955 765.951ZM642.983 765.27L637.996 764.931L638.132 762.935L643.119 763.274L642.983 765.27ZM428.254 765.088C428.245 764.335 428.241 763.615 428.241 762.929C428.241 761.895 428.251 760.937 428.272 760.059L430.271 760.106C430.251 760.97 430.241 761.913 430.241 762.929C430.241 763.608 430.245 764.32 430.254 765.065L428.254 765.088ZM633.01 764.594L628.023 764.258L628.158 762.262L633.144 762.598L633.01 764.594ZM623.036 763.924L618.049 763.591L618.183 761.595L623.169 761.928L623.036 763.924ZM613.063 763.26L608.076 762.929L608.209 760.933L613.196 761.264L613.063 763.26ZM603.09 762.6L598.084 762.272L598.215 760.276L603.221 760.604L603.09 762.6ZM593.085 761.946L588.095 761.622L588.224 759.626L593.215 759.95L593.085 761.946ZM583.114 761.301L578.14 760.982L578.268 758.986L583.243 759.305L583.114 761.301ZM573.153 760.664L568.165 760.348L568.291 758.352L573.28 758.668L573.153 760.664ZM563.178 760.033L558.19 759.72L558.315 757.724L563.304 758.037L563.178 760.033ZM553.202 759.411L548.214 759.104L548.336 757.108L553.325 757.415L553.202 759.411ZM543.224 758.799L538.236 758.497L538.356 756.501L543.345 756.803L543.224 758.799ZM533.247 758.198L528.258 757.902L528.376 755.906L533.366 756.202L533.247 758.198ZM523.268 757.61L518.279 757.321L518.393 755.324L523.385 755.614L523.268 757.61ZM513.288 757.035L508.297 756.754L508.408 754.757L513.401 755.038L513.288 757.035ZM503.307 756.478L498.316 756.207L498.423 754.21L503.416 754.481L503.307 756.478ZM493.323 755.942L488.331 755.683L488.434 753.686L493.429 753.945L493.323 755.942ZM483.339 755.43L478.345 755.186L478.441 753.188L483.439 753.433L483.339 755.43ZM430.613 755.268L428.639 754.942C428.851 753.66 429.143 752.992 429.648 752.638C429.988 752.399 430.581 752.131 433.321 751.982L433.429 753.979C431.737 754.07 431.09 754.2 430.858 754.266C430.805 754.394 430.71 754.683 430.613 755.268ZM473.35 754.952C471.645 754.874 469.979 754.799 468.355 754.728L468.442 752.73C470.068 752.801 471.735 752.876 473.442 752.954L473.35 754.952ZM463.36 754.518C461.639 754.448 459.972 754.383 458.363 754.324L458.437 752.325C460.048 752.385 461.717 752.45 463.441 752.52L463.36 754.518ZM453.363 754.151C451.61 754.094 449.942 754.046 448.364 754.006L448.415 752.007C449.997 752.047 451.67 752.095 453.428 752.152L453.363 754.151ZM443.364 753.903C441.769 753.879 440.304 753.866 438.978 753.866L438.37 753.867L438.365 751.867L438.978 751.866C440.314 751.866 441.789 751.879 443.395 751.903L443.364 753.903Z" fill="#FE8E9C"/>
<path d="M816.601 842.105C814.384 842.257 812.701 844.149 812.801 846.369C814.059 874.231 821.972 1041.9 830.233 1040.99C839.242 1039.99 1193.26 1047.54 1195.9 1041.1C1198.55 1034.65 1196.29 851.398 1186.38 837.563C1186.38 837.563 862.409 838.97 816.601 842.105Z" fill="#FC476A"/>
<path d="M781.475 688.849L790.618 775.067C790.618 775.067 781.948 683.929 798.553 678.527C798.553 678.527 786.852 678.312 781.475 688.849Z" fill="#FC476A"/>
<path d="M806.051 1066.92C806.051 1066.92 811.456 1059.71 811.5 1048.66C811.544 1037.6 810.35 1006.45 810.35 1006.45C810.35 1006.45 819.005 1059.91 811.991 1067.73L806.051 1066.92Z" fill="#FC476A"/>
<path d="M1120.73 1034.97L1115.73 1034.97L1115.73 1032.97L1120.73 1032.97V1034.97H1120.73ZM1125.73 1034.96L1125.73 1032.96L1130.73 1032.96L1130.73 1034.96L1125.73 1034.96ZM1110.72 1034.96L1105.72 1034.95L1105.72 1032.95L1110.73 1032.96L1110.72 1034.96ZM1135.74 1034.94L1135.73 1032.94L1140.73 1032.92L1140.74 1034.92L1135.74 1034.94ZM1100.71 1034.94L1095.71 1034.93L1095.72 1032.93L1100.72 1032.94L1100.71 1034.94ZM1090.7 1034.91L1085.7 1034.89L1085.71 1032.89L1090.71 1032.91L1090.7 1034.91ZM1145.74 1034.9L1145.73 1032.9C1147.44 1032.89 1149.11 1032.88 1150.73 1032.87L1150.74 1034.87C1149.12 1034.88 1147.45 1034.89 1145.74 1034.9ZM1080.7 1034.87L1075.69 1034.85L1075.7 1032.85L1080.7 1032.87L1080.7 1034.87ZM1070.69 1034.82L1065.68 1034.8L1065.69 1032.8L1070.7 1032.82L1070.69 1034.82ZM1155.75 1034.82L1155.73 1032.82C1157.46 1032.81 1159.12 1032.79 1160.73 1032.77L1160.75 1034.77C1159.15 1034.79 1157.48 1034.81 1155.75 1034.82ZM1060.68 1034.77L1055.67 1034.74L1055.69 1032.74L1060.69 1032.77L1060.68 1034.77ZM1050.67 1034.71L1045.67 1034.68L1045.68 1032.68L1050.68 1032.71L1050.67 1034.71ZM1165.76 1034.7L1165.72 1032.7C1167.49 1032.67 1169.16 1032.64 1170.72 1032.6L1170.76 1034.6C1169.2 1034.64 1167.53 1034.67 1165.76 1034.7ZM1040.66 1034.64L1035.66 1034.6L1035.67 1032.6L1040.68 1032.64L1040.66 1034.64ZM1030.66 1034.57L1025.65 1034.53L1025.67 1032.53L1030.67 1032.57L1030.66 1034.57ZM1020.65 1034.49L1015.63 1034.45L1015.64 1032.45L1020.66 1032.49L1020.65 1034.49ZM1175.77 1034.48L1175.71 1032.48C1177.62 1032.42 1179.28 1032.36 1180.69 1032.29L1180.79 1034.29C1179.37 1034.36 1177.69 1034.42 1175.77 1034.48ZM1010.61 1034.4L1005.6 1034.36L1005.62 1032.36L1010.63 1032.4L1010.61 1034.4ZM1000.6 1034.32L995.607 1034.27L995.626 1032.27L1000.62 1032.32L1000.6 1034.32ZM990.619 1034.23L985.616 1034.18L985.636 1032.18L990.64 1032.23L990.619 1034.23ZM980.611 1034.13L975.608 1034.08L975.627 1032.08L980.631 1032.13L980.611 1034.13ZM970.605 1034.03L965.601 1033.97L965.622 1031.97L970.625 1032.03L970.605 1034.03ZM960.597 1033.92L955.593 1033.87L955.615 1031.87L960.618 1031.92L960.597 1033.92ZM1185.92 1033.85L1185.55 1031.98C1185.52 1032.01 1185.51 1032.03 1185.51 1032.03C1185.51 1032.02 1185.53 1031.99 1185.54 1031.95L1185.53 1031.89C1185.55 1031.88 1185.56 1031.88 1185.57 1031.88C1185.68 1031.56 1185.89 1030.66 1186.08 1028.3L1188.08 1028.46C1187.76 1032.5 1187.3 1033.15 1186.83 1033.5C1186.63 1033.66 1186.36 1033.76 1185.92 1033.85ZM950.588 1033.81L945.585 1033.75L945.607 1031.75L950.611 1031.81L950.588 1033.81ZM940.58 1033.7L935.576 1033.64L935.599 1031.64L940.603 1031.7L940.58 1033.7ZM930.572 1033.58L925.568 1033.52L925.592 1031.52L930.596 1031.58L930.572 1033.58ZM920.564 1033.46L915.558 1033.39L915.584 1031.39L920.588 1031.46L920.564 1033.46ZM910.554 1033.33L905.548 1033.26L905.575 1031.26L910.58 1031.33L910.554 1033.33ZM900.543 1033.19L895.537 1033.12L895.565 1031.12L900.569 1031.19L900.543 1033.19ZM890.53 1033.05L885.524 1032.98L885.554 1030.98L890.56 1031.05L890.53 1033.05ZM880.516 1032.9L875.509 1032.82L875.54 1030.82L880.547 1030.9L880.516 1032.9ZM870.5 1032.74L865.489 1032.66L865.524 1030.66L870.532 1030.74L870.5 1032.74ZM860.477 1032.57L855.462 1032.47L855.502 1030.47L860.514 1030.57L860.477 1032.57ZM850.442 1032.36C848.433 1032.32 846.747 1032.27 845.411 1032.23L845.471 1030.23C846.804 1030.27 848.485 1030.32 850.489 1030.36L850.442 1032.36ZM840.194 1030.32C839.815 1029.28 839.437 1027.62 839.039 1025.24L841.012 1024.91C841.384 1027.13 841.742 1028.72 842.074 1029.64L840.194 1030.32ZM1188.34 1023.42L1186.34 1023.35C1186.39 1021.85 1186.43 1020.18 1186.45 1018.37L1188.45 1018.4C1188.43 1020.23 1188.39 1021.9 1188.34 1023.42ZM838.308 1020.23C838.109 1018.7 837.909 1017.02 837.709 1015.22L839.696 1015C839.895 1016.79 840.093 1018.45 840.291 1019.97L838.308 1020.23ZM1188.49 1013.39L1186.49 1013.38L1186.5 1011.8C1186.5 1010.7 1186.49 1009.56 1186.49 1008.38L1188.49 1008.37C1188.49 1009.55 1188.5 1010.69 1188.5 1011.8L1188.49 1013.39ZM837.182 1010.22C837.022 1008.62 836.862 1006.95 836.703 1005.22L838.694 1005.04C838.853 1006.76 839.012 1008.43 839.172 1010.02L837.182 1010.22ZM1186.45 1003.38C1186.43 1001.76 1186.41 1000.09 1186.38 998.376L1188.38 998.345C1188.41 1000.06 1188.43 1001.73 1188.45 1003.36L1186.45 1003.38ZM836.259 1000.22C836.119 998.596 835.98 996.928 835.841 995.218L837.834 995.056C837.973 996.762 838.112 998.428 838.251 1000.05L836.259 1000.22ZM1186.29 993.37C1186.26 991.734 1186.22 990.065 1186.19 988.366L1188.19 988.321C1188.23 990.022 1188.26 991.693 1188.29 993.331L1186.29 993.37ZM835.443 990.218C835.316 988.581 835.19 986.913 835.064 985.218L837.058 985.07C837.184 986.763 837.31 988.429 837.437 990.064L835.443 990.218ZM1186.07 983.361C1186.03 981.715 1185.98 980.047 1185.94 978.358L1187.93 978.301C1187.98 979.991 1188.03 981.662 1188.07 983.31L1186.07 983.361ZM834.699 980.217C834.581 978.571 834.464 976.903 834.347 975.217L836.342 975.078C836.459 976.763 836.576 978.43 836.694 980.074L834.699 980.217ZM1185.79 973.355C1185.74 971.703 1185.69 970.035 1185.64 968.353L1187.63 968.289C1187.69 969.973 1187.74 971.643 1187.79 973.295L1185.79 973.355ZM834.006 970.215L833.675 965.215L835.671 965.084L836.001 970.082L834.006 970.215ZM1185.47 963.35L1185.3 958.348L1187.3 958.276L1187.47 963.282L1185.47 963.35ZM833.352 960.214L833.038 955.213L835.034 955.088L835.348 960.087L833.352 960.214ZM1185.11 953.345L1184.92 948.36L1186.92 948.282L1187.11 953.271L1185.11 953.345ZM832.731 950.211L832.43 945.209L834.426 945.09L834.727 950.09L832.731 950.211ZM1184.72 943.363L1184.52 938.354L1186.52 938.27L1186.72 943.281L1184.72 943.363ZM832.135 940.191L831.845 935.187L833.842 935.073L834.131 940.074L832.135 940.191ZM1184.3 933.356L1184.08 928.355L1186.08 928.265L1186.3 933.268L1184.3 933.356ZM831.561 930.2L831.282 925.198L833.279 925.087L833.558 930.087L831.561 930.2ZM1183.85 923.354L1183.61 918.354L1185.61 918.256L1185.85 923.26L1183.85 923.354ZM831.007 920.195L830.737 915.191L832.734 915.084L833.004 920.086L831.007 920.195ZM1183.37 913.355L1183.11 908.357L1185.11 908.254L1185.37 913.256L1183.37 913.355ZM830.472 910.187L830.21 905.182L832.207 905.079L832.469 910.082L830.472 910.187ZM1182.85 903.359L1182.58 898.361L1184.58 898.25L1184.85 903.252L1182.85 903.359ZM829.951 900.177L829.697 895.171L831.694 895.069L831.948 900.075L829.951 900.177ZM1182.3 893.363C1182.2 891.669 1182.1 890.001 1182 888.365L1184 888.246C1184.1 889.884 1184.2 891.552 1184.29 893.248L1182.3 893.363ZM829.446 890.164L829.198 885.155L831.196 885.057L831.444 890.064L829.446 890.164ZM1181.7 883.368C1181.59 881.661 1181.48 879.994 1181.38 878.372L1183.37 878.239C1183.48 879.865 1183.59 881.534 1183.69 883.243L1181.7 883.368ZM828.954 880.145L828.713 875.132L830.711 875.036L830.952 880.047L828.954 880.145ZM1181.04 873.377C1180.92 871.648 1180.8 869.981 1180.68 868.383L1182.67 868.235C1182.79 869.836 1182.91 871.506 1183.03 873.239L1181.04 873.377ZM828.475 870.117L828.241 865.096L830.239 865.004L830.473 870.023L828.475 870.117ZM1180.29 863.391C1180.14 861.607 1180 859.941 1179.86 858.405L1181.85 858.221C1181.99 859.763 1182.14 861.437 1182.28 863.229L1180.29 863.391ZM828.011 860.067L827.784 854.999L829.782 854.911L830.009 859.978L828.011 860.067ZM831.172 854.774L830.72 852.827C831.926 852.547 833.627 852.266 835.777 851.994L836.028 853.978C833.946 854.242 832.312 854.51 831.172 854.774ZM840.988 853.435L840.798 851.445C842.338 851.298 844.012 851.152 845.811 851.008L845.969 853.002C844.182 853.144 842.519 853.29 840.988 853.435ZM1179.36 853.431C1179.12 851.295 1178.89 849.646 1178.68 848.53L1180.65 848.163C1180.87 849.328 1181.1 851.025 1181.35 853.209L1179.36 853.431ZM850.959 852.632L850.821 850.636C852.416 850.526 854.087 850.416 855.829 850.309L855.952 852.305C854.216 852.412 852.551 852.521 850.959 852.632ZM860.949 852.01L860.836 850.014C862.455 849.922 864.125 849.831 865.843 849.743L865.947 851.741C864.231 851.829 862.565 851.918 860.949 852.01ZM870.945 851.491L870.848 849.493C872.479 849.414 874.148 849.336 875.853 849.259L875.944 851.257C874.242 851.334 872.575 851.412 870.945 851.491ZM880.943 851.037L880.858 849.039L885.862 848.832L885.943 850.83L880.943 851.037ZM890.944 850.634L890.868 848.636L895.872 848.449L895.945 850.447L890.944 850.634ZM900.947 850.268L900.877 848.27L905.881 848.1L905.947 850.098L900.947 850.268ZM910.949 849.936L910.884 847.938L915.888 847.781L915.949 849.78L910.949 849.936ZM920.953 849.631L920.893 847.631L925.897 847.485L925.954 849.485L920.953 849.631ZM930.955 849.344L930.899 847.344L935.903 847.209L935.956 849.209L930.955 849.344ZM940.958 849.08L940.906 847.08L945.91 846.954L945.959 848.954L940.958 849.08ZM950.963 848.834L950.915 846.834L955.918 846.716L955.965 848.716L950.963 848.834ZM960.965 848.6L960.922 846.6L965.925 846.491L965.968 848.491L960.965 848.6ZM970.97 848.385L970.929 846.385L975.932 846.282L975.973 848.282L970.97 848.385ZM980.976 848.181L980.937 846.181L985.94 846.084L985.979 848.084L980.976 848.181ZM990.98 847.99L990.944 845.99L995.948 845.9L995.983 847.9L990.98 847.99ZM1000.99 847.811L1000.95 845.811L1005.97 845.726L1006 847.726L1000.99 847.811ZM1011.01 847.644L1010.98 845.644L1015.99 845.565L1016.02 847.565L1011.01 847.644ZM1021.01 847.489L1020.99 845.489L1025.97 845.416L1026 847.416L1021.01 847.489ZM1031.01 847.343L1030.98 845.343L1035.98 845.275L1036.01 847.275L1031.01 847.343ZM1041.01 847.211L1040.99 845.211L1045.99 845.148L1046.02 847.148L1041.01 847.211ZM1176.03 847.136C1174.79 847.061 1173.11 846.992 1171.06 846.929L1171.13 844.929C1173.2 844.992 1174.89 845.064 1176.15 845.14L1176.03 847.136ZM1051.02 847.088L1051 845.088L1056 845.03L1056.02 847.03L1051.02 847.088ZM1061.03 846.974L1061.01 844.974L1066.01 844.922L1066.03 846.922L1061.03 846.974ZM1071.03 846.874L1071.01 844.874L1076.02 844.828L1076.04 846.828L1071.03 846.874ZM1166.08 846.806C1164.53 846.776 1162.86 846.748 1161.08 846.723L1161.11 844.723C1162.9 844.748 1164.57 844.776 1166.11 844.806L1166.08 846.806ZM1081.04 846.785L1081.02 844.785L1086.03 844.745L1086.04 846.745L1081.04 846.785ZM1091.05 846.708L1091.03 844.708L1096.04 844.675L1096.05 846.675L1091.05 846.708ZM1156.08 846.663C1154.49 846.647 1152.82 846.633 1151.09 846.621L1151.1 844.621C1152.84 844.633 1154.51 844.647 1156.1 844.663L1156.08 846.663ZM1101.06 846.643L1101.05 844.643L1106.05 844.618L1106.06 846.618L1101.06 846.643ZM1111.07 846.597L1111.06 844.597L1116.07 844.578L1116.07 846.578L1111.07 846.597ZM1146.09 846.59L1141.09 846.571L1141.09 844.571L1146.1 844.59L1146.09 846.59ZM1121.08 846.565L1121.07 844.565L1126.08 844.557L1126.08 846.557L1121.08 846.565ZM1136.09 846.56L1131.09 846.556L1131.09 844.556L1136.09 844.56L1136.09 846.56Z" fill="#FE8E9C"/>
<path opacity="0.48" d="M452.265 776.51C452.265 776.51 463.523 1009.8 471.677 1013.73C479.831 1017.65 767.729 1023.69 772.514 1011.89C777.298 1000.08 764.376 791.194 754.43 785.742C744.484 780.29 451.633 763.88 452.265 776.51Z" fill="#FE8E9C"/>
<mask id="mask1_87_16" style="mask-type:luminance" maskUnits="userSpaceOnUse" x="452" y="771" width="322" height="248">
<path d="M452.265 776.51C452.265 776.51 463.523 1009.8 471.677 1013.73C479.831 1017.65 767.729 1023.69 772.514 1011.89C777.298 1000.08 764.376 791.194 754.43 785.742C744.484 780.29 451.633 763.88 452.265 776.51Z" fill="white"/>
</mask>
<g mask="url(#mask1_87_16)">
<path opacity="0.21" d="M522.021 762.722L439.297 895.463L451.068 972.442L539.68 867.568L470.274 1026.67L564.07 1029.54L638.452 856.902L595.364 1030.09L735.633 1027.08L777.047 863.493L776.105 768.529L745.515 766.942L704.045 929.286L725.383 764.371L616.869 758.145L571.238 880.275L602.365 757.702L522.021 762.722Z" fill="white"/>
</g>
<path d="M628.156 719.864C628.156 719.864 688.889 591.231 782.13 587.074C875.372 582.917 917.967 729.516 917.967 729.516L786.879 730.328L628.156 719.864Z" fill="#68A9FD"/>
<mask id="mask2_87_16" style="mask-type:luminance" maskUnits="userSpaceOnUse" x="628" y="586" width="290" height="145">
<path d="M628.156 719.864C628.156 719.864 688.889 591.231 782.13 587.074C875.372 582.917 917.967 729.516 917.967 729.516L786.879 730.328L628.156 719.864Z" fill="white"/>
</mask>
<g mask="url(#mask2_87_16)">
<path opacity="0.34" d="M746.775 583.77C746.775 583.77 778.037 655.746 795.486 671.014C812.935 686.282 929.26 702.276 929.26 702.276L932.168 746.002C932.168 746.002 767.859 733.356 746.775 734.901C725.691 736.446 612.903 722.633 612.903 722.633C612.903 722.633 639.174 652.838 652.261 640.478C665.347 628.119 746.775 583.77 746.775 583.77Z" fill="#6880E4"/>
</g>
<path d="M782.131 587.074C782.131 587.074 863.563 579.535 917.379 727.911C966.4 863.067 1170.31 1077.59 1206.25 1114.75C1209.49 1118.09 1214.47 1119.01 1218.69 1117.06C1239.78 1107.26 1301.47 1078.81 1305.19 1079.28C1309.69 1079.83 1354.67 943.155 1367.05 940.647C1379.42 938.138 1497.5 890.485 1498.62 879.449C1499.75 868.414 1257.19 604.138 1185.04 560.28C1112.89 516.422 789.867 576.757 782.131 587.074Z" fill="#7DB9F9"/>
<path d="M812.797 577.736C812.797 577.736 877.154 591.878 922.163 676.895C967.172 761.912 982.175 817.027 1051.36 895.325C1120.54 973.623 1208.56 1091.98 1224.15 1087.81C1239.73 1083.64 1289.16 1063.2 1290.82 1059.03C1292.49 1054.86 1329.42 936.286 1337.76 929.618C1346.09 922.95 1469.79 872.687 1468.12 869.45C1466.45 866.212 1260.56 630.22 1245.56 620.218C1230.56 610.216 1165.09 545.47 1114.91 545.167C1064.74 544.864 929.311 540.256 812.797 577.736Z" fill="#97C7FA"/>
<mask id="mask3_87_16" style="mask-type:luminance" maskUnits="userSpaceOnUse" x="812" y="544" width="657" height="544">
<path d="M812.797 577.736C812.797 577.736 877.154 591.878 922.163 676.895C967.172 761.912 982.175 817.027 1051.36 895.325C1120.54 973.623 1208.56 1091.98 1224.15 1087.81C1239.73 1083.64 1289.16 1063.2 1290.82 1059.03C1292.49 1054.86 1329.42 936.286 1337.76 929.618C1346.09 922.95 1469.79 872.687 1468.12 869.45C1466.45 866.212 1260.56 630.22 1245.56 620.218C1230.56 610.216 1165.09 545.47 1114.91 545.167C1064.74 544.864 929.311 540.256 812.797 577.736Z" fill="white"/>
</mask>
<g mask="url(#mask3_87_16)">
<path opacity="0.24" d="M1380.69 734.901L1293.59 1139.07L1122.3 1127.39L1162.07 846.698L1088.52 1018.81L984.81 891.644L1077.64 639.796L948.567 837.563L806.051 633.026L1008.12 530.306L1223.67 537.606L1284.98 606.219L1237.62 868.545L1312.07 633.026L1380.69 734.901Z" fill="#F6F9FF"/>
</g>
<path d="M1097.03 643.683C1076.39 660.93 1074.9 694.188 1080.33 718.58C1086 744.052 1099.88 768.79 1120.03 785.593C1140.55 802.7 1173.06 814.373 1198.2 800.248C1209.15 794.096 1217.12 783.321 1221.16 771.425C1233.46 735.161 1215.2 697.911 1190.28 671.83C1167.79 648.293 1133.07 618.017 1099.85 641.515C1098.87 642.206 1097.93 642.929 1097.03 643.683Z" fill="#68A9FD"/>
<path d="M708.047 585.419H198.249C191.595 585.419 185.465 580.025 184.558 573.37L140.025 246.527C139.118 239.873 143.778 234.478 150.432 234.478H660.23C666.884 234.478 673.014 239.873 673.921 246.527L718.454 573.37C719.361 580.025 714.701 585.419 708.047 585.419Z" fill="#F9C438"/>
<path d="M414.131 328.028H192.5C190.32 328.028 188.312 326.261 188.015 324.081L181.582 276.865C181.285 274.685 182.811 272.918 184.991 272.918H406.622C408.802 272.918 410.81 274.685 411.107 276.865L417.54 324.081C417.837 326.261 416.311 328.028 414.131 328.028Z" fill="#F6AB36"/>
<path d="M215.329 357.979L221.593 367.925C221.821 368.287 222.2 368.537 222.607 368.595L233.8 370.19C234.825 370.336 235.395 371.571 234.764 372.28L227.876 380.022C227.626 380.303 227.549 380.709 227.671 381.107L231.035 392.039C231.343 393.04 230.396 393.803 229.433 393.331L218.913 388.17C218.53 387.982 218.104 387.982 217.773 388.17L208.659 393.331C207.824 393.804 206.67 393.04 206.705 392.039L207.09 381.107C207.104 380.709 206.917 380.304 206.59 380.022L197.593 372.28C196.769 371.571 197.002 370.336 197.987 370.19L208.746 368.595C209.137 368.537 209.448 368.286 209.577 367.925L213.13 357.979C213.457 357.068 214.756 357.068 215.329 357.979Z" fill="#F6AB36"/>
<path d="M284.185 357.979L290.449 367.925C290.677 368.287 291.056 368.537 291.463 368.595L302.656 370.19C303.681 370.336 304.251 371.571 303.62 372.28L296.732 380.022C296.482 380.303 296.405 380.709 296.527 381.107L299.891 392.039C300.199 393.04 299.252 393.803 298.289 393.331L287.768 388.17C287.386 387.982 286.959 387.982 286.628 388.17L277.514 393.331C276.679 393.804 275.525 393.04 275.56 392.039L275.945 381.107C275.959 380.709 275.772 380.304 275.445 380.022L266.448 372.28C265.624 371.571 265.857 370.336 266.842 370.19L277.601 368.595C277.992 368.537 278.303 368.286 278.432 367.925L281.985 357.979C282.313 357.068 283.612 357.068 284.185 357.979Z" fill="#F6AB36"/>
<path d="M353.042 357.979L359.306 367.925C359.534 368.287 359.913 368.537 360.32 368.595L371.513 370.19C372.538 370.336 373.108 371.571 372.477 372.28L365.589 380.022C365.339 380.303 365.262 380.709 365.384 381.107L368.748 392.039C369.056 393.04 368.109 393.803 367.146 393.331L356.625 388.17C356.242 387.982 355.816 387.982 355.485 388.17L346.371 393.331C345.537 393.804 344.382 393.04 344.417 392.039L344.802 381.107C344.816 380.709 344.629 380.304 344.302 380.022L335.305 372.28C334.481 371.571 334.714 370.336 335.699 370.19L346.458 368.595C346.849 368.537 347.16 368.286 347.289 367.925L350.842 357.979C351.17 357.068 352.468 357.068 353.042 357.979Z" fill="#F6AB36"/>
<path d="M421.899 357.979L428.163 367.925C428.391 368.287 428.77 368.537 429.177 368.595L440.37 370.19C441.395 370.336 441.965 371.571 441.334 372.28L434.447 380.022C434.197 380.303 434.12 380.709 434.242 381.107L437.606 392.039C437.914 393.04 436.967 393.803 436.004 393.331L425.483 388.17C425.1 387.982 424.674 387.982 424.343 388.17L415.229 393.331C414.395 393.804 413.24 393.04 413.275 392.039L413.66 381.107C413.674 380.709 413.487 380.304 413.16 380.022L404.163 372.28C403.339 371.571 403.572 370.336 404.557 370.19L415.316 368.595C415.707 368.537 416.018 368.286 416.147 367.925L419.7 357.979C420.026 357.068 421.325 357.068 421.899 357.979Z" fill="#F6AB36"/>
<path d="M490.755 357.979L497.019 367.925C497.247 368.287 497.626 368.537 498.033 368.595L509.226 370.19C510.251 370.336 510.821 371.571 510.19 372.28L503.302 380.022C503.052 380.303 502.975 380.709 503.097 381.107L506.461 392.039C506.769 393.04 505.822 393.803 504.859 393.331L494.339 388.17C493.956 387.982 493.53 387.982 493.198 388.17L484.084 393.331C483.249 393.804 482.095 393.04 482.13 392.039L482.515 381.107C482.529 380.709 482.342 380.304 482.015 380.022L473.018 372.28C472.194 371.571 472.427 370.336 473.412 370.19L484.171 368.595C484.562 368.537 484.873 368.286 485.002 367.925L488.555 357.979C488.883 357.068 490.181 357.068 490.755 357.979Z" fill="white"/>
<path d="M613.663 447.031H207.811C206.13 447.031 204.582 445.668 204.353 443.987L201.873 425.784C201.644 424.103 202.821 422.741 204.502 422.741H610.354C612.035 422.741 613.583 424.104 613.812 425.784L616.292 443.987C616.521 445.669 615.344 447.031 613.663 447.031Z" fill="#F6AB36"/>
<path d="M619.219 487.807H213.366C211.685 487.807 210.137 486.444 209.908 484.764L207.428 466.562C207.199 464.881 208.376 463.518 210.057 463.518H615.909C617.59 463.518 619.138 464.881 619.367 466.562L621.847 484.764C622.077 486.445 620.9 487.807 619.219 487.807Z" fill="#F6AB36"/>
<path d="M425.459 528.583H220.183C217.806 528.583 215.616 526.656 215.292 524.278L213.156 508.598C212.832 506.22 214.497 504.293 216.874 504.293H422.15C424.527 504.293 426.717 506.22 427.041 508.598L429.177 524.278C429.501 526.656 427.837 528.583 425.459 528.583Z" fill="#F6AB36"/>
<path d="M1323.58 521.605H835.208C827.868 521.605 820.978 515.654 819.819 508.314L801.403 391.666C800.244 384.326 805.255 378.375 812.596 378.375H1300.97C1308.31 378.375 1315.2 384.326 1316.36 391.666L1334.77 508.314C1335.93 515.655 1330.92 521.605 1323.58 521.605Z" fill="#F9C438"/>
<path d="M876.517 446.724C872.662 443.989 869.799 439.786 869.053 435.063C867.751 426.819 873.379 420.136 881.623 420.136C889.867 420.136 897.605 426.819 898.906 435.063C899.652 439.786 898.116 443.989 895.125 446.724C910.225 450.324 923.371 462.159 928.503 476.993C932.376 469.628 933.92 460.723 932.405 451.127C928.404 425.783 904.615 405.238 879.271 405.238C853.927 405.238 836.626 425.783 840.627 451.127C842.142 460.723 846.497 469.628 852.696 476.993C853.146 462.16 862.553 450.324 876.517 446.724Z" fill="#F6AB36"/>
<path d="M893.761 497.016C909.509 497.016 922.147 489.08 928.504 476.993C923.372 462.16 910.226 450.324 895.126 446.724C898.117 443.989 899.653 439.786 898.907 435.063C897.606 426.819 889.868 420.136 881.624 420.136C873.38 420.136 867.753 426.819 869.054 435.063C869.8 439.786 872.662 443.989 876.518 446.724C862.554 450.324 853.146 462.159 852.697 476.993C862.869 489.08 878.013 497.016 893.761 497.016Z" fill="white"/>
<path d="M1279.56 443.405H988.154C984.649 443.405 981.36 440.564 980.807 437.059L976.286 408.425C975.733 404.92 978.125 402.079 981.63 402.079H1273.04C1276.54 402.079 1279.83 404.92 1280.38 408.425L1284.9 437.059C1285.46 440.564 1283.07 443.405 1279.56 443.405Z" fill="#F6AB36"/>
<path d="M1288.17 497.901H996.758C993.253 497.901 989.964 495.06 989.411 491.555L984.89 462.921C984.337 459.416 986.729 456.575 990.234 456.575H1281.64C1285.15 456.575 1288.44 459.416 1288.99 462.921L1293.51 491.555C1294.06 495.06 1291.67 497.901 1288.17 497.901Z" fill="#F6AB36"/>
<path d="M1019.53 424.415C1020.13 428.241 1017.52 431.342 1013.69 431.342C1009.87 431.342 1006.28 428.241 1005.67 424.415C1005.07 420.589 1007.68 417.488 1011.51 417.488C1015.33 417.488 1018.92 420.59 1019.53 424.415Z" fill="#F9C438"/>
<path d="M1053.31 424.415C1053.92 428.241 1051.31 431.342 1047.48 431.342C1043.66 431.342 1040.07 428.241 1039.46 424.415C1038.86 420.589 1041.47 417.488 1045.29 417.488C1049.12 417.488 1052.71 420.59 1053.31 424.415Z" fill="#F9C438"/>
<path d="M1087.1 424.415C1087.71 428.241 1085.1 431.342 1081.27 431.342C1077.44 431.342 1073.85 428.241 1073.25 424.415C1072.65 420.589 1075.26 417.488 1079.08 417.488C1082.91 417.489 1086.5 420.59 1087.1 424.415Z" fill="#F9C438"/>
<path d="M1120.89 424.415C1121.5 428.241 1118.88 431.342 1115.06 431.342C1111.23 431.342 1107.64 428.241 1107.04 424.415C1106.43 420.589 1109.05 417.488 1112.87 417.488C1116.7 417.489 1120.29 420.59 1120.89 424.415Z" fill="#F9C438"/>
<path d="M1154.68 424.415C1155.29 428.241 1152.67 431.342 1148.85 431.342C1145.02 431.342 1141.43 428.241 1140.83 424.415C1140.22 420.589 1142.84 417.488 1146.66 417.488C1150.49 417.489 1154.08 420.59 1154.68 424.415Z" fill="#F9C438"/>
<path d="M1188.47 424.415C1189.07 428.241 1186.46 431.342 1182.64 431.342C1178.81 431.342 1175.22 428.241 1174.62 424.415C1174.01 420.589 1176.63 417.488 1180.45 417.488C1184.28 417.488 1187.87 420.59 1188.47 424.415Z" fill="#F9C438"/>
<path d="M1222.26 424.415C1222.86 428.241 1220.25 431.342 1216.43 431.342C1212.6 431.342 1209.01 428.241 1208.41 424.415C1207.8 420.589 1210.41 417.488 1214.24 417.488C1218.06 417.488 1221.65 420.59 1222.26 424.415Z" fill="#F9C438"/>
<path d="M1256.05 424.415C1256.65 428.241 1254.04 431.342 1250.21 431.342C1246.39 431.342 1242.8 428.241 1242.19 424.415C1241.59 420.589 1244.2 417.488 1248.03 417.488C1251.85 417.488 1255.44 420.59 1256.05 424.415Z" fill="#F9C438"/>
<path d="M1027.87 477.239C1028.47 481.065 1025.86 484.166 1022.03 484.166C1018.21 484.166 1014.62 481.065 1014.01 477.239C1013.41 473.413 1016.02 470.312 1019.85 470.312C1023.67 470.312 1027.26 473.413 1027.87 477.239Z" fill="#F9C438"/>
<path d="M1061.65 477.239C1062.26 481.065 1059.65 484.166 1055.82 484.166C1052 484.166 1048.4 481.065 1047.8 477.239C1047.2 473.413 1049.81 470.312 1053.63 470.312C1057.46 470.312 1061.05 473.413 1061.65 477.239Z" fill="#F9C438"/>
<path d="M1095.44 477.239C1096.05 481.065 1093.43 484.166 1089.61 484.166C1085.78 484.166 1082.19 481.065 1081.59 477.239C1080.99 473.413 1083.6 470.312 1087.42 470.312C1091.25 470.312 1094.84 473.413 1095.44 477.239Z" fill="#F9C438"/>
<path d="M1129.23 477.239C1129.84 481.065 1127.22 484.166 1123.4 484.166C1119.57 484.166 1115.98 481.065 1115.38 477.239C1114.77 473.413 1117.39 470.312 1121.21 470.312C1125.04 470.312 1128.63 473.413 1129.23 477.239Z" fill="#F9C438"/>
<path d="M1163.02 477.239C1163.62 481.065 1161.01 484.166 1157.19 484.166C1153.36 484.166 1149.77 481.065 1149.17 477.239C1148.56 473.413 1151.18 470.312 1155 470.312C1158.83 470.312 1162.42 473.413 1163.02 477.239Z" fill="#F9C438"/>
<path d="M1196.81 477.239C1197.41 481.065 1194.8 484.166 1190.98 484.166C1187.15 484.166 1183.56 481.065 1182.96 477.239C1182.35 473.413 1184.96 470.312 1188.79 470.312C1192.61 470.312 1196.2 473.413 1196.81 477.239Z" fill="#F9C438"/>
<path d="M1230.6 477.239C1231.2 481.065 1228.59 484.166 1224.77 484.166C1220.94 484.166 1217.35 481.065 1216.75 477.239C1216.14 473.413 1218.75 470.312 1222.58 470.312C1226.4 470.312 1229.99 473.413 1230.6 477.239Z" fill="#F9C438"/>
<path d="M1264.39 477.239C1264.99 481.065 1262.38 484.166 1258.55 484.166C1254.73 484.166 1251.14 481.065 1250.53 477.239C1249.93 473.413 1252.54 470.312 1256.37 470.312C1260.19 470.312 1263.78 473.413 1264.39 477.239Z" fill="#F9C438"/>
<path d="M1154.37 290.19C1153.07 288.932 1152.48 287.126 1152.79 285.346C1156.05 266.324 1180.63 165.936 1249.12 135.349C1313.22 106.722 1391.51 50.1247 1402.37 43.9227C1413.22 37.7207 1433.03 113.642 1443.88 116.743C1454.74 119.844 1503.1 150.005 1507.46 161.744C1511.81 173.483 1348.49 228.383 1334.94 257.843C1321.39 287.303 1301.45 355.528 1293.59 358.629C1285.73 361.73 1222.91 344.674 1211.68 340.022C1201.83 335.945 1163.65 299.205 1154.37 290.19Z" fill="#7DB9F9"/>
<path d="M1162.29 282.271C1162.29 282.271 1186.78 191.915 1226.89 162.155C1267 132.394 1292.88 125.925 1322.21 107.809C1351.54 89.6937 1401.14 53.4637 1402.44 56.0507C1403.73 58.6387 1427.88 118.591 1431.76 120.748C1435.65 122.905 1498.19 158.272 1499.05 161.291C1499.91 164.31 1342.48 216.93 1328.25 247.554C1314.02 278.177 1295.04 348.913 1291.16 350.638C1287.27 352.363 1216.05 333.216 1211.3 330.197C1206.56 327.178 1158.44 283.15 1162.29 282.271Z" fill="#97C7FA"/>
<mask id="mask4_87_16" style="mask-type:luminance" maskUnits="userSpaceOnUse" x="1162" y="55" width="338" height="296">
<path d="M1162.29 282.271C1162.29 282.271 1186.78 191.915 1226.89 162.155C1267 132.394 1292.88 125.925 1322.21 107.809C1351.54 89.6937 1401.14 53.4637 1402.44 56.0507C1403.73 58.6387 1427.88 118.591 1431.76 120.748C1435.65 122.905 1498.19 158.272 1499.05 161.291C1499.91 164.31 1342.48 216.93 1328.25 247.554C1314.02 278.177 1295.04 348.913 1291.16 350.638C1287.27 352.363 1216.05 333.216 1211.3 330.197C1206.56 327.178 1158.44 283.15 1162.29 282.271Z" fill="white"/>
</mask>
<g mask="url(#mask4_87_16)">
<path opacity="0.24" d="M1388.74 47.5557L1429.3 221.542L1354.82 272.484L1333.69 160.464L1334.94 291.658L1314.26 359.003L1232.4 228.236L1271.25 366.88L1195.52 336.643L1166.76 212.749L1215.33 136.052L1276.63 211.725L1257.46 113.928L1330.56 67.4667L1360.72 141.952L1351.87 55.9197L1388.74 47.5557Z" fill="#F6F9FF"/>
</g>
<path d="M1297.52 156.982C1296.58 157.283 1295.67 157.596 1294.8 157.917C1280.22 163.299 1272.28 176.681 1271.32 191.854C1270.87 198.837 1272.5 206.078 1276.63 211.724C1281.6 218.514 1290.33 222.077 1298.62 221.476C1307.97 220.799 1315.03 212.721 1320.98 206.362C1326.69 200.267 1335.74 196.925 1338.98 188.726C1342.66 179.44 1340.88 167.559 1333.69 160.463C1324.04 150.942 1309.25 153.242 1297.52 156.982Z" fill="#68A9FD"/>
<path d="M605.231 1250.7C628.741 1250.7 647.799 1231.65 647.799 1208.14C647.799 1184.63 628.741 1165.57 605.231 1165.57C581.721 1165.57 562.663 1184.63 562.663 1208.14C562.663 1231.65 581.721 1250.7 605.231 1250.7Z" fill="#D4DFFF"/>
<path d="M744.9 1250.7C768.41 1250.7 787.468 1231.65 787.468 1208.14C787.468 1184.63 768.41 1165.57 744.9 1165.57C721.39 1165.57 702.332 1184.63 702.332 1208.14C702.332 1231.65 721.39 1250.7 744.9 1250.7Z" fill="#D4DFFF"/>
<path d="M884.568 1250.7C908.078 1250.7 927.136 1231.65 927.136 1208.14C927.136 1184.63 908.078 1165.57 884.568 1165.57C861.058 1165.57 842 1184.63 842 1208.14C842 1231.65 861.058 1250.7 884.568 1250.7Z" fill="#D4DFFF"/>
<path d="M1024.24 1250.7C1047.75 1250.7 1066.8 1231.65 1066.8 1208.14C1066.8 1184.63 1047.75 1165.57 1024.24 1165.57C1000.73 1165.57 981.668 1184.63 981.668 1208.14C981.668 1231.65 1000.73 1250.7 1024.24 1250.7Z" fill="#D4DFFF"/>
<path d="M2183.68 661.906C2190.27 654.3 2188.46 641.937 2179.63 634.292C2170.81 626.647 2158.31 626.616 2151.72 634.222C2145.13 641.829 2146.94 654.192 2155.77 661.836C2164.59 669.481 2177.09 669.512 2183.68 661.906Z" fill="#D4DFFF"/>
<path d="M2260.12 661.902C2266.71 654.295 2264.89 641.932 2256.07 634.288C2247.25 626.643 2234.75 626.612 2228.16 634.218C2221.57 641.824 2223.38 654.187 2232.21 661.832C2241.03 669.477 2253.53 669.508 2260.12 661.902Z" fill="#D4DFFF"/>
<path d="M2336.56 661.903C2343.15 654.297 2341.34 641.934 2332.51 634.289C2323.69 626.645 2311.19 626.614 2304.6 634.22C2298.01 641.826 2299.83 654.189 2308.65 661.834C2317.47 669.478 2329.97 669.51 2336.56 661.903Z" fill="#D4DFFF"/>
<path d="M2412.98 661.866C2419.57 654.26 2417.76 641.897 2408.93 634.253C2400.11 626.608 2387.61 626.577 2381.02 634.183C2374.43 641.789 2376.25 654.152 2385.07 661.797C2393.89 669.441 2406.39 669.473 2412.98 661.866Z" fill="#D4DFFF"/>
<path d="M2193.42 727.204C2200.01 719.598 2198.2 707.235 2189.37 699.59C2180.55 691.945 2168.05 691.914 2161.47 699.52C2154.88 707.127 2156.69 719.49 2165.51 727.135C2174.33 734.779 2186.83 734.81 2193.42 727.204Z" fill="#D4DFFF"/>
<path d="M2269.86 727.199C2276.45 719.593 2274.63 707.229 2265.81 699.585C2256.99 691.94 2244.49 691.909 2237.9 699.515C2231.31 707.121 2233.12 719.485 2241.95 727.129C2250.77 734.774 2263.27 734.805 2269.86 727.199Z" fill="#D4DFFF"/>
<path d="M2350.04 713.338C2351.65 724.122 2344.13 732.865 2333.23 732.867C2322.34 732.869 2312.2 724.128 2310.59 713.345C2308.98 702.561 2316.51 693.818 2327.4 693.816C2338.3 693.814 2348.43 702.555 2350.04 713.338Z" fill="#D4DFFF"/>
<path d="M2422.73 727.173C2429.32 719.567 2427.5 707.203 2418.68 699.559C2409.86 691.914 2397.36 691.883 2390.77 699.489C2384.18 707.095 2385.99 719.459 2394.82 727.103C2403.64 734.748 2416.14 734.779 2422.73 727.173Z" fill="#D4DFFF"/>
<path d="M2206.92 778.671C2208.53 789.455 2201 798.198 2190.11 798.2C2179.21 798.202 2169.08 789.461 2167.47 778.678C2165.86 767.894 2173.39 759.15 2184.28 759.149C2195.18 759.148 2205.31 767.888 2206.92 778.671Z" fill="#D4DFFF"/>
<path d="M2279.59 792.484C2286.18 784.878 2284.37 772.515 2275.55 764.87C2266.72 757.225 2254.23 757.194 2247.64 764.8C2241.05 772.407 2242.86 784.77 2251.68 792.414C2260.51 800.059 2273 800.09 2279.59 792.484Z" fill="#D4DFFF"/>
<path d="M2359.79 778.645C2361.4 789.429 2353.87 798.172 2342.98 798.174C2332.08 798.176 2321.95 789.435 2320.34 778.652C2318.73 767.868 2326.25 759.124 2337.15 759.123C2348.04 759.12 2358.18 767.861 2359.79 778.645Z" fill="#D4DFFF"/>
<path d="M2432.47 792.481C2439.06 784.875 2437.25 772.512 2428.43 764.867C2419.6 757.222 2407.11 757.191 2400.52 764.797C2393.93 772.403 2395.74 784.767 2404.56 792.411C2413.39 800.056 2425.88 800.087 2432.47 792.481Z" fill="#D4DFFF"/>
<path d="M2212.91 857.828C2219.5 850.222 2217.69 837.859 2208.87 830.214C2200.05 822.57 2187.55 822.539 2180.96 830.145C2174.37 837.751 2176.18 850.114 2185.01 857.759C2193.83 865.403 2206.33 865.434 2212.91 857.828Z" fill="#D4DFFF"/>
<path d="M2289.33 857.782C2295.92 850.176 2294.11 837.813 2285.29 830.168C2276.46 822.523 2263.97 822.492 2257.38 830.098C2250.79 837.705 2252.6 850.068 2261.42 857.712C2270.25 865.357 2282.74 865.388 2289.33 857.782Z" fill="#D4DFFF"/>
<path d="M2365.77 857.777C2372.36 850.171 2370.55 837.807 2361.72 830.163C2352.9 822.518 2340.41 822.487 2333.82 830.093C2327.23 837.699 2329.04 850.062 2337.86 857.707C2346.69 865.352 2359.18 865.383 2365.77 857.777Z" fill="#D4DFFF"/>
<path d="M2442.22 857.789C2448.81 850.182 2447 837.819 2438.17 830.175C2429.35 822.53 2416.85 822.499 2410.26 830.105C2403.67 837.711 2405.48 850.075 2414.31 857.719C2423.13 865.364 2435.63 865.395 2442.22 857.789Z" fill="#D4DFFF"/>
<path d="M125.677 811.348C126.796 818.846 121.562 824.926 113.987 824.927C106.412 824.928 99.3639 818.851 98.2449 811.353C97.1259 803.855 102.36 797.775 109.935 797.774C117.51 797.772 124.558 803.85 125.677 811.348Z" fill="#D4DFFF"/>
<path d="M176.213 820.968C180.794 815.679 179.535 807.083 173.4 801.768C167.265 796.452 158.577 796.431 153.995 801.719C149.413 807.008 150.672 815.604 156.807 820.92C162.943 826.235 171.631 826.256 176.213 820.968Z" fill="#D4DFFF"/>
<path d="M229.356 820.966C233.938 815.677 232.678 807.081 226.543 801.766C220.408 796.45 211.72 796.429 207.138 801.717C202.556 807.006 203.815 815.602 209.951 820.918C216.086 826.233 224.774 826.255 229.356 820.966Z" fill="#D4DFFF"/>
<path d="M285.114 811.32C286.233 818.818 280.999 824.898 273.424 824.899C265.849 824.9 258.801 818.823 257.682 811.325C256.563 803.827 261.797 797.747 269.372 797.746C276.947 797.745 283.995 803.822 285.114 811.32Z" fill="#D4DFFF"/>
<path d="M129.842 866.386C134.424 861.097 133.165 852.501 127.03 847.186C120.895 841.87 112.207 841.849 107.625 847.138C103.043 852.426 104.302 861.022 110.437 866.338C116.573 871.653 125.261 871.675 129.842 866.386Z" fill="#D4DFFF"/>
<path d="M185.599 856.747C186.718 864.245 181.484 870.325 173.909 870.326C166.334 870.327 159.286 864.25 158.167 856.752C157.048 849.254 162.282 843.174 169.857 843.173C177.432 843.171 184.48 849.249 185.599 856.747Z" fill="#D4DFFF"/>
<path d="M238.745 856.738C239.864 864.236 234.63 870.316 227.055 870.317C219.48 870.318 212.432 864.241 211.313 856.743C210.194 849.245 215.428 843.165 223.003 843.164C230.578 843.162 237.626 849.24 238.745 856.738Z" fill="#D4DFFF"/>
<path d="M289.28 866.357C293.862 861.069 292.603 852.473 286.467 847.157C280.332 841.842 271.644 841.82 267.062 847.109C262.48 852.398 263.74 860.994 269.875 866.309C276.01 871.625 284.698 871.646 289.28 866.357Z" fill="#D4DFFF"/>
<path d="M136.616 911.8C141.198 906.512 139.939 897.916 133.803 892.6C127.668 887.285 118.98 887.263 114.398 892.552C109.816 897.841 111.076 906.437 117.211 911.752C123.346 917.068 132.034 917.089 136.616 911.8Z" fill="#D4DFFF"/>
<path d="M192.375 902.155C193.494 909.653 188.26 915.733 180.685 915.734C173.11 915.735 166.062 909.658 164.943 902.16C163.824 894.662 169.058 888.582 176.633 888.581C184.208 888.58 191.256 894.657 192.375 902.155Z" fill="#D4DFFF"/>
<path d="M245.521 902.146C246.64 909.644 241.406 915.724 233.831 915.725C226.256 915.726 219.208 909.649 218.089 902.151C216.97 894.653 222.204 888.573 229.779 888.572C237.354 888.571 244.402 894.648 245.521 902.146Z" fill="#D4DFFF"/>
<path d="M296.052 911.78C300.634 906.491 299.375 897.895 293.239 892.58C287.104 887.264 278.416 887.243 273.834 892.531C269.252 897.82 270.512 906.416 276.647 911.732C282.782 917.047 291.47 917.069 296.052 911.78Z" fill="#D4DFFF"/>
<path d="M146.006 947.573C147.125 955.071 141.891 961.151 134.316 961.152C126.741 961.153 119.693 955.076 118.574 947.578C117.455 940.08 122.689 934 130.264 933.999C137.839 933.997 144.887 940.075 146.006 947.573Z" fill="#D4DFFF"/>
<path d="M196.544 957.186C201.126 951.897 199.867 943.301 193.732 937.985C187.596 932.67 178.909 932.649 174.327 937.937C169.745 943.226 171.004 951.822 177.139 957.137C183.274 962.453 191.962 962.474 196.544 957.186Z" fill="#D4DFFF"/>
<path d="M249.682 957.198C254.264 951.91 253.005 943.313 246.869 937.998C240.734 932.683 232.046 932.661 227.464 937.95C222.882 943.238 224.142 951.835 230.277 957.15C236.412 962.465 245.1 962.487 249.682 957.198Z" fill="#D4DFFF"/>
<path d="M305.443 947.545C306.562 955.043 301.328 961.123 293.753 961.124C286.178 961.125 279.13 955.048 278.011 947.55C276.892 940.052 282.126 933.972 289.701 933.971C297.276 933.969 304.324 940.047 305.443 947.545Z" fill="#D4DFFF"/>
<path d="M1871.48 1585.39C2074.07 1585.39 2238.3 1571.83 2238.3 1555.1C2238.3 1538.37 2074.07 1524.81 1871.48 1524.81C1668.9 1524.81 1504.67 1538.37 1504.67 1555.1C1504.67 1571.83 1668.9 1585.39 1871.48 1585.39Z" fill="#D4DFFF"/>
<path d="M1505.62 819.866C1505.62 819.866 1485.42 833.797 1484.13 834.056C1482.83 834.315 1426.98 833.654 1437.1 843.186C1439.77 845.702 1476.44 852.94 1476.44 852.94L1497.5 876.883L1509.01 868.076L1530.59 854.893L1505.62 819.866Z" fill="#FE8E9C"/>
<mask id="mask5_87_16" style="mask-type:luminance" maskUnits="userSpaceOnUse" x="1435" y="819" width="96" height="58">
<path d="M1505.62 819.866C1505.62 819.866 1485.42 833.797 1484.13 834.056C1482.83 834.315 1426.98 833.654 1437.1 843.186C1439.77 845.702 1476.44 852.94 1476.44 852.94L1497.5 876.883L1509.01 868.076L1530.59 854.893L1505.62 819.866Z" fill="white"/>
</mask>
<g mask="url(#mask5_87_16)">
<path d="M1476.44 852.94C1476.44 852.94 1505.53 860.533 1504.72 861.212C1503.91 861.891 1477.3 857.14 1476.89 856.868C1476.48 856.597 1476.44 852.94 1476.44 852.94Z" fill="#E57492"/>
</g>
<path d="M2047.55 1409.51L1942.28 974.85C1962.16 899.125 1980.06 808.207 1961.78 756.243L1759.38 766.802C1759.38 766.802 1736.42 869.085 1742.01 1018.06C1743.99 1070.89 1788.1 1441.48 1788.1 1441.48H1884.81C1884.81 1441.48 1879.61 1307.82 1877.21 1216.93L1957.92 1441.48L2047.55 1409.51Z" fill="#1B3D9E"/>
<mask id="mask6_87_16" style="mask-type:luminance" maskUnits="userSpaceOnUse" x="1741" y="756" width="307" height="686">
<path d="M2047.55 1409.51L1942.28 974.85C1962.16 899.125 1980.06 808.207 1961.78 756.243L1759.38 766.802C1759.38 766.802 1736.42 869.085 1742.01 1018.06C1743.99 1070.89 1788.1 1441.48 1788.1 1441.48H1884.81C1884.81 1441.48 1879.61 1307.82 1877.21 1216.93L1957.92 1441.48L2047.55 1409.51Z" fill="white"/>
</mask>
<g mask="url(#mask6_87_16)">
<path d="M2005.48 1426.14C2004.88 1426.14 2004.32 1425.79 2004.08 1425.2C1998.55 1411.23 1868.43 1082.74 1865.35 1053.14C1862.28 1023.63 1877.6 779.343 1878.26 768.959C1878.31 768.131 1879.06 767.499 1879.85 767.556C1880.67 767.608 1881.3 768.321 1881.25 769.147C1881.09 771.688 1865.29 1023.56 1868.34 1052.83C1871.37 1082.02 2005.52 1420.67 2006.87 1424.09C2007.18 1424.86 2006.8 1425.73 2006.03 1426.04C2005.85 1426.11 2005.66 1426.14 2005.48 1426.14Z" fill="#1C056D"/>
</g>
<mask id="mask7_87_16" style="mask-type:luminance" maskUnits="userSpaceOnUse" x="1741" y="756" width="307" height="686">
<path d="M2047.55 1409.51L1942.28 974.85C1962.16 899.125 1980.06 808.207 1961.78 756.243L1759.38 766.802C1759.38 766.802 1736.42 869.085 1742.01 1018.06C1743.99 1070.89 1788.1 1441.48 1788.1 1441.48H1884.81C1884.81 1441.48 1879.61 1307.82 1877.21 1216.93L1957.92 1441.48L2047.55 1409.51Z" fill="white"/>
</mask>
<g mask="url(#mask7_87_16)">
<path d="M1834.02 1448.89C1833.29 1448.89 1832.64 1448.35 1832.54 1447.61C1832.03 1444.07 1781.97 1093.38 1780.99 1060.96C1780.01 1028.6 1782.94 789.14 1782.97 786.725C1782.98 785.903 1783.65 785.244 1784.47 785.244C1784.47 785.244 1784.48 785.244 1784.49 785.244C1785.31 785.255 1785.98 785.934 1785.97 786.762C1785.94 789.176 1783.01 1028.57 1783.99 1060.87C1784.96 1093.12 1835 1443.65 1835.51 1447.18C1835.62 1448 1835.05 1448.76 1834.23 1448.88C1834.16 1448.89 1834.09 1448.89 1834.02 1448.89Z" fill="#1C056D"/>
</g>
<path d="M1968.93 795.302C1968.52 778.091 1961.37 752.584 1961.37 752.584C1961.37 752.584 1836.45 775.233 1809.68 771.953C1782.91 768.672 1759.38 766.802 1759.38 766.802L1756.73 782.397C1756.73 782.397 1774.59 800.578 1794.26 811.794L1794.22 811.776C1794.22 811.776 1802.81 929.941 1806.12 963.072C1809.43 996.202 1819.19 1036.51 1819.19 1036.51C1813.25 1011.04 1811.4 819.174 1811.4 819.174C1836.39 825.719 1968.93 795.302 1968.93 795.302Z" fill="#1C056D"/>
<path d="M1829.08 1090.7C1829.08 1090.7 1848.79 1275.12 1879.75 1300.78L1877.21 1216.93L1829.08 1090.7Z" fill="#1C056D"/>
<path d="M1871.17 355.676C1871.17 355.676 1954.03 413.405 1968.93 452.683C1983.84 491.962 1944.38 761.833 1944.38 761.833C1944.38 761.833 1778.1 784.192 1759.38 766.802C1740.66 749.412 1740 487.313 1744.06 462.47C1748.12 437.627 1796.94 364.899 1796.94 364.899L1871.17 355.676Z" fill="white"/>
<path d="M1796.94 364.899C1796.94 364.899 1737.51 422.112 1724.91 455.239C1724.21 457.088 1723.65 458.863 1723.26 460.547C1712.85 493.902 1656.48 673.602 1646.57 685.667C1635.65 698.97 1496.64 805.487 1498.62 809.204C1500.61 812.92 1545.31 879.235 1553.25 879.448C1560.22 879.635 1690.45 776.596 1722.09 751.477C1723.1 766.927 1724.56 776.379 1726.59 776.67C1737.83 778.274 1768.31 767.845 1768.31 767.845C1768.31 767.845 1783.6 519.18 1787.85 410.608C1789.06 379.914 1800.59 365.563 1796.94 364.899Z" fill="#7DB9F9"/>
<path d="M1606.68 595.965L1559.79 596.787C1558.09 596.817 1556.47 595.309 1556.17 593.419L1538.6 481.527C1538.3 479.637 1539.44 478.081 1541.14 478.051L1588.03 477.229C1589.73 477.199 1591.35 478.707 1591.65 480.597L1609.22 592.489C1609.52 594.379 1608.38 595.935 1606.68 595.965Z" fill="#6880E4"/>
<path d="M1629.86 573.124C1629.86 573.124 1611.97 561.401 1611.65 560.091C1611.32 558.782 1609.46 513.628 1596.92 512.581C1593.82 512.321 1598.12 541.051 1595.83 541.379C1593.54 541.706 1546.6 528.779 1544.98 529.912C1543.36 531.045 1544.28 541.288 1549.41 544.747C1549.41 544.747 1544.17 553.387 1548.54 557.596L1551.8 559.996C1551.8 559.996 1547.57 566.177 1550 569.739C1552.43 573.301 1555.02 574.272 1555.02 574.272C1555.02 574.272 1551.29 576.862 1552.1 581.395C1552.91 585.928 1555.13 589.919 1559.93 592.618C1564.73 595.318 1591.41 598.224 1591.41 598.224L1613 612.44L1629.86 573.124Z" fill="#FE8E9C"/>
<path d="M1978.83 446.669C1959.38 407.549 1918.72 362.926 1871.17 355.677C1871.17 355.677 1870.56 397.316 1869.59 439.121C1845.53 497.384 1803.14 597.145 1792.15 603.85C1776.57 613.359 1629.74 544.836 1629.74 544.836L1591.71 633.519C1591.71 633.519 1761.87 721.167 1815.14 731.071C1833.99 734.576 1860.6 712.606 1886.91 680.828C1895.67 737.993 1904.69 786.744 1907.68 786.744C1914.3 786.744 1989.84 771.629 1992.69 765.962C1995.54 760.293 2002.55 494.381 1978.83 446.669Z" fill="#7DB9F9"/>
<mask id="mask8_87_16" style="mask-type:luminance" maskUnits="userSpaceOnUse" x="1591" y="355" width="405" height="432">
<path d="M1978.83 446.669C1959.38 407.549 1918.72 362.926 1871.17 355.677C1871.17 355.677 1870.56 397.316 1869.59 439.121C1845.53 497.384 1803.14 597.145 1792.15 603.85C1776.57 613.359 1629.74 544.836 1629.74 544.836L1591.71 633.519C1591.71 633.519 1761.87 721.167 1815.14 731.071C1833.99 734.576 1860.6 712.606 1886.91 680.828C1895.67 737.993 1904.69 786.744 1907.68 786.744C1914.3 786.744 1989.84 771.629 1992.69 765.962C1995.54 760.293 2002.55 494.381 1978.83 446.669Z" fill="white"/>
</mask>
<g mask="url(#mask8_87_16)">
<path opacity="0.34" d="M1812.94 678.322C1779.17 678.322 1612.4 589.106 1605.04 585.16C1604.31 584.768 1604.04 583.859 1604.43 583.129C1604.82 582.399 1605.73 582.126 1606.46 582.516C1670.86 617.053 1797.42 680.851 1815.39 675.035C1824.81 671.998 1850.37 635.82 1885.52 575.776C1913.92 527.266 1940.38 476.973 1943.35 467.675C1943.61 466.886 1944.45 466.452 1945.24 466.703C1946.03 466.956 1946.46 467.8 1946.21 468.589C1943.19 478.03 1916.6 528.623 1888.11 577.291C1841.92 656.196 1823.57 675.549 1816.32 677.89C1815.41 678.181 1814.28 678.322 1812.94 678.322Z" fill="#6880E4"/>
</g>
<mask id="mask9_87_16" style="mask-type:luminance" maskUnits="userSpaceOnUse" x="1591" y="355" width="405" height="432">
<path d="M1978.83 446.669C1959.38 407.549 1918.72 362.926 1871.17 355.677C1871.17 355.677 1870.56 397.316 1869.59 439.121C1845.53 497.384 1803.14 597.145 1792.15 603.85C1776.57 613.359 1629.74 544.836 1629.74 544.836L1591.71 633.519C1591.71 633.519 1761.87 721.167 1815.14 731.071C1833.99 734.576 1860.6 712.606 1886.91 680.828C1895.67 737.993 1904.69 786.744 1907.68 786.744C1914.3 786.744 1989.84 771.629 1992.69 765.962C1995.54 760.293 2002.55 494.381 1978.83 446.669Z" fill="white"/>
</mask>
<g mask="url(#mask9_87_16)">
<path opacity="0.34" d="M1971.01 546.112C1970.85 546.112 1970.68 546.085 1970.52 546.029C1969.73 545.758 1969.32 544.904 1969.59 544.121C1969.73 543.723 1982.9 503.896 1943.79 469.256C1923.24 451.064 1904.24 444.24 1891.91 441.72C1878.57 438.991 1869.95 440.577 1869.87 440.594C1869.05 440.748 1868.27 440.217 1868.11 439.404C1867.96 438.591 1868.49 437.805 1869.3 437.648C1870.75 437.366 1905.3 431.166 1945.78 467.01C1967 485.806 1973.13 506.001 1974.53 519.632C1976.06 534.442 1972.57 544.677 1972.43 545.106C1972.21 545.724 1971.63 546.112 1971.01 546.112Z" fill="#6880E4"/>
</g>
<path opacity="0.34" d="M1886.91 680.827C1886.91 680.827 1967.62 556.782 1978.83 525.129C1978.83 525.129 1911.39 695.293 1892.36 715.061L1886.91 680.827Z" fill="#6880E4"/>
<path d="M1779.39 473.453C1779.39 477.067 1776.46 479.997 1772.84 479.997C1769.23 479.997 1766.3 477.067 1766.3 473.453C1766.3 469.839 1769.23 466.909 1772.84 466.909C1776.46 466.909 1779.39 469.839 1779.39 473.453Z" fill="white"/>
<path d="M1774.77 525.129C1774.77 528.743 1771.84 531.673 1768.22 531.673C1764.61 531.673 1761.68 528.743 1761.68 525.129C1761.68 521.515 1764.61 518.585 1768.22 518.585C1771.84 518.585 1774.77 521.515 1774.77 525.129Z" fill="white"/>
<path d="M1774.77 576.805C1774.77 580.419 1771.84 583.349 1768.22 583.349C1764.61 583.349 1761.68 580.419 1761.68 576.805C1761.68 573.191 1764.61 570.261 1768.22 570.261C1771.84 570.261 1774.77 573.191 1774.77 576.805Z" fill="white"/>
<path opacity="0.34" d="M1728.32 583.38C1728.97 561.402 1732.19 450.816 1731.55 452.708C1730.85 454.809 1712.11 580.776 1712.11 580.776L1728.21 587.166C1728.21 587.166 1748.23 595.953 1778.24 602.934L1779.19 582.257C1779.19 582.257 1762.69 593.48 1728.32 583.38Z" fill="#6880E4"/>
<path opacity="0.34" d="M1722.09 696.321L1655.66 665.316C1655.66 665.316 1708.57 697.2 1707.14 702.528C1705.71 707.857 1704.81 765.167 1704.81 765.167L1722.09 751.477V713.456L1771.52 738.83L1773.77 718.017L1722.09 696.321Z" fill="#6880E4"/>
<path d="M1843.16 197.877C1833.98 187.611 1801.11 176.961 1774.97 182.56C1760.23 185.716 1748.96 197.66 1746.15 212.47C1739.78 245.99 1727.46 325.021 1751.35 331.596C1762 334.524 1774.35 331.688 1786.14 326.175C1789.09 346.399 1799.91 392.336 1801.81 398.468C1804.48 407.086 1876.84 368.924 1871.17 355.677C1867.32 346.699 1831.46 287.43 1831.46 287.43C1836.76 273.553 1855.95 212.16 1843.16 197.877Z" fill="#FE8E9C"/>
<mask id="mask10_87_16" style="mask-type:luminance" maskUnits="userSpaceOnUse" x="1737" y="181" width="135" height="219">
<path d="M1843.16 197.877C1833.98 187.611 1801.11 176.961 1774.97 182.56C1760.23 185.716 1748.96 197.66 1746.15 212.47C1739.78 245.99 1727.46 325.021 1751.35 331.596C1762 334.524 1774.35 331.688 1786.14 326.175C1789.09 346.399 1799.91 392.336 1801.81 398.468C1804.48 407.086 1876.84 368.924 1871.17 355.677C1867.32 346.699 1831.46 287.43 1831.46 287.43C1836.76 273.553 1855.95 212.16 1843.16 197.877Z" fill="white"/>
</mask>
<g mask="url(#mask10_87_16)">
<path d="M1739.92 232.663C1740.85 232.43 1759.73 226.86 1764.05 221.305C1764.05 221.305 1769.96 226.845 1780.63 224.157C1791.3 221.469 1811.01 207.79 1811.01 207.79C1811.01 207.79 1811.96 230.385 1823.14 235.779C1823.14 235.779 1822.66 198.647 1818.56 197.169C1814.45 195.691 1739.35 198.318 1737.25 204.065C1735.15 209.811 1739.92 232.663 1739.92 232.663Z" fill="#E57492"/>
</g>
<path d="M1746.16 287.986C1746.16 287.986 1757.89 297.038 1774.42 283.676C1774.42 283.676 1773.57 296.668 1762.02 298.731C1746.8 301.453 1746.16 287.986 1746.16 287.986Z" fill="white"/>
<path d="M1770.82 224.157C1770.82 224.157 1742.1 262.713 1748.39 266.839C1754.67 270.965 1774.71 261.667 1774.71 261.667C1774.49 264.426 1772.67 266.792 1770.06 267.712C1762.5 270.375 1747.84 274.908 1744.7 268.879C1739.19 258.284 1770.82 224.157 1770.82 224.157Z" fill="#E57492"/>
<path d="M1786.14 326.174C1786.14 326.174 1809.79 309.752 1817.51 299.899C1817.51 299.899 1811.17 333.407 1789.14 342.991L1786.14 326.174Z" fill="#E57492"/>
<path d="M1814.65 203.788C1815.4 198.948 1784.71 216.072 1764.44 215.913C1763.45 215.905 1762.26 215.755 1761.85 214.854C1761.62 214.334 1761.74 213.73 1761.89 213.18C1762.65 210.382 1764.03 207.753 1765.9 205.534C1756.78 214.233 1745.94 221.124 1734.19 225.693C1731.16 226.874 1727.99 227.914 1724.73 227.882C1721.48 227.85 1718.08 226.586 1716.19 223.936C1714.81 222.011 1714.35 219.582 1714.15 217.224C1713.12 205.366 1717.76 193.337 1725.74 184.506C1733.72 175.675 1744.82 169.947 1756.47 167.49C1749.45 174.82 1738.79 180.541 1728.72 181.741C1727.03 181.942 1725.24 182.03 1723.7 181.296C1720.06 179.549 1719.85 174.437 1720.73 170.489C1722.7 161.695 1727.47 153.549 1734.16 147.517C1740.14 142.13 1747.49 138.492 1754.98 135.555C1762.06 132.783 1769.4 130.562 1776.96 129.827C1801.84 127.41 1827.38 143.163 1836.39 166.477C1837.16 162.058 1841.73 158.932 1846.22 158.951C1850.7 158.97 1854.87 161.619 1857.66 165.137C1860.44 168.655 1862.01 172.969 1863.24 177.284C1868.65 196.336 1868.02 216.945 1862.2 235.876C1856.38 254.808 1845.52 273.481 1831.46 287.429C1831.46 287.429 1826.9 257.684 1828.15 253.303C1828.15 253.303 1846.92 243.602 1841.92 227.329C1836.91 211.056 1823.14 235.778 1823.14 235.778C1823.14 235.778 1812.87 215.233 1814.65 203.788Z" fill="#1B3D9E"/>
<path d="M1809.62 1441.48L1814.64 1485.08C1814.64 1485.08 1835.22 1497.63 1846.77 1496.63C1858.31 1495.62 1866.85 1483.07 1866.85 1483.07V1441.48H1809.62Z" fill="#FE8E9C"/>
<path d="M1814.57 1484.51C1814.57 1484.51 1712.52 1534.97 1710.37 1540.71C1708.83 1544.82 1707.65 1553.71 1707.11 1558.43C1706.93 1560.03 1708.24 1561.4 1709.85 1561.29C1732.88 1559.63 1877.73 1549.08 1880.37 1546.44C1883.24 1543.57 1878.22 1495.16 1876.42 1491.57C1874.63 1487.98 1866.84 1483.07 1866.84 1483.07C1866.84 1483.07 1845.32 1505.28 1814.57 1484.51Z" fill="#1B3D9E"/>
<mask id="mask11_87_16" style="mask-type:luminance" maskUnits="userSpaceOnUse" x="1707" y="1483" width="175" height="79">
<path d="M1814.57 1484.51C1814.57 1484.51 1712.52 1534.97 1710.37 1540.71C1708.83 1544.82 1707.65 1553.71 1707.11 1558.43C1706.93 1560.03 1708.24 1561.4 1709.85 1561.29C1732.88 1559.63 1877.73 1549.08 1880.37 1546.44C1883.24 1543.57 1878.22 1495.16 1876.42 1491.57C1874.63 1487.98 1866.84 1483.07 1866.84 1483.07C1866.84 1483.07 1845.32 1505.28 1814.57 1484.51Z" fill="white"/>
</mask>
<g mask="url(#mask11_87_16)">
<path d="M1737.91 1522.18C1737.91 1522.18 1752.27 1527.66 1756.86 1549C1756.86 1549 1882.08 1536.63 1882.88 1537.63C1883.67 1538.63 1885.27 1548 1882.68 1548.6C1880.09 1549.2 1713.39 1565.75 1709 1564.15C1704.62 1562.56 1703.62 1562.96 1703.62 1559.76C1703.62 1556.57 1706.01 1538.63 1708.6 1536.44C1711.2 1534.24 1737.91 1522.18 1737.91 1522.18Z" fill="#1C056D"/>
</g>
<mask id="mask12_87_16" style="mask-type:luminance" maskUnits="userSpaceOnUse" x="1707" y="1483" width="175" height="79">
<path d="M1814.57 1484.51C1814.57 1484.51 1712.52 1534.97 1710.37 1540.71C1708.83 1544.82 1707.65 1553.71 1707.11 1558.43C1706.93 1560.03 1708.24 1561.4 1709.85 1561.29C1732.88 1559.63 1877.73 1549.08 1880.37 1546.44C1883.24 1543.57 1878.22 1495.16 1876.42 1491.57C1874.63 1487.98 1866.84 1483.07 1866.84 1483.07C1866.84 1483.07 1845.32 1505.28 1814.57 1484.51Z" fill="white"/>
</mask>
<g mask="url(#mask12_87_16)">
<path d="M1838.86 1504.87C1831.75 1504.87 1824.08 1502.23 1816.5 1497.16C1810.07 1492.85 1806.02 1488.38 1805.85 1488.19L1807.33 1486.85C1807.49 1487.03 1823.47 1504.54 1841.44 1502.74C1859.53 1500.93 1874.31 1485.75 1874.45 1485.6L1875.9 1486.99C1875.28 1487.63 1860.48 1502.85 1841.64 1504.73C1840.73 1504.82 1839.8 1504.87 1838.86 1504.87Z" fill="#1C056D"/>
</g>
<path d="M1795.66 1493.96C1795.66 1493.96 1781.94 1471.22 1764.31 1469.08C1746.68 1466.94 1738.83 1480.54 1744.14 1489.67C1749.45 1498.8 1791.71 1496.68 1791.71 1496.68C1791.71 1496.68 1751.22 1490.76 1749.72 1486.12C1748.21 1481.47 1752.98 1472.93 1758.51 1472.93C1764.04 1472.93 1795.66 1493.96 1795.66 1493.96Z" fill="#1C056D"/>
<path d="M1794.17 1495.64C1794.17 1495.64 1796.06 1464.66 1807.41 1461.78C1818.75 1458.9 1823.32 1463.13 1826.2 1476.51C1829.08 1489.88 1795.66 1496.68 1795.66 1496.68C1795.66 1496.68 1821.57 1482.39 1821.97 1478.8C1822.36 1475.21 1817.63 1464.81 1814.72 1464.81C1811.8 1464.81 1803.68 1466.42 1802.74 1469.08C1801.79 1471.74 1796.62 1494.59 1794.17 1495.64Z" fill="#1C056D"/>
<path d="M1860 1526.43C1861.4 1520.5 1857.73 1514.56 1851.8 1513.16C1845.88 1511.76 1839.94 1515.43 1838.54 1521.36C1837.14 1527.29 1840.81 1533.23 1846.73 1534.63C1852.66 1536.03 1858.6 1532.36 1860 1526.43Z" fill="#1C056D"/>
<path d="M1973.5 1428.99L1992.43 1468.6C1992.43 1468.6 2015.97 1473.77 2026.56 1469.07C2037.16 1464.37 2041.15 1449.72 2041.15 1449.72L2029.53 1415.94L1973.5 1428.99Z" fill="#FE8E9C"/>
<path d="M1992.18 1468.08C1992.18 1468.08 1912.08 1548.97 1911.91 1555.1C1911.79 1559.49 1913.57 1568.28 1914.59 1572.92C1914.94 1574.49 1916.63 1575.36 1918.11 1574.73C1939.35 1565.67 2072.9 1508.61 2074.54 1505.25C2076.32 1501.61 2055.83 1457.45 2052.97 1454.64C2050.11 1451.83 2041.15 1449.72 2041.15 1449.72C2041.15 1449.72 2028.01 1477.73 1992.18 1468.08Z" fill="#1B3D9E"/>
<mask id="mask13_87_16" style="mask-type:luminance" maskUnits="userSpaceOnUse" x="1911" y="1449" width="164" height="126">
<path d="M1992.18 1468.08C1992.18 1468.08 1912.08 1548.97 1911.91 1555.1C1911.79 1559.49 1913.57 1568.28 1914.59 1572.92C1914.94 1574.49 1916.63 1575.36 1918.11 1574.73C1939.35 1565.67 2072.9 1508.61 2074.54 1505.25C2076.32 1501.61 2055.83 1457.45 2052.97 1454.64C2050.11 1451.83 2041.15 1449.72 2041.15 1449.72C2041.15 1449.72 2028.01 1477.73 1992.18 1468.08Z" fill="white"/>
</mask>
<g mask="url(#mask13_87_16)">
<path d="M1931.94 1528.63C1931.94 1528.63 1947.29 1529.14 1958.57 1547.82C1958.57 1547.82 2072.97 1495.42 2074.04 1496.1C2075.12 1496.79 2079.68 1505.13 2077.42 1506.54C2075.16 1507.95 1922.91 1577.8 1918.24 1577.71C1913.57 1577.63 1912.76 1578.33 1911.72 1575.32C1910.68 1572.3 1907.11 1554.55 1908.85 1551.63C1910.59 1548.72 1931.94 1528.63 1931.94 1528.63Z" fill="#1C056D"/>
</g>
<mask id="mask14_87_16" style="mask-type:luminance" maskUnits="userSpaceOnUse" x="1911" y="1449" width="164" height="126">
<path d="M1992.18 1468.08C1992.18 1468.08 1912.08 1548.97 1911.91 1555.1C1911.79 1559.49 1913.57 1568.28 1914.59 1572.92C1914.94 1574.49 1916.63 1575.36 1918.11 1574.73C1939.35 1565.67 2072.9 1508.61 2074.54 1505.25C2076.32 1501.61 2055.83 1457.45 2052.97 1454.64C2050.11 1451.83 2041.15 1449.72 2041.15 1449.72C2041.15 1449.72 2028.01 1477.73 1992.18 1468.08Z" fill="white"/>
</mask>
<g mask="url(#mask14_87_16)">
<path d="M2010.75 1481.16C2006.77 1481.16 2002.53 1480.58 1998.12 1479.41C1990.64 1477.43 1985.35 1474.51 1985.13 1474.39L1986.1 1472.64C1986.3 1472.76 2007.13 1484.11 2023.52 1476.58C2040.04 1468.99 2049.07 1449.83 2049.16 1449.64L2050.98 1450.48C2050.6 1451.29 2041.55 1470.49 2024.35 1478.4C2020.35 1480.24 2015.75 1481.16 2010.75 1481.16Z" fill="#1C056D"/>
</g>
<path d="M1977.37 1483.16C1977.37 1483.16 1957 1466.12 1939.64 1469.82C1922.27 1473.53 1919.26 1488.94 1927.25 1495.85C1935.24 1502.76 1974.52 1487.02 1974.52 1487.02C1974.52 1487.02 1934.31 1494.59 1931.37 1490.68C1928.43 1486.78 1930.17 1477.15 1935.4 1475.35C1940.63 1473.55 1977.37 1483.16 1977.37 1483.16Z" fill="#1C056D"/>
<path d="M1976.5 1485.23C1976.5 1485.23 1968.22 1455.32 1978.01 1448.91C1987.81 1442.5 1993.51 1445.01 2000.58 1456.73C2007.65 1468.44 1978.26 1485.74 1978.26 1485.74C1978.26 1485.74 1998.11 1463.8 1997.32 1460.27C1996.52 1456.75 1988.67 1448.45 1985.91 1449.4C1983.15 1450.35 1976 1454.51 1975.97 1457.33C1975.95 1460.16 1978.48 1483.45 1976.5 1485.23Z" fill="#1C056D"/>
<path d="M2048.16 1490.28C2050.14 1496.04 2047.07 1502.32 2041.31 1504.3C2035.55 1506.28 2029.28 1503.21 2027.3 1497.45C2025.32 1491.69 2028.38 1485.42 2034.14 1483.44C2039.9 1481.46 2046.18 1484.52 2048.16 1490.28Z" fill="#1C056D"/>
<path d="M875.344 1607.18C1140.95 1607.18 1356.26 1586.64 1356.26 1561.29C1356.26 1535.95 1140.95 1515.41 875.344 1515.41C609.741 1515.41 394.428 1535.95 394.428 1561.29C394.428 1586.64 609.741 1607.18 875.344 1607.18Z" fill="#D4DFFF"/>
<path d="M1493.82 251.883C1512.66 255.492 1555.57 264.642 1567.92 269.888C1572.9 272.003 1583.78 279.877 1607.31 305.384C1614.77 313.47 1635.42 338.394 1639.09 342.643C1643.63 347.882 1638.13 345.373 1622.05 360.122C1619.89 362.101 1616.57 364.225 1615.51 365.359C1614.5 370.263 1610.8 386.127 1610.64 386.838L1609.13 393.313L1603.49 389.781C1599.33 387.17 1592.09 381.604 1583.7 375.159C1568.13 363.195 1544.61 345.115 1536.7 343.601C1533.34 342.958 1525.63 341.744 1516.71 340.338C1501.82 337.994 1483.29 335.075 1469.62 332.457C1464 331.382 1459.78 330.468 1456.7 329.663C1452.36 328.526 1449.21 327.494 1448.17 324.543C1447.57 322.837 1447.91 320.993 1449.09 319.608C1452.21 315.937 1466.01 297.432 1467.71 293.321C1468.13 291.979 1468.46 286.452 1468.73 282.006C1469.06 276.542 1469.43 270.35 1470.17 265.026C1471.2 257.591 1472.72 253.488 1475.23 251.308C1476.68 250.056 1478.49 249.45 1480.32 249.603C1482.65 249.797 1488.94 250.95 1493.82 251.883Z" fill="#7DB9F9"/>
<path d="M1606.02 385.759C1593.7 378.037 1550.9 341.488 1537.59 338.939C1524.28 336.39 1449.9 325.977 1452.71 322.682C1455.51 319.387 1470.09 300.104 1472.13 295.057C1474.16 290.01 1472.84 253.741 1479.93 254.332C1487.01 254.923 1551.19 267.937 1566.07 274.256C1580.95 280.575 1629.92 336.781 1631.91 342.484C1633.9 348.187 1611.71 360.029 1611 363.725C1610.29 367.421 1606.02 385.759 1606.02 385.759Z" fill="#97C7FA"/>
<mask id="mask15_87_16" style="mask-type:luminance" maskUnits="userSpaceOnUse" x="1452" y="254" width="181" height="132">
<path d="M1606.02 385.759C1593.7 378.037 1550.9 341.488 1537.59 338.939C1524.28 336.39 1449.9 325.977 1452.71 322.682C1455.51 319.387 1470.09 300.104 1472.13 295.057C1474.16 290.01 1472.84 253.741 1479.93 254.332C1487.01 254.923 1551.19 267.937 1566.07 274.256C1580.95 280.575 1629.92 336.781 1631.91 342.484C1633.9 348.187 1611.71 360.029 1611 363.725C1610.29 367.421 1606.02 385.759 1606.02 385.759Z" fill="white"/>
</mask>
<g mask="url(#mask15_87_16)">
<path opacity="0.24" d="M1583.83 371.807C1583.83 371.807 1637.96 341.323 1637.12 340.323C1636.28 339.323 1622.67 316.084 1617.58 317.146C1612.5 318.208 1575.79 334.651 1575.79 334.651C1575.79 334.651 1607.68 311.764 1607.49 308.574C1607.31 305.384 1586.05 282.056 1581.38 282.678C1576.72 283.3 1550.69 300.291 1550.69 300.291C1550.69 300.291 1564.86 266.622 1557.62 264.103C1550.38 261.584 1527.32 257.357 1527.32 257.357C1527.32 257.357 1457.72 331.931 1459.55 333.23C1461.39 334.529 1495.71 341.291 1497.71 340.727C1499.71 340.163 1533.08 310.369 1533.08 310.369C1533.08 310.369 1514.3 343.146 1516.94 345.168C1519.58 347.19 1547.63 354.077 1548.47 354.617C1549.32 355.158 1587.45 342.001 1587.45 342.001C1587.45 342.001 1566.8 359.832 1570.36 362.977C1573.93 366.122 1583.83 371.807 1583.83 371.807Z" fill="#F6F9FF"/>
</g>
<path d="M1528.81 307.738C1530.26 300.155 1539.38 295.53 1549.19 297.407C1558.99 299.284 1572.79 311.17 1565.64 320.591C1560.97 326.742 1551.41 321.524 1541.61 319.647C1531.81 317.77 1527.35 315.32 1528.81 307.738Z" fill="#7DB9F9"/>
</svg>
